# Converted to Y-up (forward=+Z) with generated flat normals (v5)
mtllib road.mtl
usemtl road
v 0.880000 0.250000 -0.880000
v -0.880000 0.250000 -0.880000
v -0.880000 0.250000 1.000000
v 0.880000 0.250000 1.000000
v -0.880000 0.250000 -0.880000
v -1.000000 0.250000 -0.880000
v -1.000000 0.250000 0.880000
v -0.880000 0.250000 0.880000
v 1.000000 0.250000 -0.880000
v 0.880000 0.250000 -0.880000
v 0.880000 0.250000 0.880000
v 1.000000 0.250000 0.880000
v 0.880000 0.250000 0.880000
v 1.000000 0.150000 1.000000
v 1.000000 0.250000 0.880000
v 0.880000 0.250000 0.880000
v 0.880000 0.250000 1.000000
v 1.000000 0.150000 1.000000
v -0.880000 0.250000 0.880000
v -1.000000 0.250000 0.880000
v -1.000000 0.150000 1.000000
v -0.880000 0.250000 0.880000
v -1.000000 0.150000 1.000000
v -0.880000 0.250000 1.000000
v 1.000000 0.150000 -1.000000
v -1.000000 0.150000 -1.000000
v -1.000000 0.250000 -0.880000
v 1.000000 0.250000 -0.880000
v 1.000000 0.000000 -1.000000
v -1.000000 0.000000 -1.000000
v -1.000000 0.150000 -1.000000
v 1.000000 0.150000 -1.000000
v 1.000000 0.000000 -1.000000
v 1.000000 0.000000 1.000000
v -1.000000 0.000000 1.000000
v -1.000000 0.000000 -1.000000
vt 0.20976563 0.29179687
vt 0.36445312 0.29179687
vt 0.36445312 0.45703125
vt 0.20976563 0.45703125
vt 0.36445312 0.29179687
vt 0.37500000 0.29179687
vt 0.37500000 0.44648438
vt 0.36445312 0.44648438
vt 0.19921875 0.29179687
vt 0.20976563 0.29179687
vt 0.20976563 0.44648438
vt 0.19921875 0.44648438
vt 0.20976563 0.44648438
vt 0.19921875 0.45703125
vt 0.19921875 0.44648438
vt 0.20976563 0.44648438
vt 0.20976563 0.45703125
vt 0.19921875 0.45703125
vt 0.36445312 0.44648438
vt 0.37500000 0.44648438
vt 0.37500000 0.45703125
vt 0.36445312 0.44648438
vt 0.37500000 0.45703125
vt 0.36445312 0.45703125
vt 0.00000000 0.70703125
vt 1.00000000 0.70703125
vt 1.00000000 0.74218750
vt 0.00000000 0.74218750
vt 0.00000000 0.53515625
vt 1.00000000 0.53515625
vt 1.00000000 0.69921875
vt 0.00000000 0.69921875
vt 0.00000000 0.47265625
vt 1.00000000 0.47265625
vt 1.00000000 0.52734375
vt 0.00000000 0.52734375
vn 0.000000 1.000000 0.000000
vn 0.000000 1.000000 -0.000000
vn 0.000000 1.000000 0.000000
vn 0.000000 1.000000 -0.000000
vn 0.000000 1.000000 0.000000
vn 0.000000 1.000000 -0.000000
vn -0.000000 0.768221 0.640184
vn 0.640184 0.768221 -0.000000
vn 0.000000 0.768221 0.640184
vn -0.640184 0.768221 0.000000
vn 0.000000 0.768221 -0.640184
vn 0.000000 0.768221 -0.640184
vn 0.000000 0.000000 -1.000000
vn 0.000000 0.000000 -1.000000
vn 0.000000 -1.000000 0.000000
vn 0.000000 -1.000000 0.000000
f 1/1/1 2/2/1 3/3/1
f 1/1/2 3/3/2 4/4/2
f 5/5/3 6/6/3 7/7/3
f 5/5/4 7/7/4 8/8/4
f 9/9/5 10/10/5 11/11/5
f 9/9/6 11/11/6 12/12/6
f 13/13/7 14/14/7 15/15/7
f 16/16/8 17/17/8 18/18/8
f 19/19/9 20/20/9 21/21/9
f 22/22/10 23/23/10 24/24/10
f 25/25/11 26/26/11 27/27/11
f 25/25/12 27/27/12 28/28/12
f 29/29/13 30/30/13 31/31/13
f 29/29/14 31/31/14 32/32/14
f 33/33/15 34/34/15 35/35/15
f 33/33/16 35/35/16 36/36/16
