# Converted to Y-up (forward=+Z) with generated flat normals (v5)
mtllib road.mtl
usemtl road
v 0.880000 0.250000 0.000000
v -0.880000 0.250000 0.000000
v -0.880000 0.250000 2.000000
v 0.880000 0.250000 2.000000
v 0.880000 0.250000 0.000000
v 0.880000 0.250000 2.000000
v 1.000000 0.150000 2.000000
v 1.000000 0.150000 0.000000
v -0.880000 0.250000 0.000000
v -1.000000 0.150000 0.000000
v -1.000000 0.150000 2.000000
v -0.880000 0.250000 2.000000
v 1.000000 0.000000 0.000000
v 1.000000 0.150000 0.000000
v 1.000000 0.150000 2.000000
v 1.000000 0.000000 2.000000
v -1.000000 0.000000 0.000000
v -1.000000 0.000000 2.000000
v -1.000000 0.150000 2.000000
v -1.000000 0.150000 0.000000
v 1.000000 0.000000 0.000000
v 1.000000 0.000000 2.000000
v -1.000000 0.000000 2.000000
v -1.000000 0.000000 0.000000
vt 0.00000000 0.75000000
vt 0.00000000 1.00000000
vt 1.00000000 1.00000000
vt 1.00000000 0.75000000
vt 0.00000000 0.74218750
vt 1.00000000 0.74218750
vt 1.00000000 0.70703125
vt 0.00000000 0.70703125
vt 0.00000000 0.74218750
vt 0.00000000 0.70703125
vt 1.00000000 0.70703125
vt 1.00000000 0.74218750
vt 0.00000000 0.53515625
vt 0.00000000 0.69921875
vt 1.00000000 0.69921875
vt 1.00000000 0.53515625
vt 0.00000000 0.53515625
vt 1.00000000 0.53515625
vt 1.00000000 0.69921875
vt 0.00000000 0.69921875
vt 0.00000000 0.47265625
vt 1.00000000 0.47265625
vt 1.00000000 0.52734375
vt 0.00000000 0.52734375
vn 0.000000 1.000000 0.000000
vn 0.000000 1.000000 -0.000000
vn 0.640184 0.768221 -0.000000
vn 0.640184 0.768221 0.000000
vn -0.640184 0.768221 0.000000
vn -0.640184 0.768221 0.000000
vn 1.000000 0.000000 0.000000
vn 1.000000 0.000000 0.000000
vn -1.000000 0.000000 0.000000
vn -1.000000 0.000000 0.000000
vn 0.000000 -1.000000 0.000000
vn 0.000000 -1.000000 0.000000
f 1/1/1 2/2/1 3/3/1
f 1/1/2 3/3/2 4/4/2
f 5/5/3 6/6/3 7/7/3
f 5/5/4 7/7/4 8/8/4
f 9/9/5 10/10/5 11/11/5
f 9/9/6 11/11/6 12/12/6
f 13/13/7 14/14/7 15/15/7
f 13/13/8 15/15/8 16/16/8
f 17/17/9 18/18/9 19/19/9
f 17/17/10 19/19/10 20/20/10
f 21/21/11 22/22/11 23/23/11
f 21/21/12 23/23/12 24/24/12
