# Converted to Y-up (forward=+Z) with generated flat normals
mtllib road.mtl
usemtl road
v -2.000000 0.000000 0.000000
v -2.000000 0.700000 0.000000
v -2.000000 0.700000 1.000000
v -2.000000 0.000000 1.000000
v -2.000000 0.700000 0.000000
v -1.650000 1.000000 0.000000
v -1.650000 1.000000 1.000000
v -2.000000 0.700000 1.000000
v 1.650000 1.000000 0.000000
v 2.000000 0.700000 0.000000
v 2.000000 0.700000 1.000000
v 1.650000 1.000000 1.000000
v 2.000000 0.700000 0.000000
v 2.000000 0.000000 0.000000
v 2.000000 0.000000 1.000000
v 2.000000 0.700000 1.000000
v 2.000000 0.000000 0.000000
v -2.000000 0.000000 0.000000
v -2.000000 0.000000 1.000000
v 2.000000 0.000000 1.000000
v -2.000000 0.000000 1.000000
v -2.000000 0.700000 1.000000
v -2.000000 0.700000 2.000000
v -2.000000 0.000000 2.000000
v -2.000000 0.700000 1.000000
v -1.650000 1.000000 1.000000
v -1.650000 1.000000 2.000000
v -2.000000 0.700000 2.000000
v 1.650000 1.000000 1.000000
v 2.000000 0.700000 1.000000
v 2.000000 0.700000 2.000000
v 1.650000 1.000000 2.000000
v 2.000000 0.700000 1.000000
v 2.000000 0.000000 1.000000
v 2.000000 0.000000 2.000000
v 2.000000 0.700000 2.000000
v 2.000000 0.000000 1.000000
v -2.000000 0.000000 1.000000
v -2.000000 0.000000 2.000000
v 2.000000 0.000000 2.000000
v -2.000000 0.000000 2.000000
v -2.000000 0.700000 2.000000
v -2.000000 0.700000 3.000000
v -2.000000 0.000000 3.000000
v -2.000000 0.700000 2.000000
v -1.650000 1.000000 2.000000
v -1.650000 1.000000 3.000000
v -2.000000 0.700000 3.000000
v 1.650000 1.000000 2.000000
v 2.000000 0.700000 2.000000
v 2.000000 0.700000 3.000000
v 1.650000 1.000000 3.000000
v 2.000000 0.700000 2.000000
v 2.000000 0.000000 2.000000
v 2.000000 0.000000 3.000000
v 2.000000 0.700000 3.000000
v 2.000000 0.000000 2.000000
v -2.000000 0.000000 2.000000
v -2.000000 0.000000 3.000000
v 2.000000 0.000000 3.000000
v -2.000000 0.000000 3.000000
v -2.000000 0.700000 3.000000
v -2.000000 0.700000 4.000000
v -2.000000 0.000000 4.000000
v -2.000000 0.700000 3.000000
v -1.650000 1.000000 3.000000
v -1.650000 1.000000 4.000000
v -2.000000 0.700000 4.000000
v 1.650000 1.000000 3.000000
v 2.000000 0.700000 3.000000
v 2.000000 0.700000 4.000000
v 1.650000 1.000000 4.000000
v 2.000000 0.700000 3.000000
v 2.000000 0.000000 3.000000
v 2.000000 0.000000 4.000000
v 2.000000 0.700000 4.000000
v 2.000000 0.000000 3.000000
v -2.000000 0.000000 3.000000
v -2.000000 0.000000 4.000000
v 2.000000 0.000000 4.000000
v 1.650000 1.000000 0.000000
v -1.650000 1.000000 0.000000
v -1.650000 1.000000 1.000000
v 1.650000 1.000000 1.000000
v 1.650000 1.000000 1.000000
v -1.650000 1.000000 1.000000
v -1.650000 1.000000 2.000000
v 1.650000 1.000000 2.000000
v 1.650000 1.000000 2.000000
v -1.650000 1.000000 2.000000
v -1.650000 1.000000 3.000000
v 1.650000 1.000000 3.000000
v 1.650000 1.000000 3.000000
v -1.650000 1.000000 3.000000
v -1.650000 1.000000 4.000000
v 1.650000 1.000000 4.000000
vt 0.25329691 0.00244236
vt 0.25329691 0.03825914
vt 0.31543118 0.03825914
vt 0.31543118 0.00244236
vt 0.25329691 0.03825914
vt 0.25329691 0.06216680
vt 0.31543118 0.06216680
vt 0.31543118 0.03825914
vt 0.25329691 0.23331470
vt 0.25329691 0.25722236
vt 0.31543118 0.25722236
vt 0.31543118 0.23331470
vt 0.25329691 0.25722236
vt 0.25329691 0.29352647
vt 0.31543118 0.29352647
vt 0.31543118 0.25722236
vt 0.25329691 0.29352647
vt 0.25329691 0.50049114
vt 0.31543118 0.50049114
vt 0.31543118 0.29352647
vt 0.31543118 0.00244236
vt 0.31543118 0.03825914
vt 0.37780911 0.03825914
vt 0.37780911 0.00244236
vt 0.31543118 0.03825914
vt 0.31543118 0.06216680
vt 0.37780911 0.06216680
vt 0.37780911 0.03825914
vt 0.31543118 0.23331470
vt 0.31543118 0.25722236
vt 0.37780911 0.25722236
vt 0.37780911 0.23331470
vt 0.31543118 0.25722236
vt 0.31543118 0.29352647
vt 0.37780911 0.29352647
vt 0.37780911 0.25722236
vt 0.31543118 0.29352647
vt 0.31543118 0.50049114
vt 0.37780911 0.50049114
vt 0.37780911 0.29352647
vt 0.37780911 0.00244236
vt 0.37780911 0.03825914
vt 0.44018704 0.03825914
vt 0.44018704 0.00244236
vt 0.37780911 0.03825914
vt 0.37780911 0.06216680
vt 0.44018704 0.06216680
vt 0.44018704 0.03825914
vt 0.37780911 0.23331470
vt 0.37780911 0.25722236
vt 0.44018704 0.25722236
vt 0.44018704 0.23331470
vt 0.37780911 0.25722236
vt 0.37780911 0.29352647
vt 0.44018704 0.29352647
vt 0.44018704 0.25722236
vt 0.37780911 0.29352647
vt 0.37780911 0.50049114
vt 0.44018704 0.50049114
vt 0.44018704 0.29352647
vt 0.44018704 0.00244236
vt 0.44018704 0.03825914
vt 0.50232130 0.03825914
vt 0.50232130 0.00244236
vt 0.44018704 0.03825914
vt 0.44018704 0.06216680
vt 0.50232130 0.06216680
vt 0.50232130 0.03825914
vt 0.44018704 0.23331470
vt 0.44018704 0.25722236
vt 0.50232130 0.25722236
vt 0.50232130 0.23331470
vt 0.44018704 0.25722236
vt 0.44018704 0.29352647
vt 0.50232130 0.29352647
vt 0.50232130 0.25722236
vt 0.44018704 0.29352647
vt 0.44018704 0.50049114
vt 0.50232130 0.50049114
vt 0.50232130 0.29352647
vt 0.00122070 0.00244236
vt 0.00122070 0.50049114
vt 0.06335497 0.50049114
vt 0.06335497 0.00244236
vt 0.06335497 0.00244236
vt 0.06335497 0.50049114
vt 0.12573290 0.50049114
vt 0.12573290 0.00244236
vt 0.12573290 0.00244236
vt 0.12573290 0.50049114
vt 0.18811083 0.50049114
vt 0.18811083 0.00244236
vt 0.18811083 0.00244236
vt 0.18811083 0.50049114
vt 0.25024509 0.50049114
vt 0.25024509 0.00244236
vn -1.000000 0.000000 0.000000
vn -1.000000 0.000000 0.000000
vn -0.650791 0.759257 0.000000
vn -0.650791 0.759257 0.000000
vn 0.650791 0.759257 0.000000
vn 0.650791 0.759257 0.000000
vn 1.000000 0.000000 0.000000
vn 1.000000 0.000000 0.000000
vn 0.000000 -1.000000 0.000000
vn 0.000000 -1.000000 0.000000
vn -1.000000 0.000000 0.000000
vn -1.000000 0.000000 0.000000
vn -0.650791 0.759257 0.000000
vn -0.650791 0.759257 0.000000
vn 0.650791 0.759257 0.000000
vn 0.650791 0.759257 0.000000
vn 1.000000 0.000000 0.000000
vn 1.000000 0.000000 0.000000
vn 0.000000 -1.000000 0.000000
vn 0.000000 -1.000000 0.000000
vn -1.000000 0.000000 0.000000
vn -1.000000 0.000000 0.000000
vn -0.650791 0.759257 0.000000
vn -0.650791 0.759257 0.000000
vn 0.650791 0.759257 0.000000
vn 0.650791 0.759257 0.000000
vn 1.000000 0.000000 0.000000
vn 1.000000 0.000000 0.000000
vn 0.000000 -1.000000 0.000000
vn 0.000000 -1.000000 0.000000
vn -1.000000 0.000000 0.000000
vn -1.000000 0.000000 0.000000
vn -0.650791 0.759257 0.000000
vn -0.650791 0.759257 0.000000
vn 0.650791 0.759257 0.000000
vn 0.650791 0.759257 0.000000
vn 1.000000 0.000000 0.000000
vn 1.000000 0.000000 0.000000
vn 0.000000 -1.000000 0.000000
vn 0.000000 -1.000000 0.000000
vn 0.000000 1.000000 0.000000
vn 0.000000 1.000000 0.000000
vn 0.000000 1.000000 0.000000
vn 0.000000 1.000000 0.000000
vn 0.000000 1.000000 0.000000
vn 0.000000 1.000000 0.000000
vn 0.000000 1.000000 0.000000
vn 0.000000 1.000000 0.000000
f 1/1/1 4/4/1 3/3/1
f 1/1/2 3/3/2 2/2/2
f 5/5/3 8/8/3 7/7/3
f 5/5/4 7/7/4 6/6/4
f 9/9/5 12/12/5 11/11/5
f 9/9/6 11/11/6 10/10/6
f 13/13/7 16/16/7 15/15/7
f 13/13/8 15/15/8 14/14/8
f 17/17/9 20/20/9 19/19/9
f 17/17/10 19/19/10 18/18/10
f 21/21/11 24/24/11 23/23/11
f 21/21/12 23/23/12 22/22/12
f 25/25/13 28/28/13 27/27/13
f 25/25/14 27/27/14 26/26/14
f 29/29/15 32/32/15 31/31/15
f 29/29/16 31/31/16 30/30/16
f 33/33/17 36/36/17 35/35/17
f 33/33/18 35/35/18 34/34/18
f 37/37/19 40/40/19 39/39/19
f 37/37/20 39/39/20 38/38/20
f 41/41/21 44/44/21 43/43/21
f 41/41/22 43/43/22 42/42/22
f 45/45/23 48/48/23 47/47/23
f 45/45/24 47/47/24 46/46/24
f 49/49/25 52/52/25 51/51/25
f 49/49/26 51/51/26 50/50/26
f 53/53/27 56/56/27 55/55/27
f 53/53/28 55/55/28 54/54/28
f 57/57/29 60/60/29 59/59/29
f 57/57/30 59/59/30 58/58/30
f 61/61/31 64/64/31 63/63/31
f 61/61/32 63/63/32 62/62/32
f 65/65/33 68/68/33 67/67/33
f 65/65/34 67/67/34 66/66/34
f 69/69/35 72/72/35 71/71/35
f 69/69/36 71/71/36 70/70/36
f 73/73/37 76/76/37 75/75/37
f 73/73/38 75/75/38 74/74/38
f 77/77/39 80/80/39 79/79/39
f 77/77/40 79/79/40 78/78/40
f 81/81/41 82/82/41 83/83/41
f 81/81/42 83/83/42 84/84/42
f 85/85/43 86/86/43 87/87/43
f 85/85/44 87/87/44 88/88/44
f 89/89/45 90/90/45 91/91/45
f 89/89/46 91/91/46 92/92/46
f 93/93/47 94/94/47 95/95/47
f 93/93/48 95/95/48 96/96/48
