# Converted to Y-up (forward=+Z) with generated flat normals (v5)
mtllib road.mtl
usemtl road
v -0.200000 0.000000 -0.420000
v 0.200000 0.000000 -0.420000
v 0.200000 0.000000 0.000000
v 0.065000 0.000000 0.000000
v 0.065000 0.000000 0.131121
v 0.080558 0.000000 0.139437
v 0.102530 0.000000 0.157470
v 0.120563 0.000000 0.179442
v 0.133963 0.000000 0.204511
v 0.142214 0.000000 0.231712
v 0.145000 0.000000 0.260000
v 0.142214 0.000000 0.288288
v 0.133963 0.000000 0.315489
v 0.120563 0.000000 0.340558
v 0.102530 0.000000 0.362530
v 0.080558 0.000000 0.380563
v 0.055489 0.000000 0.393963
v 0.028288 0.000000 0.402214
v -0.000000 0.000000 0.405000
v -0.028288 0.000000 0.402214
v -0.055489 0.000000 0.393963
v -0.080558 0.000000 0.380563
v -0.102530 0.000000 0.362530
v -0.120563 0.000000 0.340558
v -0.133963 0.000000 0.315489
v -0.142214 0.000000 0.288288
v -0.145000 0.000000 0.260000
v -0.142214 0.000000 0.231712
v -0.133963 0.000000 0.204511
v -0.120563 0.000000 0.179442
v -0.102530 0.000000 0.157470
v -0.080558 0.000000 0.139437
v -0.065000 0.000000 0.131121
v -0.065000 0.000000 0.000000
v -0.200000 0.000000 0.000000
v -0.200000 0.040000 -0.420000
v 0.200000 0.040000 -0.420000
v 0.200000 0.040000 0.000000
v 0.065000 0.040000 0.000000
v 0.065000 0.040000 0.131121
v 0.080558 0.040000 0.139437
v 0.102530 0.040000 0.157470
v 0.120563 0.040000 0.179442
v 0.133963 0.040000 0.204511
v 0.142214 0.040000 0.231712
v 0.145000 0.040000 0.260000
v 0.142214 0.040000 0.288288
v 0.133963 0.040000 0.315489
v 0.120563 0.040000 0.340558
v 0.102530 0.040000 0.362530
v 0.080558 0.040000 0.380563
v 0.055489 0.040000 0.393963
v 0.028288 0.040000 0.402214
v -0.000000 0.040000 0.405000
v -0.028288 0.040000 0.402214
v -0.055489 0.040000 0.393963
v -0.080558 0.040000 0.380563
v -0.102530 0.040000 0.362530
v -0.120563 0.040000 0.340558
v -0.133963 0.040000 0.315489
v -0.142214 0.040000 0.288288
v -0.145000 0.040000 0.260000
v -0.142214 0.040000 0.231712
v -0.133963 0.040000 0.204511
v -0.120563 0.040000 0.179442
v -0.102530 0.040000 0.157470
v -0.080558 0.040000 0.139437
v -0.065000 0.040000 0.131121
v -0.065000 0.040000 0.000000
v -0.200000 0.040000 0.000000
vt 0.35000000 0.47744000
vt 0.15000000 0.47744000
vt 0.15000000 0.49760000
vt 0.21750000 0.49760000
vt 0.21750000 0.50389382
vt 0.20972116 0.50429297
vt 0.19873476 0.50515854
vt 0.18971845 0.50621323
vt 0.18301873 0.50741652
vt 0.17889307 0.50872217
vt 0.17750000 0.51008000
vt 0.17889307 0.51143783
vt 0.18301873 0.51274348
vt 0.18971845 0.51394677
vt 0.19873476 0.51500146
vt 0.20972116 0.51586703
vt 0.22225545 0.51651020
vt 0.23585595 0.51690627
vt 0.25000000 0.51704000
vt 0.26414405 0.51690627
vt 0.27774455 0.51651020
vt 0.29027884 0.51586703
vt 0.30126524 0.51500146
vt 0.31028155 0.51394677
vt 0.31698127 0.51274348
vt 0.32110693 0.51143783
vt 0.32250000 0.51008000
vt 0.32110693 0.50872217
vt 0.31698127 0.50741652
vt 0.31028155 0.50621323
vt 0.30126524 0.50515854
vt 0.29027884 0.50429297
vt 0.28250000 0.50389382
vt 0.28250000 0.49760000
vt 0.35000000 0.49760000
vt 0.35000000 0.47744000
vt 0.15000000 0.47744000
vt 0.15000000 0.49760000
vt 0.21750000 0.49760000
vt 0.21750000 0.50389382
vt 0.20972116 0.50429297
vt 0.19873476 0.50515854
vt 0.18971845 0.50621323
vt 0.18301873 0.50741652
vt 0.17889307 0.50872217
vt 0.17750000 0.51008000
vt 0.17889307 0.51143783
vt 0.18301873 0.51274348
vt 0.18971845 0.51394677
vt 0.19873476 0.51500146
vt 0.20972116 0.51586703
vt 0.22225545 0.51651020
vt 0.23585595 0.51690627
vt 0.25000000 0.51704000
vt 0.26414405 0.51690627
vt 0.27774455 0.51651020
vt 0.29027884 0.51586703
vt 0.30126524 0.51500146
vt 0.31028155 0.51394677
vt 0.31698127 0.51274348
vt 0.32110693 0.51143783
vt 0.32250000 0.51008000
vt 0.32110693 0.50872217
vt 0.31698127 0.50741652
vt 0.31028155 0.50621323
vt 0.30126524 0.50515854
vt 0.29027884 0.50429297
vt 0.28250000 0.50389382
vt 0.28250000 0.49760000
vt 0.35000000 0.49760000
vn -0.000000 -1.000000 0.000000
vn 0.000000 -1.000000 0.000000
vn 0.000000 -1.000000 0.000000
vn 0.000000 -1.000000 0.000000
vn 0.000000 -1.000000 0.000000
vn 0.000000 -1.000000 0.000000
vn 0.000000 -1.000000 0.000000
vn 0.000000 -1.000000 0.000000
vn 0.000000 -1.000000 0.000000
vn 0.000000 -1.000000 0.000000
vn 0.000000 -1.000000 0.000000
vn 0.000000 -1.000000 0.000000
vn 0.000000 -1.000000 0.000000
vn 0.000000 -1.000000 0.000000
vn 0.000000 -1.000000 0.000000
vn 0.000000 -1.000000 0.000000
vn 0.000000 -1.000000 -0.000000
vn 0.000000 -1.000000 0.000000
vn 0.000000 -1.000000 -0.000000
vn 0.000000 -1.000000 0.000000
vn 0.000000 -1.000000 0.000000
vn 0.000000 -1.000000 0.000000
vn 0.000000 -1.000000 0.000000
vn 0.000000 -1.000000 0.000000
vn 0.000000 -1.000000 0.000000
vn 0.000000 -1.000000 0.000000
vn -0.000000 -1.000000 0.000000
vn 0.000000 -1.000000 0.000000
vn 0.000000 -1.000000 0.000000
vn 0.000000 -1.000000 0.000000
vn 0.000000 -1.000000 0.000000
vn 0.000000 -1.000000 0.000000
vn 0.000000 -1.000000 0.000000
vn 0.000000 1.000000 0.000000
vn 0.000000 1.000000 0.000000
vn 0.000000 1.000000 0.000000
vn 0.000000 1.000000 0.000000
vn 0.000000 1.000000 0.000000
vn 0.000000 1.000000 0.000000
vn 0.000000 1.000000 0.000000
vn 0.000000 1.000000 0.000000
vn 0.000000 1.000000 0.000000
vn 0.000000 1.000000 0.000000
vn 0.000000 1.000000 0.000000
vn 0.000000 1.000000 0.000000
vn 0.000000 1.000000 0.000000
vn 0.000000 1.000000 0.000000
vn 0.000000 1.000000 0.000000
vn -0.000000 1.000000 0.000000
vn 0.000000 1.000000 0.000000
vn 0.000000 1.000000 0.000000
vn 0.000000 1.000000 -0.000000
vn 0.000000 1.000000 0.000000
vn 0.000000 1.000000 0.000000
vn 0.000000 1.000000 0.000000
vn 0.000000 1.000000 0.000000
vn 0.000000 1.000000 0.000000
vn 0.000000 1.000000 0.000000
vn 0.000000 1.000000 0.000000
vn 0.000000 1.000000 0.000000
vn 0.000000 1.000000 0.000000
vn 0.000000 1.000000 0.000000
vn 0.000000 1.000000 -0.000000
vn 0.000000 1.000000 0.000000
vn 0.000000 1.000000 0.000000
vn 0.000000 1.000000 0.000000
vn 0.000000 0.000000 -1.000000
vn 0.000000 0.000000 -1.000000
vn 1.000000 0.000000 -0.000000
vn 1.000000 0.000000 0.000000
vn 0.000000 0.000000 1.000000
vn 0.000000 0.000000 1.000000
vn 1.000000 0.000000 -0.000000
vn 1.000000 0.000000 0.000000
vn 0.471397 0.000000 -0.881921
vn 0.471397 0.000000 -0.881921
vn 0.634393 0.000000 -0.773010
vn 0.634393 0.000000 -0.773010
vn 0.773010 0.000000 -0.634393
vn 0.773010 0.000000 -0.634393
vn 0.881921 0.000000 -0.471397
vn 0.881921 0.000000 -0.471397
vn 0.956940 0.000000 -0.290285
vn 0.956940 0.000000 -0.290285
vn 0.995185 0.000000 -0.098017
vn 0.995185 0.000000 -0.098017
vn 0.995185 0.000000 0.098017
vn 0.995185 0.000000 0.098017
vn 0.956940 0.000000 0.290285
vn 0.956940 0.000000 0.290285
vn 0.881921 0.000000 0.471397
vn 0.881921 0.000000 0.471397
vn 0.773010 0.000000 0.634393
vn 0.773010 0.000000 0.634393
vn 0.634393 0.000000 0.773010
vn 0.634393 0.000000 0.773010
vn 0.471397 0.000000 0.881921
vn 0.471397 0.000000 0.881921
vn 0.290285 0.000000 0.956940
vn 0.290285 0.000000 0.956940
vn 0.098017 0.000000 0.995185
vn 0.098017 0.000000 0.995185
vn -0.098017 0.000000 0.995185
vn -0.098017 0.000000 0.995185
vn -0.290285 0.000000 0.956940
vn -0.290285 0.000000 0.956940
vn -0.471397 0.000000 0.881921
vn -0.471397 0.000000 0.881921
vn -0.634393 0.000000 0.773010
vn -0.634393 0.000000 0.773010
vn -0.773010 0.000000 0.634393
vn -0.773010 0.000000 0.634393
vn -0.881921 0.000000 0.471397
vn -0.881921 0.000000 0.471397
vn -0.956940 0.000000 0.290285
vn -0.956940 0.000000 0.290285
vn -0.995185 0.000000 0.098017
vn -0.995185 0.000000 0.098017
vn -0.995185 -0.000000 -0.098017
vn -0.995185 0.000000 -0.098017
vn -0.956940 -0.000000 -0.290285
vn -0.956940 0.000000 -0.290285
vn -0.881921 -0.000000 -0.471397
vn -0.881921 0.000000 -0.471397
vn -0.773010 -0.000000 -0.634393
vn -0.773010 0.000000 -0.634393
vn -0.634393 -0.000000 -0.773010
vn -0.634393 0.000000 -0.773010
vn -0.471397 -0.000000 -0.881921
vn -0.471397 0.000000 -0.881921
vn -1.000000 -0.000000 -0.000000
vn -1.000000 0.000000 0.000000
vn -1.000000 -0.000000 -0.000000
vn -1.000000 0.000000 0.000000
vn 0.000000 0.000000 1.000000
vn 0.000000 0.000000 1.000000
f 34/34/1 35/35/1 1/1/1
f 31/31/2 32/32/2 33/33/2
f 29/29/3 30/30/3 31/31/3
f 27/27/4 28/28/4 29/29/4
f 25/25/5 26/26/5 27/27/5
f 23/23/6 24/24/6 25/25/6
f 21/21/7 22/22/7 23/23/7
f 19/19/8 20/20/8 21/21/8
f 17/17/9 18/18/9 19/19/9
f 15/15/10 16/16/10 17/17/10
f 13/13/11 14/14/11 15/15/11
f 11/11/12 12/12/12 13/13/12
f 9/9/13 10/10/13 11/11/13
f 7/7/14 8/8/14 9/9/14
f 5/5/15 6/6/15 7/7/15
f 2/2/16 3/3/16 4/4/16
f 34/34/17 1/1/17 2/2/17
f 29/29/18 31/31/18 33/33/18
f 25/25/19 27/27/19 29/29/19
f 21/21/20 23/23/20 25/25/20
f 17/17/21 19/19/21 21/21/21
f 13/13/22 15/15/22 17/17/22
f 9/9/23 11/11/23 13/13/23
f 5/5/24 7/7/24 9/9/24
f 34/34/25 2/2/25 4/4/25
f 25/25/26 29/29/26 33/33/26
f 17/17/27 21/21/27 25/25/27
f 9/9/28 13/13/28 17/17/28
f 34/34/29 4/4/29 5/5/29
f 17/17/30 25/25/30 33/33/30
f 5/5/31 9/9/31 17/17/31
f 33/33/32 34/34/32 5/5/32
f 5/5/33 17/17/33 33/33/33
f 36/36/34 70/70/34 69/69/34
f 68/68/35 67/67/35 66/66/35
f 66/66/36 65/65/36 64/64/36
f 64/64/37 63/63/37 62/62/37
f 62/62/38 61/61/38 60/60/38
f 60/60/39 59/59/39 58/58/39
f 58/58/40 57/57/40 56/56/40
f 56/56/41 55/55/41 54/54/41
f 54/54/42 53/53/42 52/52/42
f 52/52/43 51/51/43 50/50/43
f 50/50/44 49/49/44 48/48/44
f 48/48/45 47/47/45 46/46/45
f 46/46/46 45/45/46 44/44/46
f 44/44/47 43/43/47 42/42/47
f 42/42/48 41/41/48 40/40/48
f 39/39/49 38/38/49 37/37/49
f 37/37/50 36/36/50 69/69/50
f 68/68/51 66/66/51 64/64/51
f 64/64/52 62/62/52 60/60/52
f 60/60/53 58/58/53 56/56/53
f 56/56/54 54/54/54 52/52/54
f 52/52/55 50/50/55 48/48/55
f 48/48/56 46/46/56 44/44/56
f 44/44/57 42/42/57 40/40/57
f 39/39/58 37/37/58 69/69/58
f 68/68/59 64/64/59 60/60/59
f 60/60/60 56/56/60 52/52/60
f 52/52/61 48/48/61 44/44/61
f 40/40/62 39/39/62 69/69/62
f 68/68/63 60/60/63 52/52/63
f 52/52/64 44/44/64 40/40/64
f 40/40/65 69/69/65 68/68/65
f 68/68/66 52/52/66 40/40/66
f 36/36/67 37/37/67 1/1/67
f 1/1/68 37/37/68 2/2/68
f 37/37/69 38/38/69 2/2/69
f 2/2/70 38/38/70 3/3/70
f 38/38/71 39/39/71 3/3/71
f 3/3/72 39/39/72 4/4/72
f 39/39/73 40/40/73 4/4/73
f 4/4/74 40/40/74 5/5/74
f 40/40/75 41/41/75 5/5/75
f 5/5/76 41/41/76 6/6/76
f 41/41/77 42/42/77 6/6/77
f 6/6/78 42/42/78 7/7/78
f 42/42/79 43/43/79 7/7/79
f 7/7/80 43/43/80 8/8/80
f 43/43/81 44/44/81 8/8/81
f 8/8/82 44/44/82 9/9/82
f 44/44/83 45/45/83 9/9/83
f 9/9/84 45/45/84 10/10/84
f 45/45/85 46/46/85 10/10/85
f 10/10/86 46/46/86 11/11/86
f 46/46/87 47/47/87 11/11/87
f 11/11/88 47/47/88 12/12/88
f 47/47/89 48/48/89 12/12/89
f 12/12/90 48/48/90 13/13/90
f 48/48/91 49/49/91 13/13/91
f 13/13/92 49/49/92 14/14/92
f 49/49/93 50/50/93 14/14/93
f 14/14/94 50/50/94 15/15/94
f 50/50/95 51/51/95 15/15/95
f 15/15/96 51/51/96 16/16/96
f 51/51/97 52/52/97 16/16/97
f 16/16/98 52/52/98 17/17/98
f 52/52/99 53/53/99 17/17/99
f 17/17/100 53/53/100 18/18/100
f 53/53/101 54/54/101 18/18/101
f 18/18/102 54/54/102 19/19/102
f 54/54/103 55/55/103 19/19/103
f 19/19/104 55/55/104 20/20/104
f 55/55/105 56/56/105 20/20/105
f 20/20/106 56/56/106 21/21/106
f 56/56/107 57/57/107 21/21/107
f 21/21/108 57/57/108 22/22/108
f 57/57/109 58/58/109 22/22/109
f 22/22/110 58/58/110 23/23/110
f 58/58/111 59/59/111 23/23/111
f 23/23/112 59/59/112 24/24/112
f 59/59/113 60/60/113 24/24/113
f 24/24/114 60/60/114 25/25/114
f 60/60/115 61/61/115 25/25/115
f 25/25/116 61/61/116 26/26/116
f 61/61/117 62/62/117 26/26/117
f 26/26/118 62/62/118 27/27/118
f 62/62/119 63/63/119 27/27/119
f 27/27/120 63/63/120 28/28/120
f 63/63/121 64/64/121 28/28/121
f 28/28/122 64/64/122 29/29/122
f 64/64/123 65/65/123 29/29/123
f 29/29/124 65/65/124 30/30/124
f 65/65/125 66/66/125 30/30/125
f 30/30/126 66/66/126 31/31/126
f 66/66/127 67/67/127 31/31/127
f 31/31/128 67/67/128 32/32/128
f 67/67/129 68/68/129 32/32/129
f 32/32/130 68/68/130 33/33/130
f 68/68/131 69/69/131 33/33/131
f 33/33/132 69/69/132 34/34/132
f 70/70/133 36/36/133 35/35/133
f 35/35/134 36/36/134 1/1/134
f 69/69/135 70/70/135 34/34/135
f 34/34/136 70/70/136 35/35/136
