# Converted to Y-up (forward=+Z) with generated flat normals
mtllib road.mtl
usemtl road
v -2.000000 0.000000 0.000000
v -2.000000 0.700000 0.000000
v -2.000000 0.700000 0.600000
v -2.000000 0.000000 0.600000
v -2.000000 0.700000 0.000000
v -1.650000 1.000000 0.000000
v -1.650000 1.000000 0.600000
v -2.000000 0.700000 0.600000
v 1.650000 1.000000 0.000000
v 2.000000 0.700000 0.000000
v 2.000000 0.700000 0.600000
v 1.650000 1.000000 0.600000
v 2.000000 0.700000 0.000000
v 2.000000 0.000000 0.000000
v 2.000000 0.000000 0.600000
v 2.000000 0.700000 0.600000
v 2.000000 0.000000 0.000000
v -2.000000 0.000000 0.000000
v -2.000000 0.000000 0.600000
v 2.000000 0.000000 0.600000
v -2.000000 0.000000 0.600000
v -2.000000 0.700000 0.600000
v -1.975377 0.700000 0.912869
v -1.975377 0.000000 0.912869
v -2.000000 0.700000 0.600000
v -1.650000 1.000000 0.600000
v -1.629686 1.000000 0.912869
v -1.975377 0.700000 0.912869
v 1.650000 1.000000 0.600000
v 2.000000 0.700000 0.600000
v 1.975377 0.700000 0.912869
v 1.629686 1.000000 0.912869
v 2.000000 0.700000 0.600000
v 2.000000 0.000000 0.600000
v 1.975377 0.000000 0.912869
v 1.975377 0.700000 0.912869
v 2.000000 0.000000 0.600000
v -2.000000 0.000000 0.600000
v -1.975377 0.000000 0.912869
v 1.975377 0.000000 0.912869
v -1.975377 0.000000 0.912869
v -1.975377 0.700000 0.912869
v -1.902113 0.700000 1.218034
v -1.902113 0.000000 1.218034
v -1.975377 0.700000 0.912869
v -1.629686 1.000000 0.912869
v -1.569243 1.000000 1.218034
v -1.902113 0.700000 1.218034
v 1.629686 1.000000 0.912869
v 1.975377 0.700000 0.912869
v 1.902113 0.700000 1.218034
v 1.569243 1.000000 1.218034
v 1.975377 0.700000 0.912869
v 1.975377 0.000000 0.912869
v 1.902113 0.000000 1.218034
v 1.902113 0.700000 1.218034
v 1.975377 0.000000 0.912869
v -1.975377 0.000000 0.912869
v -1.902113 0.000000 1.218034
v 1.902113 0.000000 1.218034
v -1.902113 0.000000 1.218034
v -1.902113 0.700000 1.218034
v -1.782013 0.700000 1.507981
v -1.782013 0.000000 1.507981
v -1.902113 0.700000 1.218034
v -1.569243 1.000000 1.218034
v -1.470161 1.000000 1.507981
v -1.782013 0.700000 1.507981
v 1.569243 1.000000 1.218034
v 1.902113 0.700000 1.218034
v 1.782013 0.700000 1.507981
v 1.470161 1.000000 1.507981
v 1.902113 0.700000 1.218034
v 1.902113 0.000000 1.218034
v 1.782013 0.000000 1.507981
v 1.782013 0.700000 1.507981
v 1.902113 0.000000 1.218034
v -1.902113 0.000000 1.218034
v -1.782013 0.000000 1.507981
v 1.782013 0.000000 1.507981
v -1.782013 0.000000 1.507981
v -1.782013 0.700000 1.507981
v -1.618034 0.700000 1.775571
v -1.618034 0.000000 1.775571
v -1.782013 0.700000 1.507981
v -1.470161 1.000000 1.507981
v -1.334878 1.000000 1.775571
v -1.618034 0.700000 1.775571
v 1.470161 1.000000 1.507981
v 1.782013 0.700000 1.507981
v 1.618034 0.700000 1.775571
v 1.334878 1.000000 1.775571
v 1.782013 0.700000 1.507981
v 1.782013 0.000000 1.507981
v 1.618034 0.000000 1.775571
v 1.618034 0.700000 1.775571
v 1.782013 0.000000 1.507981
v -1.782013 0.000000 1.507981
v -1.618034 0.000000 1.775571
v 1.618034 0.000000 1.775571
v -1.618034 0.000000 1.775571
v -1.618034 0.700000 1.775571
v -1.414214 0.700000 2.014214
v -1.414214 0.000000 2.014214
v -1.618034 0.700000 1.775571
v -1.334878 1.000000 1.775571
v -1.166726 1.000000 2.014214
v -1.414214 0.700000 2.014214
v 1.334878 1.000000 1.775571
v 1.618034 0.700000 1.775571
v 1.414214 0.700000 2.014214
v 1.166726 1.000000 2.014214
v 1.618034 0.700000 1.775571
v 1.618034 0.000000 1.775571
v 1.414214 0.000000 2.014214
v 1.414214 0.700000 2.014214
v 1.618034 0.000000 1.775571
v -1.618034 0.000000 1.775571
v -1.414214 0.000000 2.014214
v 1.414214 0.000000 2.014214
v -1.414214 0.000000 2.014214
v -1.414214 0.700000 2.014214
v -1.175571 0.700000 2.218034
v -1.175571 0.000000 2.218034
v -1.414214 0.700000 2.014214
v -1.166726 1.000000 2.014214
v -0.969846 1.000000 2.218034
v -1.175571 0.700000 2.218034
v 1.166726 1.000000 2.014214
v 1.414214 0.700000 2.014214
v 1.175571 0.700000 2.218034
v 0.969846 1.000000 2.218034
v 1.414214 0.700000 2.014214
v 1.414214 0.000000 2.014214
v 1.175571 0.000000 2.218034
v 1.175571 0.700000 2.218034
v 1.414214 0.000000 2.014214
v -1.414214 0.000000 2.014214
v -1.175571 0.000000 2.218034
v 1.175571 0.000000 2.218034
v -1.175571 0.000000 2.218034
v -1.175571 0.700000 2.218034
v -0.907981 0.700000 2.382013
v -0.907981 0.000000 2.382013
v -1.175571 0.700000 2.218034
v -0.969846 1.000000 2.218034
v -0.749084 1.000000 2.382013
v -0.907981 0.700000 2.382013
v 0.969846 1.000000 2.218034
v 1.175571 0.700000 2.218034
v 0.907981 0.700000 2.382013
v 0.749084 1.000000 2.382013
v 1.175571 0.700000 2.218034
v 1.175571 0.000000 2.218034
v 0.907981 0.000000 2.382013
v 0.907981 0.700000 2.382013
v 1.175571 0.000000 2.218034
v -1.175571 0.000000 2.218034
v -0.907981 0.000000 2.382013
v 0.907981 0.000000 2.382013
v -0.907981 0.000000 2.382013
v -0.907981 0.700000 2.382013
v -0.618034 0.700000 2.502113
v -0.618034 0.000000 2.502113
v -0.907981 0.700000 2.382013
v -0.749084 1.000000 2.382013
v -0.509878 1.000000 2.502113
v -0.618034 0.700000 2.502113
v 0.749084 1.000000 2.382013
v 0.907981 0.700000 2.382013
v 0.618034 0.700000 2.502113
v 0.509878 1.000000 2.502113
v 0.907981 0.700000 2.382013
v 0.907981 0.000000 2.382013
v 0.618034 0.000000 2.502113
v 0.618034 0.700000 2.502113
v 0.907981 0.000000 2.382013
v -0.907981 0.000000 2.382013
v -0.618034 0.000000 2.502113
v 0.618034 0.000000 2.502113
v -0.618034 0.000000 2.502113
v -0.618034 0.700000 2.502113
v -0.312869 0.700000 2.575377
v -0.312869 0.000000 2.575377
v -0.618034 0.700000 2.502113
v -0.509878 1.000000 2.502113
v -0.258117 1.000000 2.575377
v -0.312869 0.700000 2.575377
v 0.509878 1.000000 2.502113
v 0.618034 0.700000 2.502113
v 0.312869 0.700000 2.575377
v 0.258117 1.000000 2.575377
v 0.618034 0.700000 2.502113
v 0.618034 0.000000 2.502113
v 0.312869 0.000000 2.575377
v 0.312869 0.700000 2.575377
v 0.618034 0.000000 2.502113
v -0.618034 0.000000 2.502113
v -0.312869 0.000000 2.575377
v 0.312869 0.000000 2.575377
v -0.312869 0.000000 2.575377
v -0.312869 0.700000 2.575377
v -0.040000 0.700000 2.600000
v -0.040000 0.000000 2.600000
v -0.312869 0.700000 2.575377
v -0.258117 1.000000 2.575377
v -0.033000 1.000000 2.600000
v -0.040000 0.700000 2.600000
v 0.258117 1.000000 2.575377
v 0.312869 0.700000 2.575377
v 0.040000 0.700000 2.600000
v 0.033000 1.000000 2.600000
v 0.312869 0.700000 2.575377
v 0.312869 0.000000 2.575377
v 0.040000 0.000000 2.600000
v 0.040000 0.700000 2.600000
v 0.312869 0.000000 2.575377
v -0.312869 0.000000 2.575377
v -0.040000 0.000000 2.600000
v 0.040000 0.000000 2.600000
v 1.650000 1.000000 0.000000
v -1.650000 1.000000 0.000000
v -1.650000 1.000000 0.600000
v 1.650000 1.000000 0.600000
v 1.650000 1.000000 0.600000
v -1.650000 1.000000 0.600000
v -1.629686 1.000000 0.912869
v 1.629686 1.000000 0.912869
v 1.629686 1.000000 0.912869
v -1.629686 1.000000 0.912869
v -1.569243 1.000000 1.218034
v 1.569243 1.000000 1.218034
v 1.569243 1.000000 1.218034
v -1.569243 1.000000 1.218034
v -1.470161 1.000000 1.507981
v 1.470161 1.000000 1.507981
v 1.470161 1.000000 1.507981
v -1.470161 1.000000 1.507981
v -1.334878 1.000000 1.775571
v 1.334878 1.000000 1.775571
v 1.334878 1.000000 1.775571
v -1.334878 1.000000 1.775571
v -1.166726 1.000000 2.014214
v 1.166726 1.000000 2.014214
v 1.166726 1.000000 2.014214
v -1.166726 1.000000 2.014214
v -0.969846 1.000000 2.218034
v 0.969846 1.000000 2.218034
v 0.969846 1.000000 2.218034
v -0.969846 1.000000 2.218034
v -0.749084 1.000000 2.382013
v 0.749084 1.000000 2.382013
v 0.749084 1.000000 2.382013
v -0.749084 1.000000 2.382013
v -0.509878 1.000000 2.502113
v 0.509878 1.000000 2.502113
v 0.509878 1.000000 2.502113
v -0.509878 1.000000 2.502113
v -0.258117 1.000000 2.575377
v 0.258117 1.000000 2.575377
v 0.258117 1.000000 2.575377
v -0.258117 1.000000 2.575377
v -0.033000 1.000000 2.600000
v 0.033000 1.000000 2.600000
vt 0.25329691 0.00244236
vt 0.25329691 0.03825914
vt 0.29048001 0.03825914
vt 0.29048001 0.00244236
vt 0.25329691 0.03825914
vt 0.25329691 0.06216680
vt 0.29048001 0.06216680
vt 0.29048001 0.03825914
vt 0.25329691 0.23331470
vt 0.25329691 0.25722236
vt 0.29048001 0.25722236
vt 0.29048001 0.23331470
vt 0.25329691 0.25722236
vt 0.25329691 0.29352647
vt 0.29048001 0.29352647
vt 0.29048001 0.25722236
vt 0.25329691 0.29352647
vt 0.25329691 0.50049114
vt 0.29048001 0.50049114
vt 0.29048001 0.29352647
vt 0.29048001 0.00244236
vt 0.29048001 0.03825914
vt 0.31007661 0.03825914
vt 0.31007661 0.00244236
vt 0.29048001 0.03825914
vt 0.29048001 0.06216680
vt 0.31007661 0.06216680
vt 0.31007661 0.03825914
vt 0.29048001 0.23331470
vt 0.29048001 0.25722236
vt 0.31007661 0.25722236
vt 0.31007661 0.23331470
vt 0.29048001 0.25722236
vt 0.29048001 0.29352647
vt 0.31007661 0.29352647
vt 0.31007661 0.25722236
vt 0.29048001 0.29352647
vt 0.29048001 0.50049114
vt 0.31007661 0.50049114
vt 0.31007661 0.29352647
vt 0.31007661 0.00244236
vt 0.31007661 0.03825914
vt 0.32967322 0.03825914
vt 0.32967322 0.00244236
vt 0.31007661 0.03825914
vt 0.31007661 0.06216680
vt 0.32967322 0.06216680
vt 0.32967322 0.03825914
vt 0.31007661 0.23331470
vt 0.31007661 0.25722236
vt 0.32967322 0.25722236
vt 0.32967322 0.23331470
vt 0.31007661 0.25722236
vt 0.31007661 0.29352647
vt 0.32967322 0.29352647
vt 0.32967322 0.25722236
vt 0.31007661 0.29352647
vt 0.31007661 0.50049114
vt 0.32967322 0.50049114
vt 0.32967322 0.29352647
vt 0.32967322 0.00244236
vt 0.32967322 0.03825914
vt 0.34926982 0.03825914
vt 0.34926982 0.00244236
vt 0.32967322 0.03825914
vt 0.32967322 0.06216680
vt 0.34926982 0.06216680
vt 0.34926982 0.03825914
vt 0.32967322 0.23331470
vt 0.32967322 0.25722236
vt 0.34926982 0.25722236
vt 0.34926982 0.23331470
vt 0.32967322 0.25722236
vt 0.32967322 0.29352647
vt 0.34926982 0.29352647
vt 0.34926982 0.25722236
vt 0.32967322 0.29352647
vt 0.32967322 0.50049114
vt 0.34926982 0.50049114
vt 0.34926982 0.29352647
vt 0.34926982 0.00244236
vt 0.34926982 0.03825914
vt 0.36886642 0.03825914
vt 0.36886642 0.00244236
vt 0.34926982 0.03825914
vt 0.34926982 0.06216680
vt 0.36886642 0.06216680
vt 0.36886642 0.03825914
vt 0.34926982 0.23331470
vt 0.34926982 0.25722236
vt 0.36886642 0.25722236
vt 0.36886642 0.23331470
vt 0.34926982 0.25722236
vt 0.34926982 0.29352647
vt 0.36886642 0.29352647
vt 0.36886642 0.25722236
vt 0.34926982 0.29352647
vt 0.34926982 0.50049114
vt 0.36886642 0.50049114
vt 0.36886642 0.29352647
vt 0.36886642 0.00244236
vt 0.36886642 0.03825914
vt 0.38846303 0.03825914
vt 0.38846303 0.00244236
vt 0.36886642 0.03825914
vt 0.36886642 0.06216680
vt 0.38846303 0.06216680
vt 0.38846303 0.03825914
vt 0.36886642 0.23331470
vt 0.36886642 0.25722236
vt 0.38846303 0.25722236
vt 0.38846303 0.23331470
vt 0.36886642 0.25722236
vt 0.36886642 0.29352647
vt 0.38846303 0.29352647
vt 0.38846303 0.25722236
vt 0.36886642 0.29352647
vt 0.36886642 0.50049114
vt 0.38846303 0.50049114
vt 0.38846303 0.29352647
vt 0.38846303 0.00244236
vt 0.38846303 0.03825914
vt 0.40805963 0.03825914
vt 0.40805963 0.00244236
vt 0.38846303 0.03825914
vt 0.38846303 0.06216680
vt 0.40805963 0.06216680
vt 0.40805963 0.03825914
vt 0.38846303 0.23331470
vt 0.38846303 0.25722236
vt 0.40805963 0.25722236
vt 0.40805963 0.23331470
vt 0.38846303 0.25722236
vt 0.38846303 0.29352647
vt 0.40805963 0.29352647
vt 0.40805963 0.25722236
vt 0.38846303 0.29352647
vt 0.38846303 0.50049114
vt 0.40805963 0.50049114
vt 0.40805963 0.29352647
vt 0.40805963 0.00244236
vt 0.40805963 0.03825914
vt 0.42765624 0.03825914
vt 0.42765624 0.00244236
vt 0.40805963 0.03825914
vt 0.40805963 0.06216680
vt 0.42765624 0.06216680
vt 0.42765624 0.03825914
vt 0.40805963 0.23331470
vt 0.40805963 0.25722236
vt 0.42765624 0.25722236
vt 0.42765624 0.23331470
vt 0.40805963 0.25722236
vt 0.40805963 0.29352647
vt 0.42765624 0.29352647
vt 0.42765624 0.25722236
vt 0.40805963 0.29352647
vt 0.40805963 0.50049114
vt 0.42765624 0.50049114
vt 0.42765624 0.29352647
vt 0.42765624 0.00244236
vt 0.42765624 0.03825914
vt 0.44725284 0.03825914
vt 0.44725284 0.00244236
vt 0.42765624 0.03825914
vt 0.42765624 0.06216680
vt 0.44725284 0.06216680
vt 0.44725284 0.03825914
vt 0.42765624 0.23331470
vt 0.42765624 0.25722236
vt 0.44725284 0.25722236
vt 0.44725284 0.23331470
vt 0.42765624 0.25722236
vt 0.42765624 0.29352647
vt 0.44725284 0.29352647
vt 0.44725284 0.25722236
vt 0.42765624 0.29352647
vt 0.42765624 0.50049114
vt 0.44725284 0.50049114
vt 0.44725284 0.29352647
vt 0.44725284 0.00244236
vt 0.44725284 0.03825914
vt 0.46684945 0.03825914
vt 0.46684945 0.00244236
vt 0.44725284 0.03825914
vt 0.44725284 0.06216680
vt 0.46684945 0.06216680
vt 0.46684945 0.03825914
vt 0.44725284 0.23331470
vt 0.44725284 0.25722236
vt 0.46684945 0.25722236
vt 0.46684945 0.23331470
vt 0.44725284 0.25722236
vt 0.44725284 0.29352647
vt 0.46684945 0.29352647
vt 0.46684945 0.25722236
vt 0.44725284 0.29352647
vt 0.44725284 0.50049114
vt 0.46684945 0.50049114
vt 0.46684945 0.29352647
vt 0.46684945 0.00244236
vt 0.46684945 0.03825914
vt 0.48644605 0.03825914
vt 0.48644605 0.00244236
vt 0.46684945 0.03825914
vt 0.46684945 0.06216680
vt 0.48644605 0.06216680
vt 0.48644605 0.03825914
vt 0.46684945 0.23331470
vt 0.46684945 0.25722236
vt 0.48644605 0.25722236
vt 0.48644605 0.23331470
vt 0.46684945 0.25722236
vt 0.46684945 0.29352647
vt 0.48644605 0.29352647
vt 0.48644605 0.25722236
vt 0.46684945 0.29352647
vt 0.46684945 0.50049114
vt 0.48644605 0.50049114
vt 0.48644605 0.29352647
vt 0.00122070 0.00244236
vt 0.00122070 0.50049114
vt 0.03840380 0.50049114
vt 0.03840380 0.00244236
vt 0.03840380 0.00244236
vt 0.03840380 0.50049114
vt 0.05800040 0.50049114
vt 0.05800040 0.00244236
vt 0.05800040 0.00244236
vt 0.05800040 0.50049114
vt 0.07759701 0.50049114
vt 0.07759701 0.00244236
vt 0.07759701 0.00244236
vt 0.07759701 0.50049114
vt 0.09719361 0.50049114
vt 0.09719361 0.00244236
vt 0.09719361 0.00244236
vt 0.09719361 0.50049114
vt 0.11679022 0.50049114
vt 0.11679022 0.00244236
vt 0.11679022 0.00244236
vt 0.11679022 0.50049114
vt 0.13638682 0.50049114
vt 0.13638682 0.00244236
vt 0.13638682 0.00244236
vt 0.13638682 0.50049114
vt 0.15598342 0.50049114
vt 0.15598342 0.00244236
vt 0.15598342 0.00244236
vt 0.15598342 0.50049114
vt 0.17558003 0.50049114
vt 0.17558003 0.00244236
vt 0.17558003 0.00244236
vt 0.17558003 0.50049114
vt 0.19517663 0.50049114
vt 0.19517663 0.00244236
vt 0.19517663 0.00244236
vt 0.19517663 0.50049114
vt 0.21477324 0.50049114
vt 0.21477324 0.00244236
vt 0.21477324 0.00244236
vt 0.21477324 0.50049114
vt 0.23436984 0.50049114
vt 0.23436984 0.00244236
vn -1.000000 0.000000 0.000000
vn -1.000000 0.000000 0.000000
vn -0.650791 0.759257 0.000000
vn -0.650791 0.759257 0.000000
vn 0.650791 0.759257 0.000000
vn 0.650791 0.759257 0.000000
vn 1.000000 0.000000 0.000000
vn 1.000000 0.000000 0.000000
vn 0.000000 -1.000000 0.000000
vn 0.000000 -1.000000 0.000000
vn -0.996917 0.000000 0.078459
vn -0.996917 0.000000 0.078459
vn -0.654561 0.754252 0.051515
vn -0.650211 0.758580 0.042218
vn 0.654838 0.754572 0.042518
vn 0.649939 0.758263 0.051151
vn 0.996917 0.000000 0.078459
vn 0.996917 0.000000 0.078459
vn 0.000000 -1.000000 0.000000
vn 0.000000 -1.000000 0.000000
vn -0.972370 0.000000 0.233445
vn -0.972370 0.000000 0.233445
vn -0.660996 0.733418 0.158691
vn -0.649977 0.748970 0.128738
vn 0.663670 0.736385 0.131450
vn 0.647464 0.746075 0.155442
vn 0.972370 0.000000 0.233445
vn 0.972370 0.000000 0.233445
vn 0.000000 -1.000000 0.000000
vn 0.000000 -1.000000 0.000000
vn -0.923880 0.000000 0.382683
vn -0.923880 0.000000 0.382683
vn -0.666349 0.692674 0.276011
vn -0.652618 0.724123 0.223017
vn 0.674606 0.701258 0.230530
vn 0.645133 0.715818 0.267223
vn 0.923880 0.000000 0.382683
vn 0.923880 0.000000 0.382683
vn 0.000000 -1.000000 0.000000
vn 0.000000 -1.000000 0.000000
vn -0.852640 0.000000 0.522499
vn -0.852640 0.000000 0.522499
vn -0.664253 0.626957 0.407055
vn -0.654256 0.680105 0.330766
vn 0.682558 0.644235 0.345074
vn 0.638083 0.663292 0.391018
vn 0.852640 0.000000 0.522499
vn 0.852640 0.000000 0.522499
vn 0.000000 -1.000000 0.000000
vn 0.000000 -1.000000 0.000000
vn -0.760406 0.000000 0.649448
vn -0.760406 0.000000 0.649448
vn -0.644155 0.531401 0.550161
vn -0.647206 0.610867 0.456032
vn 0.677746 0.559112 0.477551
vn 0.617765 0.583080 0.527621
vn 0.760406 0.000000 0.649448
vn 0.760406 0.000000 0.649448
vn 0.000000 -1.000000 0.000000
vn 0.000000 -1.000000 0.000000
vn -0.649448 0.000000 0.760406
vn -0.649448 0.000000 0.760406
vn -0.593272 0.406836 0.694632
vn -0.618556 0.510283 0.597495
vn 0.645052 0.442344 0.623089
vn 0.572463 0.472258 0.670268
vn 0.649448 0.000000 0.760406
vn 0.649448 0.000000 0.760406
vn 0.000000 -1.000000 0.000000
vn 0.000000 -1.000000 0.000000
vn -0.522499 0.000000 0.852640
vn -0.522499 0.000000 0.852640
vn -0.503571 0.266719 0.821753
vn -0.551929 0.378485 0.743050
vn 0.568604 0.301164 0.765499
vn 0.491878 0.337305 0.802672
vn 0.522499 0.000000 0.852640
vn 0.522499 0.000000 0.852640
vn 0.000000 -1.000000 0.000000
vn 0.000000 -1.000000 0.000000
vn -0.382683 0.000000 0.923880
vn -0.382683 0.000000 0.923880
vn -0.379093 0.136670 0.915210
vn -0.436539 0.231216 0.869467
vn 0.442940 0.159689 0.882215
vn 0.375057 0.198651 0.905467
vn 0.382683 0.000000 0.923880
vn 0.382683 0.000000 0.923880
vn 0.000000 -1.000000 0.000000
vn 0.000000 -1.000000 0.000000
vn -0.233445 0.000000 0.972370
vn -0.233445 0.000000 0.972370
vn -0.233234 0.042567 0.971489
vn -0.278007 0.100227 0.955336
vn 0.279051 0.050929 0.958925
vn 0.232623 0.083865 0.968944
vn 0.233445 0.000000 0.972370
vn 0.233445 0.000000 0.972370
vn 0.000000 -1.000000 0.000000
vn 0.000000 -1.000000 0.000000
vn -0.089873 0.000000 0.995953
vn -0.089873 0.000000 0.995953
vn -0.089873 0.002097 0.995951
vn -0.108710 0.019840 0.993875
vn 0.108731 0.002537 0.994068
vn 0.089861 0.016400 0.995819
vn 0.089873 0.000000 0.995953
vn 0.089873 0.000000 0.995953
vn 0.000000 -1.000000 0.000000
vn 0.000000 -1.000000 0.000000
vn 0.000000 1.000000 0.000000
vn 0.000000 1.000000 0.000000
vn 0.000000 1.000000 0.000000
vn 0.000000 1.000000 0.000000
vn 0.000000 1.000000 0.000000
vn 0.000000 1.000000 0.000000
vn 0.000000 1.000000 0.000000
vn 0.000000 1.000000 0.000000
vn 0.000000 1.000000 0.000000
vn 0.000000 1.000000 0.000000
vn 0.000000 1.000000 0.000000
vn 0.000000 1.000000 0.000000
vn 0.000000 1.000000 0.000000
vn 0.000000 1.000000 0.000000
vn 0.000000 1.000000 0.000000
vn 0.000000 1.000000 0.000000
vn 0.000000 1.000000 0.000000
vn 0.000000 1.000000 0.000000
vn 0.000000 1.000000 0.000000
vn 0.000000 1.000000 0.000000
vn 0.000000 1.000000 0.000000
vn 0.000000 1.000000 0.000000
f 1/1/1 4/4/1 3/3/1
f 1/1/2 3/3/2 2/2/2
f 5/5/3 8/8/3 7/7/3
f 5/5/4 7/7/4 6/6/4
f 9/9/5 12/12/5 11/11/5
f 9/9/6 11/11/6 10/10/6
f 13/13/7 16/16/7 15/15/7
f 13/13/8 15/15/8 14/14/8
f 17/17/9 20/20/9 19/19/9
f 17/17/10 19/19/10 18/18/10
f 21/21/11 24/24/11 23/23/11
f 21/21/12 23/23/12 22/22/12
f 25/25/13 28/28/13 27/27/13
f 25/25/14 27/27/14 26/26/14
f 29/29/15 32/32/15 31/31/15
f 29/29/16 31/31/16 30/30/16
f 33/33/17 36/36/17 35/35/17
f 33/33/18 35/35/18 34/34/18
f 37/37/19 40/40/19 39/39/19
f 37/37/20 39/39/20 38/38/20
f 41/41/21 44/44/21 43/43/21
f 41/41/22 43/43/22 42/42/22
f 45/45/23 48/48/23 47/47/23
f 45/45/24 47/47/24 46/46/24
f 49/49/25 52/52/25 51/51/25
f 49/49/26 51/51/26 50/50/26
f 53/53/27 56/56/27 55/55/27
f 53/53/28 55/55/28 54/54/28
f 57/57/29 60/60/29 59/59/29
f 57/57/30 59/59/30 58/58/30
f 61/61/31 64/64/31 63/63/31
f 61/61/32 63/63/32 62/62/32
f 65/65/33 68/68/33 67/67/33
f 65/65/34 67/67/34 66/66/34
f 69/69/35 72/72/35 71/71/35
f 69/69/36 71/71/36 70/70/36
f 73/73/37 76/76/37 75/75/37
f 73/73/38 75/75/38 74/74/38
f 77/77/39 80/80/39 79/79/39
f 77/77/40 79/79/40 78/78/40
f 81/81/41 84/84/41 83/83/41
f 81/81/42 83/83/42 82/82/42
f 85/85/43 88/88/43 87/87/43
f 85/85/44 87/87/44 86/86/44
f 89/89/45 92/92/45 91/91/45
f 89/89/46 91/91/46 90/90/46
f 93/93/47 96/96/47 95/95/47
f 93/93/48 95/95/48 94/94/48
f 97/97/49 100/100/49 99/99/49
f 97/97/50 99/99/50 98/98/50
f 101/101/51 104/104/51 103/103/51
f 101/101/52 103/103/52 102/102/52
f 105/105/53 108/108/53 107/107/53
f 105/105/54 107/107/54 106/106/54
f 109/109/55 112/112/55 111/111/55
f 109/109/56 111/111/56 110/110/56
f 113/113/57 116/116/57 115/115/57
f 113/113/58 115/115/58 114/114/58
f 117/117/59 120/120/59 119/119/59
f 117/117/60 119/119/60 118/118/60
f 121/121/61 124/124/61 123/123/61
f 121/121/62 123/123/62 122/122/62
f 125/125/63 128/128/63 127/127/63
f 125/125/64 127/127/64 126/126/64
f 129/129/65 132/132/65 131/131/65
f 129/129/66 131/131/66 130/130/66
f 133/133/67 136/136/67 135/135/67
f 133/133/68 135/135/68 134/134/68
f 137/137/69 140/140/69 139/139/69
f 137/137/70 139/139/70 138/138/70
f 141/141/71 144/144/71 143/143/71
f 141/141/72 143/143/72 142/142/72
f 145/145/73 148/148/73 147/147/73
f 145/145/74 147/147/74 146/146/74
f 149/149/75 152/152/75 151/151/75
f 149/149/76 151/151/76 150/150/76
f 153/153/77 156/156/77 155/155/77
f 153/153/78 155/155/78 154/154/78
f 157/157/79 160/160/79 159/159/79
f 157/157/80 159/159/80 158/158/80
f 161/161/81 164/164/81 163/163/81
f 161/161/82 163/163/82 162/162/82
f 165/165/83 168/168/83 167/167/83
f 165/165/84 167/167/84 166/166/84
f 169/169/85 172/172/85 171/171/85
f 169/169/86 171/171/86 170/170/86
f 173/173/87 176/176/87 175/175/87
f 173/173/88 175/175/88 174/174/88
f 177/177/89 180/180/89 179/179/89
f 177/177/90 179/179/90 178/178/90
f 181/181/91 184/184/91 183/183/91
f 181/181/92 183/183/92 182/182/92
f 185/185/93 188/188/93 187/187/93
f 185/185/94 187/187/94 186/186/94
f 189/189/95 192/192/95 191/191/95
f 189/189/96 191/191/96 190/190/96
f 193/193/97 196/196/97 195/195/97
f 193/193/98 195/195/98 194/194/98
f 197/197/99 200/200/99 199/199/99
f 197/197/100 199/199/100 198/198/100
f 201/201/101 204/204/101 203/203/101
f 201/201/102 203/203/102 202/202/102
f 205/205/103 208/208/103 207/207/103
f 205/205/104 207/207/104 206/206/104
f 209/209/105 212/212/105 211/211/105
f 209/209/106 211/211/106 210/210/106
f 213/213/107 216/216/107 215/215/107
f 213/213/108 215/215/108 214/214/108
f 217/217/109 220/220/109 219/219/109
f 217/217/110 219/219/110 218/218/110
f 221/221/111 222/222/111 223/223/111
f 221/221/112 223/223/112 224/224/112
f 225/225/113 226/226/113 227/227/113
f 225/225/114 227/227/114 228/228/114
f 229/229/115 230/230/115 231/231/115
f 229/229/116 231/231/116 232/232/116
f 233/233/117 234/234/117 235/235/117
f 233/233/118 235/235/118 236/236/118
f 237/237/119 238/238/119 239/239/119
f 237/237/120 239/239/120 240/240/120
f 241/241/121 242/242/121 243/243/121
f 241/241/122 243/243/122 244/244/122
f 245/245/123 246/246/123 247/247/123
f 245/245/124 247/247/124 248/248/124
f 249/249/125 250/250/125 251/251/125
f 249/249/126 251/251/126 252/252/126
f 253/253/127 254/254/127 255/255/127
f 253/253/128 255/255/128 256/256/128
f 257/257/129 258/258/129 259/259/129
f 257/257/130 259/259/130 260/260/130
f 261/261/131 262/262/131 263/263/131
f 261/261/132 263/263/132 264/264/132
