# Converted to Y-up (forward=+Z) with generated flat normals (v5)
mtllib road.mtl
usemtl road
v -0.880000 0.250000 1.000000
v 0.880000 0.250000 1.000000
v 0.843876 0.250000 0.633230
v -0.882306 0.250000 0.976589
v -1.000000 0.150000 1.000000
v -0.880000 0.250000 1.000000
v -0.882306 0.250000 0.976589
v 0.880000 0.250000 1.000000
v 1.000000 0.150000 1.000000
v 0.961571 0.150000 0.609819
v 0.843876 0.250000 0.633230
v 1.000000 0.000000 1.000000
v 0.961571 0.000000 0.609819
v 0.961571 0.150000 0.609819
v 1.000000 0.150000 1.000000
v -1.000000 0.000000 1.000000
v 0.961571 0.000000 0.609819
v 1.000000 0.000000 1.000000
v -0.882306 0.250000 0.976589
v 0.843876 0.250000 0.633230
v 0.736894 0.250000 0.280555
v -0.889134 0.250000 0.954078
v -1.000000 0.150000 1.000000
v -0.882306 0.250000 0.976589
v -0.889134 0.250000 0.954078
v 0.843876 0.250000 0.633230
v 0.961571 0.150000 0.609819
v 0.847759 0.150000 0.234633
v 0.736894 0.250000 0.280555
v 0.961571 0.000000 0.609819
v 0.847759 0.000000 0.234633
v 0.847759 0.150000 0.234633
v 0.961571 0.150000 0.609819
v -1.000000 0.000000 1.000000
v 0.847759 0.000000 0.234633
v 0.961571 0.000000 0.609819
v -0.889134 0.250000 0.954078
v 0.736894 0.250000 0.280555
v 0.563163 0.250000 -0.044472
v -0.900224 0.250000 0.933332
v -1.000000 0.150000 1.000000
v -0.889134 0.250000 0.954078
v -0.900224 0.250000 0.933332
v 0.736894 0.250000 0.280555
v 0.847759 0.150000 0.234633
v 0.662939 0.150000 -0.111140
v 0.563163 0.250000 -0.044472
v 0.847759 0.000000 0.234633
v 0.662939 0.000000 -0.111140
v 0.662939 0.150000 -0.111140
v 0.847759 0.150000 0.234633
v -1.000000 0.000000 1.000000
v 0.662939 0.000000 -0.111140
v 0.847759 0.000000 0.234633
v -0.900224 0.250000 0.933332
v 0.563163 0.250000 -0.044472
v 0.329361 0.250000 -0.329361
v -0.915147 0.250000 0.915147
v -1.000000 0.150000 1.000000
v -0.900224 0.250000 0.933332
v -0.915147 0.250000 0.915147
v 0.563163 0.250000 -0.044472
v 0.662939 0.150000 -0.111140
v 0.414214 0.150000 -0.414214
v 0.329361 0.250000 -0.329361
v 0.662939 0.000000 -0.111140
v 0.414214 0.000000 -0.414214
v 0.414214 0.150000 -0.414214
v 0.662939 0.150000 -0.111140
v -1.000000 0.000000 1.000000
v 0.414214 0.000000 -0.414214
v 0.662939 0.000000 -0.111140
v -0.915147 0.250000 0.915147
v 0.329361 0.250000 -0.329361
v 0.044472 0.250000 -0.563163
v -0.933332 0.250000 0.900224
v -1.000000 0.150000 1.000000
v -0.915147 0.250000 0.915147
v -0.933332 0.250000 0.900224
v 0.329361 0.250000 -0.329361
v 0.414214 0.150000 -0.414214
v 0.111140 0.150000 -0.662939
v 0.044472 0.250000 -0.563163
v 0.414214 0.000000 -0.414214
v 0.111140 0.000000 -0.662939
v 0.111140 0.150000 -0.662939
v 0.414214 0.150000 -0.414214
v -1.000000 0.000000 1.000000
v 0.111140 0.000000 -0.662939
v 0.414214 0.000000 -0.414214
v -0.933332 0.250000 0.900224
v 0.044472 0.250000 -0.563163
v -0.280555 0.250000 -0.736894
v -0.954078 0.250000 0.889134
v -1.000000 0.150000 1.000000
v -0.933332 0.250000 0.900224
v -0.954078 0.250000 0.889134
v 0.044472 0.250000 -0.563163
v 0.111140 0.150000 -0.662939
v -0.234633 0.150000 -0.847759
v -0.280555 0.250000 -0.736894
v 0.111140 0.000000 -0.662939
v -0.234633 0.000000 -0.847759
v -0.234633 0.150000 -0.847759
v 0.111140 0.150000 -0.662939
v -1.000000 0.000000 1.000000
v -0.234633 0.000000 -0.847759
v 0.111140 0.000000 -0.662939
v -0.954078 0.250000 0.889134
v -0.280555 0.250000 -0.736894
v -0.633230 0.250000 -0.843876
v -0.976589 0.250000 0.882306
v -1.000000 0.150000 1.000000
v -0.954078 0.250000 0.889134
v -0.976589 0.250000 0.882306
v -0.280555 0.250000 -0.736894
v -0.234633 0.150000 -0.847759
v -0.609819 0.150000 -0.961571
v -0.633230 0.250000 -0.843876
v -0.234633 0.000000 -0.847759
v -0.609819 0.000000 -0.961571
v -0.609819 0.150000 -0.961571
v -0.234633 0.150000 -0.847759
v -1.000000 0.000000 1.000000
v -0.609819 0.000000 -0.961571
v -0.234633 0.000000 -0.847759
v -0.976589 0.250000 0.882306
v -0.633230 0.250000 -0.843876
v -1.000000 0.250000 -0.880000
v -1.000000 0.250000 0.880000
v -1.000000 0.150000 1.000000
v -0.976589 0.250000 0.882306
v -1.000000 0.250000 0.880000
v -0.633230 0.250000 -0.843876
v -0.609819 0.150000 -0.961571
v -1.000000 0.150000 -1.000000
v -1.000000 0.250000 -0.880000
v -0.609819 0.000000 -0.961571
v -1.000000 0.000000 -1.000000
v -1.000000 0.150000 -1.000000
v -0.609819 0.150000 -0.961571
v -1.000000 0.000000 1.000000
v -1.000000 0.000000 -1.000000
v -0.609819 0.000000 -0.961571
vt 0.71421875 0.45703125
vt 0.59046875 0.45703125
vt 0.59300870 0.42479562
vt 0.71438087 0.45497366
vt 0.00000000 0.70703125
vt 0.00000000 0.74218750
vt 0.19634954 0.74218750
vt 0.00000000 0.74218750
vt 0.00000000 0.70703125
vt 0.19634954 0.70703125
vt 0.19634954 0.74218750
vt 0.00000000 0.53515625
vt 0.19634954 0.53515625
vt 0.19634954 0.69921875
vt 0.00000000 0.69921875
vt 0.00000000 0.52734375
vt 0.19634954 0.47265625
vt 0.00000000 0.47265625
vt 0.71438087 0.45497366
vt 0.59300870 0.42479562
vt 0.60053092 0.39379879
vt 0.71486102 0.45299514
vt 0.19634954 0.70703125
vt 0.19634954 0.74218750
vt 0.39269908 0.74218750
vt 0.19634954 0.74218750
vt 0.19634954 0.70703125
vt 0.39269908 0.70703125
vt 0.39269908 0.74218750
vt 0.19634954 0.53515625
vt 0.39269908 0.53515625
vt 0.39269908 0.69921875
vt 0.19634954 0.69921875
vt 0.19634954 0.52734375
vt 0.39269908 0.47265625
vt 0.19634954 0.47265625
vt 0.71486102 0.45299514
vt 0.60053092 0.39379879
vt 0.61274636 0.36523195
vt 0.71564073 0.45117172
vt 0.39269908 0.70703125
vt 0.39269908 0.74218750
vt 0.58904862 0.74218750
vt 0.39269908 0.74218750
vt 0.39269908 0.70703125
vt 0.58904862 0.70703125
vt 0.58904862 0.74218750
vt 0.39269908 0.53515625
vt 0.58904862 0.53515625
vt 0.58904862 0.69921875
vt 0.39269908 0.69921875
vt 0.39269908 0.52734375
vt 0.58904862 0.47265625
vt 0.39269908 0.47265625
vt 0.71564073 0.45117172
vt 0.61274636 0.36523195
vt 0.62918557 0.34019290
vt 0.71669004 0.44957348
vt 0.58904862 0.70703125
vt 0.58904862 0.74218750
vt 0.78539816 0.74218750
vt 0.58904862 0.74218750
vt 0.58904862 0.70703125
vt 0.78539816 0.70703125
vt 0.78539816 0.74218750
vt 0.58904862 0.53515625
vt 0.78539816 0.53515625
vt 0.78539816 0.69921875
vt 0.58904862 0.69921875
vt 0.58904862 0.52734375
vt 0.78539816 0.47265625
vt 0.58904862 0.47265625
vt 0.71669004 0.44957348
vt 0.62918557 0.34019290
vt 0.64921681 0.31964389
vt 0.71796863 0.44826184
vt 0.78539816 0.70703125
vt 0.78539816 0.74218750
vt 0.98174770 0.74218750
vt 0.78539816 0.74218750
vt 0.78539816 0.70703125
vt 0.98174770 0.70703125
vt 0.98174770 0.74218750
vt 0.78539816 0.53515625
vt 0.98174770 0.53515625
vt 0.98174770 0.69921875
vt 0.78539816 0.69921875
vt 0.78539816 0.52734375
vt 0.98174770 0.47265625
vt 0.78539816 0.47265625
vt 0.71796863 0.44826184
vt 0.64921681 0.31964389
vt 0.67207028 0.30437459
vt 0.71942736 0.44728721
vt 0.98174770 0.70703125
vt 0.98174770 0.74218750
vt 1.17809725 0.74218750
vt 0.98174770 0.74218750
vt 0.98174770 0.70703125
vt 1.17809725 0.70703125
vt 1.17809725 0.74218750
vt 0.98174770 0.53515625
vt 1.17809725 0.53515625
vt 1.17809725 0.69921875
vt 0.98174770 0.69921875
vt 0.98174770 0.52734375
vt 1.17809725 0.47265625
vt 0.98174770 0.47265625
vt 0.71942736 0.44728721
vt 0.67207028 0.30437459
vt 0.69686775 0.29497181
vt 0.72101018 0.44668703
vt 1.17809725 0.70703125
vt 1.17809725 0.74218750
vt 1.37444679 0.74218750
vt 1.17809725 0.74218750
vt 1.17809725 0.70703125
vt 1.37444679 0.70703125
vt 1.37444679 0.74218750
vt 1.17809725 0.53515625
vt 1.37444679 0.53515625
vt 1.37444679 0.69921875
vt 1.17809725 0.69921875
vt 1.17809725 0.52734375
vt 1.37444679 0.47265625
vt 1.17809725 0.47265625
vt 0.72101018 0.44668703
vt 0.69686775 0.29497181
vt 0.72265625 0.29179687
vt 0.72265625 0.44648438
vt 1.37444679 0.70703125
vt 1.37444679 0.74218750
vt 1.57079633 0.74218750
vt 1.37444679 0.74218750
vt 1.37444679 0.70703125
vt 1.57079633 0.70703125
vt 1.57079633 0.74218750
vt 1.37444679 0.53515625
vt 1.57079633 0.53515625
vt 1.57079633 0.69921875
vt 1.37444679 0.69921875
vt 1.37444679 0.52734375
vt 1.57079633 0.47265625
vt 1.37444679 0.47265625
vn -0.000000 1.000000 0.000000
vn 0.000000 1.000000 0.000000
vn -0.638916 0.766699 0.062928
vn 0.638916 0.766699 -0.062928
vn 0.638916 0.766699 -0.062928
vn 0.995185 0.000000 -0.098017
vn 0.995185 0.000000 -0.098017
vn 0.000000 -1.000000 0.000000
vn 0.000000 1.000000 0.000000
vn 0.000000 1.000000 0.000000
vn -0.614362 0.766699 0.186365
vn 0.614362 0.766699 -0.186365
vn 0.614362 0.766699 -0.186365
vn 0.956940 0.000000 -0.290285
vn 0.956940 0.000000 -0.290285
vn 0.000000 -1.000000 0.000000
vn 0.000000 1.000000 0.000000
vn 0.000000 1.000000 0.000000
vn -0.566200 0.766699 0.302640
vn 0.566200 0.766699 -0.302640
vn 0.566200 0.766699 -0.302640
vn 0.881921 0.000000 -0.471397
vn 0.881921 0.000000 -0.471397
vn 0.000000 -1.000000 0.000000
vn 0.000000 1.000000 0.000000
vn 0.000000 1.000000 0.000000
vn -0.496278 0.766699 0.407285
vn 0.496278 0.766699 -0.407285
vn 0.496278 0.766699 -0.407285
vn 0.773010 0.000000 -0.634393
vn 0.773010 0.000000 -0.634393
vn 0.000000 -1.000000 0.000000
vn 0.000000 1.000000 0.000000
vn 0.000000 1.000000 0.000000
vn -0.407285 0.766699 0.496278
vn 0.407285 0.766699 -0.496278
vn 0.407285 0.766699 -0.496278
vn 0.634393 0.000000 -0.773010
vn 0.634393 0.000000 -0.773010
vn 0.000000 -1.000000 0.000000
vn 0.000000 1.000000 0.000000
vn 0.000000 1.000000 0.000000
vn -0.302640 0.766699 0.566200
vn 0.302640 0.766699 -0.566200
vn 0.302640 0.766699 -0.566200
vn 0.471397 0.000000 -0.881921
vn 0.471397 0.000000 -0.881921
vn 0.000000 -1.000000 0.000000
vn 0.000000 1.000000 0.000000
vn 0.000000 1.000000 0.000000
vn -0.186365 0.766699 0.614362
vn 0.186365 0.766699 -0.614362
vn 0.186365 0.766699 -0.614362
vn 0.290285 0.000000 -0.956940
vn 0.290285 0.000000 -0.956940
vn 0.000000 -1.000000 0.000000
vn 0.000000 1.000000 0.000000
vn 0.000000 1.000000 0.000000
vn -0.062928 0.766699 0.638916
vn 0.062928 0.766699 -0.638916
vn 0.062928 0.766699 -0.638916
vn 0.098017 0.000000 -0.995185
vn 0.098017 0.000000 -0.995185
vn 0.000000 -1.000000 0.000000
f 1/1/1 2/2/1 3/3/1
f 1/1/2 3/3/2 4/4/2
f 5/5/3 6/6/3 7/7/3
f 8/8/4 9/9/4 10/10/4
f 8/8/5 10/10/5 11/11/5
f 12/12/6 13/13/6 14/14/6
f 12/12/7 14/14/7 15/15/7
f 16/16/8 17/17/8 18/18/8
f 19/19/9 20/20/9 21/21/9
f 19/19/10 21/21/10 22/22/10
f 23/23/11 24/24/11 25/25/11
f 26/26/12 27/27/12 28/28/12
f 26/26/13 28/28/13 29/29/13
f 30/30/14 31/31/14 32/32/14
f 30/30/15 32/32/15 33/33/15
f 34/34/16 35/35/16 36/36/16
f 37/37/17 38/38/17 39/39/17
f 37/37/18 39/39/18 40/40/18
f 41/41/19 42/42/19 43/43/19
f 44/44/20 45/45/20 46/46/20
f 44/44/21 46/46/21 47/47/21
f 48/48/22 49/49/22 50/50/22
f 48/48/23 50/50/23 51/51/23
f 52/52/24 53/53/24 54/54/24
f 55/55/25 56/56/25 57/57/25
f 55/55/26 57/57/26 58/58/26
f 59/59/27 60/60/27 61/61/27
f 62/62/28 63/63/28 64/64/28
f 62/62/29 64/64/29 65/65/29
f 66/66/30 67/67/30 68/68/30
f 66/66/31 68/68/31 69/69/31
f 70/70/32 71/71/32 72/72/32
f 73/73/33 74/74/33 75/75/33
f 73/73/34 75/75/34 76/76/34
f 77/77/35 78/78/35 79/79/35
f 80/80/36 81/81/36 82/82/36
f 80/80/37 82/82/37 83/83/37
f 84/84/38 85/85/38 86/86/38
f 84/84/39 86/86/39 87/87/39
f 88/88/40 89/89/40 90/90/40
f 91/91/41 92/92/41 93/93/41
f 91/91/42 93/93/42 94/94/42
f 95/95/43 96/96/43 97/97/43
f 98/98/44 99/99/44 100/100/44
f 98/98/45 100/100/45 101/101/45
f 102/102/46 103/103/46 104/104/46
f 102/102/47 104/104/47 105/105/47
f 106/106/48 107/107/48 108/108/48
f 109/109/49 110/110/49 111/111/49
f 109/109/50 111/111/50 112/112/50
f 113/113/51 114/114/51 115/115/51
f 116/116/52 117/117/52 118/118/52
f 116/116/53 118/118/53 119/119/53
f 120/120/54 121/121/54 122/122/54
f 120/120/55 122/122/55 123/123/55
f 124/124/56 125/125/56 126/126/56
f 127/127/57 128/128/57 129/129/57
f 127/127/58 129/129/58 130/130/58
f 131/131/59 132/132/59 133/133/59
f 134/134/60 135/135/60 136/136/60
f 134/134/61 136/136/61 137/137/61
f 138/138/62 139/139/62 140/140/62
f 138/138/63 140/140/63 141/141/63
f 142/142/64 143/143/64 144/144/64
