# Converted to Y-up (forward=+Z) with generated flat normals (v5)
mtllib road.mtl
usemtl road
v 0.880000 0.250000 -0.880000
v -0.880000 0.250000 -0.880000
v -0.880000 0.250000 0.880000
v 0.880000 0.250000 0.880000
v -0.880000 0.250000 -0.880000
v -1.000000 0.250000 -0.880000
v -1.000000 0.250000 0.880000
v -0.880000 0.250000 0.880000
v 1.000000 0.250000 -0.880000
v 0.880000 0.250000 -0.880000
v 0.880000 0.250000 0.880000
v 1.000000 0.250000 0.880000
v 0.880000 0.250000 0.880000
v -0.880000 0.250000 0.880000
v -0.880000 0.250000 1.000000
v 0.880000 0.250000 1.000000
v 0.880000 0.250000 -1.000000
v -0.880000 0.250000 -1.000000
v -0.880000 0.250000 -0.880000
v 0.880000 0.250000 -0.880000
v 0.880000 0.250000 -0.880000
v 1.000000 0.250000 -0.880000
v 1.000000 0.150000 -1.000000
v 0.880000 0.250000 -0.880000
v 1.000000 0.150000 -1.000000
v 0.880000 0.250000 -1.000000
v 0.880000 0.250000 0.880000
v 1.000000 0.150000 1.000000
v 1.000000 0.250000 0.880000
v 0.880000 0.250000 0.880000
v 0.880000 0.250000 1.000000
v 1.000000 0.150000 1.000000
v -0.880000 0.250000 -0.880000
v -1.000000 0.150000 -1.000000
v -1.000000 0.250000 -0.880000
v -0.880000 0.250000 -0.880000
v -0.880000 0.250000 -1.000000
v -1.000000 0.150000 -1.000000
v -0.880000 0.250000 0.880000
v -1.000000 0.250000 0.880000
v -1.000000 0.150000 1.000000
v -0.880000 0.250000 0.880000
v -1.000000 0.150000 1.000000
v -0.880000 0.250000 1.000000
v 1.000000 0.000000 -1.000000
v 1.000000 0.000000 1.000000
v -1.000000 0.000000 1.000000
v -1.000000 0.000000 -1.000000
vt 0.01835937 0.29179687
vt 0.17304687 0.29179687
vt 0.17304687 0.44648438
vt 0.01835937 0.44648438
vt 0.17304687 0.29179687
vt 0.18359375 0.29179687
vt 0.18359375 0.44648438
vt 0.17304687 0.44648438
vt 0.00781250 0.29179687
vt 0.01835937 0.29179687
vt 0.01835937 0.44648438
vt 0.00781250 0.44648438
vt 0.01835937 0.44648438
vt 0.17304687 0.44648438
vt 0.17304687 0.45703125
vt 0.01835937 0.45703125
vt 0.01835937 0.28125000
vt 0.17304687 0.28125000
vt 0.17304687 0.29179687
vt 0.01835937 0.29179687
vt 0.01835937 0.29179687
vt 0.00781250 0.29179687
vt 0.00781250 0.28125000
vt 0.01835937 0.29179687
vt 0.00781250 0.28125000
vt 0.01835937 0.28125000
vt 0.01835937 0.44648438
vt 0.00781250 0.45703125
vt 0.00781250 0.44648438
vt 0.01835937 0.44648438
vt 0.01835937 0.45703125
vt 0.00781250 0.45703125
vt 0.17304687 0.29179687
vt 0.18359375 0.28125000
vt 0.18359375 0.29179687
vt 0.17304687 0.29179687
vt 0.17304687 0.28125000
vt 0.18359375 0.28125000
vt 0.17304687 0.44648438
vt 0.18359375 0.44648438
vt 0.18359375 0.45703125
vt 0.17304687 0.44648438
vt 0.18359375 0.45703125
vt 0.17304687 0.45703125
vt 0.00000000 0.47265625
vt 1.00000000 0.47265625
vt 1.00000000 0.52734375
vt 0.00000000 0.52734375
vn 0.000000 1.000000 0.000000
vn 0.000000 1.000000 -0.000000
vn 0.000000 1.000000 0.000000
vn 0.000000 1.000000 -0.000000
vn 0.000000 1.000000 0.000000
vn 0.000000 1.000000 -0.000000
vn 0.000000 1.000000 0.000000
vn 0.000000 1.000000 -0.000000
vn 0.000000 1.000000 0.000000
vn 0.000000 1.000000 -0.000000
vn 0.000000 0.768221 -0.640184
vn 0.640184 0.768221 0.000000
vn -0.000000 0.768221 0.640184
vn 0.640184 0.768221 -0.000000
vn 0.000000 0.768221 -0.640184
vn -0.640184 0.768221 0.000000
vn 0.000000 0.768221 0.640184
vn -0.640184 0.768221 0.000000
vn 0.000000 -1.000000 0.000000
vn 0.000000 -1.000000 0.000000
f 1/1/1 2/2/1 3/3/1
f 1/1/2 3/3/2 4/4/2
f 5/5/3 6/6/3 7/7/3
f 5/5/4 7/7/4 8/8/4
f 9/9/5 10/10/5 11/11/5
f 9/9/6 11/11/6 12/12/6
f 13/13/7 14/14/7 15/15/7
f 13/13/8 15/15/8 16/16/8
f 17/17/9 18/18/9 19/19/9
f 17/17/10 19/19/10 20/20/10
f 21/21/11 22/22/11 23/23/11
f 24/24/12 25/25/12 26/26/12
f 27/27/13 28/28/13 29/29/13
f 30/30/14 31/31/14 32/32/14
f 33/33/15 34/34/15 35/35/15
f 36/36/16 37/37/16 38/38/16
f 39/39/17 40/40/17 41/41/17
f 42/42/18 43/43/18 44/44/18
f 45/45/19 46/46/19 47/47/19
f 45/45/20 47/47/20 48/48/20
