# Blender 4.4.1
# www.blender.org
mtllib hammer.mtl
o 立方体.003
v -0.406643 -0.088917 0.913466
v -0.406643 1.230478 0.913466
v -0.406643 -0.088917 0.683463
v -0.406643 1.230478 0.683463
v 0.325896 -0.088917 0.913466
v 0.325896 1.230478 0.913466
v 0.325896 -0.088917 0.683463
v 0.325896 1.230478 0.683463
v -0.049507 -1.416969 -0.121826
v -0.049507 1.018955 -0.121826
v -0.025493 -1.416969 -0.119520
v -0.025493 1.018955 -0.119520
v -0.002402 -1.416969 -0.112690
v -0.002402 1.018955 -0.112690
v 0.018879 -1.416969 -0.101599
v 0.018879 1.018955 -0.101599
v 0.037532 -1.416969 -0.086673
v 0.037532 1.018955 -0.086673
v 0.052840 -1.416969 -0.068485
v 0.052840 1.018955 -0.068485
v 0.064215 -1.416969 -0.047735
v 0.064215 1.018955 -0.047735
v 0.071220 -1.416969 -0.025220
v 0.071220 1.018955 -0.025220
v 0.073585 -1.416969 -0.001805
v 0.073585 1.018955 -0.001805
v 0.071220 -1.416969 0.021610
v 0.071220 1.018955 0.021610
v 0.064215 -1.416969 0.044125
v 0.064215 1.018955 0.044125
v 0.052840 -1.416969 0.064875
v 0.052840 1.018955 0.064875
v 0.037532 -1.416969 0.083063
v 0.037532 1.018955 0.083063
v 0.018879 -1.416969 0.097989
v 0.018879 1.018955 0.097989
v -0.002402 -1.416969 0.109080
v -0.002402 1.018955 0.109080
v -0.025493 -1.416969 0.115910
v -0.025493 1.018955 0.115910
v -0.049507 -1.416969 0.118216
v -0.049507 1.018955 0.118216
v -0.073521 -1.416969 0.115910
v -0.073521 1.018955 0.115910
v -0.096612 -1.416969 0.109080
v -0.096612 1.018955 0.109080
v -0.117893 -1.416969 0.097989
v -0.117893 1.018955 0.097989
v -0.136546 -1.416969 0.083063
v -0.136546 1.018955 0.083063
v -0.151854 -1.416969 0.064875
v -0.151854 1.018955 0.064875
v -0.163229 -1.416969 0.044125
v -0.163229 1.018955 0.044125
v -0.170234 -1.416969 0.021610
v -0.170234 1.018955 0.021610
v -0.172599 -1.416969 -0.001805
v -0.172599 1.018955 -0.001805
v -0.170234 -1.416969 -0.025220
v -0.170234 1.018955 -0.025220
v -0.163229 -1.416969 -0.047735
v -0.163229 1.018955 -0.047735
v -0.151854 -1.416969 -0.068485
v -0.151854 1.018955 -0.068485
v -0.136546 -1.416969 -0.086673
v -0.136546 1.018955 -0.086673
v -0.117893 -1.416969 -0.101599
v -0.117893 1.018955 -0.101599
v -0.096612 -1.416969 -0.112690
v -0.096612 1.018955 -0.112690
v -0.073521 -1.416969 -0.119520
v -0.073521 1.018955 -0.119520
v 0.175717 0.111383 0.263010
v 0.175717 0.932520 0.263010
v -0.275718 0.111383 0.263010
v -0.275718 0.932520 0.263010
v 0.175717 0.111383 -0.266620
v 0.175717 0.932520 -0.266620
v -0.275718 0.111383 -0.266620
v -0.275718 0.932520 -0.266620
v -0.060623 0.279283 -1.026100
v 0.157259 0.196544 -0.227727
v 0.157259 0.879105 -0.227727
v -0.257260 0.196544 -0.227727
v -0.257260 0.879105 -0.227727
v 0.064408 0.300823 -0.544887
v 0.065216 0.707121 -0.540832
v -0.163877 0.704374 -0.547552
v -0.163062 0.303584 -0.551643
v -0.119276 0.299796 -0.817361
v 0.019436 0.297776 -0.817865
v -0.113416 0.482968 -0.808723
v 0.014312 0.484723 -0.803927
v -0.365170 -0.078339 0.765997
v -0.365170 1.225213 0.765997
v -0.257260 0.244424 0.212956
v -0.257260 0.850717 0.212956
v 0.265170 -0.078339 0.765997
v 0.265170 1.225213 0.765997
v 0.157259 0.244424 0.212956
v 0.157259 0.850717 0.212956
vn -1.0000 -0.0000 -0.0000
vn -0.0000 -0.0000 -1.0000
vn 1.0000 -0.0000 -0.0000
vn -0.0000 -0.0000 1.0000
vn -0.0000 -1.0000 -0.0000
vn -0.0000 1.0000 -0.0000
vn 0.0956 -0.0000 -0.9954
vn 0.2836 -0.0000 -0.9589
vn 0.4622 -0.0000 -0.8868
vn 0.6248 -0.0000 -0.7808
vn 0.7651 -0.0000 -0.6439
vn 0.8769 -0.0000 -0.4807
vn 0.9549 -0.0000 -0.2971
vn 0.9949 -0.0000 -0.1005
vn 0.9949 -0.0000 0.1005
vn 0.9549 -0.0000 0.2971
vn 0.8769 -0.0000 0.4807
vn 0.7651 -0.0000 0.6439
vn 0.6248 -0.0000 0.7808
vn 0.4622 -0.0000 0.8868
vn 0.2836 -0.0000 0.9589
vn 0.0956 -0.0000 0.9954
vn -0.0956 -0.0000 0.9954
vn -0.2836 -0.0000 0.9589
vn -0.4622 -0.0000 0.8868
vn -0.6248 -0.0000 0.7808
vn -0.7651 -0.0000 0.6439
vn -0.8769 -0.0000 0.4807
vn -0.9549 -0.0000 0.2971
vn -0.9949 -0.0000 0.1005
vn -0.9949 -0.0000 -0.1005
vn -0.9549 -0.0000 -0.2971
vn -0.8769 -0.0000 -0.4807
vn -0.7651 -0.0000 -0.6439
vn -0.6248 -0.0000 -0.7808
vn -0.4622 -0.0000 -0.8868
vn -0.2836 -0.0000 -0.9589
vn -0.0956 -0.0000 -0.9954
vn 0.9305 0.0525 -0.3624
vn -0.9603 0.0009 -0.2790
vn -0.0000 -0.9500 -0.3123
vn 0.0035 0.8780 -0.4787
vn -0.9858 0.0392 -0.1630
vn 0.9598 0.0009 -0.2807
vn -0.0125 -0.9998 0.0132
vn 0.0137 0.7640 -0.6450
vn 0.0155 0.7315 -0.6817
vn 0.9859 0.0392 -0.1629
vn -0.0142 -0.9955 0.0939
vn -0.9607 0.0437 -0.2742
vn -0.9815 -0.0000 -0.1915
vn 0.9815 -0.0000 -0.1915
vn -0.0000 -0.8637 -0.5041
vn -0.0000 0.8280 -0.5607
vn -0.9599 -0.0000 -0.2803
vn -0.0022 -0.9493 -0.3143
vn -0.0000 0.8765 -0.4814
vn -0.9819 -0.0001 -0.1897
vn 0.9594 -0.0000 -0.2820
vn -0.0145 -0.9998 0.0119
vn 0.0098 0.7627 -0.6466
vn 0.9818 -0.0001 -0.1899
vt 0.625000 0.000000
vt 0.375000 0.250000
vt 0.375000 0.000000
vt 0.625000 0.250000
vt 0.375000 0.500000
vt 0.625000 0.500000
vt 0.375000 0.750000
vt 0.625000 0.750000
vt 0.375000 1.000000
vt 0.125000 0.750000
vt 0.125000 0.500000
vt 0.875000 0.500000
vt 1.000000 1.000000
vt 0.968750 0.500000
vt 1.000000 0.500000
vt 0.968750 1.000000
vt 0.937500 0.500000
vt 0.937500 1.000000
vt 0.906250 0.500000
vt 0.906250 1.000000
vt 0.875000 1.000000
vt 0.843750 0.500000
vt 0.843750 1.000000
vt 0.812500 0.500000
vt 0.812500 1.000000
vt 0.781250 0.500000
vt 0.781250 1.000000
vt 0.750000 0.500000
vt 0.750000 1.000000
vt 0.718750 0.500000
vt 0.718750 1.000000
vt 0.687500 0.500000
vt 0.687500 1.000000
vt 0.656250 0.500000
vt 0.656250 1.000000
vt 0.625000 1.000000
vt 0.593750 0.500000
vt 0.593750 1.000000
vt 0.562500 0.500000
vt 0.562500 1.000000
vt 0.531250 0.500000
vt 0.531250 1.000000
vt 0.500000 0.500000
vt 0.500000 1.000000
vt 0.468750 0.500000
vt 0.468750 1.000000
vt 0.437500 0.500000
vt 0.437500 1.000000
vt 0.406250 0.500000
vt 0.406250 1.000000
vt 0.343750 0.500000
vt 0.343750 1.000000
vt 0.312500 0.500000
vt 0.312500 1.000000
vt 0.281250 0.500000
vt 0.281250 1.000000
vt 0.250000 0.500000
vt 0.250000 1.000000
vt 0.218750 0.500000
vt 0.218750 1.000000
vt 0.187500 0.500000
vt 0.187500 1.000000
vt 0.156250 0.500000
vt 0.156250 1.000000
vt 0.125000 1.000000
vt 0.093750 0.500000
vt 0.093750 1.000000
vt 0.062500 0.500000
vt 0.419706 0.419706
vt 0.383337 0.449553
vt 0.419706 0.080294
vt 0.062500 1.000000
vt 0.031250 0.500000
vt 0.031250 1.000000
vt 0.000000 0.500000
vt 0.616663 0.449553
vt 0.658156 0.471731
vt 0.616663 0.050447
vt 0.625000 0.077575
vt 0.541245 0.083755
vt 0.512360 0.612640
vt 0.375000 0.613623
vt 0.125000 0.611999
vt 0.763975 0.611025
vt 0.625000 0.612640
vt 0.451493 0.673507
vt 0.375000 0.666438
vt 0.625000 0.138975
vt 0.486999 0.138001
vt 0.261377 0.613623
vt 0.125000 0.666245
vt 0.702575 0.672425
vt 0.625000 0.673507
vt 0.208562 0.666438
vt 0.875000 0.750000
vt 0.341844 0.471731
vt 0.296822 0.485388
vt 0.296822 0.014612
vt 0.250000 0.490000
vt 0.250000 0.010000
vt 0.203178 0.485388
vt 0.203178 0.014612
vt 0.158156 0.471731
vt 0.158156 0.028269
vt 0.116663 0.449553
vt 0.080294 0.419706
vt 0.116663 0.050447
vt 0.050447 0.383337
vt 0.080294 0.080294
vt 0.028269 0.341844
vt 0.050447 0.116663
vt 0.014612 0.296822
vt 0.028269 0.158156
vt 0.010000 0.250000
vt 0.014612 0.203178
vt 0.341844 0.028269
vt 0.383337 0.050447
vt 0.449553 0.116663
vt 0.471731 0.158156
vt 0.449553 0.383337
vt 0.485388 0.203178
vt 0.485388 0.296822
vt 0.490000 0.250000
vt 0.471731 0.341844
vt 0.000000 1.000000
vt 0.703178 0.485388
vt 0.750000 0.490000
vt 0.750000 0.010000
vt 0.796822 0.485388
vt 0.796822 0.014612
vt 0.841844 0.471731
vt 0.883337 0.449553
vt 0.841844 0.028269
vt 0.919706 0.419706
vt 0.919706 0.080294
vt 0.949553 0.383337
vt 0.949553 0.116663
vt 0.971731 0.341844
vt 0.985388 0.296822
vt 0.971731 0.158156
vt 0.990000 0.250000
vt 0.985388 0.203178
vt 0.883337 0.050447
vt 0.703178 0.014612
vt 0.658156 0.028269
vt 0.580294 0.080294
vt 0.580294 0.419706
vt 0.550447 0.116663
vt 0.550447 0.383337
vt 0.528269 0.158156
vt 0.514612 0.203178
vt 0.528269 0.341844
vt 0.510000 0.250000
vt 0.514612 0.296822
s 0
usemtl マテリアル.003
f 2/1/1 3/2/1 1/3/1
f 4/4/2 7/5/2 3/2/2
f 8/6/3 5/7/3 7/5/3
f 6/8/4 1/9/4 5/7/4
f 7/5/5 1/10/5 3/11/5
f 4/12/6 6/8/6 8/6/6
f 10/13/7 11/14/7 9/15/7
f 12/16/8 13/17/8 11/14/8
f 14/18/9 15/19/9 13/17/9
f 16/20/10 17/12/10 15/19/10
f 18/21/11 19/22/11 17/12/11
f 20/23/12 21/24/12 19/22/12
f 22/25/13 23/26/13 21/24/13
f 24/27/14 25/28/14 23/26/14
f 26/29/15 27/30/15 25/28/15
f 28/31/16 29/32/16 27/30/16
f 30/33/17 31/34/17 29/32/17
f 32/35/18 33/6/18 31/34/18
f 34/36/19 35/37/19 33/6/19
f 36/38/20 37/39/20 35/37/20
f 38/40/21 39/41/21 37/39/21
f 40/42/22 41/43/22 39/41/22
f 42/44/23 43/45/23 41/43/23
f 44/46/24 45/47/24 43/45/24
f 46/48/25 47/49/25 45/47/25
f 48/50/26 49/5/26 47/49/26
f 50/9/27 51/51/27 49/5/27
f 52/52/28 53/53/28 51/51/28
f 54/54/29 55/55/29 53/53/29
f 56/56/30 57/57/30 55/55/30
f 58/58/31 59/59/31 57/57/31
f 60/60/32 61/61/32 59/59/32
f 62/62/33 63/63/33 61/61/33
f 64/64/34 65/11/34 63/63/34
f 66/65/35 67/66/35 65/11/35
f 68/67/36 69/68/36 67/66/36
f 18/69/6 16/70/6 34/71/6
f 70/72/37 71/73/37 69/68/37
f 72/74/38 9/75/38 71/73/38
f 67/76/5 69/77/5 47/78/5
f 74/1/4 75/2/4 73/3/4
f 76/4/1 79/5/1 75/2/1
f 80/6/2 77/7/2 79/5/2
f 78/8/3 73/9/3 77/7/3
f 75/11/5 77/7/5 73/10/5
f 76/12/6 78/8/6 80/6/6
f 81/1/39 93/79/39 91/80/39
f 83/4/4 84/5/4 82/2/4
f 84/5/40 88/81/40 89/82/40
f 84/5/41 86/83/41 82/11/41
f 85/6/42 87/84/42 88/85/42
f 89/82/43 92/86/43 90/87/43
f 87/88/44 82/2/44 86/89/44
f 89/90/45 91/91/45 86/83/45
f 88/85/46 93/92/46 92/93/46
f 92/93/47 93/92/47 81/8/47
f 93/79/48 86/89/48 91/80/48
f 91/91/49 90/94/49 81/10/49
f 90/87/50 92/86/50 81/7/50
f 94/3/51 97/4/51 96/2/51
f 97/4/2 100/5/2 96/2/2
f 101/6/52 98/7/52 100/5/52
f 99/8/4 94/9/4 98/7/4
f 100/5/53 94/10/53 96/11/53
f 97/12/54 99/8/54 101/6/54
f 2/1/1 4/4/1 3/2/1
f 4/4/2 8/6/2 7/5/2
f 8/6/3 6/8/3 5/7/3
f 6/8/4 2/36/4 1/9/4
f 7/5/5 5/7/5 1/10/5
f 4/12/6 2/95/6 6/8/6
f 10/13/7 12/16/7 11/14/7
f 12/16/8 14/18/8 13/17/8
f 14/18/9 16/20/9 15/19/9
f 16/20/10 18/21/10 17/12/10
f 18/21/11 20/23/11 19/22/11
f 20/23/12 22/25/12 21/24/12
f 22/25/13 24/27/13 23/26/13
f 24/27/14 26/29/14 25/28/14
f 26/29/15 28/31/15 27/30/15
f 28/31/16 30/33/16 29/32/16
f 30/33/17 32/35/17 31/34/17
f 32/35/18 34/36/18 33/6/18
f 34/36/19 36/38/19 35/37/19
f 36/38/20 38/40/20 37/39/20
f 38/40/21 40/42/21 39/41/21
f 40/42/22 42/44/22 41/43/22
f 42/44/23 44/46/23 43/45/23
f 44/46/24 46/48/24 45/47/24
f 46/48/25 48/50/25 47/49/25
f 48/50/26 50/9/26 49/5/26
f 50/9/27 52/52/27 51/51/27
f 52/52/28 54/54/28 53/53/28
f 54/54/29 56/56/29 55/55/29
f 56/56/30 58/58/30 57/57/30
f 58/58/31 60/60/31 59/59/31
f 60/60/32 62/62/32 61/61/32
f 62/62/33 64/64/33 63/63/33
f 64/64/34 66/65/34 65/11/34
f 66/65/35 68/67/35 67/66/35
f 68/67/36 70/72/36 69/68/36
f 14/96/6 12/97/6 40/98/6
f 12/97/6 10/99/6 42/100/6
f 10/99/6 72/101/6 44/102/6
f 72/101/6 70/103/6 46/104/6
f 70/103/6 68/105/6 46/104/6
f 68/105/6 66/106/6 48/107/6
f 46/104/6 68/105/6 48/107/6
f 66/106/6 64/108/6 50/109/6
f 64/108/6 62/110/6 52/111/6
f 50/109/6 64/108/6 52/111/6
f 62/110/6 60/112/6 54/113/6
f 60/112/6 58/114/6 56/115/6
f 54/113/6 60/112/6 56/115/6
f 54/113/6 52/111/6 62/110/6
f 50/109/6 48/107/6 66/106/6
f 46/104/6 44/102/6 72/101/6
f 44/102/6 42/100/6 10/99/6
f 42/100/6 40/98/6 12/97/6
f 40/98/6 38/116/6 14/96/6
f 38/116/6 36/117/6 14/96/6
f 36/117/6 34/71/6 16/70/6
f 14/96/6 36/117/6 16/70/6
f 34/71/6 32/118/6 18/69/6
f 32/118/6 30/119/6 20/120/6
f 18/69/6 32/118/6 20/120/6
f 30/119/6 28/121/6 24/122/6
f 28/121/6 26/123/6 24/122/6
f 24/122/6 22/124/6 30/119/6
f 22/124/6 20/120/6 30/119/6
f 70/72/37 72/74/37 71/73/37
f 72/74/38 10/125/38 9/75/38
f 71/126/5 9/127/5 41/128/5
f 9/127/5 11/129/5 39/130/5
f 11/129/5 13/131/5 39/130/5
f 13/131/5 15/132/5 37/133/5
f 39/130/5 13/131/5 37/133/5
f 15/132/5 17/134/5 33/135/5
f 17/134/5 19/136/5 31/137/5
f 19/136/5 21/138/5 31/137/5
f 21/138/5 23/139/5 29/140/5
f 31/137/5 21/138/5 29/140/5
f 23/139/5 25/141/5 27/142/5
f 27/142/5 29/140/5 23/139/5
f 31/137/5 33/135/5 17/134/5
f 33/135/5 35/143/5 15/132/5
f 35/143/5 37/133/5 15/132/5
f 39/130/5 41/128/5 9/127/5
f 41/128/5 43/144/5 71/126/5
f 43/144/5 45/145/5 71/126/5
f 45/145/5 47/78/5 69/77/5
f 71/126/5 45/145/5 69/77/5
f 47/78/5 49/146/5 65/147/5
f 49/146/5 51/148/5 63/149/5
f 51/148/5 53/150/5 63/149/5
f 53/150/5 55/151/5 61/152/5
f 63/149/5 53/150/5 61/152/5
f 55/151/5 57/153/5 59/154/5
f 59/154/5 61/152/5 55/151/5
f 63/149/5 65/147/5 49/146/5
f 65/147/5 67/76/5 47/78/5
f 74/1/4 76/4/4 75/2/4
f 76/4/1 80/6/1 79/5/1
f 80/6/2 78/8/2 77/7/2
f 78/8/3 74/36/3 73/9/3
f 75/11/5 79/5/5 77/7/5
f 76/12/6 74/95/6 78/8/6
f 83/4/4 85/6/4 84/5/4
f 84/5/55 85/6/55 88/81/55
f 84/5/56 89/90/56 86/83/56
f 85/6/57 83/12/57 87/84/57
f 89/82/58 88/81/58 92/86/58
f 87/88/59 83/4/59 82/2/59
f 89/90/60 90/94/60 91/91/60
f 88/85/61 87/84/61 93/92/61
f 93/79/62 87/88/62 86/89/62
f 94/3/51 95/1/51 97/4/51
f 97/4/2 101/6/2 100/5/2
f 101/6/52 99/8/52 98/7/52
f 99/8/4 95/36/4 94/9/4
f 100/5/53 98/7/53 94/10/53
f 97/12/54 95/95/54 99/8/54
