# converted for KazumimiEngine (Y-up, welded)
mtllib material.mtl
o block_1x1x1_sponge
v -0.50000 1.00000 0.50000
v 0.50000 1.00000 0.50000
v 0.50000 1.00000 -0.50000
v -0.50000 1.00000 -0.50000
v -0.50000 0.00000 0.50000
v -0.50000 0.00000 -0.50000
v 0.50000 0.00000 -0.50000
v 0.50000 0.00000 0.50000
v -0.50000 0.00000 0.50000
v 0.50000 0.00000 0.50000
v 0.50000 1.00000 0.50000
v -0.50000 1.00000 0.50000
v -0.50000 0.00000 -0.50000
v -0.50000 1.00000 -0.50000
v 0.50000 1.00000 -0.50000
v 0.50000 0.00000 -0.50000
v -0.50000 1.00000 -0.50000
v -0.50000 0.00000 -0.50000
v 0.50000 0.00000 0.50000
v 0.50000 1.00000 0.50000
vt 0.00000 0.80469
vt 1.00000 0.80469
vt 1.00000 1.00000
vt 0.00000 1.00000
vt 0.00000 0.21875
vt 0.00000 0.30469
vt 1.00000 0.30469
vt 1.00000 0.21875
vt 0.00000 0.52344
vt 1.00000 0.52344
vt 1.00000 0.79688
vt 0.00000 0.79688
vt 0.00000 0.52344
vt 0.00000 0.79688
vt 1.00000 0.79688
vt 1.00000 0.52344
vt 1.00000 0.79688
vt 1.00000 0.52344
vt 0.00000 0.52344
vt 0.00000 0.79688
usemtl block_craft
f 1/1 2/2 3/3
f 1/1 3/3 4/4
f 5/5 6/6 7/7
f 5/5 7/7 8/8
f 9/9 10/10 11/11
f 9/9 11/11 12/12
f 13/13 14/14 15/15
f 13/13 15/15 16/16
f 9/9 12/12 17/17
f 9/9 17/17 18/18
f 19/19 16/16 15/15
f 19/19 15/15 20/20
