# https://github.com/mikedh/trimesh
mtllib material.mtl
usemtl block_craft
v -0.50000000 1.00000000 0.50000000
v 0.50000000 1.00000000 0.50000000
v 0.50000000 1.00000000 -0.50000000
v -0.50000000 1.00000000 -0.50000000
v -0.50000000 0.00000000 0.50000000
v -0.50000000 0.00000000 -0.50000000
v 0.50000000 0.00000000 -0.50000000
v 0.50000000 0.00000000 0.50000000
v -0.50000000 0.00000000 0.50000000
v 0.50000000 0.00000000 0.50000000
v 0.50000000 1.00000000 0.50000000
v -0.50000000 1.00000000 0.50000000
v -0.50000000 0.00000000 -0.50000000
v -0.50000000 1.00000000 -0.50000000
v 0.50000000 1.00000000 -0.50000000
v 0.50000000 0.00000000 -0.50000000
v -0.50000000 0.00000000 0.50000000
v -0.50000000 1.00000000 0.50000000
v -0.50000000 1.00000000 -0.50000000
v -0.50000000 0.00000000 -0.50000000
v 0.50000000 0.00000000 0.50000000
v 0.50000000 0.00000000 -0.50000000
v 0.50000000 1.00000000 -0.50000000
v 0.50000000 1.00000000 0.50000000
vt 0.00000000 0.80468750
vt 1.00000000 0.80468750
vt 1.00000000 1.00000000
vt 0.00000000 1.00000000
vt 0.00000000 0.21875000
vt 0.00000000 0.30468750
vt 1.00000000 0.30468750
vt 1.00000000 0.21875000
vt 0.00000000 0.31250000
vt 1.00000000 0.31250000
vt 1.00000000 0.51562500
vt 0.00000000 0.51562500
vt 0.00000000 0.31250000
vt 0.00000000 0.51562500
vt 1.00000000 0.51562500
vt 1.00000000 0.31250000
vt 0.00000000 0.31250000
vt 0.00000000 0.51562500
vt 1.00000000 0.51562500
vt 1.00000000 0.31250000
vt 0.00000000 0.31250000
vt 1.00000000 0.31250000
vt 1.00000000 0.51562500
vt 0.00000000 0.51562500
f 1/1 2/2 3/3
f 1/1 3/3 4/4
f 5/5 6/6 7/7
f 5/5 7/7 8/8
f 9/9 10/10 11/11
f 9/9 11/11 12/12
f 13/13 14/14 15/15
f 13/13 15/15 16/16
f 17/17 18/18 19/19
f 17/17 19/19 20/20
f 21/21 22/22 23/23
f 21/21 23/23 24/24

