# https://github.com/mikedh/trimesh
mtllib material.mtl
usemtl block_craft
v -1.00000000 0.00000000 -0.00000000
v 1.00000000 0.00000000 -0.00000000
v 1.00000000 1.00000000 -0.00000000
v -1.00000000 1.00000000 -0.00000000
v -1.00000000 0.00000000 -0.00000000
v -1.00000000 0.00000000 -2.00000000
v 1.00000000 0.00000000 -2.00000000
v 1.00000000 0.00000000 -0.00000000
v -1.00000000 0.00000000 -0.00000000
v -1.00000000 1.00000000 -0.00000000
v -1.00000000 0.00000000 -2.00000000
v 1.00000000 0.00000000 -0.00000000
v 1.00000000 0.00000000 -2.00000000
v 1.00000000 1.00000000 -0.00000000
v -1.00000000 1.00000000 -0.00000000
v 1.00000000 1.00000000 -0.00000000
v 1.00000000 0.00000000 -2.00000000
v -1.00000000 0.00000000 -2.00000000
v -1.00000000 1.00000000 -0.00000000
v 1.00000000 1.00000000 -0.00000000
v 1.00000000 1.07216878 -0.06399577
v -1.00000000 1.07216878 -0.06399577
v -1.00000000 1.07216878 -0.06399577
v 1.00000000 1.07216878 -0.06399577
v 1.00000000 1.10267090 -0.15550212
v -1.00000000 1.10267090 -0.15550212
v -1.00000000 1.10267090 -0.15550212
v 1.00000000 1.10267090 -0.15550212
v 1.00000000 1.08333333 -0.25000000
v -1.00000000 1.08333333 -0.25000000
v -1.00000000 1.08333333 -0.25000000
v 1.00000000 1.08333333 -0.25000000
v 1.00000000 1.01933757 -0.32216878
v -1.00000000 1.01933757 -0.32216878
v -1.00000000 1.01933757 -0.32216878
v 1.00000000 1.01933757 -0.32216878
v 1.00000000 0.92783122 -0.35267090
v -1.00000000 0.92783122 -0.35267090
v -1.00000000 0.92783122 -0.35267090
v 1.00000000 0.92783122 -0.35267090
v 1.00000000 0.83333333 -0.33333333
v -1.00000000 0.83333333 -0.33333333
v -1.00000000 0.91666667 -0.16666667
v -1.00000000 1.00000000 -0.00000000
v -1.00000000 1.07216878 -0.06399577
v -1.00000000 0.91666667 -0.16666667
v -1.00000000 1.07216878 -0.06399577
v -1.00000000 1.10267090 -0.15550212
v -1.00000000 0.91666667 -0.16666667
v -1.00000000 1.10267090 -0.15550212
v -1.00000000 1.08333333 -0.25000000
v -1.00000000 0.91666667 -0.16666667
v -1.00000000 1.08333333 -0.25000000
v -1.00000000 1.01933757 -0.32216878
v -1.00000000 0.91666667 -0.16666667
v -1.00000000 1.01933757 -0.32216878
v -1.00000000 0.92783122 -0.35267090
v -1.00000000 0.91666667 -0.16666667
v -1.00000000 0.92783122 -0.35267090
v -1.00000000 0.83333333 -0.33333333
v 1.00000000 0.91666667 -0.16666667
v 1.00000000 1.07216878 -0.06399577
v 1.00000000 1.00000000 -0.00000000
v 1.00000000 0.91666667 -0.16666667
v 1.00000000 1.10267090 -0.15550212
v 1.00000000 1.07216878 -0.06399577
v 1.00000000 0.91666667 -0.16666667
v 1.00000000 1.08333333 -0.25000000
v 1.00000000 1.10267090 -0.15550212
v 1.00000000 0.91666667 -0.16666667
v 1.00000000 1.01933757 -0.32216878
v 1.00000000 1.08333333 -0.25000000
v 1.00000000 0.91666667 -0.16666667
v 1.00000000 0.92783122 -0.35267090
v 1.00000000 1.01933757 -0.32216878
v 1.00000000 0.91666667 -0.16666667
v 1.00000000 0.83333333 -0.33333333
v 1.00000000 0.92783122 -0.35267090
v -1.00000000 0.83333333 -0.33333333
v 1.00000000 0.83333333 -0.33333333
v 1.00000000 0.90550212 -0.39732910
v -1.00000000 0.90550212 -0.39732910
v -1.00000000 0.90550212 -0.39732910
v 1.00000000 0.90550212 -0.39732910
v 1.00000000 0.93600423 -0.48883545
v -1.00000000 0.93600423 -0.48883545
v -1.00000000 0.93600423 -0.48883545
v 1.00000000 0.93600423 -0.48883545
v 1.00000000 0.91666667 -0.58333333
v -1.00000000 0.91666667 -0.58333333
v -1.00000000 0.91666667 -0.58333333
v 1.00000000 0.91666667 -0.58333333
v 1.00000000 0.85267090 -0.65550212
v -1.00000000 0.85267090 -0.65550212
v -1.00000000 0.85267090 -0.65550212
v 1.00000000 0.85267090 -0.65550212
v 1.00000000 0.76116455 -0.68600423
v -1.00000000 0.76116455 -0.68600423
v -1.00000000 0.76116455 -0.68600423
v 1.00000000 0.76116455 -0.68600423
v 1.00000000 0.66666667 -0.66666667
v -1.00000000 0.66666667 -0.66666667
v -1.00000000 0.75000000 -0.50000000
v -1.00000000 0.83333333 -0.33333333
v -1.00000000 0.90550212 -0.39732910
v -1.00000000 0.75000000 -0.50000000
v -1.00000000 0.90550212 -0.39732910
v -1.00000000 0.93600423 -0.48883545
v -1.00000000 0.75000000 -0.50000000
v -1.00000000 0.93600423 -0.48883545
v -1.00000000 0.91666667 -0.58333333
v -1.00000000 0.75000000 -0.50000000
v -1.00000000 0.91666667 -0.58333333
v -1.00000000 0.85267090 -0.65550212
v -1.00000000 0.75000000 -0.50000000
v -1.00000000 0.85267090 -0.65550212
v -1.00000000 0.76116455 -0.68600423
v -1.00000000 0.75000000 -0.50000000
v -1.00000000 0.76116455 -0.68600423
v -1.00000000 0.66666667 -0.66666667
v 1.00000000 0.75000000 -0.50000000
v 1.00000000 0.90550212 -0.39732910
v 1.00000000 0.83333333 -0.33333333
v 1.00000000 0.75000000 -0.50000000
v 1.00000000 0.93600423 -0.48883545
v 1.00000000 0.90550212 -0.39732910
v 1.00000000 0.75000000 -0.50000000
v 1.00000000 0.91666667 -0.58333333
v 1.00000000 0.93600423 -0.48883545
v 1.00000000 0.75000000 -0.50000000
v 1.00000000 0.85267090 -0.65550212
v 1.00000000 0.91666667 -0.58333333
v 1.00000000 0.75000000 -0.50000000
v 1.00000000 0.76116455 -0.68600423
v 1.00000000 0.85267090 -0.65550212
v 1.00000000 0.75000000 -0.50000000
v 1.00000000 0.66666667 -0.66666667
v 1.00000000 0.76116455 -0.68600423
v -1.00000000 0.66666667 -0.66666667
v 1.00000000 0.66666667 -0.66666667
v 1.00000000 0.73883545 -0.73066243
v -1.00000000 0.73883545 -0.73066243
v -1.00000000 0.73883545 -0.73066243
v 1.00000000 0.73883545 -0.73066243
v 1.00000000 0.76933757 -0.82216878
v -1.00000000 0.76933757 -0.82216878
v -1.00000000 0.76933757 -0.82216878
v 1.00000000 0.76933757 -0.82216878
v 1.00000000 0.75000000 -0.91666667
v -1.00000000 0.75000000 -0.91666667
v -1.00000000 0.75000000 -0.91666667
v 1.00000000 0.75000000 -0.91666667
v 1.00000000 0.68600423 -0.98883545
v -1.00000000 0.68600423 -0.98883545
v -1.00000000 0.68600423 -0.98883545
v 1.00000000 0.68600423 -0.98883545
v 1.00000000 0.59449788 -1.01933757
v -1.00000000 0.59449788 -1.01933757
v -1.00000000 0.59449788 -1.01933757
v 1.00000000 0.59449788 -1.01933757
v 1.00000000 0.50000000 -1.00000000
v -1.00000000 0.50000000 -1.00000000
v -1.00000000 0.58333333 -0.83333333
v -1.00000000 0.66666667 -0.66666667
v -1.00000000 0.73883545 -0.73066243
v -1.00000000 0.58333333 -0.83333333
v -1.00000000 0.73883545 -0.73066243
v -1.00000000 0.76933757 -0.82216878
v -1.00000000 0.58333333 -0.83333333
v -1.00000000 0.76933757 -0.82216878
v -1.00000000 0.75000000 -0.91666667
v -1.00000000 0.58333333 -0.83333333
v -1.00000000 0.75000000 -0.91666667
v -1.00000000 0.68600423 -0.98883545
v -1.00000000 0.58333333 -0.83333333
v -1.00000000 0.68600423 -0.98883545
v -1.00000000 0.59449788 -1.01933757
v -1.00000000 0.58333333 -0.83333333
v -1.00000000 0.59449788 -1.01933757
v -1.00000000 0.50000000 -1.00000000
v 1.00000000 0.58333333 -0.83333333
v 1.00000000 0.73883545 -0.73066243
v 1.00000000 0.66666667 -0.66666667
v 1.00000000 0.58333333 -0.83333333
v 1.00000000 0.76933757 -0.82216878
v 1.00000000 0.73883545 -0.73066243
v 1.00000000 0.58333333 -0.83333333
v 1.00000000 0.75000000 -0.91666667
v 1.00000000 0.76933757 -0.82216878
v 1.00000000 0.58333333 -0.83333333
v 1.00000000 0.68600423 -0.98883545
v 1.00000000 0.75000000 -0.91666667
v 1.00000000 0.58333333 -0.83333333
v 1.00000000 0.59449788 -1.01933757
v 1.00000000 0.68600423 -0.98883545
v 1.00000000 0.58333333 -0.83333333
v 1.00000000 0.50000000 -1.00000000
v 1.00000000 0.59449788 -1.01933757
v -1.00000000 0.50000000 -1.00000000
v 1.00000000 0.50000000 -1.00000000
v 1.00000000 0.57216878 -1.06399577
v -1.00000000 0.57216878 -1.06399577
v -1.00000000 0.57216878 -1.06399577
v 1.00000000 0.57216878 -1.06399577
v 1.00000000 0.60267090 -1.15550212
v -1.00000000 0.60267090 -1.15550212
v -1.00000000 0.60267090 -1.15550212
v 1.00000000 0.60267090 -1.15550212
v 1.00000000 0.58333333 -1.25000000
v -1.00000000 0.58333333 -1.25000000
v -1.00000000 0.58333333 -1.25000000
v 1.00000000 0.58333333 -1.25000000
v 1.00000000 0.51933757 -1.32216878
v -1.00000000 0.51933757 -1.32216878
v -1.00000000 0.51933757 -1.32216878
v 1.00000000 0.51933757 -1.32216878
v 1.00000000 0.42783122 -1.35267090
v -1.00000000 0.42783122 -1.35267090
v -1.00000000 0.42783122 -1.35267090
v 1.00000000 0.42783122 -1.35267090
v 1.00000000 0.33333333 -1.33333333
v -1.00000000 0.33333333 -1.33333333
v -1.00000000 0.41666667 -1.16666667
v -1.00000000 0.50000000 -1.00000000
v -1.00000000 0.57216878 -1.06399577
v -1.00000000 0.41666667 -1.16666667
v -1.00000000 0.57216878 -1.06399577
v -1.00000000 0.60267090 -1.15550212
v -1.00000000 0.41666667 -1.16666667
v -1.00000000 0.60267090 -1.15550212
v -1.00000000 0.58333333 -1.25000000
v -1.00000000 0.41666667 -1.16666667
v -1.00000000 0.58333333 -1.25000000
v -1.00000000 0.51933757 -1.32216878
v -1.00000000 0.41666667 -1.16666667
v -1.00000000 0.51933757 -1.32216878
v -1.00000000 0.42783122 -1.35267090
v -1.00000000 0.41666667 -1.16666667
v -1.00000000 0.42783122 -1.35267090
v -1.00000000 0.33333333 -1.33333333
v 1.00000000 0.41666667 -1.16666667
v 1.00000000 0.57216878 -1.06399577
v 1.00000000 0.50000000 -1.00000000
v 1.00000000 0.41666667 -1.16666667
v 1.00000000 0.60267090 -1.15550212
v 1.00000000 0.57216878 -1.06399577
v 1.00000000 0.41666667 -1.16666667
v 1.00000000 0.58333333 -1.25000000
v 1.00000000 0.60267090 -1.15550212
v 1.00000000 0.41666667 -1.16666667
v 1.00000000 0.51933757 -1.32216878
v 1.00000000 0.58333333 -1.25000000
v 1.00000000 0.41666667 -1.16666667
v 1.00000000 0.42783122 -1.35267090
v 1.00000000 0.51933757 -1.32216878
v 1.00000000 0.41666667 -1.16666667
v 1.00000000 0.33333333 -1.33333333
v 1.00000000 0.42783122 -1.35267090
v -1.00000000 0.33333333 -1.33333333
v 1.00000000 0.33333333 -1.33333333
v 1.00000000 0.40550212 -1.39732910
v -1.00000000 0.40550212 -1.39732910
v -1.00000000 0.40550212 -1.39732910
v 1.00000000 0.40550212 -1.39732910
v 1.00000000 0.43600423 -1.48883545
v -1.00000000 0.43600423 -1.48883545
v -1.00000000 0.43600423 -1.48883545
v 1.00000000 0.43600423 -1.48883545
v 1.00000000 0.41666667 -1.58333333
v -1.00000000 0.41666667 -1.58333333
v -1.00000000 0.41666667 -1.58333333
v 1.00000000 0.41666667 -1.58333333
v 1.00000000 0.35267090 -1.65550212
v -1.00000000 0.35267090 -1.65550212
v -1.00000000 0.35267090 -1.65550212
v 1.00000000 0.35267090 -1.65550212
v 1.00000000 0.26116455 -1.68600423
v -1.00000000 0.26116455 -1.68600423
v -1.00000000 0.26116455 -1.68600423
v 1.00000000 0.26116455 -1.68600423
v 1.00000000 0.16666667 -1.66666667
v -1.00000000 0.16666667 -1.66666667
v -1.00000000 0.25000000 -1.50000000
v -1.00000000 0.33333333 -1.33333333
v -1.00000000 0.40550212 -1.39732910
v -1.00000000 0.25000000 -1.50000000
v -1.00000000 0.40550212 -1.39732910
v -1.00000000 0.43600423 -1.48883545
v -1.00000000 0.25000000 -1.50000000
v -1.00000000 0.43600423 -1.48883545
v -1.00000000 0.41666667 -1.58333333
v -1.00000000 0.25000000 -1.50000000
v -1.00000000 0.41666667 -1.58333333
v -1.00000000 0.35267090 -1.65550212
v -1.00000000 0.25000000 -1.50000000
v -1.00000000 0.35267090 -1.65550212
v -1.00000000 0.26116455 -1.68600423
v -1.00000000 0.25000000 -1.50000000
v -1.00000000 0.26116455 -1.68600423
v -1.00000000 0.16666667 -1.66666667
v 1.00000000 0.25000000 -1.50000000
v 1.00000000 0.40550212 -1.39732910
v 1.00000000 0.33333333 -1.33333333
v 1.00000000 0.25000000 -1.50000000
v 1.00000000 0.43600423 -1.48883545
v 1.00000000 0.40550212 -1.39732910
v 1.00000000 0.25000000 -1.50000000
v 1.00000000 0.41666667 -1.58333333
v 1.00000000 0.43600423 -1.48883545
v 1.00000000 0.25000000 -1.50000000
v 1.00000000 0.35267090 -1.65550212
v 1.00000000 0.41666667 -1.58333333
v 1.00000000 0.25000000 -1.50000000
v 1.00000000 0.26116455 -1.68600423
v 1.00000000 0.35267090 -1.65550212
v 1.00000000 0.25000000 -1.50000000
v 1.00000000 0.16666667 -1.66666667
v 1.00000000 0.26116455 -1.68600423
v -1.00000000 0.16666667 -1.66666667
v 1.00000000 0.16666667 -1.66666667
v 1.00000000 0.23883545 -1.73066243
v -1.00000000 0.23883545 -1.73066243
v -1.00000000 0.23883545 -1.73066243
v 1.00000000 0.23883545 -1.73066243
v 1.00000000 0.26933757 -1.82216878
v -1.00000000 0.26933757 -1.82216878
v -1.00000000 0.26933757 -1.82216878
v 1.00000000 0.26933757 -1.82216878
v 1.00000000 0.25000000 -1.91666667
v -1.00000000 0.25000000 -1.91666667
v -1.00000000 0.25000000 -1.91666667
v 1.00000000 0.25000000 -1.91666667
v 1.00000000 0.18600423 -1.98883545
v -1.00000000 0.18600423 -1.98883545
v -1.00000000 0.18600423 -1.98883545
v 1.00000000 0.18600423 -1.98883545
v 1.00000000 0.09449788 -2.01933757
v -1.00000000 0.09449788 -2.01933757
v -1.00000000 0.09449788 -2.01933757
v 1.00000000 0.09449788 -2.01933757
v 1.00000000 0.00000000 -2.00000000
v -1.00000000 0.00000000 -2.00000000
v -1.00000000 0.08333333 -1.83333333
v -1.00000000 0.16666667 -1.66666667
v -1.00000000 0.23883545 -1.73066243
v -1.00000000 0.08333333 -1.83333333
v -1.00000000 0.23883545 -1.73066243
v -1.00000000 0.26933757 -1.82216878
v -1.00000000 0.08333333 -1.83333333
v -1.00000000 0.26933757 -1.82216878
v -1.00000000 0.25000000 -1.91666667
v -1.00000000 0.08333333 -1.83333333
v -1.00000000 0.25000000 -1.91666667
v -1.00000000 0.18600423 -1.98883545
v -1.00000000 0.08333333 -1.83333333
v -1.00000000 0.18600423 -1.98883545
v -1.00000000 0.09449788 -2.01933757
v -1.00000000 0.08333333 -1.83333333
v -1.00000000 0.09449788 -2.01933757
v -1.00000000 0.00000000 -2.00000000
v 1.00000000 0.08333333 -1.83333333
v 1.00000000 0.23883545 -1.73066243
v 1.00000000 0.16666667 -1.66666667
v 1.00000000 0.08333333 -1.83333333
v 1.00000000 0.26933757 -1.82216878
v 1.00000000 0.23883545 -1.73066243
v 1.00000000 0.08333333 -1.83333333
v 1.00000000 0.25000000 -1.91666667
v 1.00000000 0.26933757 -1.82216878
v 1.00000000 0.08333333 -1.83333333
v 1.00000000 0.18600423 -1.98883545
v 1.00000000 0.25000000 -1.91666667
v 1.00000000 0.08333333 -1.83333333
v 1.00000000 0.09449788 -2.01933757
v 1.00000000 0.18600423 -1.98883545
v 1.00000000 0.08333333 -1.83333333
v 1.00000000 0.00000000 -2.00000000
v 1.00000000 0.09449788 -2.01933757
vt 0.00000000 0.52343750
vt 2.00000000 0.52343750
vt 2.00000000 0.79687500
vt 0.00000000 0.79687500
vt 0.00000000 0.21875000
vt 0.00000000 0.30468750
vt 1.00000000 0.30468750
vt 1.00000000 0.21875000
vt 0.00000000 0.52343750
vt 0.00000000 0.79687500
vt 2.00000000 0.52343750
vt 0.00000000 0.52343750
vt 2.00000000 0.52343750
vt 0.00000000 0.79687500
vt 0.00000000 0.30468750
vt 1.00000000 0.30468750
vt 1.00000000 0.21875000
vt 0.00000000 0.21875000
vt 0.00000000 0.10156250
vt 2.00000000 0.10156250
vt 2.00000000 0.11979167
vt 0.00000000 0.11979167
vt 0.00000000 0.11979167
vt 2.00000000 0.11979167
vt 2.00000000 0.13802083
vt 0.00000000 0.13802083
vt 0.00000000 0.13802083
vt 2.00000000 0.13802083
vt 2.00000000 0.15625000
vt 0.00000000 0.15625000
vt 0.00000000 0.15625000
vt 2.00000000 0.15625000
vt 2.00000000 0.17447917
vt 0.00000000 0.17447917
vt 0.00000000 0.17447917
vt 2.00000000 0.17447917
vt 2.00000000 0.19270833
vt 0.00000000 0.19270833
vt 0.00000000 0.19270833
vt 2.00000000 0.19270833
vt 2.00000000 0.21093750
vt 0.00000000 0.21093750
vt 0.08593750 0.04687500
vt 0.08593750 0.00000000
vt 0.12500000 0.00628006
vt 0.08593750 0.04687500
vt 0.12500000 0.00628006
vt 0.15359573 0.02343750
vt 0.08593750 0.04687500
vt 0.15359573 0.02343750
vt 0.16406250 0.04687500
vt 0.08593750 0.04687500
vt 0.16406250 0.04687500
vt 0.15359573 0.07031250
vt 0.08593750 0.04687500
vt 0.15359573 0.07031250
vt 0.12500000 0.08746994
vt 0.08593750 0.04687500
vt 0.12500000 0.08746994
vt 0.08593750 0.09375000
vt 0.08593750 0.04687500
vt 0.12500000 0.00628006
vt 0.08593750 0.00000000
vt 0.08593750 0.04687500
vt 0.15359573 0.02343750
vt 0.12500000 0.00628006
vt 0.08593750 0.04687500
vt 0.16406250 0.04687500
vt 0.15359573 0.02343750
vt 0.08593750 0.04687500
vt 0.15359573 0.07031250
vt 0.16406250 0.04687500
vt 0.08593750 0.04687500
vt 0.12500000 0.08746994
vt 0.15359573 0.07031250
vt 0.08593750 0.04687500
vt 0.08593750 0.09375000
vt 0.12500000 0.08746994
vt 0.00000000 0.10156250
vt 2.00000000 0.10156250
vt 2.00000000 0.11979167
vt 0.00000000 0.11979167
vt 0.00000000 0.11979167
vt 2.00000000 0.11979167
vt 2.00000000 0.13802083
vt 0.00000000 0.13802083
vt 0.00000000 0.13802083
vt 2.00000000 0.13802083
vt 2.00000000 0.15625000
vt 0.00000000 0.15625000
vt 0.00000000 0.15625000
vt 2.00000000 0.15625000
vt 2.00000000 0.17447917
vt 0.00000000 0.17447917
vt 0.00000000 0.17447917
vt 2.00000000 0.17447917
vt 2.00000000 0.19270833
vt 0.00000000 0.19270833
vt 0.00000000 0.19270833
vt 2.00000000 0.19270833
vt 2.00000000 0.21093750
vt 0.00000000 0.21093750
vt 0.08593750 0.04687500
vt 0.08593750 0.00000000
vt 0.12500000 0.00628006
vt 0.08593750 0.04687500
vt 0.12500000 0.00628006
vt 0.15359573 0.02343750
vt 0.08593750 0.04687500
vt 0.15359573 0.02343750
vt 0.16406250 0.04687500
vt 0.08593750 0.04687500
vt 0.16406250 0.04687500
vt 0.15359573 0.07031250
vt 0.08593750 0.04687500
vt 0.15359573 0.07031250
vt 0.12500000 0.08746994
vt 0.08593750 0.04687500
vt 0.12500000 0.08746994
vt 0.08593750 0.09375000
vt 0.08593750 0.04687500
vt 0.12500000 0.00628006
vt 0.08593750 0.00000000
vt 0.08593750 0.04687500
vt 0.15359573 0.02343750
vt 0.12500000 0.00628006
vt 0.08593750 0.04687500
vt 0.16406250 0.04687500
vt 0.15359573 0.02343750
vt 0.08593750 0.04687500
vt 0.15359573 0.07031250
vt 0.16406250 0.04687500
vt 0.08593750 0.04687500
vt 0.12500000 0.08746994
vt 0.15359573 0.07031250
vt 0.08593750 0.04687500
vt 0.08593750 0.09375000
vt 0.12500000 0.08746994
vt 0.00000000 0.10156250
vt 2.00000000 0.10156250
vt 2.00000000 0.11979167
vt 0.00000000 0.11979167
vt 0.00000000 0.11979167
vt 2.00000000 0.11979167
vt 2.00000000 0.13802083
vt 0.00000000 0.13802083
vt 0.00000000 0.13802083
vt 2.00000000 0.13802083
vt 2.00000000 0.15625000
vt 0.00000000 0.15625000
vt 0.00000000 0.15625000
vt 2.00000000 0.15625000
vt 2.00000000 0.17447917
vt 0.00000000 0.17447917
vt 0.00000000 0.17447917
vt 2.00000000 0.17447917
vt 2.00000000 0.19270833
vt 0.00000000 0.19270833
vt 0.00000000 0.19270833
vt 2.00000000 0.19270833
vt 2.00000000 0.21093750
vt 0.00000000 0.21093750
vt 0.08593750 0.04687500
vt 0.08593750 0.00000000
vt 0.12500000 0.00628006
vt 0.08593750 0.04687500
vt 0.12500000 0.00628006
vt 0.15359573 0.02343750
vt 0.08593750 0.04687500
vt 0.15359573 0.02343750
vt 0.16406250 0.04687500
vt 0.08593750 0.04687500
vt 0.16406250 0.04687500
vt 0.15359573 0.07031250
vt 0.08593750 0.04687500
vt 0.15359573 0.07031250
vt 0.12500000 0.08746994
vt 0.08593750 0.04687500
vt 0.12500000 0.08746994
vt 0.08593750 0.09375000
vt 0.08593750 0.04687500
vt 0.12500000 0.00628006
vt 0.08593750 0.00000000
vt 0.08593750 0.04687500
vt 0.15359573 0.02343750
vt 0.12500000 0.00628006
vt 0.08593750 0.04687500
vt 0.16406250 0.04687500
vt 0.15359573 0.02343750
vt 0.08593750 0.04687500
vt 0.15359573 0.07031250
vt 0.16406250 0.04687500
vt 0.08593750 0.04687500
vt 0.12500000 0.08746994
vt 0.15359573 0.07031250
vt 0.08593750 0.04687500
vt 0.08593750 0.09375000
vt 0.12500000 0.08746994
vt 0.00000000 0.10156250
vt 2.00000000 0.10156250
vt 2.00000000 0.11979167
vt 0.00000000 0.11979167
vt 0.00000000 0.11979167
vt 2.00000000 0.11979167
vt 2.00000000 0.13802083
vt 0.00000000 0.13802083
vt 0.00000000 0.13802083
vt 2.00000000 0.13802083
vt 2.00000000 0.15625000
vt 0.00000000 0.15625000
vt 0.00000000 0.15625000
vt 2.00000000 0.15625000
vt 2.00000000 0.17447917
vt 0.00000000 0.17447917
vt 0.00000000 0.17447917
vt 2.00000000 0.17447917
vt 2.00000000 0.19270833
vt 0.00000000 0.19270833
vt 0.00000000 0.19270833
vt 2.00000000 0.19270833
vt 2.00000000 0.21093750
vt 0.00000000 0.21093750
vt 0.08593750 0.04687500
vt 0.08593750 0.00000000
vt 0.12500000 0.00628006
vt 0.08593750 0.04687500
vt 0.12500000 0.00628006
vt 0.15359573 0.02343750
vt 0.08593750 0.04687500
vt 0.15359573 0.02343750
vt 0.16406250 0.04687500
vt 0.08593750 0.04687500
vt 0.16406250 0.04687500
vt 0.15359573 0.07031250
vt 0.08593750 0.04687500
vt 0.15359573 0.07031250
vt 0.12500000 0.08746994
vt 0.08593750 0.04687500
vt 0.12500000 0.08746994
vt 0.08593750 0.09375000
vt 0.08593750 0.04687500
vt 0.12500000 0.00628006
vt 0.08593750 0.00000000
vt 0.08593750 0.04687500
vt 0.15359573 0.02343750
vt 0.12500000 0.00628006
vt 0.08593750 0.04687500
vt 0.16406250 0.04687500
vt 0.15359573 0.02343750
vt 0.08593750 0.04687500
vt 0.15359573 0.07031250
vt 0.16406250 0.04687500
vt 0.08593750 0.04687500
vt 0.12500000 0.08746994
vt 0.15359573 0.07031250
vt 0.08593750 0.04687500
vt 0.08593750 0.09375000
vt 0.12500000 0.08746994
vt 0.00000000 0.10156250
vt 2.00000000 0.10156250
vt 2.00000000 0.11979167
vt 0.00000000 0.11979167
vt 0.00000000 0.11979167
vt 2.00000000 0.11979167
vt 2.00000000 0.13802083
vt 0.00000000 0.13802083
vt 0.00000000 0.13802083
vt 2.00000000 0.13802083
vt 2.00000000 0.15625000
vt 0.00000000 0.15625000
vt 0.00000000 0.15625000
vt 2.00000000 0.15625000
vt 2.00000000 0.17447917
vt 0.00000000 0.17447917
vt 0.00000000 0.17447917
vt 2.00000000 0.17447917
vt 2.00000000 0.19270833
vt 0.00000000 0.19270833
vt 0.00000000 0.19270833
vt 2.00000000 0.19270833
vt 2.00000000 0.21093750
vt 0.00000000 0.21093750
vt 0.08593750 0.04687500
vt 0.08593750 0.00000000
vt 0.12500000 0.00628006
vt 0.08593750 0.04687500
vt 0.12500000 0.00628006
vt 0.15359573 0.02343750
vt 0.08593750 0.04687500
vt 0.15359573 0.02343750
vt 0.16406250 0.04687500
vt 0.08593750 0.04687500
vt 0.16406250 0.04687500
vt 0.15359573 0.07031250
vt 0.08593750 0.04687500
vt 0.15359573 0.07031250
vt 0.12500000 0.08746994
vt 0.08593750 0.04687500
vt 0.12500000 0.08746994
vt 0.08593750 0.09375000
vt 0.08593750 0.04687500
vt 0.12500000 0.00628006
vt 0.08593750 0.00000000
vt 0.08593750 0.04687500
vt 0.15359573 0.02343750
vt 0.12500000 0.00628006
vt 0.08593750 0.04687500
vt 0.16406250 0.04687500
vt 0.15359573 0.02343750
vt 0.08593750 0.04687500
vt 0.15359573 0.07031250
vt 0.16406250 0.04687500
vt 0.08593750 0.04687500
vt 0.12500000 0.08746994
vt 0.15359573 0.07031250
vt 0.08593750 0.04687500
vt 0.08593750 0.09375000
vt 0.12500000 0.08746994
vt 0.00000000 0.10156250
vt 2.00000000 0.10156250
vt 2.00000000 0.11979167
vt 0.00000000 0.11979167
vt 0.00000000 0.11979167
vt 2.00000000 0.11979167
vt 2.00000000 0.13802083
vt 0.00000000 0.13802083
vt 0.00000000 0.13802083
vt 2.00000000 0.13802083
vt 2.00000000 0.15625000
vt 0.00000000 0.15625000
vt 0.00000000 0.15625000
vt 2.00000000 0.15625000
vt 2.00000000 0.17447917
vt 0.00000000 0.17447917
vt 0.00000000 0.17447917
vt 2.00000000 0.17447917
vt 2.00000000 0.19270833
vt 0.00000000 0.19270833
vt 0.00000000 0.19270833
vt 2.00000000 0.19270833
vt 2.00000000 0.21093750
vt 0.00000000 0.21093750
vt 0.08593750 0.04687500
vt 0.08593750 0.00000000
vt 0.12500000 0.00628006
vt 0.08593750 0.04687500
vt 0.12500000 0.00628006
vt 0.15359573 0.02343750
vt 0.08593750 0.04687500
vt 0.15359573 0.02343750
vt 0.16406250 0.04687500
vt 0.08593750 0.04687500
vt 0.16406250 0.04687500
vt 0.15359573 0.07031250
vt 0.08593750 0.04687500
vt 0.15359573 0.07031250
vt 0.12500000 0.08746994
vt 0.08593750 0.04687500
vt 0.12500000 0.08746994
vt 0.08593750 0.09375000
vt 0.08593750 0.04687500
vt 0.12500000 0.00628006
vt 0.08593750 0.00000000
vt 0.08593750 0.04687500
vt 0.15359573 0.02343750
vt 0.12500000 0.00628006
vt 0.08593750 0.04687500
vt 0.16406250 0.04687500
vt 0.15359573 0.02343750
vt 0.08593750 0.04687500
vt 0.15359573 0.07031250
vt 0.16406250 0.04687500
vt 0.08593750 0.04687500
vt 0.12500000 0.08746994
vt 0.15359573 0.07031250
vt 0.08593750 0.04687500
vt 0.08593750 0.09375000
vt 0.12500000 0.08746994
f 1/1 2/2 3/3
f 1/1 3/3 4/4
f 5/5 6/6 7/7
f 5/5 7/7 8/8
f 9/9 10/10 11/11
f 12/12 13/13 14/14
f 15/15 16/16 17/17
f 15/15 17/17 18/18
f 19/19 20/20 21/21
f 19/19 21/21 22/22
f 23/23 24/24 25/25
f 23/23 25/25 26/26
f 27/27 28/28 29/29
f 27/27 29/29 30/30
f 31/31 32/32 33/33
f 31/31 33/33 34/34
f 35/35 36/36 37/37
f 35/35 37/37 38/38
f 39/39 40/40 41/41
f 39/39 41/41 42/42
f 43/43 44/44 45/45
f 46/46 47/47 48/48
f 49/49 50/50 51/51
f 52/52 53/53 54/54
f 55/55 56/56 57/57
f 58/58 59/59 60/60
f 61/61 62/62 63/63
f 64/64 65/65 66/66
f 67/67 68/68 69/69
f 70/70 71/71 72/72
f 73/73 74/74 75/75
f 76/76 77/77 78/78
f 79/79 80/80 81/81
f 79/79 81/81 82/82
f 83/83 84/84 85/85
f 83/83 85/85 86/86
f 87/87 88/88 89/89
f 87/87 89/89 90/90
f 91/91 92/92 93/93
f 91/91 93/93 94/94
f 95/95 96/96 97/97
f 95/95 97/97 98/98
f 99/99 100/100 101/101
f 99/99 101/101 102/102
f 103/103 104/104 105/105
f 106/106 107/107 108/108
f 109/109 110/110 111/111
f 112/112 113/113 114/114
f 115/115 116/116 117/117
f 118/118 119/119 120/120
f 121/121 122/122 123/123
f 124/124 125/125 126/126
f 127/127 128/128 129/129
f 130/130 131/131 132/132
f 133/133 134/134 135/135
f 136/136 137/137 138/138
f 139/139 140/140 141/141
f 139/139 141/141 142/142
f 143/143 144/144 145/145
f 143/143 145/145 146/146
f 147/147 148/148 149/149
f 147/147 149/149 150/150
f 151/151 152/152 153/153
f 151/151 153/153 154/154
f 155/155 156/156 157/157
f 155/155 157/157 158/158
f 159/159 160/160 161/161
f 159/159 161/161 162/162
f 163/163 164/164 165/165
f 166/166 167/167 168/168
f 169/169 170/170 171/171
f 172/172 173/173 174/174
f 175/175 176/176 177/177
f 178/178 179/179 180/180
f 181/181 182/182 183/183
f 184/184 185/185 186/186
f 187/187 188/188 189/189
f 190/190 191/191 192/192
f 193/193 194/194 195/195
f 196/196 197/197 198/198
f 199/199 200/200 201/201
f 199/199 201/201 202/202
f 203/203 204/204 205/205
f 203/203 205/205 206/206
f 207/207 208/208 209/209
f 207/207 209/209 210/210
f 211/211 212/212 213/213
f 211/211 213/213 214/214
f 215/215 216/216 217/217
f 215/215 217/217 218/218
f 219/219 220/220 221/221
f 219/219 221/221 222/222
f 223/223 224/224 225/225
f 226/226 227/227 228/228
f 229/229 230/230 231/231
f 232/232 233/233 234/234
f 235/235 236/236 237/237
f 238/238 239/239 240/240
f 241/241 242/242 243/243
f 244/244 245/245 246/246
f 247/247 248/248 249/249
f 250/250 251/251 252/252
f 253/253 254/254 255/255
f 256/256 257/257 258/258
f 259/259 260/260 261/261
f 259/259 261/261 262/262
f 263/263 264/264 265/265
f 263/263 265/265 266/266
f 267/267 268/268 269/269
f 267/267 269/269 270/270
f 271/271 272/272 273/273
f 271/271 273/273 274/274
f 275/275 276/276 277/277
f 275/275 277/277 278/278
f 279/279 280/280 281/281
f 279/279 281/281 282/282
f 283/283 284/284 285/285
f 286/286 287/287 288/288
f 289/289 290/290 291/291
f 292/292 293/293 294/294
f 295/295 296/296 297/297
f 298/298 299/299 300/300
f 301/301 302/302 303/303
f 304/304 305/305 306/306
f 307/307 308/308 309/309
f 310/310 311/311 312/312
f 313/313 314/314 315/315
f 316/316 317/317 318/318
f 319/319 320/320 321/321
f 319/319 321/321 322/322
f 323/323 324/324 325/325
f 323/323 325/325 326/326
f 327/327 328/328 329/329
f 327/327 329/329 330/330
f 331/331 332/332 333/333
f 331/331 333/333 334/334
f 335/335 336/336 337/337
f 335/335 337/337 338/338
f 339/339 340/340 341/341
f 339/339 341/341 342/342
f 343/343 344/344 345/345
f 346/346 347/347 348/348
f 349/349 350/350 351/351
f 352/352 353/353 354/354
f 355/355 356/356 357/357
f 358/358 359/359 360/360
f 361/361 362/362 363/363
f 364/364 365/365 366/366
f 367/367 368/368 369/369
f 370/370 371/371 372/372
f 373/373 374/374 375/375
f 376/376 377/377 378/378

