# Blender 4.4.1
# www.blender.org
mtllib kick.mtl
o 立方体
v -0.409849 0.709937 1.341049
v -0.002196 1.995514 1.204074
v -0.345662 0.673886 0.267348
v -0.201342 1.170892 0.751686
v 0.793562 0.709937 1.341049
v 0.291898 1.995514 1.204074
v 0.712829 0.673886 0.267348
v 0.568510 1.170892 0.751686
v -0.359722 1.345469 1.271710
v -0.361463 0.943279 0.563042
v 0.728631 0.943279 0.563042
v 0.726605 1.345469 1.271710
v 0.125691 2.052338 1.202199
v 0.125691 2.052338 1.529244
v 0.252377 2.029884 1.202199
v 0.252377 2.029884 1.529244
v 0.401937 1.940968 1.202397
v 0.401937 1.940968 1.528454
v 0.460027 1.833303 1.202397
v 0.460002 1.833455 1.529244
v 0.544524 1.688411 1.202397
v 0.544733 1.688124 1.529244
v 0.656854 1.511859 1.202397
v 0.657300 1.511038 1.529244
v 0.767017 1.309002 1.202199
v 0.767017 1.309002 1.529244
v 0.820479 1.089780 1.202199
v 0.820479 1.089780 1.529244
v 0.832957 0.861797 1.202199
v 0.832957 0.861797 1.529244
v 0.820479 0.633813 1.202199
v 0.820479 0.633813 1.529244
v 0.783526 0.414591 1.202199
v 0.783526 0.414591 1.529244
v 0.723518 0.212555 1.202199
v 0.723518 0.212555 1.529244
v 0.642760 0.035469 1.202199
v 0.642760 0.035469 1.529244
v 0.544356 -0.109862 1.202199
v 0.544356 -0.109862 1.529244
v 0.432088 -0.217852 1.202199
v 0.432088 -0.217852 1.529244
v 0.310270 -0.284353 1.202199
v 0.310270 -0.284353 1.529244
v 0.183584 -0.306807 1.202199
v 0.183584 -0.306807 1.529244
v 0.056897 -0.284353 1.202199
v 0.056897 -0.284353 1.529244
v -0.100368 -0.217852 1.202199
v -0.100368 -0.217852 1.529244
v -0.212636 -0.109862 1.202199
v -0.212636 -0.109862 1.529244
v -0.311040 0.035469 1.202199
v -0.311040 0.035469 1.529244
v -0.356350 0.212555 1.202199
v -0.356350 0.212555 1.529244
v -0.383459 0.414591 1.202199
v -0.383459 0.414591 1.529244
v -0.420412 0.633813 1.202199
v -0.420412 0.633813 1.529244
v -0.432889 0.861797 1.202199
v -0.432889 0.861797 1.529244
v -0.420412 1.089780 1.202199
v -0.420412 1.089780 1.529244
v -0.406906 1.309002 1.202199
v -0.406906 1.309002 1.529244
v -0.290132 1.511038 1.202199
v -0.290132 1.511038 1.529244
v -0.203455 1.688124 1.202199
v -0.203455 1.688124 1.529244
v -0.118711 1.833455 1.202199
v -0.118711 1.833455 1.529244
v -0.060322 1.941446 1.202199
v -0.060322 1.941446 1.529244
v -0.000996 2.029884 1.202199
v -0.000996 2.029884 1.529244
v 0.066381 -0.270310 1.342025
v -0.386058 0.695183 1.290246
v -0.027647 -0.270310 0.071766
v -0.326382 0.695183 0.366773
v 0.300787 -0.270310 1.342025
v 0.753226 0.695183 1.290246
v 0.394815 -0.270310 0.071766
v 0.707178 0.695183 0.366773
v -0.182436 -0.046292 1.316136
v -0.142394 -0.046292 0.244863
v 0.509562 -0.046292 0.244863
v 0.549604 -0.046292 1.316136
v -0.364386 0.389415 1.303191
v -0.335598 0.389415 0.283770
v 0.702765 0.389415 0.283770
v 0.731554 0.389415 1.303191
v 0.183584 0.637171 -0.983714
v 0.183584 0.637171 1.251867
v 0.263844 0.629427 -0.983714
v 0.263844 0.629427 1.251867
v 0.341019 0.606491 -0.983714
v 0.341019 0.606491 1.251867
v 0.412145 0.569245 -0.983714
v 0.412145 0.569245 1.251867
v 0.474487 0.519120 -0.983714
v 0.474487 0.519120 1.251867
v 0.525649 0.458043 -0.983714
v 0.525649 0.458043 1.251867
v 0.563667 0.388361 -0.983714
v 0.563667 0.388361 1.251867
v 0.587078 0.312752 -0.983714
v 0.587078 0.312752 1.251867
v 0.594982 0.234120 -0.983714
v 0.594982 0.234120 1.251867
v 0.587078 0.155489 -0.983714
v 0.587078 0.155489 1.251867
v 0.563667 0.079880 -0.983714
v 0.563667 0.079880 1.251867
v 0.525649 0.010198 -0.983714
v 0.525649 0.010197 1.251867
v 0.474487 -0.050879 -0.983714
v 0.474487 -0.050880 1.251867
v 0.412145 -0.101004 -0.983714
v 0.412145 -0.101004 1.251867
v 0.341019 -0.138250 -0.983714
v 0.341019 -0.138250 1.251867
v 0.263844 -0.161186 -0.983714
v 0.263844 -0.161186 1.251867
v 0.183584 -0.168930 -0.983714
v 0.183584 -0.168930 1.251867
v 0.103324 -0.161186 -0.983714
v 0.103324 -0.161186 1.251867
v 0.026148 -0.138250 -0.983714
v 0.026148 -0.138250 1.251867
v -0.044977 -0.101004 -0.983714
v -0.044977 -0.101004 1.251867
v -0.107319 -0.050879 -0.983714
v -0.107319 -0.050880 1.251867
v -0.158482 0.010198 -0.983714
v -0.158482 0.010197 1.251867
v -0.196499 0.079880 -0.983714
v -0.196499 0.079880 1.251867
v -0.219910 0.155489 -0.983714
v -0.219910 0.155489 1.251867
v -0.227815 0.234120 -0.983714
v -0.227815 0.234120 1.251867
v -0.219910 0.312752 -0.983714
v -0.219910 0.312752 1.251867
v -0.196499 0.388361 -0.983714
v -0.196499 0.388361 1.251867
v -0.158482 0.458043 -0.983714
v -0.158482 0.458043 1.251867
v -0.107319 0.519120 -0.983714
v -0.107319 0.519120 1.251867
v -0.044977 0.569245 -0.983714
v -0.044977 0.569245 1.251867
v 0.026148 0.606491 -0.983714
v 0.026148 0.606491 1.251867
v 0.103324 0.629427 -0.983714
v 0.103324 0.629427 1.251867
vn -0.5492 0.7274 -0.4115
vn -0.0000 0.6381 -0.7699
vn 0.5494 0.7273 -0.4112
vn -0.0000 0.4810 -0.8767
vn 0.9968 0.0247 -0.0758
vn -0.0000 0.7392 -0.6735
vn -0.9982 0.0072 -0.0599
vn -0.0000 -0.9994 0.0336
vn 0.1745 0.9847 -0.0000
vn 0.5110 0.8596 -0.0000
vn 0.8801 0.4748 -0.0000
vn 0.8638 0.5038 -0.0002
vn 0.8437 0.5368 -0.0001
vn 0.8788 0.4772 -0.0000
vn 0.9715 0.2369 -0.0000
vn 0.9985 0.0546 -0.0000
vn 0.9985 -0.0546 -0.0000
vn 0.9861 -0.1662 -0.0000
vn 0.9586 -0.2847 -0.0000
vn 0.9099 -0.4149 -0.0000
vn 0.8280 -0.5607 -0.0000
vn 0.6932 -0.7207 -0.0000
vn 0.4792 -0.8777 -0.0000
vn 0.1745 -0.9847 -0.0000
vn -0.1745 -0.9847 -0.0000
vn -0.3895 -0.9210 -0.0000
vn -0.6932 -0.7207 -0.0000
vn -0.8280 -0.5607 -0.0000
vn -0.9688 -0.2479 -0.0000
vn -0.9911 -0.1330 -0.0000
vn -0.9861 -0.1662 -0.0000
vn -0.9985 -0.0546 -0.0000
vn -0.9985 0.0546 -0.0000
vn -0.9981 0.0615 -0.0000
vn -0.8658 0.5004 -0.0000
vn -0.8982 0.4396 -0.0000
vn -0.8639 0.5037 -0.0000
vn -0.8797 0.4756 -0.0000
vn -0.0000 -0.0000 1.0000
vn -0.8305 0.5571 -0.0000
vn -0.1745 0.9847 -0.0000
vn -0.0000 -0.0000 -1.0000
vn -0.9989 0.0378 -0.0282
vn -0.0000 0.2620 -0.9651
vn 0.9996 -0.0068 -0.0282
vn -0.0000 -1.0000 -0.0000
vn 0.8672 -0.4938 0.0642
vn -0.0000 0.6114 -0.7913
vn -0.8672 -0.4938 0.0642
vn 0.9148 -0.4026 -0.0342
vn -0.0000 0.0889 -0.9960
vn -0.9148 -0.4026 -0.0342
vn 0.0960 0.9954 -0.0000
vn 0.2849 0.9586 -0.0000
vn 0.4639 0.8859 -0.0000
vn 0.6266 0.7793 -0.0000
vn 0.7666 0.6421 -0.0000
vn 0.8778 0.4789 -0.0000
vn 0.9553 0.2958 -0.0000
vn 0.9950 0.1000 -0.0000
vn 0.9950 -0.1000 -0.0000
vn 0.9553 -0.2958 -0.0000
vn 0.8778 -0.4789 -0.0000
vn 0.7666 -0.6421 -0.0000
vn 0.6266 -0.7793 -0.0000
vn 0.4639 -0.8859 -0.0000
vn 0.2849 -0.9586 -0.0000
vn 0.0960 -0.9954 -0.0000
vn -0.0961 -0.9954 -0.0000
vn -0.2849 -0.9586 -0.0000
vn -0.4639 -0.8859 -0.0000
vn -0.6266 -0.7793 -0.0000
vn -0.7666 -0.6421 -0.0000
vn -0.8778 -0.4789 -0.0000
vn -0.9553 -0.2958 -0.0000
vn -0.9950 -0.1000 -0.0000
vn -0.9950 0.1000 -0.0000
vn -0.9553 0.2958 -0.0000
vn -0.8778 0.4789 -0.0000
vn -0.7666 0.6421 -0.0000
vn -0.6266 0.7793 -0.0000
vn -0.4639 0.8859 -0.0000
vn -0.2849 0.9586 -0.0000
vn -0.0960 0.9954 -0.0000
vn -0.8236 0.4125 -0.3893
vn 0.7809 0.4807 -0.3988
vn 0.9937 0.0989 -0.0533
vn -0.9964 0.0743 -0.0397
vn 0.8799 0.4752 -0.0002
vn 0.8639 0.5037 -0.0001
vn 0.8439 0.5365 0.0002
vn 0.0142 0.0150 0.9998
vn 0.0019 0.0010 -1.0000
vn 0.0002 0.0001 -1.0000
vn -0.0002 0.0009 -1.0000
vn 0.0002 -0.0001 -1.0000
vn 0.0003 -0.0006 -1.0000
vn 0.0003 0.0002 -1.0000
vn 0.0003 -0.0001 -1.0000
vn 0.0003 -0.0002 -1.0000
vn -0.9952 -0.0733 -0.0643
vn 0.9961 -0.0727 -0.0497
vn 0.6675 -0.7442 -0.0249
vn -0.6675 -0.7442 -0.0249
vn 0.9222 -0.3859 -0.0260
vn -0.9222 -0.3859 -0.0260
vn 0.0961 -0.9954 -0.0000
vn -0.0960 -0.9954 -0.0000
vt 0.501554 0.000000
vt 0.625000 0.250000
vt 0.501554 0.250000
vt 0.501554 0.500000
vt 0.625000 0.500000
vt 0.501554 0.750000
vt 0.875000 0.500000
vt 0.625000 0.750000
vt 0.375000 0.750000
vt 0.375000 0.500000
vt 0.375000 0.250000
vt 0.375000 0.000000
vt 1.000000 1.000000
vt 0.968750 0.500000
vt 1.000000 0.500000
vt 0.937500 1.000000
vt 0.937500 0.500000
vt 0.906250 0.500000
vt 0.906250 1.000000
vt 0.875000 1.000000
vt 0.843750 0.500000
vt 0.843750 1.000000
vt 0.812500 0.500000
vt 0.781250 1.000000
vt 0.781250 0.500000
vt 0.750000 0.500000
vt 0.750000 1.000000
vt 0.718750 0.500000
vt 0.718750 1.000000
vt 0.687500 0.500000
vt 0.656250 1.000000
vt 0.656250 0.500000
vt 0.593750 1.000000
vt 0.593750 0.500000
vt 0.562500 0.500000
vt 0.562500 1.000000
vt 0.531250 0.500000
vt 0.531250 1.000000
vt 0.500000 0.500000
vt 0.500000 1.000000
vt 0.468750 0.500000
vt 0.468750 1.000000
vt 0.437500 0.500000
vt 0.437500 1.000000
vt 0.406250 0.500000
vt 0.406250 1.000000
vt 0.375000 1.000000
vt 0.343750 0.500000
vt 0.343750 1.000000
vt 0.312500 0.500000
vt 0.312500 1.000000
vt 0.281250 0.500000
vt 0.281250 1.000000
vt 0.250000 0.500000
vt 0.250000 1.000000
vt 0.218750 0.500000
vt 0.218750 1.000000
vt 0.187500 0.500000
vt 0.187500 1.000000
vt 0.156250 0.500000
vt 0.156250 1.000000
vt 0.125000 0.500000
vt 0.125000 1.000000
vt 0.093750 0.500000
vt 0.093750 1.000000
vt 0.062500 0.500000
vt 0.116663 0.050447
vt 0.203178 0.014612
vt 0.383337 0.050447
vt 0.062500 1.000000
vt 0.031250 0.500000
vt 0.031250 1.000000
vt 0.000000 0.500000
vt 0.514612 0.296822
vt 0.528269 0.341844
vt 0.550447 0.383337
vt 0.562500 0.000000
vt 0.562500 0.250000
vt 0.562500 0.500000
vt 0.562500 0.750000
vt 0.125000 0.750000
vt 0.500000 0.500000
vt 0.500000 0.250000
vt 0.500000 0.750000
vt 0.500000 0.000000
vt 0.968750 1.000000
vt 0.812500 1.000000
vt 0.687500 1.000000
vt 0.625000 1.000000
vt 0.616663 0.449553
vt 0.658156 0.471731
vt 0.616663 0.050447
vt 0.625000 0.000000
vt 0.875000 0.750000
vt 0.341844 0.471731
vt 0.296822 0.485388
vt 0.383337 0.449553
vt 0.250000 0.490000
vt 0.158156 0.471731
vt 0.116663 0.449553
vt 0.203178 0.485388
vt 0.080294 0.419706
vt 0.419706 0.419706
vt 0.050447 0.383337
vt 0.471731 0.341844
vt 0.449553 0.383337
vt 0.014612 0.296822
vt 0.028269 0.341844
vt 0.010000 0.250000
vt 0.490000 0.250000
vt 0.014612 0.203178
vt 0.028269 0.158156
vt 0.050447 0.116663
vt 0.419706 0.080294
vt 0.080294 0.080294
vt 0.471731 0.158156
vt 0.485388 0.296822
vt 0.485388 0.203178
vt 0.449553 0.116663
vt 0.341844 0.028269
vt 0.158156 0.028269
vt 0.250000 0.010000
vt 0.296822 0.014612
vt 0.000000 1.000000
vt 0.703178 0.485388
vt 0.750000 0.490000
vt 0.796822 0.485388
vt 0.841844 0.471731
vt 0.883337 0.449553
vt 0.919706 0.419706
vt 0.949553 0.383337
vt 0.971731 0.341844
vt 0.580294 0.419706
vt 0.985388 0.296822
vt 0.990000 0.250000
vt 0.985388 0.203178
vt 0.510000 0.250000
vt 0.971731 0.158156
vt 0.514612 0.203178
vt 0.949553 0.116663
vt 0.528269 0.158156
vt 0.919706 0.080294
vt 0.883337 0.050447
vt 0.550447 0.116663
vt 0.841844 0.028269
vt 0.703178 0.014612
vt 0.796822 0.014612
vt 0.750000 0.010000
vt 0.658156 0.028269
vt 0.580294 0.080294
s 0
usemtl マテリアル.006
f 9/1/1 4/2/1 10/3/1
f 4/2/2 11/4/2 10/3/2
f 8/5/3 12/6/3 11/4/3
f 4/7/4 6/8/4 8/5/4
f 11/4/5 5/9/5 7/10/5
f 10/3/6 7/10/6 3/11/6
f 1/12/7 10/3/7 3/11/7
f 7/10/8 1/12/8 3/11/8
f 14/13/9 15/14/9 13/15/9
f 15/14/10 18/16/10 17/17/10
f 18/16/11 19/18/11 17/17/11
f 20/19/12 21/7/12 19/18/12
f 22/20/13 23/21/13 21/7/13
f 24/22/14 25/23/14 23/21/14
f 25/23/15 28/24/15 27/25/15
f 28/24/16 29/26/16 27/25/16
f 30/27/17 31/28/17 29/26/17
f 32/29/18 33/30/18 31/28/18
f 33/30/19 36/31/19 35/32/19
f 36/31/20 37/5/20 35/32/20
f 37/5/21 40/33/21 39/34/21
f 40/33/22 41/35/22 39/34/22
f 42/36/23 43/37/23 41/35/23
f 44/38/24 45/39/24 43/37/24
f 46/40/25 47/41/25 45/39/25
f 48/42/26 49/43/26 47/41/26
f 50/44/27 51/45/27 49/43/27
f 52/46/28 53/10/28 51/45/28
f 54/47/29 55/48/29 53/10/29
f 56/49/30 57/50/30 55/48/30
f 58/51/31 59/52/31 57/50/31
f 60/53/32 61/54/32 59/52/32
f 62/55/33 63/56/33 61/54/33
f 64/57/34 65/58/34 63/56/34
f 66/59/35 67/60/35 65/58/35
f 68/61/36 69/62/36 67/60/36
f 70/63/37 71/64/37 69/62/37
f 72/65/38 73/66/38 71/64/38
f 52/67/39 48/68/39 40/69/39
f 74/70/40 75/71/40 73/66/40
f 76/72/41 13/73/41 75/71/41
f 63/74/42 65/75/42 67/76/42
f 89/77/43 80/2/43 90/78/43
f 80/2/44 91/79/44 90/78/44
f 84/5/45 92/80/45 91/79/45
f 83/10/46 77/81/46 79/62/46
f 87/82/47 81/9/47 83/10/47
f 86/83/48 83/10/48 79/11/48
f 77/12/49 86/83/49 79/11/49
f 91/79/50 88/84/50 87/82/50
f 86/83/51 91/79/51 87/82/51
f 85/85/52 90/78/52 86/83/52
f 94/13/53 95/14/53 93/15/53
f 96/86/54 97/17/54 95/14/54
f 98/16/55 99/18/55 97/17/55
f 100/19/56 101/7/56 99/18/56
f 102/20/57 103/21/57 101/7/57
f 104/22/58 105/23/58 103/21/58
f 106/87/59 107/25/59 105/23/59
f 108/24/60 109/26/60 107/25/60
f 110/27/61 111/28/61 109/26/61
f 112/29/62 113/30/62 111/28/62
f 114/88/63 115/32/63 113/30/63
f 116/31/64 117/5/64 115/32/64
f 118/89/65 119/34/65 117/5/65
f 120/33/66 121/35/66 119/34/66
f 122/36/67 123/37/67 121/35/67
f 124/38/68 125/39/68 123/37/68
f 126/40/69 127/41/69 125/39/69
f 128/42/70 129/43/70 127/41/70
f 130/44/71 131/45/71 129/43/71
f 132/46/72 133/10/72 131/45/72
f 134/47/73 135/48/73 133/10/73
f 136/49/74 137/50/74 135/48/74
f 138/51/75 139/52/75 137/50/75
f 140/53/76 141/54/76 139/52/76
f 142/55/77 143/56/77 141/54/77
f 144/57/78 145/58/78 143/56/78
f 146/59/79 147/60/79 145/58/79
f 148/61/80 149/62/80 147/60/80
f 150/63/81 151/64/81 149/62/81
f 152/65/82 153/66/82 151/64/82
f 154/70/83 155/71/83 153/66/83
f 156/72/84 93/73/84 155/71/84
f 151/90/42 153/91/42 131/92/42
f 9/1/85 2/93/85 4/2/85
f 4/2/2 8/5/2 11/4/2
f 8/5/86 6/8/86 12/6/86
f 4/7/4 2/94/4 6/8/4
f 11/4/87 12/6/87 5/9/87
f 10/3/6 11/4/6 7/10/6
f 1/12/88 9/1/88 10/3/88
f 7/10/8 5/9/8 1/12/8
f 14/13/9 16/86/9 15/14/9
f 15/14/10 16/86/10 18/16/10
f 18/16/89 20/19/89 19/18/89
f 20/19/90 22/20/90 21/7/90
f 22/20/91 24/22/91 23/21/91
f 24/22/14 26/87/14 25/23/14
f 25/23/15 26/87/15 28/24/15
f 28/24/16 30/27/16 29/26/16
f 30/27/17 32/29/17 31/28/17
f 32/29/18 34/88/18 33/30/18
f 33/30/19 34/88/19 36/31/19
f 36/31/20 38/89/20 37/5/20
f 37/5/21 38/89/21 40/33/21
f 40/33/22 42/36/22 41/35/22
f 42/36/23 44/38/23 43/37/23
f 44/38/24 46/40/24 45/39/24
f 46/40/25 48/42/25 47/41/25
f 48/42/26 50/44/26 49/43/26
f 50/44/27 52/46/27 51/45/27
f 52/46/28 54/47/28 53/10/28
f 54/47/29 56/49/29 55/48/29
f 56/49/30 58/51/30 57/50/30
f 58/51/31 60/53/31 59/52/31
f 60/53/32 62/55/32 61/54/32
f 62/55/33 64/57/33 63/56/33
f 64/57/34 66/59/34 65/58/34
f 66/59/35 68/61/35 67/60/35
f 68/61/36 70/63/36 69/62/36
f 70/63/37 72/65/37 71/64/37
f 72/65/38 74/70/38 73/66/38
f 18/95/92 16/96/92 20/97/92
f 16/96/39 14/98/39 74/99/39
f 20/97/39 16/96/39 72/100/39
f 14/98/39 76/101/39 74/99/39
f 72/100/39 70/102/39 22/103/39
f 70/102/39 68/104/39 22/103/39
f 74/99/39 72/100/39 16/96/39
f 26/105/39 24/106/39 64/107/39
f 24/106/39 22/103/39 68/104/39
f 22/103/39 20/97/39 72/100/39
f 68/104/39 66/108/39 64/107/39
f 64/107/39 62/109/39 30/110/39
f 62/109/39 60/111/39 30/110/39
f 58/112/39 56/113/39 38/114/39
f 56/113/39 54/115/39 52/67/39
f 38/114/39 56/113/39 40/69/39
f 60/111/39 58/112/39 34/116/39
f 68/104/39 64/107/39 24/106/39
f 30/110/39 28/117/39 64/107/39
f 28/117/39 26/105/39 64/107/39
f 34/116/39 32/118/39 60/111/39
f 32/118/39 30/110/39 60/111/39
f 38/114/39 36/119/39 58/112/39
f 36/119/39 34/116/39 58/112/39
f 42/120/39 40/69/39 48/68/39
f 48/68/39 52/67/39 50/121/39
f 46/122/39 44/123/39 48/68/39
f 44/123/39 42/120/39 48/68/39
f 56/113/39 52/67/39 40/69/39
f 74/70/40 76/72/40 75/71/40
f 76/72/41 14/124/41 13/73/41
f 75/125/42 13/126/42 73/91/42
f 13/126/42 15/127/42 73/91/42
f 15/127/93 17/128/93 19/129/93
f 21/130/94 23/131/94 67/76/94
f 23/131/95 25/132/95 63/74/95
f 67/76/96 23/131/96 63/74/96
f 15/127/97 19/129/97 71/90/97
f 19/129/98 21/130/98 71/90/98
f 67/76/99 69/133/99 21/130/99
f 69/133/100 71/90/100 21/130/100
f 71/90/42 73/91/42 15/127/42
f 25/132/42 27/134/42 63/74/42
f 27/134/42 29/135/42 63/74/42
f 29/135/42 31/136/42 61/137/42
f 31/136/42 33/138/42 59/139/42
f 61/137/42 31/136/42 59/139/42
f 33/138/42 35/140/42 57/141/42
f 35/140/42 37/142/42 57/141/42
f 37/142/42 39/143/42 55/144/42
f 39/143/42 41/145/42 47/146/42
f 55/144/42 39/143/42 51/92/42
f 41/145/42 43/147/42 47/146/42
f 43/147/42 45/148/42 47/146/42
f 47/146/42 49/149/42 51/92/42
f 55/144/42 51/92/42 53/150/42
f 47/146/42 51/92/42 39/143/42
f 55/144/42 57/141/42 37/142/42
f 57/141/42 59/139/42 33/138/42
f 61/137/42 63/74/42 29/135/42
f 89/77/101 78/93/101 80/2/101
f 80/2/44 84/5/44 91/79/44
f 84/5/102 82/8/102 92/80/102
f 83/10/46 81/9/46 77/81/46
f 87/82/103 88/84/103 81/9/103
f 86/83/48 87/82/48 83/10/48
f 77/12/104 85/85/104 86/83/104
f 91/79/105 92/80/105 88/84/105
f 86/83/51 90/78/51 91/79/51
f 85/85/106 89/77/106 90/78/106
f 94/13/53 96/86/53 95/14/53
f 96/86/54 98/16/54 97/17/54
f 98/16/55 100/19/55 99/18/55
f 100/19/56 102/20/56 101/7/56
f 102/20/57 104/22/57 103/21/57
f 104/22/58 106/87/58 105/23/58
f 106/87/59 108/24/59 107/25/59
f 108/24/60 110/27/60 109/26/60
f 110/27/61 112/29/61 111/28/61
f 112/29/62 114/88/62 113/30/62
f 114/88/63 116/31/63 115/32/63
f 116/31/64 118/89/64 117/5/64
f 118/89/65 120/33/65 119/34/65
f 120/33/66 122/36/66 121/35/66
f 122/36/67 124/38/67 123/37/67
f 124/38/107 126/40/107 125/39/107
f 126/40/108 128/42/108 127/41/108
f 128/42/70 130/44/70 129/43/70
f 130/44/71 132/46/71 131/45/71
f 132/46/72 134/47/72 133/10/72
f 134/47/73 136/49/73 135/48/73
f 136/49/74 138/51/74 137/50/74
f 138/51/75 140/53/75 139/52/75
f 140/53/76 142/55/76 141/54/76
f 142/55/77 144/57/77 143/56/77
f 144/57/78 146/59/78 145/58/78
f 146/59/79 148/61/79 147/60/79
f 148/61/80 150/63/80 149/62/80
f 150/63/81 152/65/81 151/64/81
f 152/65/82 154/70/82 153/66/82
f 154/70/83 156/72/83 155/71/83
f 156/72/84 94/124/84 93/73/84
f 155/125/42 93/126/42 125/148/42
f 93/126/42 95/127/42 123/147/42
f 95/127/42 97/128/42 123/147/42
f 97/128/42 99/129/42 121/145/42
f 123/147/42 97/128/42 121/145/42
f 99/129/42 101/130/42 117/142/42
f 101/130/42 103/131/42 115/140/42
f 103/131/42 105/132/42 115/140/42
f 105/132/42 107/134/42 113/138/42
f 115/140/42 105/132/42 113/138/42
f 107/134/42 109/135/42 111/136/42
f 111/136/42 113/138/42 107/134/42
f 115/140/42 117/142/42 101/130/42
f 117/142/42 119/143/42 99/129/42
f 119/143/42 121/145/42 99/129/42
f 123/147/42 125/148/42 93/126/42
f 125/148/42 127/146/42 155/125/42
f 127/146/42 129/149/42 155/125/42
f 129/149/42 131/92/42 153/91/42
f 155/125/42 129/149/42 153/91/42
f 131/92/42 133/150/42 149/133/42
f 133/150/42 135/144/42 147/76/42
f 135/144/42 137/141/42 147/76/42
f 137/141/42 139/139/42 145/75/42
f 147/76/42 137/141/42 145/75/42
f 139/139/42 141/137/42 143/74/42
f 143/74/42 145/75/42 139/139/42
f 147/76/42 149/133/42 133/150/42
f 149/133/42 151/90/42 131/92/42
