{"asset": {"generator": "Khronos glTF Blender I/O v4.0.44", "version": "2.0"}, "scene": 0, "scenes": [{"name": "Scene", "nodes": [11]}], "nodes": [{"name": "Tongue", "rotation": [0.7269972562789917, 0, 0, 0.6866404414176941], "translation": [0, 0.1600000262260437, 0.3499999940395355]}, {"children": [0], "name": "Head", "translation": [0, 0.5999999642372131, 0]}, {"name": "Tail", "rotation": [-0.8313698768615723, 0, 0, 0.5557194948196411], "scale": [1, 1, 0.9999999403953552], "translation": [0, 0.23999997973442078, -0.25999999046325684]}, {"name": "Arm_L", "rotation": [-0.5, -0.5, -0.5, 0.5], "scale": [1, 0.9999999403953552, 1], "translation": [0.2199999988079071, 0.3699999749660492, 0.05999999865889549]}, {"name": "Arm_R", "rotation": [-0.5, 0.5, 0.5, 0.5], "scale": [1, 0.9999999403953552, 1], "translation": [-0.2199999988079071, 0.3699999749660492, 0.05999999865889549]}, {"children": [1, 2, 3, 4], "name": "Body", "rotation": [0.7071067690849304, 0, 0, 0.7071067690849304], "translation": [0, 0, 0.10000000149011612]}, {"name": "Foot_L", "rotation": [-0.9994460940361023, 0, 0, 0.03327786549925804], "scale": [1, 1, 1.0000048875808716], "translation": [0.1599999964237213, 0.019999995827674866, 0.09000000357627869]}, {"name": "Foot_R", "rotation": [-0.9994460940361023, 0, 0, 0.03327786549925804], "scale": [1, 1, 1.0000048875808716], "translation": [-0.1599999964237213, 0.019999995827674866, 0.09000000357627869]}, {"children": [5, 6, 7], "name": "Root", "rotation": [-0.7071067690849304, 0, 0, 0.7071067690849304]}, {"name": "Item"}, {"mesh": 0, "name": "RoundMascot3", "skin": 0}, {"children": [10, 8, 9], "name": "Rig"}], "animations": [{"channels": [{"sampler": 0, "target": {"node": 8, "path": "translation"}}, {"sampler": 1, "target": {"node": 8, "path": "rotation"}}, {"sampler": 2, "target": {"node": 8, "path": "scale"}}, {"sampler": 3, "target": {"node": 5, "path": "translation"}}, {"sampler": 4, "target": {"node": 5, "path": "rotation"}}, {"sampler": 5, "target": {"node": 5, "path": "scale"}}, {"sampler": 6, "target": {"node": 1, "path": "translation"}}, {"sampler": 7, "target": {"node": 1, "path": "rotation"}}, {"sampler": 8, "target": {"node": 1, "path": "scale"}}, {"sampler": 9, "target": {"node": 0, "path": "translation"}}, {"sampler": 10, "target": {"node": 0, "path": "rotation"}}, {"sampler": 11, "target": {"node": 0, "path": "scale"}}, {"sampler": 12, "target": {"node": 2, "path": "translation"}}, {"sampler": 13, "target": {"node": 2, "path": "rotation"}}, {"sampler": 14, "target": {"node": 2, "path": "scale"}}, {"sampler": 15, "target": {"node": 3, "path": "translation"}}, {"sampler": 16, "target": {"node": 3, "path": "rotation"}}, {"sampler": 17, "target": {"node": 3, "path": "scale"}}, {"sampler": 18, "target": {"node": 4, "path": "translation"}}, {"sampler": 19, "target": {"node": 4, "path": "rotation"}}, {"sampler": 20, "target": {"node": 4, "path": "scale"}}, {"sampler": 21, "target": {"node": 6, "path": "translation"}}, {"sampler": 22, "target": {"node": 6, "path": "rotation"}}, {"sampler": 23, "target": {"node": 6, "path": "scale"}}, {"sampler": 24, "target": {"node": 7, "path": "translation"}}, {"sampler": 25, "target": {"node": 7, "path": "rotation"}}, {"sampler": 26, "target": {"node": 7, "path": "scale"}}, {"sampler": 27, "target": {"node": 9, "path": "translation"}}, {"sampler": 28, "target": {"node": 9, "path": "rotation"}}, {"sampler": 29, "target": {"node": 9, "path": "scale"}}], "name": "EggLay", "samplers": [{"input": 43, "interpolation": "STEP", "output": 44}, {"input": 43, "interpolation": "STEP", "output": 45}, {"input": 43, "interpolation": "STEP", "output": 46}, {"input": 47, "interpolation": "LINEAR", "output": 48}, {"input": 47, "interpolation": "LINEAR", "output": 49}, {"input": 47, "interpolation": "LINEAR", "output": 50}, {"input": 43, "interpolation": "STEP", "output": 51}, {"input": 47, "interpolation": "LINEAR", "output": 52}, {"input": 43, "interpolation": "STEP", "output": 53}, {"input": 43, "interpolation": "STEP", "output": 54}, {"input": 43, "interpolation": "STEP", "output": 55}, {"input": 43, "interpolation": "STEP", "output": 56}, {"input": 43, "interpolation": "STEP", "output": 57}, {"input": 47, "interpolation": "LINEAR", "output": 58}, {"input": 43, "interpolation": "STEP", "output": 59}, {"input": 43, "interpolation": "STEP", "output": 60}, {"input": 47, "interpolation": "LINEAR", "output": 61}, {"input": 43, "interpolation": "STEP", "output": 62}, {"input": 43, "interpolation": "STEP", "output": 63}, {"input": 47, "interpolation": "LINEAR", "output": 64}, {"input": 43, "interpolation": "STEP", "output": 65}, {"input": 43, "interpolation": "STEP", "output": 66}, {"input": 47, "interpolation": "LINEAR", "output": 67}, {"input": 43, "interpolation": "STEP", "output": 68}, {"input": 43, "interpolation": "STEP", "output": 69}, {"input": 47, "interpolation": "LINEAR", "output": 70}, {"input": 43, "interpolation": "STEP", "output": 71}, {"input": 43, "interpolation": "STEP", "output": 72}, {"input": 43, "interpolation": "STEP", "output": 73}, {"input": 43, "interpolation": "STEP", "output": 74}]}, {"channels": [{"sampler": 0, "target": {"node": 8, "path": "translation"}}, {"sampler": 1, "target": {"node": 8, "path": "rotation"}}, {"sampler": 2, "target": {"node": 8, "path": "scale"}}, {"sampler": 3, "target": {"node": 5, "path": "translation"}}, {"sampler": 4, "target": {"node": 5, "path": "rotation"}}, {"sampler": 5, "target": {"node": 5, "path": "scale"}}, {"sampler": 6, "target": {"node": 1, "path": "translation"}}, {"sampler": 7, "target": {"node": 1, "path": "rotation"}}, {"sampler": 8, "target": {"node": 1, "path": "scale"}}, {"sampler": 9, "target": {"node": 0, "path": "translation"}}, {"sampler": 10, "target": {"node": 0, "path": "rotation"}}, {"sampler": 11, "target": {"node": 0, "path": "scale"}}, {"sampler": 12, "target": {"node": 2, "path": "translation"}}, {"sampler": 13, "target": {"node": 2, "path": "rotation"}}, {"sampler": 14, "target": {"node": 2, "path": "scale"}}, {"sampler": 15, "target": {"node": 3, "path": "translation"}}, {"sampler": 16, "target": {"node": 3, "path": "rotation"}}, {"sampler": 17, "target": {"node": 3, "path": "scale"}}, {"sampler": 18, "target": {"node": 4, "path": "translation"}}, {"sampler": 19, "target": {"node": 4, "path": "rotation"}}, {"sampler": 20, "target": {"node": 4, "path": "scale"}}, {"sampler": 21, "target": {"node": 6, "path": "translation"}}, {"sampler": 22, "target": {"node": 6, "path": "rotation"}}, {"sampler": 23, "target": {"node": 6, "path": "scale"}}, {"sampler": 24, "target": {"node": 7, "path": "translation"}}, {"sampler": 25, "target": {"node": 7, "path": "rotation"}}, {"sampler": 26, "target": {"node": 7, "path": "scale"}}, {"sampler": 27, "target": {"node": 9, "path": "translation"}}, {"sampler": 28, "target": {"node": 9, "path": "rotation"}}, {"sampler": 29, "target": {"node": 9, "path": "scale"}}], "name": "Idle", "samplers": [{"input": 43, "interpolation": "STEP", "output": 75}, {"input": 43, "interpolation": "STEP", "output": 76}, {"input": 43, "interpolation": "STEP", "output": 77}, {"input": 43, "interpolation": "STEP", "output": 78}, {"input": 43, "interpolation": "STEP", "output": 79}, {"input": 47, "interpolation": "LINEAR", "output": 80}, {"input": 43, "interpolation": "STEP", "output": 81}, {"input": 47, "interpolation": "LINEAR", "output": 82}, {"input": 43, "interpolation": "STEP", "output": 83}, {"input": 43, "interpolation": "STEP", "output": 84}, {"input": 43, "interpolation": "STEP", "output": 85}, {"input": 43, "interpolation": "STEP", "output": 86}, {"input": 43, "interpolation": "STEP", "output": 87}, {"input": 43, "interpolation": "STEP", "output": 88}, {"input": 43, "interpolation": "STEP", "output": 89}, {"input": 43, "interpolation": "STEP", "output": 90}, {"input": 47, "interpolation": "LINEAR", "output": 91}, {"input": 43, "interpolation": "STEP", "output": 92}, {"input": 43, "interpolation": "STEP", "output": 93}, {"input": 47, "interpolation": "LINEAR", "output": 94}, {"input": 43, "interpolation": "STEP", "output": 95}, {"input": 43, "interpolation": "STEP", "output": 96}, {"input": 43, "interpolation": "STEP", "output": 97}, {"input": 43, "interpolation": "STEP", "output": 98}, {"input": 43, "interpolation": "STEP", "output": 99}, {"input": 43, "interpolation": "STEP", "output": 100}, {"input": 43, "interpolation": "STEP", "output": 101}, {"input": 43, "interpolation": "STEP", "output": 102}, {"input": 43, "interpolation": "STEP", "output": 103}, {"input": 43, "interpolation": "STEP", "output": 104}]}, {"channels": [{"sampler": 0, "target": {"node": 8, "path": "translation"}}, {"sampler": 1, "target": {"node": 8, "path": "rotation"}}, {"sampler": 2, "target": {"node": 8, "path": "scale"}}, {"sampler": 3, "target": {"node": 5, "path": "translation"}}, {"sampler": 4, "target": {"node": 5, "path": "rotation"}}, {"sampler": 5, "target": {"node": 5, "path": "scale"}}, {"sampler": 6, "target": {"node": 1, "path": "translation"}}, {"sampler": 7, "target": {"node": 1, "path": "rotation"}}, {"sampler": 8, "target": {"node": 1, "path": "scale"}}, {"sampler": 9, "target": {"node": 0, "path": "translation"}}, {"sampler": 10, "target": {"node": 0, "path": "rotation"}}, {"sampler": 11, "target": {"node": 0, "path": "scale"}}, {"sampler": 12, "target": {"node": 2, "path": "translation"}}, {"sampler": 13, "target": {"node": 2, "path": "rotation"}}, {"sampler": 14, "target": {"node": 2, "path": "scale"}}, {"sampler": 15, "target": {"node": 3, "path": "translation"}}, {"sampler": 16, "target": {"node": 3, "path": "rotation"}}, {"sampler": 17, "target": {"node": 3, "path": "scale"}}, {"sampler": 18, "target": {"node": 4, "path": "translation"}}, {"sampler": 19, "target": {"node": 4, "path": "rotation"}}, {"sampler": 20, "target": {"node": 4, "path": "scale"}}, {"sampler": 21, "target": {"node": 6, "path": "translation"}}, {"sampler": 22, "target": {"node": 6, "path": "rotation"}}, {"sampler": 23, "target": {"node": 6, "path": "scale"}}, {"sampler": 24, "target": {"node": 7, "path": "translation"}}, {"sampler": 25, "target": {"node": 7, "path": "rotation"}}, {"sampler": 26, "target": {"node": 7, "path": "scale"}}, {"sampler": 27, "target": {"node": 9, "path": "translation"}}, {"sampler": 28, "target": {"node": 9, "path": "rotation"}}, {"sampler": 29, "target": {"node": 9, "path": "scale"}}], "name": "Throw", "samplers": [{"input": 105, "interpolation": "STEP", "output": 106}, {"input": 105, "interpolation": "STEP", "output": 107}, {"input": 105, "interpolation": "STEP", "output": 108}, {"input": 109, "interpolation": "LINEAR", "output": 110}, {"input": 109, "interpolation": "LINEAR", "output": 111}, {"input": 109, "interpolation": "LINEAR", "output": 112}, {"input": 105, "interpolation": "STEP", "output": 113}, {"input": 109, "interpolation": "LINEAR", "output": 114}, {"input": 105, "interpolation": "STEP", "output": 115}, {"input": 105, "interpolation": "STEP", "output": 116}, {"input": 105, "interpolation": "STEP", "output": 117}, {"input": 105, "interpolation": "STEP", "output": 118}, {"input": 105, "interpolation": "STEP", "output": 119}, {"input": 109, "interpolation": "LINEAR", "output": 120}, {"input": 105, "interpolation": "STEP", "output": 121}, {"input": 105, "interpolation": "STEP", "output": 122}, {"input": 109, "interpolation": "LINEAR", "output": 123}, {"input": 105, "interpolation": "STEP", "output": 124}, {"input": 105, "interpolation": "STEP", "output": 125}, {"input": 109, "interpolation": "LINEAR", "output": 126}, {"input": 105, "interpolation": "STEP", "output": 127}, {"input": 105, "interpolation": "STEP", "output": 128}, {"input": 109, "interpolation": "LINEAR", "output": 129}, {"input": 105, "interpolation": "STEP", "output": 130}, {"input": 105, "interpolation": "STEP", "output": 131}, {"input": 109, "interpolation": "LINEAR", "output": 132}, {"input": 105, "interpolation": "STEP", "output": 133}, {"input": 109, "interpolation": "LINEAR", "output": 134}, {"input": 105, "interpolation": "STEP", "output": 135}, {"input": 105, "interpolation": "STEP", "output": 136}]}, {"channels": [{"sampler": 0, "target": {"node": 8, "path": "translation"}}, {"sampler": 1, "target": {"node": 8, "path": "rotation"}}, {"sampler": 2, "target": {"node": 8, "path": "scale"}}, {"sampler": 3, "target": {"node": 5, "path": "translation"}}, {"sampler": 4, "target": {"node": 5, "path": "rotation"}}, {"sampler": 5, "target": {"node": 5, "path": "scale"}}, {"sampler": 6, "target": {"node": 1, "path": "translation"}}, {"sampler": 7, "target": {"node": 1, "path": "rotation"}}, {"sampler": 8, "target": {"node": 1, "path": "scale"}}, {"sampler": 9, "target": {"node": 0, "path": "translation"}}, {"sampler": 10, "target": {"node": 0, "path": "rotation"}}, {"sampler": 11, "target": {"node": 0, "path": "scale"}}, {"sampler": 12, "target": {"node": 2, "path": "translation"}}, {"sampler": 13, "target": {"node": 2, "path": "rotation"}}, {"sampler": 14, "target": {"node": 2, "path": "scale"}}, {"sampler": 15, "target": {"node": 3, "path": "translation"}}, {"sampler": 16, "target": {"node": 3, "path": "rotation"}}, {"sampler": 17, "target": {"node": 3, "path": "scale"}}, {"sampler": 18, "target": {"node": 4, "path": "translation"}}, {"sampler": 19, "target": {"node": 4, "path": "rotation"}}, {"sampler": 20, "target": {"node": 4, "path": "scale"}}, {"sampler": 21, "target": {"node": 6, "path": "translation"}}, {"sampler": 22, "target": {"node": 6, "path": "rotation"}}, {"sampler": 23, "target": {"node": 6, "path": "scale"}}, {"sampler": 24, "target": {"node": 7, "path": "translation"}}, {"sampler": 25, "target": {"node": 7, "path": "rotation"}}, {"sampler": 26, "target": {"node": 7, "path": "scale"}}, {"sampler": 27, "target": {"node": 9, "path": "translation"}}, {"sampler": 28, "target": {"node": 9, "path": "rotation"}}, {"sampler": 29, "target": {"node": 9, "path": "scale"}}], "name": "TongueOut", "samplers": [{"input": 137, "interpolation": "STEP", "output": 138}, {"input": 137, "interpolation": "STEP", "output": 139}, {"input": 137, "interpolation": "STEP", "output": 140}, {"input": 137, "interpolation": "STEP", "output": 141}, {"input": 137, "interpolation": "STEP", "output": 142}, {"input": 143, "interpolation": "LINEAR", "output": 144}, {"input": 137, "interpolation": "STEP", "output": 145}, {"input": 143, "interpolation": "LINEAR", "output": 146}, {"input": 137, "interpolation": "STEP", "output": 147}, {"input": 137, "interpolation": "STEP", "output": 148}, {"input": 137, "interpolation": "STEP", "output": 149}, {"input": 143, "interpolation": "LINEAR", "output": 150}, {"input": 137, "interpolation": "STEP", "output": 151}, {"input": 137, "interpolation": "STEP", "output": 152}, {"input": 137, "interpolation": "STEP", "output": 153}, {"input": 137, "interpolation": "STEP", "output": 154}, {"input": 143, "interpolation": "LINEAR", "output": 155}, {"input": 137, "interpolation": "STEP", "output": 156}, {"input": 137, "interpolation": "STEP", "output": 157}, {"input": 143, "interpolation": "LINEAR", "output": 158}, {"input": 137, "interpolation": "STEP", "output": 159}, {"input": 137, "interpolation": "STEP", "output": 160}, {"input": 137, "interpolation": "STEP", "output": 161}, {"input": 137, "interpolation": "STEP", "output": 162}, {"input": 137, "interpolation": "STEP", "output": 163}, {"input": 137, "interpolation": "STEP", "output": 164}, {"input": 137, "interpolation": "STEP", "output": 165}, {"input": 137, "interpolation": "STEP", "output": 166}, {"input": 137, "interpolation": "STEP", "output": 167}, {"input": 137, "interpolation": "STEP", "output": 168}]}, {"channels": [{"sampler": 0, "target": {"node": 8, "path": "translation"}}, {"sampler": 1, "target": {"node": 8, "path": "rotation"}}, {"sampler": 2, "target": {"node": 8, "path": "scale"}}, {"sampler": 3, "target": {"node": 5, "path": "translation"}}, {"sampler": 4, "target": {"node": 5, "path": "rotation"}}, {"sampler": 5, "target": {"node": 5, "path": "scale"}}, {"sampler": 6, "target": {"node": 1, "path": "translation"}}, {"sampler": 7, "target": {"node": 1, "path": "rotation"}}, {"sampler": 8, "target": {"node": 1, "path": "scale"}}, {"sampler": 9, "target": {"node": 0, "path": "translation"}}, {"sampler": 10, "target": {"node": 0, "path": "rotation"}}, {"sampler": 11, "target": {"node": 0, "path": "scale"}}, {"sampler": 12, "target": {"node": 2, "path": "translation"}}, {"sampler": 13, "target": {"node": 2, "path": "rotation"}}, {"sampler": 14, "target": {"node": 2, "path": "scale"}}, {"sampler": 15, "target": {"node": 3, "path": "translation"}}, {"sampler": 16, "target": {"node": 3, "path": "rotation"}}, {"sampler": 17, "target": {"node": 3, "path": "scale"}}, {"sampler": 18, "target": {"node": 4, "path": "translation"}}, {"sampler": 19, "target": {"node": 4, "path": "rotation"}}, {"sampler": 20, "target": {"node": 4, "path": "scale"}}, {"sampler": 21, "target": {"node": 6, "path": "translation"}}, {"sampler": 22, "target": {"node": 6, "path": "rotation"}}, {"sampler": 23, "target": {"node": 6, "path": "scale"}}, {"sampler": 24, "target": {"node": 7, "path": "translation"}}, {"sampler": 25, "target": {"node": 7, "path": "rotation"}}, {"sampler": 26, "target": {"node": 7, "path": "scale"}}, {"sampler": 27, "target": {"node": 9, "path": "translation"}}, {"sampler": 28, "target": {"node": 9, "path": "rotation"}}, {"sampler": 29, "target": {"node": 9, "path": "scale"}}], "name": "Walk", "samplers": [{"input": 169, "interpolation": "STEP", "output": 170}, {"input": 169, "interpolation": "STEP", "output": 171}, {"input": 169, "interpolation": "STEP", "output": 172}, {"input": 173, "interpolation": "LINEAR", "output": 174}, {"input": 169, "interpolation": "STEP", "output": 175}, {"input": 169, "interpolation": "STEP", "output": 176}, {"input": 169, "interpolation": "STEP", "output": 177}, {"input": 173, "interpolation": "LINEAR", "output": 178}, {"input": 169, "interpolation": "STEP", "output": 179}, {"input": 169, "interpolation": "STEP", "output": 180}, {"input": 169, "interpolation": "STEP", "output": 181}, {"input": 169, "interpolation": "STEP", "output": 182}, {"input": 169, "interpolation": "STEP", "output": 183}, {"input": 173, "interpolation": "LINEAR", "output": 184}, {"input": 169, "interpolation": "STEP", "output": 185}, {"input": 169, "interpolation": "STEP", "output": 186}, {"input": 173, "interpolation": "LINEAR", "output": 187}, {"input": 169, "interpolation": "STEP", "output": 188}, {"input": 169, "interpolation": "STEP", "output": 189}, {"input": 173, "interpolation": "LINEAR", "output": 190}, {"input": 169, "interpolation": "STEP", "output": 191}, {"input": 169, "interpolation": "STEP", "output": 192}, {"input": 173, "interpolation": "LINEAR", "output": 193}, {"input": 169, "interpolation": "STEP", "output": 194}, {"input": 169, "interpolation": "STEP", "output": 195}, {"input": 173, "interpolation": "LINEAR", "output": 196}, {"input": 169, "interpolation": "STEP", "output": 197}, {"input": 169, "interpolation": "STEP", "output": 198}, {"input": 169, "interpolation": "STEP", "output": 199}, {"input": 169, "interpolation": "STEP", "output": 200}]}], "materials": [{"doubleSided": true, "name": "BodyGreen", "pbrMetallicRoughness": {"baseColorFactor": [1.0, 1.0, 1.0, 1.0], "metallicFactor": 0, "roughnessFactor": 0.75, "baseColorTexture": {"index": 0, "texCoord": 0}}}, {"doubleSided": true, "name": "Belly", "pbrMetallicRoughness": {"baseColorFactor": [1.0, 1.0, 1.0, 1.0], "metallicFactor": 0, "roughnessFactor": 0.75, "baseColorTexture": {"index": 0, "texCoord": 0}}}, {"doubleSided": true, "name": "EyeWhite", "pbrMetallicRoughness": {"baseColorFactor": [1.0, 1.0, 1.0, 1.0], "metallicFactor": 0, "roughnessFactor": 0.4000000059604645, "baseColorTexture": {"index": 0, "texCoord": 0}}}, {"doubleSided": true, "name": "Pupil", "pbrMetallicRoughness": {"baseColorFactor": [1.0, 1.0, 1.0, 1.0], "metallicFactor": 0, "roughnessFactor": 0.4000000059604645, "baseColorTexture": {"index": 0, "texCoord": 0}}}, {"doubleSided": true, "name": "DarkGreen", "pbrMetallicRoughness": {"baseColorFactor": [1.0, 1.0, 1.0, 1.0], "metallicFactor": 0, "roughnessFactor": 0.75, "baseColorTexture": {"index": 0, "texCoord": 0}}}, {"doubleSided": true, "name": "Cheek", "pbrMetallicRoughness": {"baseColorFactor": [1.0, 1.0, 1.0, 1.0], "metallicFactor": 0, "roughnessFactor": 0.75, "baseColorTexture": {"index": 0, "texCoord": 0}}}, {"doubleSided": true, "name": "Tongue", "pbrMetallicRoughness": {"baseColorFactor": [1.0, 1.0, 1.0, 1.0], "metallicFactor": 0, "roughnessFactor": 0.550000011920929, "baseColorTexture": {"index": 0, "texCoord": 0}}}], "meshes": [{"name": "RoundMascot3Mesh", "primitives": [{"attributes": {"POSITION": 0, "NORMAL": 1, "TEXCOORD_0": 201, "JOINTS_0": 3, "WEIGHTS_0": 4}, "indices": 5, "material": 0}, {"attributes": {"POSITION": 6, "NORMAL": 7, "TEXCOORD_0": 202, "JOINTS_0": 9, "WEIGHTS_0": 10}, "indices": 11, "material": 1}, {"attributes": {"POSITION": 12, "NORMAL": 13, "TEXCOORD_0": 203, "JOINTS_0": 15, "WEIGHTS_0": 16}, "indices": 17, "material": 2}, {"attributes": {"POSITION": 18, "NORMAL": 19, "TEXCOORD_0": 204, "JOINTS_0": 21, "WEIGHTS_0": 22}, "indices": 23, "material": 3}, {"attributes": {"POSITION": 24, "NORMAL": 25, "TEXCOORD_0": 205, "JOINTS_0": 27, "WEIGHTS_0": 28}, "indices": 29, "material": 4}, {"attributes": {"POSITION": 30, "NORMAL": 31, "TEXCOORD_0": 206, "JOINTS_0": 33, "WEIGHTS_0": 34}, "indices": 35, "material": 5}, {"attributes": {"POSITION": 36, "NORMAL": 37, "TEXCOORD_0": 207, "JOINTS_0": 39, "WEIGHTS_0": 40}, "indices": 41, "material": 6}]}], "skins": [{"inverseBindMatrices": 42, "joints": [8, 5, 1, 0, 2, 3, 4, 6, 7, 9], "name": "Rig"}], "accessors": [{"bufferView": 0, "componentType": 5126, "count": 2812, "max": [0.5384807586669922, 1.380000114440918, 0.5450000166893005], "min": [-0.5384807586669922, 0.08000001311302185, -0.5024920105934143], "type": "VEC3"}, {"bufferView": 1, "componentType": 5126, "count": 2812, "type": "VEC3"}, {"bufferView": 2, "componentType": 5126, "count": 2812, "type": "VEC2"}, {"bufferView": 3, "componentType": 5121, "count": 2812, "type": "VEC4"}, {"bufferView": 4, "componentType": 5126, "count": 2812, "type": "VEC4"}, {"bufferView": 5, "componentType": 5123, "count": 14184, "type": "SCALAR"}, {"bufferView": 6, "componentType": 5126, "count": 549, "max": [0.2099999636411667, 0.6000000238418579, 0.3449999988079071], "min": [-0.2099999189376831, 0.12000000476837158, 0.03500005975365639], "type": "VEC3"}, {"bufferView": 7, "componentType": 5126, "count": 549, "type": "VEC3"}, {"bufferView": 8, "componentType": 5126, "count": 549, "type": "VEC2"}, {"bufferView": 9, "componentType": 5121, "count": 549, "type": "VEC4"}, {"bufferView": 10, "componentType": 5126, "count": 549, "type": "VEC4"}, {"bufferView": 11, "componentType": 5123, "count": 2856, "type": "SCALAR"}, {"bufferView": 12, "componentType": 5126, "count": 1098, "max": [0.22999998927116394, 1.3899999856948853, 0.38999998569488525], "min": [-0.22999997437000275, 1.090000033378601, 0.24000002443790436], "type": "VEC3"}, {"bufferView": 13, "componentType": 5126, "count": 1098, "type": "VEC3"}, {"bufferView": 14, "componentType": 5126, "count": 1098, "type": "VEC2"}, {"bufferView": 15, "componentType": 5121, "count": 1098, "type": "VEC4"}, {"bufferView": 16, "componentType": 5126, "count": 1098, "type": "VEC4"}, {"bufferView": 17, "componentType": 5123, "count": 5712, "type": "SCALAR"}, {"bufferView": 18, "componentType": 5126, "count": 370, "max": [0.17499999701976776, 1.2930002212524414, 0.406000018119812], "min": [-0.17499999701976776, 1.1570000648498535, 0.3499999940395355], "type": "VEC3"}, {"bufferView": 19, "componentType": 5126, "count": 370, "type": "VEC3"}, {"bufferView": 20, "componentType": 5126, "count": 370, "type": "VEC2"}, {"bufferView": 21, "componentType": 5121, "count": 370, "type": "VEC4"}, {"bufferView": 22, "componentType": 5126, "count": 370, "type": "VEC4"}, {"bufferView": 23, "componentType": 5123, "count": 1728, "type": "SCALAR"}, {"bufferView": 24, "componentType": 5126, "count": 945, "max": [0.2750000059604645, 1.4793156385421753, 0.5419999361038208], "min": [-0.2750000059604645, -2.9802322387695312e-08, -0.4093155860900879], "type": "VEC3"}, {"bufferView": 25, "componentType": 5126, "count": 945, "type": "VEC3"}, {"bufferView": 26, "componentType": 5126, "count": 945, "type": "VEC2"}, {"bufferView": 27, "componentType": 5121, "count": 945, "type": "VEC4"}, {"bufferView": 28, "componentType": 5126, "count": 945, "type": "VEC4"}, {"bufferView": 29, "componentType": 5123, "count": 4248, "type": "SCALAR"}, {"bufferView": 30, "componentType": 5126, "count": 230, "max": [0.3499999940395355, 0.9819999933242798, 0.28199997544288635], "min": [-0.3499999940395355, 0.8980000019073486, 0.1979999989271164], "type": "VEC3"}, {"bufferView": 31, "componentType": 5126, "count": 230, "type": "VEC3"}, {"bufferView": 32, "componentType": 5126, "count": 230, "type": "VEC2"}, {"bufferView": 33, "componentType": 5121, "count": 230, "type": "VEC4"}, {"bufferView": 34, "componentType": 5126, "count": 230, "type": "VEC4"}, {"bufferView": 35, "componentType": 5123, "count": 1008, "type": "SCALAR"}, {"bufferView": 36, "componentType": 5126, "count": 185, "max": [0.07999999821186066, 0.8870000839233398, 0.6200000047683716], "min": [-0.07999999076128006, 0.8030000329017639, 0.3199999928474426], "type": "VEC3"}, {"bufferView": 37, "componentType": 5126, "count": 185, "type": "VEC3"}, {"bufferView": 38, "componentType": 5126, "count": 185, "type": "VEC2"}, {"bufferView": 39, "componentType": 5121, "count": 185, "type": "VEC4"}, {"bufferView": 40, "componentType": 5126, "count": 185, "type": "VEC4"}, {"bufferView": 41, "componentType": 5123, "count": 864, "type": "SCALAR"}, {"bufferView": 42, "componentType": 5126, "count": 10, "type": "MAT4"}, {"bufferView": 43, "componentType": 5126, "count": 2, "max": [2], "min": [0.041666666666666664], "type": "SCALAR"}, {"bufferView": 44, "componentType": 5126, "count": 2, "type": "VEC3"}, {"bufferView": 45, "componentType": 5126, "count": 2, "type": "VEC4"}, {"bufferView": 46, "componentType": 5126, "count": 2, "type": "VEC3"}, {"bufferView": 47, "componentType": 5126, "count": 48, "max": [2], "min": [0.041666666666666664], "type": "SCALAR"}, {"bufferView": 48, "componentType": 5126, "count": 48, "type": "VEC3"}, {"bufferView": 49, "componentType": 5126, "count": 48, "type": "VEC4"}, {"bufferView": 50, "componentType": 5126, "count": 48, "type": "VEC3"}, {"bufferView": 51, "componentType": 5126, "count": 2, "type": "VEC3"}, {"bufferView": 52, "componentType": 5126, "count": 48, "type": "VEC4"}, {"bufferView": 53, "componentType": 5126, "count": 2, "type": "VEC3"}, {"bufferView": 54, "componentType": 5126, "count": 2, "type": "VEC3"}, {"bufferView": 55, "componentType": 5126, "count": 2, "type": "VEC4"}, {"bufferView": 56, "componentType": 5126, "count": 2, "type": "VEC3"}, {"bufferView": 57, "componentType": 5126, "count": 2, "type": "VEC3"}, {"bufferView": 58, "componentType": 5126, "count": 48, "type": "VEC4"}, {"bufferView": 59, "componentType": 5126, "count": 2, "type": "VEC3"}, {"bufferView": 60, "componentType": 5126, "count": 2, "type": "VEC3"}, {"bufferView": 61, "componentType": 5126, "count": 48, "type": "VEC4"}, {"bufferView": 62, "componentType": 5126, "count": 2, "type": "VEC3"}, {"bufferView": 63, "componentType": 5126, "count": 2, "type": "VEC3"}, {"bufferView": 64, "componentType": 5126, "count": 48, "type": "VEC4"}, {"bufferView": 65, "componentType": 5126, "count": 2, "type": "VEC3"}, {"bufferView": 66, "componentType": 5126, "count": 2, "type": "VEC3"}, {"bufferView": 67, "componentType": 5126, "count": 48, "type": "VEC4"}, {"bufferView": 68, "componentType": 5126, "count": 2, "type": "VEC3"}, {"bufferView": 69, "componentType": 5126, "count": 2, "type": "VEC3"}, {"bufferView": 70, "componentType": 5126, "count": 48, "type": "VEC4"}, {"bufferView": 71, "componentType": 5126, "count": 2, "type": "VEC3"}, {"bufferView": 72, "componentType": 5126, "count": 2, "type": "VEC3"}, {"bufferView": 73, "componentType": 5126, "count": 2, "type": "VEC4"}, {"bufferView": 74, "componentType": 5126, "count": 2, "type": "VEC3"}, {"bufferView": 75, "componentType": 5126, "count": 2, "type": "VEC3"}, {"bufferView": 76, "componentType": 5126, "count": 2, "type": "VEC4"}, {"bufferView": 77, "componentType": 5126, "count": 2, "type": "VEC3"}, {"bufferView": 78, "componentType": 5126, "count": 2, "type": "VEC3"}, {"bufferView": 79, "componentType": 5126, "count": 2, "type": "VEC4"}, {"bufferView": 80, "componentType": 5126, "count": 48, "type": "VEC3"}, {"bufferView": 81, "componentType": 5126, "count": 2, "type": "VEC3"}, {"bufferView": 82, "componentType": 5126, "count": 48, "type": "VEC4"}, {"bufferView": 83, "componentType": 5126, "count": 2, "type": "VEC3"}, {"bufferView": 84, "componentType": 5126, "count": 2, "type": "VEC3"}, {"bufferView": 85, "componentType": 5126, "count": 2, "type": "VEC4"}, {"bufferView": 86, "componentType": 5126, "count": 2, "type": "VEC3"}, {"bufferView": 87, "componentType": 5126, "count": 2, "type": "VEC3"}, {"bufferView": 88, "componentType": 5126, "count": 2, "type": "VEC4"}, {"bufferView": 89, "componentType": 5126, "count": 2, "type": "VEC3"}, {"bufferView": 90, "componentType": 5126, "count": 2, "type": "VEC3"}, {"bufferView": 91, "componentType": 5126, "count": 48, "type": "VEC4"}, {"bufferView": 92, "componentType": 5126, "count": 2, "type": "VEC3"}, {"bufferView": 93, "componentType": 5126, "count": 2, "type": "VEC3"}, {"bufferView": 94, "componentType": 5126, "count": 48, "type": "VEC4"}, {"bufferView": 95, "componentType": 5126, "count": 2, "type": "VEC3"}, {"bufferView": 96, "componentType": 5126, "count": 2, "type": "VEC3"}, {"bufferView": 97, "componentType": 5126, "count": 2, "type": "VEC4"}, {"bufferView": 98, "componentType": 5126, "count": 2, "type": "VEC3"}, {"bufferView": 99, "componentType": 5126, "count": 2, "type": "VEC3"}, {"bufferView": 100, "componentType": 5126, "count": 2, "type": "VEC4"}, {"bufferView": 101, "componentType": 5126, "count": 2, "type": "VEC3"}, {"bufferView": 102, "componentType": 5126, "count": 2, "type": "VEC3"}, {"bufferView": 103, "componentType": 5126, "count": 2, "type": "VEC4"}, {"bufferView": 104, "componentType": 5126, "count": 2, "type": "VEC3"}, {"bufferView": 105, "componentType": 5126, "count": 2, "max": [1.8333333333333333], "min": [0.041666666666666664], "type": "SCALAR"}, {"bufferView": 106, "componentType": 5126, "count": 2, "type": "VEC3"}, {"bufferView": 107, "componentType": 5126, "count": 2, "type": "VEC4"}, {"bufferView": 108, "componentType": 5126, "count": 2, "type": "VEC3"}, {"bufferView": 109, "componentType": 5126, "count": 44, "max": [1.8333333333333333], "min": [0.041666666666666664], "type": "SCALAR"}, {"bufferView": 110, "componentType": 5126, "count": 44, "type": "VEC3"}, {"bufferView": 111, "componentType": 5126, "count": 44, "type": "VEC4"}, {"bufferView": 112, "componentType": 5126, "count": 44, "type": "VEC3"}, {"bufferView": 113, "componentType": 5126, "count": 2, "type": "VEC3"}, {"bufferView": 114, "componentType": 5126, "count": 44, "type": "VEC4"}, {"bufferView": 115, "componentType": 5126, "count": 2, "type": "VEC3"}, {"bufferView": 116, "componentType": 5126, "count": 2, "type": "VEC3"}, {"bufferView": 117, "componentType": 5126, "count": 2, "type": "VEC4"}, {"bufferView": 118, "componentType": 5126, "count": 2, "type": "VEC3"}, {"bufferView": 119, "componentType": 5126, "count": 2, "type": "VEC3"}, {"bufferView": 120, "componentType": 5126, "count": 44, "type": "VEC4"}, {"bufferView": 121, "componentType": 5126, "count": 2, "type": "VEC3"}, {"bufferView": 122, "componentType": 5126, "count": 2, "type": "VEC3"}, {"bufferView": 123, "componentType": 5126, "count": 44, "type": "VEC4"}, {"bufferView": 124, "componentType": 5126, "count": 2, "type": "VEC3"}, {"bufferView": 125, "componentType": 5126, "count": 2, "type": "VEC3"}, {"bufferView": 126, "componentType": 5126, "count": 44, "type": "VEC4"}, {"bufferView": 127, "componentType": 5126, "count": 2, "type": "VEC3"}, {"bufferView": 128, "componentType": 5126, "count": 2, "type": "VEC3"}, {"bufferView": 129, "componentType": 5126, "count": 44, "type": "VEC4"}, {"bufferView": 130, "componentType": 5126, "count": 2, "type": "VEC3"}, {"bufferView": 131, "componentType": 5126, "count": 2, "type": "VEC3"}, {"bufferView": 132, "componentType": 5126, "count": 44, "type": "VEC4"}, {"bufferView": 133, "componentType": 5126, "count": 2, "type": "VEC3"}, {"bufferView": 134, "componentType": 5126, "count": 44, "type": "VEC3"}, {"bufferView": 135, "componentType": 5126, "count": 2, "type": "VEC4"}, {"bufferView": 136, "componentType": 5126, "count": 2, "type": "VEC3"}, {"bufferView": 137, "componentType": 5126, "count": 2, "max": [1.0833333333333333], "min": [0.041666666666666664], "type": "SCALAR"}, {"bufferView": 138, "componentType": 5126, "count": 2, "type": "VEC3"}, {"bufferView": 139, "componentType": 5126, "count": 2, "type": "VEC4"}, {"bufferView": 140, "componentType": 5126, "count": 2, "type": "VEC3"}, {"bufferView": 141, "componentType": 5126, "count": 2, "type": "VEC3"}, {"bufferView": 142, "componentType": 5126, "count": 2, "type": "VEC4"}, {"bufferView": 143, "componentType": 5126, "count": 26, "max": [1.0833333333333333], "min": [0.041666666666666664], "type": "SCALAR"}, {"bufferView": 144, "componentType": 5126, "count": 26, "type": "VEC3"}, {"bufferView": 145, "componentType": 5126, "count": 2, "type": "VEC3"}, {"bufferView": 146, "componentType": 5126, "count": 26, "type": "VEC4"}, {"bufferView": 147, "componentType": 5126, "count": 2, "type": "VEC3"}, {"bufferView": 148, "componentType": 5126, "count": 2, "type": "VEC3"}, {"bufferView": 149, "componentType": 5126, "count": 2, "type": "VEC4"}, {"bufferView": 150, "componentType": 5126, "count": 26, "type": "VEC3"}, {"bufferView": 151, "componentType": 5126, "count": 2, "type": "VEC3"}, {"bufferView": 152, "componentType": 5126, "count": 2, "type": "VEC4"}, {"bufferView": 153, "componentType": 5126, "count": 2, "type": "VEC3"}, {"bufferView": 154, "componentType": 5126, "count": 2, "type": "VEC3"}, {"bufferView": 155, "componentType": 5126, "count": 26, "type": "VEC4"}, {"bufferView": 156, "componentType": 5126, "count": 2, "type": "VEC3"}, {"bufferView": 157, "componentType": 5126, "count": 2, "type": "VEC3"}, {"bufferView": 158, "componentType": 5126, "count": 26, "type": "VEC4"}, {"bufferView": 159, "componentType": 5126, "count": 2, "type": "VEC3"}, {"bufferView": 160, "componentType": 5126, "count": 2, "type": "VEC3"}, {"bufferView": 161, "componentType": 5126, "count": 2, "type": "VEC4"}, {"bufferView": 162, "componentType": 5126, "count": 2, "type": "VEC3"}, {"bufferView": 163, "componentType": 5126, "count": 2, "type": "VEC3"}, {"bufferView": 164, "componentType": 5126, "count": 2, "type": "VEC4"}, {"bufferView": 165, "componentType": 5126, "count": 2, "type": "VEC3"}, {"bufferView": 166, "componentType": 5126, "count": 2, "type": "VEC3"}, {"bufferView": 167, "componentType": 5126, "count": 2, "type": "VEC4"}, {"bufferView": 168, "componentType": 5126, "count": 2, "type": "VEC3"}, {"bufferView": 169, "componentType": 5126, "count": 2, "max": [1.0416666666666667], "min": [0.041666666666666664], "type": "SCALAR"}, {"bufferView": 170, "componentType": 5126, "count": 2, "type": "VEC3"}, {"bufferView": 171, "componentType": 5126, "count": 2, "type": "VEC4"}, {"bufferView": 172, "componentType": 5126, "count": 2, "type": "VEC3"}, {"bufferView": 173, "componentType": 5126, "count": 25, "max": [1.0416666666666667], "min": [0.041666666666666664], "type": "SCALAR"}, {"bufferView": 174, "componentType": 5126, "count": 25, "type": "VEC3"}, {"bufferView": 175, "componentType": 5126, "count": 2, "type": "VEC4"}, {"bufferView": 176, "componentType": 5126, "count": 2, "type": "VEC3"}, {"bufferView": 177, "componentType": 5126, "count": 2, "type": "VEC3"}, {"bufferView": 178, "componentType": 5126, "count": 25, "type": "VEC4"}, {"bufferView": 179, "componentType": 5126, "count": 2, "type": "VEC3"}, {"bufferView": 180, "componentType": 5126, "count": 2, "type": "VEC3"}, {"bufferView": 181, "componentType": 5126, "count": 2, "type": "VEC4"}, {"bufferView": 182, "componentType": 5126, "count": 2, "type": "VEC3"}, {"bufferView": 183, "componentType": 5126, "count": 2, "type": "VEC3"}, {"bufferView": 184, "componentType": 5126, "count": 25, "type": "VEC4"}, {"bufferView": 185, "componentType": 5126, "count": 2, "type": "VEC3"}, {"bufferView": 186, "componentType": 5126, "count": 2, "type": "VEC3"}, {"bufferView": 187, "componentType": 5126, "count": 25, "type": "VEC4"}, {"bufferView": 188, "componentType": 5126, "count": 2, "type": "VEC3"}, {"bufferView": 189, "componentType": 5126, "count": 2, "type": "VEC3"}, {"bufferView": 190, "componentType": 5126, "count": 25, "type": "VEC4"}, {"bufferView": 191, "componentType": 5126, "count": 2, "type": "VEC3"}, {"bufferView": 192, "componentType": 5126, "count": 2, "type": "VEC3"}, {"bufferView": 193, "componentType": 5126, "count": 25, "type": "VEC4"}, {"bufferView": 194, "componentType": 5126, "count": 2, "type": "VEC3"}, {"bufferView": 195, "componentType": 5126, "count": 2, "type": "VEC3"}, {"bufferView": 196, "componentType": 5126, "count": 25, "type": "VEC4"}, {"bufferView": 197, "componentType": 5126, "count": 2, "type": "VEC3"}, {"bufferView": 198, "componentType": 5126, "count": 2, "type": "VEC3"}, {"bufferView": 199, "componentType": 5126, "count": 2, "type": "VEC4"}, {"bufferView": 200, "componentType": 5126, "count": 2, "type": "VEC3"}, {"bufferView": 201, "componentType": 5126, "count": 2812, "type": "VEC2", "min": [0.07142857142857142, 0.5], "max": [0.07142857142857142, 0.5]}, {"bufferView": 202, "componentType": 5126, "count": 549, "type": "VEC2", "min": [0.21428571428571427, 0.5], "max": [0.21428571428571427, 0.5]}, {"bufferView": 203, "componentType": 5126, "count": 1098, "type": "VEC2", "min": [0.35714285714285715, 0.5], "max": [0.35714285714285715, 0.5]}, {"bufferView": 204, "componentType": 5126, "count": 370, "type": "VEC2", "min": [0.5, 0.5], "max": [0.5, 0.5]}, {"bufferView": 205, "componentType": 5126, "count": 945, "type": "VEC2", "min": [0.6428571428571429, 0.5], "max": [0.6428571428571429, 0.5]}, {"bufferView": 206, "componentType": 5126, "count": 230, "type": "VEC2", "min": [0.7857142857142857, 0.5], "max": [0.7857142857142857, 0.5]}, {"bufferView": 207, "componentType": 5126, "count": 185, "type": "VEC2", "min": [0.9285714285714286, 0.5], "max": [0.9285714285714286, 0.5]}], "bufferViews": [{"buffer": 0, "byteLength": 33744, "byteOffset": 0, "target": 34962}, {"buffer": 0, "byteLength": 33744, "byteOffset": 33744, "target": 34962}, {"buffer": 0, "byteLength": 22496, "byteOffset": 67488, "target": 34962}, {"buffer": 0, "byteLength": 11248, "byteOffset": 89984, "target": 34962}, {"buffer": 0, "byteLength": 44992, "byteOffset": 101232, "target": 34962}, {"buffer": 0, "byteLength": 28368, "byteOffset": 146224, "target": 34963}, {"buffer": 0, "byteLength": 6588, "byteOffset": 174592, "target": 34962}, {"buffer": 0, "byteLength": 6588, "byteOffset": 181180, "target": 34962}, {"buffer": 0, "byteLength": 4392, "byteOffset": 187768, "target": 34962}, {"buffer": 0, "byteLength": 2196, "byteOffset": 192160, "target": 34962}, {"buffer": 0, "byteLength": 8784, "byteOffset": 194356, "target": 34962}, {"buffer": 0, "byteLength": 5712, "byteOffset": 203140, "target": 34963}, {"buffer": 0, "byteLength": 13176, "byteOffset": 208852, "target": 34962}, {"buffer": 0, "byteLength": 13176, "byteOffset": 222028, "target": 34962}, {"buffer": 0, "byteLength": 8784, "byteOffset": 235204, "target": 34962}, {"buffer": 0, "byteLength": 4392, "byteOffset": 243988, "target": 34962}, {"buffer": 0, "byteLength": 17568, "byteOffset": 248380, "target": 34962}, {"buffer": 0, "byteLength": 11424, "byteOffset": 265948, "target": 34963}, {"buffer": 0, "byteLength": 4440, "byteOffset": 277372, "target": 34962}, {"buffer": 0, "byteLength": 4440, "byteOffset": 281812, "target": 34962}, {"buffer": 0, "byteLength": 2960, "byteOffset": 286252, "target": 34962}, {"buffer": 0, "byteLength": 1480, "byteOffset": 289212, "target": 34962}, {"buffer": 0, "byteLength": 5920, "byteOffset": 290692, "target": 34962}, {"buffer": 0, "byteLength": 3456, "byteOffset": 296612, "target": 34963}, {"buffer": 0, "byteLength": 11340, "byteOffset": 300068, "target": 34962}, {"buffer": 0, "byteLength": 11340, "byteOffset": 311408, "target": 34962}, {"buffer": 0, "byteLength": 7560, "byteOffset": 322748, "target": 34962}, {"buffer": 0, "byteLength": 3780, "byteOffset": 330308, "target": 34962}, {"buffer": 0, "byteLength": 15120, "byteOffset": 334088, "target": 34962}, {"buffer": 0, "byteLength": 8496, "byteOffset": 349208, "target": 34963}, {"buffer": 0, "byteLength": 2760, "byteOffset": 357704, "target": 34962}, {"buffer": 0, "byteLength": 2760, "byteOffset": 360464, "target": 34962}, {"buffer": 0, "byteLength": 1840, "byteOffset": 363224, "target": 34962}, {"buffer": 0, "byteLength": 920, "byteOffset": 365064, "target": 34962}, {"buffer": 0, "byteLength": 3680, "byteOffset": 365984, "target": 34962}, {"buffer": 0, "byteLength": 2016, "byteOffset": 369664, "target": 34963}, {"buffer": 0, "byteLength": 2220, "byteOffset": 371680, "target": 34962}, {"buffer": 0, "byteLength": 2220, "byteOffset": 373900, "target": 34962}, {"buffer": 0, "byteLength": 1480, "byteOffset": 376120, "target": 34962}, {"buffer": 0, "byteLength": 740, "byteOffset": 377600, "target": 34962}, {"buffer": 0, "byteLength": 2960, "byteOffset": 378340, "target": 34962}, {"buffer": 0, "byteLength": 1728, "byteOffset": 381300, "target": 34963}, {"buffer": 0, "byteLength": 640, "byteOffset": 383028}, {"buffer": 0, "byteLength": 8, "byteOffset": 383668}, {"buffer": 0, "byteLength": 24, "byteOffset": 383676}, {"buffer": 0, "byteLength": 32, "byteOffset": 383700}, {"buffer": 0, "byteLength": 24, "byteOffset": 383732}, {"buffer": 0, "byteLength": 192, "byteOffset": 383756}, {"buffer": 0, "byteLength": 576, "byteOffset": 383948}, {"buffer": 0, "byteLength": 768, "byteOffset": 384524}, {"buffer": 0, "byteLength": 576, "byteOffset": 385292}, {"buffer": 0, "byteLength": 24, "byteOffset": 385868}, {"buffer": 0, "byteLength": 768, "byteOffset": 385892}, {"buffer": 0, "byteLength": 24, "byteOffset": 386660}, {"buffer": 0, "byteLength": 24, "byteOffset": 386684}, {"buffer": 0, "byteLength": 32, "byteOffset": 386708}, {"buffer": 0, "byteLength": 24, "byteOffset": 386740}, {"buffer": 0, "byteLength": 24, "byteOffset": 386764}, {"buffer": 0, "byteLength": 768, "byteOffset": 386788}, {"buffer": 0, "byteLength": 24, "byteOffset": 387556}, {"buffer": 0, "byteLength": 24, "byteOffset": 387580}, {"buffer": 0, "byteLength": 768, "byteOffset": 387604}, {"buffer": 0, "byteLength": 24, "byteOffset": 388372}, {"buffer": 0, "byteLength": 24, "byteOffset": 388396}, {"buffer": 0, "byteLength": 768, "byteOffset": 388420}, {"buffer": 0, "byteLength": 24, "byteOffset": 389188}, {"buffer": 0, "byteLength": 24, "byteOffset": 389212}, {"buffer": 0, "byteLength": 768, "byteOffset": 389236}, {"buffer": 0, "byteLength": 24, "byteOffset": 390004}, {"buffer": 0, "byteLength": 24, "byteOffset": 390028}, {"buffer": 0, "byteLength": 768, "byteOffset": 390052}, {"buffer": 0, "byteLength": 24, "byteOffset": 390820}, {"buffer": 0, "byteLength": 24, "byteOffset": 390844}, {"buffer": 0, "byteLength": 32, "byteOffset": 390868}, {"buffer": 0, "byteLength": 24, "byteOffset": 390900}, {"buffer": 0, "byteLength": 24, "byteOffset": 390924}, {"buffer": 0, "byteLength": 32, "byteOffset": 390948}, {"buffer": 0, "byteLength": 24, "byteOffset": 390980}, {"buffer": 0, "byteLength": 24, "byteOffset": 391004}, {"buffer": 0, "byteLength": 32, "byteOffset": 391028}, {"buffer": 0, "byteLength": 576, "byteOffset": 391060}, {"buffer": 0, "byteLength": 24, "byteOffset": 391636}, {"buffer": 0, "byteLength": 768, "byteOffset": 391660}, {"buffer": 0, "byteLength": 24, "byteOffset": 392428}, {"buffer": 0, "byteLength": 24, "byteOffset": 392452}, {"buffer": 0, "byteLength": 32, "byteOffset": 392476}, {"buffer": 0, "byteLength": 24, "byteOffset": 392508}, {"buffer": 0, "byteLength": 24, "byteOffset": 392532}, {"buffer": 0, "byteLength": 32, "byteOffset": 392556}, {"buffer": 0, "byteLength": 24, "byteOffset": 392588}, {"buffer": 0, "byteLength": 24, "byteOffset": 392612}, {"buffer": 0, "byteLength": 768, "byteOffset": 392636}, {"buffer": 0, "byteLength": 24, "byteOffset": 393404}, {"buffer": 0, "byteLength": 24, "byteOffset": 393428}, {"buffer": 0, "byteLength": 768, "byteOffset": 393452}, {"buffer": 0, "byteLength": 24, "byteOffset": 394220}, {"buffer": 0, "byteLength": 24, "byteOffset": 394244}, {"buffer": 0, "byteLength": 32, "byteOffset": 394268}, {"buffer": 0, "byteLength": 24, "byteOffset": 394300}, {"buffer": 0, "byteLength": 24, "byteOffset": 394324}, {"buffer": 0, "byteLength": 32, "byteOffset": 394348}, {"buffer": 0, "byteLength": 24, "byteOffset": 394380}, {"buffer": 0, "byteLength": 24, "byteOffset": 394404}, {"buffer": 0, "byteLength": 32, "byteOffset": 394428}, {"buffer": 0, "byteLength": 24, "byteOffset": 394460}, {"buffer": 0, "byteLength": 8, "byteOffset": 394484}, {"buffer": 0, "byteLength": 24, "byteOffset": 394492}, {"buffer": 0, "byteLength": 32, "byteOffset": 394516}, {"buffer": 0, "byteLength": 24, "byteOffset": 394548}, {"buffer": 0, "byteLength": 176, "byteOffset": 394572}, {"buffer": 0, "byteLength": 528, "byteOffset": 394748}, {"buffer": 0, "byteLength": 704, "byteOffset": 395276}, {"buffer": 0, "byteLength": 528, "byteOffset": 395980}, {"buffer": 0, "byteLength": 24, "byteOffset": 396508}, {"buffer": 0, "byteLength": 704, "byteOffset": 396532}, {"buffer": 0, "byteLength": 24, "byteOffset": 397236}, {"buffer": 0, "byteLength": 24, "byteOffset": 397260}, {"buffer": 0, "byteLength": 32, "byteOffset": 397284}, {"buffer": 0, "byteLength": 24, "byteOffset": 397316}, {"buffer": 0, "byteLength": 24, "byteOffset": 397340}, {"buffer": 0, "byteLength": 704, "byteOffset": 397364}, {"buffer": 0, "byteLength": 24, "byteOffset": 398068}, {"buffer": 0, "byteLength": 24, "byteOffset": 398092}, {"buffer": 0, "byteLength": 704, "byteOffset": 398116}, {"buffer": 0, "byteLength": 24, "byteOffset": 398820}, {"buffer": 0, "byteLength": 24, "byteOffset": 398844}, {"buffer": 0, "byteLength": 704, "byteOffset": 398868}, {"buffer": 0, "byteLength": 24, "byteOffset": 399572}, {"buffer": 0, "byteLength": 24, "byteOffset": 399596}, {"buffer": 0, "byteLength": 704, "byteOffset": 399620}, {"buffer": 0, "byteLength": 24, "byteOffset": 400324}, {"buffer": 0, "byteLength": 24, "byteOffset": 400348}, {"buffer": 0, "byteLength": 704, "byteOffset": 400372}, {"buffer": 0, "byteLength": 24, "byteOffset": 401076}, {"buffer": 0, "byteLength": 528, "byteOffset": 401100}, {"buffer": 0, "byteLength": 32, "byteOffset": 401628}, {"buffer": 0, "byteLength": 24, "byteOffset": 401660}, {"buffer": 0, "byteLength": 8, "byteOffset": 401684}, {"buffer": 0, "byteLength": 24, "byteOffset": 401692}, {"buffer": 0, "byteLength": 32, "byteOffset": 401716}, {"buffer": 0, "byteLength": 24, "byteOffset": 401748}, {"buffer": 0, "byteLength": 24, "byteOffset": 401772}, {"buffer": 0, "byteLength": 32, "byteOffset": 401796}, {"buffer": 0, "byteLength": 104, "byteOffset": 401828}, {"buffer": 0, "byteLength": 312, "byteOffset": 401932}, {"buffer": 0, "byteLength": 24, "byteOffset": 402244}, {"buffer": 0, "byteLength": 416, "byteOffset": 402268}, {"buffer": 0, "byteLength": 24, "byteOffset": 402684}, {"buffer": 0, "byteLength": 24, "byteOffset": 402708}, {"buffer": 0, "byteLength": 32, "byteOffset": 402732}, {"buffer": 0, "byteLength": 312, "byteOffset": 402764}, {"buffer": 0, "byteLength": 24, "byteOffset": 403076}, {"buffer": 0, "byteLength": 32, "byteOffset": 403100}, {"buffer": 0, "byteLength": 24, "byteOffset": 403132}, {"buffer": 0, "byteLength": 24, "byteOffset": 403156}, {"buffer": 0, "byteLength": 416, "byteOffset": 403180}, {"buffer": 0, "byteLength": 24, "byteOffset": 403596}, {"buffer": 0, "byteLength": 24, "byteOffset": 403620}, {"buffer": 0, "byteLength": 416, "byteOffset": 403644}, {"buffer": 0, "byteLength": 24, "byteOffset": 404060}, {"buffer": 0, "byteLength": 24, "byteOffset": 404084}, {"buffer": 0, "byteLength": 32, "byteOffset": 404108}, {"buffer": 0, "byteLength": 24, "byteOffset": 404140}, {"buffer": 0, "byteLength": 24, "byteOffset": 404164}, {"buffer": 0, "byteLength": 32, "byteOffset": 404188}, {"buffer": 0, "byteLength": 24, "byteOffset": 404220}, {"buffer": 0, "byteLength": 24, "byteOffset": 404244}, {"buffer": 0, "byteLength": 32, "byteOffset": 404268}, {"buffer": 0, "byteLength": 24, "byteOffset": 404300}, {"buffer": 0, "byteLength": 8, "byteOffset": 404324}, {"buffer": 0, "byteLength": 24, "byteOffset": 404332}, {"buffer": 0, "byteLength": 32, "byteOffset": 404356}, {"buffer": 0, "byteLength": 24, "byteOffset": 404388}, {"buffer": 0, "byteLength": 100, "byteOffset": 404412}, {"buffer": 0, "byteLength": 300, "byteOffset": 404512}, {"buffer": 0, "byteLength": 32, "byteOffset": 404812}, {"buffer": 0, "byteLength": 24, "byteOffset": 404844}, {"buffer": 0, "byteLength": 24, "byteOffset": 404868}, {"buffer": 0, "byteLength": 400, "byteOffset": 404892}, {"buffer": 0, "byteLength": 24, "byteOffset": 405292}, {"buffer": 0, "byteLength": 24, "byteOffset": 405316}, {"buffer": 0, "byteLength": 32, "byteOffset": 405340}, {"buffer": 0, "byteLength": 24, "byteOffset": 405372}, {"buffer": 0, "byteLength": 24, "byteOffset": 405396}, {"buffer": 0, "byteLength": 400, "byteOffset": 405420}, {"buffer": 0, "byteLength": 24, "byteOffset": 405820}, {"buffer": 0, "byteLength": 24, "byteOffset": 405844}, {"buffer": 0, "byteLength": 400, "byteOffset": 405868}, {"buffer": 0, "byteLength": 24, "byteOffset": 406268}, {"buffer": 0, "byteLength": 24, "byteOffset": 406292}, {"buffer": 0, "byteLength": 400, "byteOffset": 406316}, {"buffer": 0, "byteLength": 24, "byteOffset": 406716}, {"buffer": 0, "byteLength": 24, "byteOffset": 406740}, {"buffer": 0, "byteLength": 400, "byteOffset": 406764}, {"buffer": 0, "byteLength": 24, "byteOffset": 407164}, {"buffer": 0, "byteLength": 24, "byteOffset": 407188}, {"buffer": 0, "byteLength": 400, "byteOffset": 407212}, {"buffer": 0, "byteLength": 24, "byteOffset": 407612}, {"buffer": 0, "byteLength": 24, "byteOffset": 407636}, {"buffer": 0, "byteLength": 32, "byteOffset": 407660}, {"buffer": 0, "byteLength": 24, "byteOffset": 407692}, {"buffer": 0, "byteOffset": 407716, "byteLength": 22496}, {"buffer": 0, "byteOffset": 430212, "byteLength": 4392}, {"buffer": 0, "byteOffset": 434604, "byteLength": 8784}, {"buffer": 0, "byteOffset": 443388, "byteLength": 2960}, {"buffer": 0, "byteOffset": 446348, "byteLength": 7560}, {"buffer": 0, "byteOffset": 453908, "byteLength": 1840}, {"buffer": 0, "byteOffset": 455748, "byteLength": 1480}], "buffers": [{"uri": "player.bin", "byteLength": 457228}], "images": [{"uri": "player_palette.png"}], "samplers": [{"magFilter": 9729, "minFilter": 9729}], "textures": [{"source": 0, "sampler": 0}]}