# Blender 4.4.1
# www.blender.org
mtllib sword.mtl
o 立方体.001
v 0.111324 -0.370197 0.056964
v -0.141053 -0.370197 0.056964
v 0.111324 -0.370197 -0.056964
v -0.141053 -0.370197 -0.056964
v -0.011177 1.128967 -0.000000
v 0.183576 0.868575 0.056964
v -0.213305 0.868575 0.056964
v 0.183576 0.868575 -0.056964
v -0.213305 0.868575 -0.056964
v -0.099939 -1.061381 0.000000
v -0.099939 -0.499973 0.000000
v -0.098305 -1.061381 -0.020957
v -0.098305 -0.499973 -0.020957
v -0.093463 -1.061381 -0.041110
v -0.093463 -0.499973 -0.041110
v -0.085601 -1.061381 -0.059683
v -0.085601 -0.499973 -0.059683
v -0.075021 -1.061381 -0.075962
v -0.075021 -0.499973 -0.075962
v -0.062129 -1.061381 -0.089321
v -0.062129 -0.499973 -0.089321
v -0.047421 -1.061381 -0.099249
v -0.047421 -0.499973 -0.099249
v -0.031462 -1.061381 -0.105362
v -0.031462 -0.499973 -0.105362
v -0.014864 -1.061381 -0.107426
v -0.014864 -0.499973 -0.107426
v 0.001733 -1.061381 -0.105362
v 0.001733 -0.499973 -0.105362
v 0.017692 -1.061381 -0.099249
v 0.017692 -0.499973 -0.099249
v 0.032401 -1.061381 -0.089321
v 0.032401 -0.499973 -0.089321
v 0.045293 -1.061381 -0.075962
v 0.045293 -0.499973 -0.075962
v 0.055873 -1.061381 -0.059683
v 0.055873 -0.499973 -0.059683
v 0.063735 -1.061381 -0.041110
v 0.063735 -0.499973 -0.041110
v 0.068576 -1.061381 -0.020957
v 0.068576 -0.499973 -0.020957
v 0.070211 -1.061381 -0.000000
v 0.070211 -0.499973 -0.000000
v 0.068576 -1.061381 0.020957
v 0.068576 -0.499973 0.020957
v 0.063735 -1.061381 0.041110
v 0.063735 -0.499973 0.041110
v 0.055873 -1.061381 0.059683
v 0.055873 -0.499973 0.059683
v 0.045293 -1.061381 0.075962
v 0.045293 -0.499973 0.075962
v 0.032401 -1.061381 0.089321
v 0.032401 -0.499973 0.089321
v 0.017692 -1.061381 0.099249
v 0.017692 -0.499973 0.099249
v 0.001733 -1.061381 0.105362
v 0.001733 -0.499973 0.105362
v -0.014864 -1.061381 0.107426
v -0.014864 -0.499973 0.107426
v -0.031462 -1.061381 0.105362
v -0.031462 -0.499973 0.105362
v -0.047421 -1.061381 0.099249
v -0.047421 -0.499973 0.099249
v -0.062129 -1.061381 0.089321
v -0.062129 -0.499973 0.089321
v -0.075021 -1.061381 0.075962
v -0.075021 -0.499973 0.075962
v -0.085601 -1.061381 0.059683
v -0.085601 -0.499973 0.059683
v -0.093463 -1.061381 0.041110
v -0.093463 -0.499973 0.041110
v -0.098305 -1.061381 0.020957
v -0.098305 -0.499973 0.020957
v 0.421184 -0.545185 0.110268
v 0.563873 -0.330978 0.110268
v -0.450912 -0.545185 0.110268
v -0.593602 -0.330978 0.110268
v 0.421184 -0.545185 -0.110268
v 0.563873 -0.330978 -0.110268
v -0.450912 -0.545185 -0.110268
v -0.593602 -0.330978 -0.110268
v -0.014864 -1.233548 0.000000
v 0.099846 -1.030812 -0.131978
v -0.129574 -1.030812 -0.131978
v 0.099846 -1.030812 0.131978
v -0.129574 -1.030812 0.131978
vn -0.0000 -0.0000 -1.0000
vn -0.0000 -0.0000 1.0000
vn -0.0000 -1.0000 -0.0000
vn -0.9983 -0.0582 -0.0000
vn -0.0000 0.2137 0.9769
vn -0.7899 0.6132 -0.0000
vn -0.0000 0.2137 -0.9769
vn 0.8008 0.5989 -0.0000
vn 0.9983 -0.0582 -0.0000
vn -0.9970 -0.0000 -0.0778
vn -0.9723 -0.0000 -0.2336
vn -0.9209 -0.0000 -0.3898
vn -0.8385 -0.0000 -0.5449
vn -0.7196 -0.0000 -0.6944
vn -0.5595 -0.0000 -0.8289
vn -0.3577 -0.0000 -0.9338
vn -0.1234 -0.0000 -0.9924
vn 0.1234 -0.0000 -0.9924
vn 0.3577 -0.0000 -0.9338
vn 0.5595 -0.0000 -0.8289
vn 0.7196 -0.0000 -0.6944
vn 0.8385 -0.0000 -0.5449
vn 0.9209 -0.0000 -0.3898
vn 0.9723 -0.0000 -0.2336
vn 0.9970 -0.0000 -0.0778
vn 0.9970 -0.0000 0.0778
vn 0.9723 -0.0000 0.2336
vn 0.9209 -0.0000 0.3898
vn 0.8385 -0.0000 0.5449
vn 0.7196 -0.0000 0.6944
vn 0.5595 -0.0000 0.8289
vn 0.3577 -0.0000 0.9338
vn 0.1234 -0.0000 0.9924
vn -0.1234 -0.0000 0.9924
vn -0.3577 -0.0000 0.9338
vn -0.5595 -0.0000 0.8289
vn -0.7196 -0.0000 0.6944
vn -0.8385 -0.0000 0.5449
vn -0.9209 -0.0000 0.3898
vn -0.0000 1.0000 -0.0000
vn -0.9723 -0.0000 0.2336
vn -0.9970 -0.0000 0.0778
vn -0.8323 -0.5544 -0.0000
vn 0.8323 -0.5544 -0.0000
vn -0.0000 0.5456 0.8381
vn 0.8703 0.4924 -0.0000
vn -0.0000 0.5456 -0.8381
vn -0.8703 0.4924 -0.0000
vt 0.495627 0.500000
vt 0.375000 0.750000
vt 0.375000 0.500000
vt 0.495627 0.000000
vt 0.375000 0.250000
vt 0.375000 0.000000
vt 0.125000 0.750000
vt 0.125000 0.500000
vt 0.768259 0.623756
vt 0.875000 0.519335
vt 0.875000 0.730665
vt 0.731741 0.623756
vt 0.625000 0.500000
vt 0.875000 0.500000
vt 0.731741 0.626244
vt 0.495627 0.750000
vt 0.768259 0.626244
vt 0.875000 0.750000
vt 0.625000 0.750000
vt 0.495627 1.000000
vt 0.375000 1.000000
vt 1.000000 1.000000
vt 0.968750 0.500000
vt 1.000000 0.500000
vt 0.968750 1.000000
vt 0.937500 0.500000
vt 0.937500 1.000000
vt 0.906250 0.500000
vt 0.906250 1.000000
vt 0.875000 1.000000
vt 0.843750 0.500000
vt 0.843750 1.000000
vt 0.812500 0.500000
vt 0.812500 1.000000
vt 0.781250 0.500000
vt 0.781250 1.000000
vt 0.750000 0.500000
vt 0.750000 1.000000
vt 0.718750 0.500000
vt 0.718750 1.000000
vt 0.687500 0.500000
vt 0.687500 1.000000
vt 0.656250 0.500000
vt 0.656250 1.000000
vt 0.625000 1.000000
vt 0.593750 0.500000
vt 0.593750 1.000000
vt 0.562500 0.500000
vt 0.562500 1.000000
vt 0.531250 0.500000
vt 0.531250 1.000000
vt 0.500000 0.500000
vt 0.500000 1.000000
vt 0.468750 0.500000
vt 0.468750 1.000000
vt 0.437500 0.500000
vt 0.437500 1.000000
vt 0.406250 0.500000
vt 0.406250 1.000000
vt 0.343750 0.500000
vt 0.343750 1.000000
vt 0.312500 0.500000
vt 0.312500 1.000000
vt 0.281250 0.500000
vt 0.281250 1.000000
vt 0.250000 0.500000
vt 0.250000 1.000000
vt 0.218750 0.500000
vt 0.218750 1.000000
vt 0.187500 0.500000
vt 0.187500 1.000000
vt 0.156250 0.500000
vt 0.156250 1.000000
vt 0.125000 1.000000
vt 0.093750 0.500000
vt 0.093750 1.000000
vt 0.062500 0.500000
vt 0.419706 0.419706
vt 0.383337 0.449553
vt 0.419706 0.080294
vt 0.062500 1.000000
vt 0.031250 0.500000
vt 0.031250 1.000000
vt 0.000000 0.500000
vt 0.616663 0.449553
vt 0.658156 0.471731
vt 0.616663 0.050447
vt 0.625000 0.000000
vt 0.625000 0.250000
vt 0.495627 0.250000
vt 0.341844 0.471731
vt 0.296822 0.485388
vt 0.296822 0.014612
vt 0.250000 0.490000
vt 0.250000 0.010000
vt 0.203178 0.485388
vt 0.203178 0.014612
vt 0.158156 0.471731
vt 0.158156 0.028269
vt 0.116663 0.449553
vt 0.080294 0.419706
vt 0.116663 0.050447
vt 0.050447 0.383337
vt 0.080294 0.080294
vt 0.028269 0.341844
vt 0.050447 0.116663
vt 0.014612 0.296822
vt 0.028269 0.158156
vt 0.010000 0.250000
vt 0.014612 0.203178
vt 0.341844 0.028269
vt 0.383337 0.050447
vt 0.449553 0.116663
vt 0.471731 0.158156
vt 0.449553 0.383337
vt 0.485388 0.203178
vt 0.471731 0.341844
vt 0.490000 0.250000
vt 0.485388 0.296822
vt 0.000000 1.000000
vt 0.703178 0.485388
vt 0.750000 0.490000
vt 0.750000 0.010000
vt 0.796822 0.485388
vt 0.796822 0.014612
vt 0.841844 0.471731
vt 0.883337 0.449553
vt 0.841844 0.028269
vt 0.919706 0.419706
vt 0.919706 0.080294
vt 0.949553 0.383337
vt 0.949553 0.116663
vt 0.971731 0.341844
vt 0.985388 0.296822
vt 0.971731 0.158156
vt 0.990000 0.250000
vt 0.985388 0.203178
vt 0.883337 0.050447
vt 0.703178 0.014612
vt 0.658156 0.028269
vt 0.580294 0.080294
vt 0.580294 0.419706
vt 0.550447 0.116663
vt 0.550447 0.383337
vt 0.528269 0.158156
vt 0.514612 0.203178
vt 0.528269 0.341844
vt 0.510000 0.250000
vt 0.514612 0.296822
s 1
usemtl マテリアル.002
f 9/1/1 3/2/1 4/3/1
f 6/4/2 2/5/2 1/6/2
f 4/3/3 1/7/3 2/8/3
f 2/5/4 9/1/4 4/3/4
f 5/9/5 7/10/5 6/11/5
f 5/12/6 9/13/6 7/14/6
f 5/15/7 8/16/7 9/1/7
f 5/17/8 6/18/8 8/19/8
f 3/2/9 6/20/9 1/21/9
f 11/22/10 12/23/10 10/24/10
f 13/25/11 14/26/11 12/23/11
f 15/27/12 16/28/12 14/26/12
f 17/29/13 18/14/13 16/28/13
f 19/30/14 20/31/14 18/14/14
f 21/32/15 22/33/15 20/31/15
f 23/34/16 24/35/16 22/33/16
f 25/36/17 26/37/17 24/35/17
f 27/38/18 28/39/18 26/37/18
f 29/40/19 30/41/19 28/39/19
f 31/42/20 32/43/20 30/41/20
f 33/44/21 34/13/21 32/43/21
f 35/45/22 36/46/22 34/13/22
f 37/47/23 38/48/23 36/46/23
f 39/49/24 40/50/24 38/48/24
f 41/51/25 42/52/25 40/50/25
f 43/53/26 44/54/26 42/52/26
f 45/55/27 46/56/27 44/54/27
f 47/57/28 48/58/28 46/56/28
f 49/59/29 50/3/29 48/58/29
f 51/21/30 52/60/30 50/3/30
f 53/61/31 54/62/31 52/60/31
f 55/63/32 56/64/32 54/62/32
f 57/65/33 58/66/33 56/64/33
f 59/67/34 60/68/34 58/66/34
f 61/69/35 62/70/35 60/68/35
f 63/71/36 64/72/36 62/70/36
f 65/73/37 66/8/37 64/72/37
f 67/74/38 68/75/38 66/8/38
f 69/76/39 70/77/39 68/75/39
f 19/78/40 17/79/40 35/80/40
f 71/81/41 72/82/41 70/77/41
f 73/83/42 10/84/42 72/82/42
f 68/85/3 70/86/3 48/87/3
f 75/88/2 76/5/2 74/6/2
f 77/89/43 80/3/43 76/5/43
f 81/13/1 78/2/1 80/3/1
f 79/19/44 74/21/44 78/2/44
f 80/3/3 74/7/3 76/8/3
f 77/14/40 79/19/40 81/13/40
f 9/1/1 8/16/1 3/2/1
f 6/4/2 7/90/2 2/5/2
f 4/3/3 3/2/3 1/7/3
f 2/5/4 7/90/4 9/1/4
f 3/2/9 8/16/9 6/20/9
f 11/22/10 13/25/10 12/23/10
f 13/25/11 15/27/11 14/26/11
f 15/27/12 17/29/12 16/28/12
f 17/29/13 19/30/13 18/14/13
f 19/30/14 21/32/14 20/31/14
f 21/32/15 23/34/15 22/33/15
f 23/34/16 25/36/16 24/35/16
f 25/36/17 27/38/17 26/37/17
f 27/38/18 29/40/18 28/39/18
f 29/40/19 31/42/19 30/41/19
f 31/42/20 33/44/20 32/43/20
f 33/44/21 35/45/21 34/13/21
f 35/45/22 37/47/22 36/46/22
f 37/47/23 39/49/23 38/48/23
f 39/49/24 41/51/24 40/50/24
f 41/51/25 43/53/25 42/52/25
f 43/53/26 45/55/26 44/54/26
f 45/55/27 47/57/27 46/56/27
f 47/57/28 49/59/28 48/58/28
f 49/59/29 51/21/29 50/3/29
f 51/21/30 53/61/30 52/60/30
f 53/61/31 55/63/31 54/62/31
f 55/63/32 57/65/32 56/64/32
f 57/65/33 59/67/33 58/66/33
f 59/67/34 61/69/34 60/68/34
f 61/69/35 63/71/35 62/70/35
f 63/71/36 65/73/36 64/72/36
f 65/73/37 67/74/37 66/8/37
f 67/74/38 69/76/38 68/75/38
f 69/76/39 71/81/39 70/77/39
f 15/91/40 13/92/40 41/93/40
f 13/92/40 11/94/40 43/95/40
f 11/94/40 73/96/40 45/97/40
f 73/96/40 71/98/40 47/99/40
f 71/98/40 69/100/40 47/99/40
f 69/100/40 67/101/40 49/102/40
f 47/99/40 69/100/40 49/102/40
f 67/101/40 65/103/40 51/104/40
f 65/103/40 63/105/40 53/106/40
f 51/104/40 65/103/40 53/106/40
f 63/105/40 61/107/40 55/108/40
f 61/107/40 59/109/40 57/110/40
f 55/108/40 61/107/40 57/110/40
f 55/108/40 53/106/40 63/105/40
f 51/104/40 49/102/40 67/101/40
f 47/99/40 45/97/40 73/96/40
f 45/97/40 43/95/40 11/94/40
f 43/95/40 41/93/40 13/92/40
f 41/93/40 39/111/40 15/91/40
f 39/111/40 37/112/40 15/91/40
f 37/112/40 35/80/40 17/79/40
f 15/91/40 37/112/40 17/79/40
f 35/80/40 33/113/40 19/78/40
f 33/113/40 31/114/40 21/115/40
f 19/78/40 33/113/40 21/115/40
f 31/114/40 29/116/40 23/117/40
f 29/116/40 27/118/40 25/119/40
f 23/117/40 29/116/40 25/119/40
f 23/117/40 21/115/40 31/114/40
f 71/81/41 73/83/41 72/82/41
f 73/83/42 11/120/42 10/84/42
f 72/121/3 10/122/3 42/123/3
f 10/122/3 12/124/3 40/125/3
f 12/124/3 14/126/3 40/125/3
f 14/126/3 16/127/3 38/128/3
f 40/125/3 14/126/3 38/128/3
f 16/127/3 18/129/3 34/130/3
f 18/129/3 20/131/3 32/132/3
f 20/131/3 22/133/3 32/132/3
f 22/133/3 24/134/3 30/135/3
f 32/132/3 22/133/3 30/135/3
f 24/134/3 26/136/3 28/137/3
f 28/137/3 30/135/3 24/134/3
f 32/132/3 34/130/3 18/129/3
f 34/130/3 36/138/3 16/127/3
f 36/138/3 38/128/3 16/127/3
f 40/125/3 42/123/3 10/122/3
f 42/123/3 44/139/3 72/121/3
f 44/139/3 46/140/3 72/121/3
f 46/140/3 48/87/3 70/86/3
f 72/121/3 46/140/3 70/86/3
f 48/87/3 50/141/3 66/142/3
f 50/141/3 52/143/3 64/144/3
f 52/143/3 54/145/3 64/144/3
f 54/145/3 56/146/3 62/147/3
f 64/144/3 54/145/3 62/147/3
f 56/146/3 58/148/3 60/149/3
f 60/149/3 62/147/3 56/146/3
f 64/144/3 66/142/3 50/141/3
f 66/142/3 68/85/3 48/87/3
f 75/88/2 77/89/2 76/5/2
f 77/89/43 81/13/43 80/3/43
f 81/13/1 79/19/1 78/2/1
f 79/19/44 75/45/44 74/21/44
f 80/3/3 78/2/3 74/7/3
f 77/14/40 75/18/40 79/19/40
usemtl マテリアル
f 82/6/45 83/88/45 84/89/45
f 82/5/46 84/89/46 86/13/46
f 82/3/47 86/13/47 85/19/47
f 82/2/48 85/19/48 83/45/48
f 84/14/3 85/19/3 86/13/3
f 84/14/3 83/18/3 85/19/3
