# Blender 4.4.1
# www.blender.org
mtllib tomahawk.mtl
o 円柱.002
v 0.270556 -0.054951 0.059565
v 0.200694 -0.054951 0.057614
v 0.270556 -0.007143 0.059565
v 0.273456 -0.054951 -0.044255
v 0.273456 -0.007143 -0.044255
v 0.203594 -0.054951 -0.046207
v 0.133733 -0.054951 -0.048158
v 0.203594 -0.007143 -0.046207
v 0.133733 -0.007143 -0.048158
v -0.005990 0.068595 -0.052062
v 0.130832 -0.007143 0.055662
v -0.008890 0.068595 0.051759
v -0.005990 0.020788 -0.052062
v -0.008890 0.020788 0.051759
v -0.145712 -0.054951 -0.055965
v -0.145712 -0.007143 -0.055965
v 0.130832 -0.054951 0.055662
v 0.200694 -0.007143 0.057614
v -0.215575 -0.007143 -0.057917
v -0.148613 -0.007143 0.047855
v -0.218475 -0.007143 0.045904
v -0.288336 -0.007143 0.043952
v -0.218475 -0.054951 0.045904
v -0.288336 -0.054951 0.043952
v -0.285436 -0.054951 -0.059868
v -0.285436 -0.007143 -0.059868
v -0.215575 -0.054951 -0.057917
v -0.148613 -0.054951 0.047855
v -0.008578 -1.343106 -0.002629
v -0.008578 1.222358 -0.002629
v -0.055990 -0.041974 -0.003954
v -0.054822 -0.041974 -0.013157
v -0.051876 -0.041974 -0.021956
v -0.047266 -0.041974 -0.030012
v -0.041169 -0.041974 -0.037015
v -0.033821 -0.041974 -0.042697
v -0.025502 -0.041974 -0.046839
v -0.016532 -0.041974 -0.049283
v -0.007257 -0.041974 -0.049933
v 0.001968 -0.041974 -0.048766
v 0.010787 -0.041974 -0.045825
v 0.018861 -0.041974 -0.041225
v 0.025881 -0.041974 -0.035142
v 0.031578 -0.041974 -0.027809
v 0.035731 -0.041974 -0.019509
v 0.038181 -0.041974 -0.010559
v 0.038834 -0.041974 -0.001305
v 0.037665 -0.041974 0.007898
v 0.034719 -0.041974 0.016696
v 0.030109 -0.041974 0.024752
v 0.024012 -0.041974 0.031756
v 0.016664 -0.041974 0.037438
v 0.008345 -0.041974 0.041580
v -0.000624 -0.041974 0.044024
v -0.009900 -0.041974 0.044675
v -0.019124 -0.041974 0.043507
v -0.027943 -0.041974 0.040567
v -0.036018 -0.041974 0.035967
v -0.043038 -0.041974 0.029883
v -0.048734 -0.041974 0.022549
v -0.052887 -0.041974 0.014249
v -0.055337 -0.041974 0.005300
v -0.055990 0.590192 -0.003954
v -0.054822 0.590192 -0.013157
v -0.051876 0.590192 -0.021956
v -0.047266 0.590192 -0.030012
v -0.041169 0.590192 -0.037015
v -0.033821 0.590192 -0.042697
v -0.025502 0.590192 -0.046839
v -0.016532 0.590192 -0.049283
v -0.007257 0.590192 -0.049933
v 0.001968 0.590192 -0.048766
v 0.010787 0.590192 -0.045825
v 0.018861 0.590192 -0.041225
v 0.025881 0.590192 -0.035142
v 0.031578 0.590192 -0.027809
v 0.035731 0.590192 -0.019509
v 0.038181 0.590192 -0.010559
v 0.038834 0.590192 -0.001305
v 0.037665 0.590192 0.007898
v 0.034719 0.590192 0.016696
v 0.030109 0.590192 0.024752
v 0.024012 0.590192 0.031756
v 0.016664 0.590192 0.037438
v 0.008345 0.590192 0.041580
v -0.000625 0.590192 0.044024
v -0.009900 0.590192 0.044675
v -0.019125 0.590192 0.043507
v -0.027943 0.590192 0.040567
v -0.036018 0.590192 0.035967
v -0.043038 0.590192 0.029883
v -0.048734 0.590192 0.022549
v -0.052887 0.590192 0.014249
v -0.055338 0.590192 0.005300
v -0.055990 0.906275 -0.003954
v -0.054822 0.906275 -0.013157
v -0.051876 0.906275 -0.021956
v -0.047266 0.906275 -0.030012
v -0.041169 0.906275 -0.037015
v -0.033821 0.906275 -0.042697
v -0.025502 0.906275 -0.046839
v -0.016532 0.906275 -0.049283
v -0.007257 0.906275 -0.049933
v 0.001968 0.906275 -0.048766
v 0.010787 0.906275 -0.045825
v 0.018861 0.906275 -0.041225
v 0.025881 0.906275 -0.035142
v 0.031578 0.906275 -0.027809
v 0.035731 0.906275 -0.019509
v 0.038181 0.906275 -0.010559
v 0.038834 0.906275 -0.001305
v 0.037665 0.906275 0.007898
v 0.034719 0.906275 0.016696
v 0.030109 0.906275 0.024752
v 0.024012 0.906275 0.031756
v 0.016664 0.906275 0.037438
v 0.008345 0.906275 0.041580
v -0.000625 0.906275 0.044024
v -0.009900 0.906275 0.044675
v -0.019125 0.906275 0.043507
v -0.027943 0.906275 0.040567
v -0.036018 0.906275 0.035967
v -0.043038 0.906275 0.029883
v -0.048734 0.906275 0.022549
v -0.052887 0.906275 0.014249
v -0.055338 0.906275 0.005300
v -0.054822 -0.674139 -0.013157
v -0.051876 -0.674139 -0.021956
v -0.047266 -0.674139 -0.030012
v -0.041169 -0.674139 -0.037015
v -0.033820 -0.674139 -0.042697
v -0.025501 -0.674139 -0.046839
v -0.016532 -0.674139 -0.049283
v -0.007257 -0.674139 -0.049933
v 0.001968 -0.674139 -0.048766
v 0.010787 -0.674139 -0.045825
v 0.018861 -0.674139 -0.041225
v 0.025881 -0.674139 -0.035142
v 0.031578 -0.674139 -0.027809
v 0.035731 -0.674139 -0.019509
v 0.038181 -0.674139 -0.010559
v 0.038834 -0.674139 -0.001305
v 0.037665 -0.674139 0.007898
v 0.034719 -0.674139 0.016696
v 0.030109 -0.674139 0.024752
v 0.024012 -0.674139 0.031756
v 0.016664 -0.674139 0.037438
v 0.008345 -0.674139 0.041580
v -0.000624 -0.674139 0.044024
v -0.009900 -0.674139 0.044675
v -0.019124 -0.674139 0.043507
v -0.027943 -0.674139 0.040567
v -0.036018 -0.674139 0.035967
v -0.043038 -0.674139 0.029883
v -0.048734 -0.674139 0.022549
v -0.052887 -0.674139 0.014249
v -0.055337 -0.674139 0.005300
v -0.055990 -0.674139 -0.003954
v -0.054822 -0.990222 -0.013157
v -0.051876 -0.990222 -0.021956
v -0.047266 -0.990222 -0.030012
v -0.041169 -0.990222 -0.037015
v -0.033820 -0.990222 -0.042697
v -0.025501 -0.990222 -0.046839
v -0.016532 -0.990222 -0.049283
v -0.007257 -0.990222 -0.049933
v 0.001968 -0.990222 -0.048766
v 0.010787 -0.990222 -0.045825
v 0.018862 -0.990222 -0.041225
v 0.025881 -0.990222 -0.035142
v 0.031578 -0.990222 -0.027809
v 0.035731 -0.990222 -0.019509
v 0.038181 -0.990222 -0.010559
v 0.038834 -0.990222 -0.001305
v 0.037665 -0.990222 0.007898
v 0.034719 -0.990222 0.016696
v 0.030109 -0.990222 0.024752
v 0.024012 -0.990222 0.031756
v 0.016664 -0.990222 0.037438
v 0.008345 -0.990222 0.041580
v -0.000624 -0.990222 0.044024
v -0.009900 -0.990222 0.044675
v -0.019124 -0.990222 0.043507
v -0.027943 -0.990222 0.040567
v -0.036018 -0.990222 0.035967
v -0.043038 -0.990222 0.029883
v -0.048734 -0.990222 0.022549
v -0.052887 -0.990222 0.014249
v -0.055337 -0.990222 0.005300
v -0.055990 -0.990222 -0.003954
v -0.054822 -1.148263 -0.013157
v -0.051876 -1.148263 -0.021956
v -0.047266 -1.148263 -0.030012
v -0.041169 -1.148263 -0.037015
v -0.033820 -1.148263 -0.042697
v -0.025501 -1.148263 -0.046839
v -0.016532 -1.148263 -0.049283
v -0.007257 -1.148263 -0.049933
v 0.001968 -1.148263 -0.048766
v 0.010787 -1.148263 -0.045825
v 0.018862 -1.148263 -0.041225
v 0.025881 -1.148263 -0.035142
v 0.031578 -1.148263 -0.027809
v 0.035731 -1.148263 -0.019509
v 0.038181 -1.148263 -0.010559
v 0.038834 -1.148263 -0.001305
v 0.037665 -1.148263 0.007898
v 0.034719 -1.148263 0.016696
v 0.030109 -1.148263 0.024752
v 0.024012 -1.148263 0.031756
v 0.016664 -1.148263 0.037438
v 0.008345 -1.148263 0.041580
v -0.000624 -1.148263 0.044024
v -0.009900 -1.148263 0.044675
v -0.019124 -1.148263 0.043507
v -0.027943 -1.148263 0.040567
v -0.036018 -1.148263 0.035967
v -0.043038 -1.148263 0.029883
v -0.048734 -1.148263 0.022549
v -0.052887 -1.148263 0.014249
v -0.055337 -1.148263 0.005300
v -0.055990 -1.148263 -0.003954
v 0.428726 -0.133027 0.006121
v 0.487681 0.107225 0.028208
v 0.488823 0.107225 -0.012642
v 0.550654 0.018937 -0.010914
v 0.549513 0.018937 0.029936
v 0.579320 0.119227 0.030768
v 0.487681 0.150363 0.028208
v 0.580462 0.119227 -0.010081
v 0.487681 0.193500 0.028208
v 0.487681 0.279775 0.028208
v 0.384903 0.238236 0.025337
v 0.384903 0.202907 0.025337
v 0.384903 0.167578 0.025337
v 0.258753 0.238172 0.021813
v 0.258753 0.208107 0.021813
v 0.259894 0.208107 -0.019037
v 0.152541 0.246101 0.018846
v 0.153682 0.246101 -0.022004
v 0.153682 0.271928 -0.022004
v -0.007167 0.092182 -0.026498
v -0.007167 0.137269 -0.026498
v 0.259894 0.238172 -0.019037
v -0.008309 0.092182 0.014352
v -0.008309 0.137269 0.014352
v -0.169158 0.246101 0.009858
v -0.168017 0.246101 -0.030991
v -0.168017 0.271928 -0.030991
v -0.274229 0.208107 -0.033959
v -0.274229 0.238172 -0.033959
v -0.400379 0.190451 -0.037483
v -0.274229 0.268237 -0.033959
v -0.400379 0.227627 -0.037483
v -0.400379 0.301977 -0.037483
v -0.503158 0.193500 -0.040354
v -0.503158 0.279775 -0.040354
v -0.613000 0.215635 -0.043423
v -0.503158 0.440120 -0.040354
v -0.613000 0.440121 -0.043423
v -0.590150 0.103991 -0.042784
v -0.545274 -0.002160 -0.041531
v -0.591291 0.103991 -0.001935
v -0.614141 0.215635 -0.002573
v -0.504300 0.279775 0.000496
v -0.614141 0.440121 -0.002573
v -0.597634 0.683335 -0.002112
v -0.504300 0.440120 0.000496
v -0.504300 0.606568 0.000496
v -0.401520 0.440163 0.003367
v -0.401520 0.301977 0.003367
v -0.401520 0.583607 0.003367
v -0.275370 0.556127 0.006891
v -0.401520 0.655329 0.003367
v -0.275370 0.614130 0.006891
v -0.275370 0.643132 0.006891
v -0.169158 0.594887 0.009858
v -0.169158 0.619799 0.009858
v -0.169158 0.644713 0.009858
v -0.008309 0.744566 0.014352
v -0.008309 0.701074 0.014352
v -0.008309 0.614090 0.014352
v 0.152541 0.594887 0.018846
v 0.152541 0.619799 0.018846
v 0.152541 0.644713 0.018846
v 0.258753 0.643132 0.021813
v 0.258753 0.614130 0.021813
v 0.384903 0.644690 0.025337
v 0.258753 0.556127 0.021813
v 0.384903 0.576532 0.025337
v 0.384903 0.440214 0.025337
v 0.487681 0.606568 0.028208
v 0.487681 0.440120 0.028208
v 0.606418 0.440121 0.031525
v 0.602133 0.215635 0.031406
v 0.384903 0.308893 0.025337
v 0.605880 0.661622 0.031510
v 0.607021 0.661622 -0.009339
v 0.591199 0.749032 0.031100
v 0.592340 0.749032 -0.009750
v 0.570045 0.820592 -0.010372
v 0.488823 0.689792 -0.012642
v 0.488823 0.606568 -0.012642
v 0.488823 0.440120 -0.012642
v 0.386044 0.576532 -0.015513
v 0.386044 0.644690 -0.015513
v 0.386044 0.678769 -0.015513
v 0.259894 0.614130 -0.019037
v 0.259894 0.643132 -0.019037
v 0.259894 0.672134 -0.019037
v 0.153682 0.619799 -0.022004
v 0.153682 0.644713 -0.022004
v -0.007167 0.788059 -0.026498
v -0.007167 0.744566 -0.026498
v -0.008309 0.788059 0.014352
v -0.168017 0.644713 -0.030991
v -0.168017 0.619799 -0.030991
v -0.274229 0.672134 -0.033959
v -0.274229 0.643132 -0.033959
v -0.275370 0.672134 0.006891
v -0.401520 0.727050 0.003367
v -0.401520 0.691189 0.003367
v -0.504300 0.731404 0.000496
v -0.504300 0.689792 0.000496
v -0.572795 0.772224 -0.001418
v -0.545211 0.861254 -0.000647
v -0.544070 0.861254 -0.041497
v -0.403186 1.000755 -0.017120
v -0.571654 0.772224 -0.042268
v -0.504300 0.773015 0.000496
v -0.503158 0.773015 -0.040354
v -0.400379 0.727050 -0.037483
v -0.400379 0.691189 -0.037483
v -0.503158 0.731404 -0.040354
v -0.503158 0.689792 -0.040354
v -0.503158 0.606568 -0.040354
v -0.400379 0.655329 -0.037483
v -0.400379 0.583607 -0.037483
v -0.274229 0.614130 -0.033959
v -0.274229 0.556127 -0.033959
v -0.168017 0.594887 -0.030991
v -0.168017 0.545060 -0.030991
v -0.007167 0.701074 -0.026498
v -0.007167 0.614090 -0.026498
v -0.007167 0.440120 -0.026498
v 0.153682 0.545060 -0.022004
v 0.153682 0.594887 -0.022004
v 0.259894 0.556127 -0.019037
v 0.259894 0.440120 -0.019037
v 0.386044 0.440214 -0.015513
v 0.386044 0.308893 -0.015513
v 0.259894 0.328366 -0.019037
v 0.153682 0.349407 -0.022004
v 0.259894 0.268237 -0.019037
v 0.153682 0.297755 -0.022004
v -0.007167 0.182356 -0.026498
v -0.007167 0.272529 -0.026498
v -0.168017 0.349407 -0.030991
v -0.168017 0.297755 -0.030991
v -0.274229 0.328366 -0.033959
v -0.274229 0.440120 -0.033959
v -0.400379 0.440163 -0.037483
v -0.168017 0.445407 -0.030991
v 0.386044 0.238236 -0.015513
v 0.386044 0.202907 -0.015513
v 0.488823 0.193500 -0.012642
v 0.488823 0.279775 -0.012642
v 0.603274 0.215635 -0.009444
v 0.607559 0.440121 -0.009324
v 0.488823 0.150363 -0.012642
v 0.386044 0.167578 -0.015513
v 0.153682 0.445407 -0.022004
v -0.596493 0.683335 -0.042961
v 0.258753 0.672134 0.021813
v 0.386044 0.712848 -0.015513
v 0.384903 0.712848 0.025337
v 0.488823 0.748616 -0.012642
v 0.488823 0.719203 -0.012642
v 0.487681 0.748616 0.028208
v 0.387710 1.000755 0.004975
v 0.568904 0.820592 0.030477
v 0.487681 0.719203 0.028208
v 0.487681 0.689792 0.028208
v 0.384903 0.678769 0.025337
v 0.258753 0.328366 0.021813
v 0.258753 0.268237 0.021813
v 0.152541 0.297755 0.018846
v 0.152541 0.271928 0.018846
v -0.008309 0.182356 0.014352
v -0.008309 0.272529 0.014352
v -0.169158 0.297755 0.009858
v -0.169158 0.271928 0.009858
v -0.275370 0.238172 0.006891
v -0.275370 0.268237 0.006891
v -0.275370 0.328366 0.006891
v -0.401520 0.227627 0.003367
v -0.401520 0.190451 0.003367
v -0.504300 0.193500 0.000496
v -0.504300 0.150363 0.000496
v -0.546415 -0.002160 -0.000681
v -0.444203 -0.133027 -0.018266
v -0.504300 0.107225 0.000496
v -0.503158 0.107225 -0.040354
v -0.401520 0.153275 0.003367
v -0.400379 0.153275 -0.037483
v -0.275370 0.208107 0.006891
v -0.503158 0.150363 -0.040354
v -0.169158 0.349407 0.009858
v -0.275370 0.440120 0.006891
v -0.169158 0.445407 0.009858
v -0.169158 0.545060 0.009858
v -0.008309 0.440120 0.014352
v 0.152541 0.445407 0.018846
v 0.152541 0.349407 0.018846
v 0.152541 0.545060 0.018846
v 0.258753 0.440120 0.021813
vn -0.0279 -0.0000 0.9996
vn -0.0000 -1.0000 -0.0000
vn 0.9996 -0.0000 0.0279
vn 0.0279 -0.0000 -0.9996
vn 0.4762 0.8792 0.0133
vn -0.0000 1.0000 -0.0000
vn -0.4762 -0.8792 -0.0133
vn 0.4762 -0.8792 0.0133
vn -0.4762 0.8792 -0.0133
vn -0.9996 -0.0000 -0.0279
vn -0.9812 0.1477 -0.1246
vn -0.9379 0.1477 -0.3140
vn -0.8584 0.1476 -0.4912
vn -0.7460 0.1476 -0.6494
vn -0.6050 0.1475 -0.7824
vn -0.4408 0.1474 -0.8854
vn -0.2600 0.1474 -0.9543
vn -0.0692 0.1474 -0.9867
vn 0.1242 0.1474 -0.9813
vn 0.3129 0.1474 -0.9383
vn 0.4896 0.1474 -0.8594
vn 0.6478 0.1475 -0.7474
vn 0.7810 0.1476 -0.6068
vn 0.8845 0.1476 -0.4426
vn 0.9539 0.1477 -0.2611
vn 0.9866 0.1477 -0.0696
vn 0.9812 0.1477 0.1246
vn 0.9379 0.1477 0.3140
vn 0.8584 0.1476 0.4912
vn 0.7460 0.1476 0.6494
vn 0.6050 0.1475 0.7824
vn 0.4408 0.1474 0.8854
vn 0.2600 0.1474 0.9543
vn 0.0692 0.1474 0.9867
vn -0.1242 0.1474 0.9813
vn -0.3129 0.1474 0.9383
vn -0.4896 0.1474 0.8594
vn -0.6478 0.1475 0.7474
vn -0.7811 0.1476 0.6067
vn -0.8845 0.1476 0.4426
vn -0.9539 0.1477 0.2612
vn -0.9866 0.1477 0.0696
vn -0.9975 -0.0000 0.0704
vn -0.9645 -0.0000 0.2641
vn -0.8943 -0.0000 0.4475
vn -0.7897 -0.0000 0.6135
vn -0.6549 -0.0000 0.7557
vn -0.4950 -0.0000 0.8689
vn -0.3163 -0.0000 0.9487
vn -0.1256 -0.0000 0.9921
vn 0.0700 -0.0000 0.9975
vn 0.2629 -0.0000 0.9648
vn 0.4457 -0.0000 0.8952
vn 0.6117 -0.0000 0.7911
vn 0.7542 -0.0000 0.6566
vn 0.8679 -0.0000 0.4967
vn 0.9483 -0.0000 0.3175
vn 0.9920 -0.0000 0.1260
vn 0.9975 -0.0000 -0.0704
vn 0.9645 -0.0000 -0.2640
vn 0.8943 -0.0000 -0.4475
vn 0.7897 -0.0000 -0.6135
vn 0.6549 -0.0000 -0.7557
vn 0.4950 -0.0000 -0.8689
vn 0.3163 -0.0000 -0.9487
vn 0.1256 -0.0000 -0.9921
vn -0.0700 -0.0000 -0.9975
vn -0.2629 -0.0000 -0.9648
vn -0.4457 -0.0000 -0.8952
vn -0.6117 -0.0000 -0.7911
vn -0.7542 -0.0000 -0.6566
vn -0.8679 -0.0000 -0.4967
vn -0.9483 -0.0000 -0.3175
vn -0.9920 -0.0000 -0.1260
vn -0.9641 -0.2354 -0.1224
vn -0.9216 -0.2354 -0.3086
vn -0.8436 -0.2353 -0.4827
vn -0.7330 -0.2352 -0.6382
vn -0.5946 -0.2351 -0.7689
vn -0.4332 -0.2351 -0.8701
vn -0.2555 -0.2350 -0.9378
vn -0.0680 -0.2349 -0.9696
vn 0.1220 -0.2349 -0.9643
vn 0.3075 -0.2350 -0.9221
vn 0.4811 -0.2351 -0.8445
vn 0.6366 -0.2351 -0.7345
vn 0.7675 -0.2352 -0.5963
vn 0.8692 -0.2353 -0.4349
vn 0.9374 -0.2354 -0.2566
vn 0.9695 -0.2354 -0.0684
vn 0.9641 -0.2354 0.1224
vn 0.9216 -0.2354 0.3086
vn 0.8436 -0.2353 0.4827
vn 0.7331 -0.2352 0.6382
vn 0.5946 -0.2351 0.7689
vn 0.4332 -0.2351 0.8701
vn 0.2555 -0.2350 0.9378
vn 0.0680 -0.2349 0.9696
vn -0.1220 -0.2349 0.9643
vn -0.3075 -0.2350 0.9221
vn -0.4811 -0.2351 0.8445
vn -0.6366 -0.2351 0.7345
vn -0.7676 -0.2352 0.5962
vn -0.8692 -0.2353 0.4349
vn -0.9374 -0.2354 0.2566
vn -0.9695 -0.2354 0.0684
vn -0.9703 0.2406 -0.0271
vn -0.1169 -0.0624 0.9912
vn -0.0613 -0.0625 -0.9962
vn 0.7810 -0.6242 0.0218
vn 0.9582 -0.2850 0.0268
vn -0.3366 -0.9416 -0.0094
vn -0.3057 -0.9521 -0.0085
vn 0.6910 -0.7226 0.0193
vn -0.6910 -0.7226 -0.0193
vn 0.3366 -0.9416 0.0094
vn -0.9207 -0.3895 -0.0257
vn -0.9793 -0.2006 -0.0274
vn -0.9973 0.0677 -0.0279
vn 0.9996 0.0024 0.0279
vn 0.9858 0.1657 0.0275
vn 0.9543 0.2976 0.0267
vn 0.6649 0.7467 0.0186
vn -0.2498 0.9683 -0.0070
vn -0.6649 0.7467 -0.0186
vn 0.2498 0.9683 0.0070
vn 0.3989 0.9169 0.0111
vn -0.9548 0.2961 -0.0267
vn -0.7018 0.7121 -0.0196
vn 0.0707 0.0457 0.9965
vn 0.9144 -0.4040 0.0255
vn 0.4080 0.9129 0.0114
vn 0.9727 -0.2304 0.0272
vn 0.9994 -0.0191 0.0279
vn -0.5060 -0.8624 -0.0141
vn -0.9627 0.2692 -0.0269
vn 0.1262 0.0457 -0.9909
vn -0.3069 0.9517 -0.0086
vn -0.3284 0.9445 -0.0092
vn -0.9285 -0.3705 -0.0259
vn -0.0250 0.0597 -0.9979
vn -0.0807 0.0597 0.9950
vn 0.7036 0.7104 0.0197
vn -0.7893 -0.6135 -0.0221
vn 0.1053 -0.0512 0.9931
vn 0.9703 0.2406 0.0271
vn 0.4086 -0.9126 0.0114
vn 0.3983 -0.9172 0.0111
vn 0.1606 -0.0512 -0.9857
vt 0.638445 0.005860
vt 0.623297 0.028005
vt 0.623297 0.005860
vt 0.622327 0.379253
vt 0.591259 0.398820
vt 0.591828 0.378270
vt 0.635713 0.399941
vt 0.635030 0.430087
vt 0.621154 0.429773
vt 0.621837 0.399626
vt 0.621891 0.359672
vt 0.635840 0.357441
vt 0.636107 0.379199
vt 0.632574 0.308536
vt 0.646149 0.308635
vt 0.675756 0.310511
vt 0.668975 0.359250
vt 0.592941 0.357137
vt 0.623109 0.258341
vt 0.597098 0.309711
vt 0.636779 0.260929
vt 0.638445 0.050151
vt 0.647296 0.094442
vt 0.623297 0.050151
vt 0.638445 0.028006
vt 0.667795 0.380487
vt 0.666807 0.401410
vt 0.672087 0.259387
vt 0.638370 0.238134
vt 0.671466 0.237990
vt 0.671375 0.215845
vt 0.638445 0.160878
vt 0.638445 0.183023
vt 0.623297 0.183023
vt 0.638445 0.138733
vt 0.623297 0.160878
vt 0.623297 0.215933
vt 0.591466 0.238175
vt 0.591085 0.216499
vt 0.638445 0.215933
vt 0.623246 0.237740
vt 0.591976 0.259620
vt 0.623297 0.138733
vt 0.662444 0.094442
vt 0.579365 0.871464
vt 0.577577 0.994140
vt 0.575804 0.871464
vt 0.574000 0.994139
vt 0.572243 0.871464
vt 0.570427 0.994139
vt 0.568680 0.871464
vt 0.566857 0.994138
vt 0.565116 0.871464
vt 0.563292 0.994136
vt 0.561550 0.871464
vt 0.559732 0.994135
vt 0.557982 0.871464
vt 0.556175 0.994134
vt 0.554414 0.871464
vt 0.552622 0.994134
vt 0.550845 0.871464
vt 0.549068 0.994134
vt 0.547276 0.871464
vt 0.545515 0.994134
vt 0.543708 0.871464
vt 0.541958 0.994135
vt 0.540140 0.871464
vt 0.538398 0.994136
vt 0.536574 0.871464
vt 0.534833 0.994138
vt 0.533010 0.871464
vt 0.531263 0.994139
vt 0.529447 0.871464
vt 0.527690 0.994139
vt 0.525886 0.871464
vt 0.524113 0.994140
vt 0.522325 0.871464
vt 0.520536 0.994140
vt 0.518764 0.871464
vt 0.516960 0.994139
vt 0.515202 0.871464
vt 0.513386 0.994139
vt 0.511639 0.871464
vt 0.509816 0.994138
vt 0.508075 0.871464
vt 0.506252 0.994136
vt 0.504509 0.871464
vt 0.502691 0.994135
vt 0.500942 0.871464
vt 0.499135 0.994134
vt 0.497373 0.871464
vt 0.495581 0.994134
vt 0.493804 0.871464
vt 0.492028 0.994134
vt 0.490235 0.871464
vt 0.488474 0.994134
vt 0.486667 0.871464
vt 0.484918 0.994135
vt 0.483100 0.871464
vt 0.481357 0.994136
vt 0.479534 0.871464
vt 0.477792 0.994138
vt 0.475970 0.871464
vt 0.474223 0.994139
vt 0.472407 0.871464
vt 0.470649 0.994139
vt 0.468845 0.871464
vt 0.467073 0.994140
vt 0.465284 0.871464
vt 0.468845 0.507472
vt 0.465284 0.264811
vt 0.468845 0.264811
vt 0.472407 0.507472
vt 0.472407 0.264811
vt 0.475970 0.507472
vt 0.475970 0.264811
vt 0.479534 0.507472
vt 0.479534 0.264811
vt 0.483100 0.507472
vt 0.483100 0.264811
vt 0.486667 0.507472
vt 0.486667 0.264811
vt 0.490235 0.507472
vt 0.490235 0.264811
vt 0.493804 0.507472
vt 0.493804 0.264811
vt 0.497374 0.507472
vt 0.497374 0.264811
vt 0.500942 0.507472
vt 0.500942 0.264811
vt 0.504509 0.507472
vt 0.504509 0.264811
vt 0.508075 0.507472
vt 0.508075 0.264811
vt 0.511639 0.507472
vt 0.511639 0.264811
vt 0.515202 0.507472
vt 0.515202 0.264811
vt 0.518764 0.507472
vt 0.518764 0.264811
vt 0.522325 0.507472
vt 0.522325 0.264811
vt 0.525886 0.507472
vt 0.525886 0.264811
vt 0.529447 0.507472
vt 0.529447 0.264811
vt 0.533010 0.507472
vt 0.533010 0.264811
vt 0.536574 0.507472
vt 0.536574 0.264811
vt 0.540140 0.507472
vt 0.540140 0.264811
vt 0.543708 0.507472
vt 0.543708 0.264811
vt 0.547276 0.507472
vt 0.547276 0.264811
vt 0.550845 0.507472
vt 0.550845 0.264811
vt 0.554414 0.507472
vt 0.554414 0.264811
vt 0.557982 0.507472
vt 0.557982 0.264811
vt 0.561550 0.507472
vt 0.561550 0.264811
vt 0.565116 0.507472
vt 0.565116 0.264811
vt 0.568680 0.507472
vt 0.568680 0.264811
vt 0.572243 0.507472
vt 0.572243 0.264811
vt 0.575804 0.507472
vt 0.575804 0.264811
vt 0.579365 0.507472
vt 0.579365 0.264811
vt 0.468845 0.750133
vt 0.465284 0.507472
vt 0.472407 0.750133
vt 0.475970 0.750133
vt 0.479534 0.750133
vt 0.483100 0.750133
vt 0.486667 0.750133
vt 0.490235 0.750133
vt 0.493804 0.750133
vt 0.497373 0.750133
vt 0.500942 0.750133
vt 0.504509 0.750133
vt 0.508075 0.750133
vt 0.511639 0.750133
vt 0.515202 0.750133
vt 0.518764 0.750133
vt 0.522325 0.750133
vt 0.525886 0.750133
vt 0.529447 0.750133
vt 0.533010 0.750133
vt 0.536574 0.750133
vt 0.540140 0.750133
vt 0.543708 0.750133
vt 0.547276 0.750133
vt 0.550845 0.750133
vt 0.554414 0.750133
vt 0.557982 0.750133
vt 0.561550 0.750133
vt 0.565116 0.750133
vt 0.568680 0.750133
vt 0.572243 0.750133
vt 0.575804 0.750133
vt 0.579365 0.750133
vt 0.465284 0.750133
vt 0.575804 0.143480
vt 0.579365 0.143480
vt 0.572243 0.143480
vt 0.568680 0.143480
vt 0.565116 0.143480
vt 0.561550 0.143480
vt 0.557982 0.143480
vt 0.554414 0.143480
vt 0.550845 0.143480
vt 0.547276 0.143480
vt 0.543708 0.143480
vt 0.540140 0.143480
vt 0.536574 0.143480
vt 0.533010 0.143480
vt 0.529447 0.143480
vt 0.525886 0.143480
vt 0.522325 0.143480
vt 0.518764 0.143480
vt 0.515202 0.143480
vt 0.511639 0.143480
vt 0.508075 0.143480
vt 0.504509 0.143480
vt 0.500942 0.143480
vt 0.497374 0.143480
vt 0.493804 0.143480
vt 0.490235 0.143480
vt 0.486667 0.143480
vt 0.483100 0.143480
vt 0.479534 0.143480
vt 0.475970 0.143480
vt 0.472407 0.143480
vt 0.468845 0.143480
vt 0.465284 0.143480
vt 0.465284 0.082815
vt 0.468845 0.082815
vt 0.472407 0.082815
vt 0.475970 0.082815
vt 0.479534 0.082815
vt 0.483100 0.082815
vt 0.486667 0.082815
vt 0.490235 0.082815
vt 0.493804 0.082815
vt 0.497374 0.082815
vt 0.500942 0.082815
vt 0.504509 0.082815
vt 0.508075 0.082815
vt 0.511639 0.082815
vt 0.515202 0.082815
vt 0.518764 0.082815
vt 0.522325 0.082815
vt 0.525886 0.082815
vt 0.529447 0.082815
vt 0.533010 0.082815
vt 0.536574 0.082815
vt 0.540140 0.082815
vt 0.543708 0.082815
vt 0.547276 0.082815
vt 0.550845 0.082815
vt 0.554414 0.082815
vt 0.557982 0.082815
vt 0.561550 0.082815
vt 0.565116 0.082815
vt 0.568680 0.082815
vt 0.572243 0.082815
vt 0.575804 0.082815
vt 0.579365 0.082815
vt 0.577577 0.005860
vt 0.574000 0.005861
vt 0.570427 0.005862
vt 0.566857 0.005864
vt 0.563292 0.005866
vt 0.559732 0.005868
vt 0.556175 0.005869
vt 0.552622 0.005870
vt 0.549068 0.005870
vt 0.545515 0.005869
vt 0.541958 0.005868
vt 0.538398 0.005866
vt 0.534833 0.005864
vt 0.531263 0.005862
vt 0.527690 0.005861
vt 0.524113 0.005860
vt 0.520536 0.005860
vt 0.516960 0.005861
vt 0.513386 0.005862
vt 0.509817 0.005864
vt 0.506252 0.005866
vt 0.502691 0.005868
vt 0.499135 0.005869
vt 0.495581 0.005870
vt 0.492028 0.005870
vt 0.488474 0.005869
vt 0.484918 0.005868
vt 0.481357 0.005866
vt 0.477792 0.005864
vt 0.474223 0.005862
vt 0.470649 0.005861
vt 0.467073 0.005860
vt 0.383399 0.072266
vt 0.370650 0.066219
vt 0.445039 0.036960
vt 0.369249 0.927305
vt 0.338245 0.900884
vt 0.431022 0.886739
vt 0.397342 0.043696
vt 0.453564 0.027889
vt 0.402997 0.031095
vt 0.330455 0.934942
vt 0.305797 0.897806
vt 0.364709 0.034403
vt 0.368025 0.020454
vt 0.322020 0.899345
vt 0.305920 0.858809
vt 0.273358 0.894723
vt 0.292641 0.857558
vt 0.319204 0.860060
vt 0.308406 0.811183
vt 0.297110 0.810141
vt 0.297760 0.769962
vt 0.327980 0.197154
vt 0.338760 0.152104
vt 0.352318 0.155415
vt 0.365698 0.110530
vt 0.345467 0.194578
vt 0.317682 0.196392
vt 0.328166 0.152978
vt 0.359689 0.262397
vt 0.384520 0.262671
vt 0.370383 0.262525
vt 0.343695 0.713157
vt 0.307725 0.649929
vt 0.360602 0.714546
vt 0.326602 0.326088
vt 0.343046 0.328960
vt 0.316479 0.326509
vt 0.324789 0.369364
vt 0.334985 0.370904
vt 0.335453 0.415371
vt 0.322935 0.413614
vt 0.313863 0.368020
vt 0.329537 0.449028
vt 0.302408 0.444233
vt 0.297889 0.410885
vt 0.351395 0.484453
vt 0.316767 0.482820
vt 0.249364 0.479561
vt 0.249868 0.442920
vt 0.394078 0.487689
vt 0.350590 0.497335
vt 0.316285 0.495111
vt 0.298444 0.531559
vt 0.248828 0.492494
vt 0.175621 0.489311
vt 0.246201 0.528844
vt 0.290962 0.565284
vt 0.193033 0.522024
vt 0.195099 0.556745
vt 0.243537 0.562545
vt 0.198607 0.601859
vt 0.177968 0.599083
vt 0.170837 0.552526
vt 0.170844 0.637266
vt 0.167613 0.597518
vt 0.179945 0.638384
vt 0.161716 0.636128
vt 0.134082 0.693383
vt 0.117888 0.691623
vt 0.158052 0.756627
vt 0.166386 0.696867
vt 0.167357 0.757594
vt 0.148742 0.755648
vt 0.156150 0.796622
vt 0.145278 0.795532
vt 0.139999 0.842842
vt 0.165589 0.845359
vt 0.177886 0.798787
vt 0.150534 0.882870
vt 0.216770 0.850338
vt 0.213082 0.888962
vt 0.266092 0.855049
vt 0.293371 0.940078
vt 0.125501 0.925293
vt 0.208772 0.933607
vt 0.169712 0.021334
vt 0.169411 0.005860
vt 0.252113 0.008954
vt 0.136435 0.023218
vt 0.093179 0.916553
vt 0.135122 0.007521
vt 0.187650 0.068392
vt 0.107231 0.026449
vt 0.155429 0.067172
vt 0.250361 0.069497
vt 0.198350 0.107076
vt 0.172696 0.106594
vt 0.171782 0.153772
vt 0.159905 0.106464
vt 0.182857 0.154281
vt 0.161415 0.153171
vt 0.178807 0.196684
vt 0.168889 0.197491
vt 0.140539 0.262059
vt 0.115499 0.262433
vt 0.152402 0.194983
vt 0.129780 0.262214
vt 0.101669 0.689847
vt 0.170559 0.325606
vt 0.153740 0.329032
vt 0.174973 0.368590
vt 0.180398 0.326066
vt 0.150868 0.367580
vt 0.164777 0.369974
vt 0.157196 0.595842
vt 0.158563 0.550033
vt 0.138745 0.413939
vt 0.146132 0.547292
vt 0.153688 0.512050
vt 0.167075 0.515950
vt 0.115899 0.486720
vt 0.147491 0.488586
vt 0.119751 0.473139
vt 0.148167 0.475829
vt 0.062598 0.492235
vt 0.140109 0.508041
vt 0.057971 0.518871
vt 0.067067 0.483738
vt 0.129373 0.451632
vt 0.143030 0.455018
vt 0.152271 0.417417
vt 0.164370 0.415492
vt 0.156672 0.452171
vt 0.170254 0.449454
vt 0.196301 0.445514
vt 0.176536 0.413767
vt 0.200879 0.411161
vt 0.185707 0.367402
vt 0.207200 0.365846
vt 0.190063 0.326169
vt 0.154788 0.261882
vt 0.185256 0.261561
vt 0.209694 0.325737
vt 0.250597 0.261317
vt 0.208624 0.196236
vt 0.188611 0.196274
vt 0.205140 0.154916
vt 0.250358 0.155268
vt 0.250180 0.107655
vt 0.299612 0.107267
vt 0.293771 0.154659
vt 0.307528 0.196024
vt 0.286748 0.196121
vt 0.316758 0.153706
vt 0.345075 0.262217
vt 0.313649 0.261820
vt 0.306506 0.326557
vt 0.286123 0.325951
vt 0.291897 0.366179
vt 0.250095 0.409199
vt 0.250393 0.364955
vt 0.248552 0.325198
vt 0.325773 0.106533
vt 0.338732 0.105981
vt 0.340121 0.068277
vt 0.309425 0.069469
vt 0.331341 0.028002
vt 0.251453 0.024084
vt 0.333112 0.013666
vt 0.355578 0.067293
vt 0.351790 0.105313
vt 0.248393 0.196571
vt 0.175965 0.477332
vt 0.146932 0.156201
vt 0.147323 0.106514
vt 0.143623 0.065952
vt 0.134516 0.111190
vt 0.130966 0.064452
vt 0.118735 0.077806
vt 0.028607 0.046057
vt 0.067098 0.905529
vt 0.005860 0.830302
vt 0.097153 0.877636
vt 0.005860 0.028218
vt 0.105667 0.010391
vt 0.119261 0.879805
vt 0.108208 0.878721
vt 0.127200 0.841579
vt 0.134399 0.794438
vt 0.114398 0.840314
vt 0.263259 0.807000
vt 0.285821 0.809097
vt 0.288080 0.769116
vt 0.278409 0.768261
vt 0.326814 0.711762
vt 0.298157 0.649290
vt 0.293157 0.708961
vt 0.288628 0.648646
vt 0.312682 0.610713
vt 0.301687 0.610351
vt 0.316868 0.565188
vt 0.279915 0.609284
vt 0.330150 0.564671
vt 0.325987 0.529074
vt 0.389291 0.503053
vt 0.340779 0.526526
vt 0.355940 0.523826
vt 0.445293 0.526379
vt 0.343812 0.563888
vt 0.441445 0.480969
vt 0.360392 0.459163
vt 0.372795 0.448247
vt 0.360449 0.413483
vt 0.323804 0.610986
vt 0.348020 0.417208
vt 0.349014 0.368004
vt 0.344081 0.453726
vt 0.269617 0.647264
vt 0.239855 0.606222
vt 0.198125 0.640515
vt 0.234464 0.644182
vt 0.230866 0.703428
vt 0.259082 0.766502
vt 0.185967 0.759478
vt 0.223194 0.763095
vt 0.221357 0.803025
s 1
usemtl マテリアル.001
f 3/1/1 2/2/1 1/3/1
f 6/4/2 1/5/2 2/6/2
f 5/7/3 3/8/3 1/9/3
f 6/4/2 4/10/2 1/5/2
f 5/7/3 1/9/3 4/10/3
f 7/11/2 6/4/2 2/6/2
f 9/12/4 6/4/4 7/11/4
f 8/13/4 4/10/4 6/4/4
f 9/12/4 8/13/4 6/4/4
f 13/14/4 10/15/4 9/12/4
f 12/16/5 9/12/5 10/15/5
f 12/16/5 11/17/5 9/12/5
f 11/17/6 8/13/6 9/12/6
f 13/14/4 9/12/4 7/11/4
f 13/14/7 7/11/7 17/18/7
f 15/19/8 13/14/8 14/20/8
f 13/14/7 17/18/7 14/20/7
f 16/21/4 10/15/4 13/14/4
f 16/21/4 13/14/4 15/19/4
f 11/22/1 14/23/1 17/24/1
f 18/25/1 11/22/1 17/24/1
f 7/11/2 2/6/2 17/18/2
f 18/25/1 17/24/1 2/2/1
f 11/17/6 18/26/6 8/13/6
f 3/1/1 18/25/1 2/2/1
f 18/26/6 3/27/6 5/7/6
f 18/26/6 5/7/6 8/13/6
f 20/28/9 10/15/9 16/21/9
f 19/29/4 16/21/4 15/19/4
f 21/30/6 16/21/6 19/29/6
f 21/30/6 20/28/6 16/21/6
f 22/31/6 21/30/6 19/29/6
f 21/32/1 22/33/1 24/34/1
f 20/35/1 21/32/1 23/36/1
f 21/32/1 24/34/1 23/36/1
f 22/33/10 25/37/10 24/34/10
f 25/37/2 23/38/2 24/39/2
f 22/33/10 26/40/10 25/37/10
f 26/40/4 27/41/4 25/37/4
f 25/37/2 27/41/2 23/38/2
f 27/41/2 15/19/2 28/42/2
f 19/29/4 15/19/4 27/41/4
f 27/41/2 28/42/2 23/38/2
f 26/40/4 19/29/4 27/41/4
f 14/23/1 20/35/1 28/43/1
f 15/19/8 14/20/8 28/42/8
f 20/35/1 23/36/1 28/43/1
f 22/31/6 19/29/6 26/40/6
f 14/23/1 12/44/1 20/35/1
f 20/28/9 12/16/9 10/15/9
f 11/22/1 12/44/1 14/23/1
f 8/13/4 5/7/4 4/10/4
f 95/45/11 30/46/11 96/47/11
f 96/47/12 30/48/12 97/49/12
f 97/49/13 30/50/13 98/51/13
f 98/51/14 30/52/14 99/53/14
f 99/53/15 30/54/15 100/55/15
f 100/55/16 30/56/16 101/57/16
f 101/57/17 30/58/17 102/59/17
f 102/59/18 30/60/18 103/61/18
f 103/61/19 30/62/19 104/63/19
f 104/63/20 30/64/20 105/65/20
f 105/65/21 30/66/21 106/67/21
f 106/67/22 30/68/22 107/69/22
f 107/69/23 30/70/23 108/71/23
f 108/71/24 30/72/24 109/73/24
f 109/73/25 30/74/25 110/75/25
f 110/75/26 30/76/26 111/77/26
f 111/77/27 30/78/27 112/79/27
f 112/79/28 30/80/28 113/81/28
f 113/81/29 30/82/29 114/83/29
f 114/83/30 30/84/30 115/85/30
f 115/85/31 30/86/31 116/87/31
f 116/87/32 30/88/32 117/89/32
f 117/89/33 30/90/33 118/91/33
f 118/91/34 30/92/34 119/93/34
f 119/93/35 30/94/35 120/95/35
f 120/95/36 30/96/36 121/97/36
f 121/97/37 30/98/37 122/99/37
f 122/99/38 30/100/38 123/101/38
f 123/101/39 30/102/39 124/103/39
f 124/103/40 30/104/40 125/105/40
f 125/105/41 30/106/41 126/107/41
f 126/107/42 30/108/42 95/109/42
f 62/110/43 158/111/43 157/112/43
f 61/113/44 157/112/44 156/114/44
f 60/115/45 156/114/45 155/116/45
f 59/117/46 155/116/46 154/118/46
f 58/119/47 154/118/47 153/120/47
f 57/121/48 153/120/48 152/122/48
f 56/123/49 152/122/49 151/124/49
f 55/125/50 151/124/50 150/126/50
f 54/127/51 150/126/51 149/128/51
f 53/129/52 149/128/52 148/130/52
f 52/131/53 148/130/53 147/132/53
f 51/133/54 147/132/54 146/134/54
f 50/135/55 146/134/55 145/136/55
f 49/137/56 145/136/56 144/138/56
f 48/139/57 144/138/57 143/140/57
f 47/141/58 143/140/58 142/142/58
f 46/143/59 142/142/59 141/144/59
f 45/145/60 141/144/60 140/146/60
f 44/147/61 140/146/61 139/148/61
f 43/149/62 139/148/62 138/150/62
f 42/151/63 138/150/63 137/152/63
f 41/153/64 137/152/64 136/154/64
f 40/155/65 136/154/65 135/156/65
f 39/157/66 135/156/66 134/158/66
f 38/159/67 134/158/67 133/160/67
f 37/161/68 133/160/68 132/162/68
f 36/163/69 132/162/69 131/164/69
f 35/165/70 131/164/70 130/166/70
f 34/167/71 130/166/71 129/168/71
f 33/169/72 129/168/72 128/170/72
f 32/171/73 128/170/73 127/172/73
f 31/173/74 127/172/74 158/174/74
f 94/175/43 31/176/43 62/110/43
f 93/177/44 62/110/44 61/113/44
f 92/178/45 61/113/45 60/115/45
f 91/179/46 60/115/46 59/117/46
f 90/180/47 59/117/47 58/119/47
f 89/181/48 58/119/48 57/121/48
f 88/182/49 57/121/49 56/123/49
f 87/183/50 56/123/50 55/125/50
f 86/184/51 55/125/51 54/127/51
f 85/185/52 54/127/52 53/129/52
f 84/186/53 53/129/53 52/131/53
f 83/187/54 52/131/54 51/133/54
f 82/188/55 51/133/55 50/135/55
f 81/189/56 50/135/56 49/137/56
f 80/190/57 49/137/57 48/139/57
f 79/191/58 48/139/58 47/141/58
f 78/192/59 47/141/59 46/143/59
f 77/193/60 46/143/60 45/145/60
f 76/194/61 45/145/61 44/147/61
f 75/195/62 44/147/62 43/149/62
f 74/196/63 43/149/63 42/151/63
f 73/197/64 42/151/64 41/153/64
f 72/198/65 41/153/65 40/155/65
f 71/199/66 40/155/66 39/157/66
f 70/200/67 39/157/67 38/159/67
f 69/201/68 38/159/68 37/161/68
f 68/202/69 37/161/69 36/163/69
f 67/203/70 36/163/70 35/165/70
f 66/204/71 35/165/71 34/167/71
f 65/205/72 34/167/72 33/169/72
f 64/206/73 33/169/73 32/171/73
f 63/207/74 32/171/74 31/173/74
f 126/107/43 63/208/43 94/175/43
f 125/105/44 94/175/44 93/177/44
f 124/103/45 93/177/45 92/178/45
f 123/101/46 92/178/46 91/179/46
f 122/99/47 91/179/47 90/180/47
f 121/97/48 90/180/48 89/181/48
f 120/95/49 89/181/49 88/182/49
f 119/93/50 88/182/50 87/183/50
f 118/91/51 87/183/51 86/184/51
f 117/89/52 86/184/52 85/185/52
f 116/87/53 85/185/53 84/186/53
f 115/85/54 84/186/54 83/187/54
f 114/83/55 83/187/55 82/188/55
f 113/81/56 82/188/56 81/189/56
f 112/79/57 81/189/57 80/190/57
f 111/77/58 80/190/58 79/191/58
f 110/75/59 79/191/59 78/192/59
f 109/73/60 78/192/60 77/193/60
f 108/71/61 77/193/61 76/194/61
f 107/69/62 76/194/62 75/195/62
f 106/67/63 75/195/63 74/196/63
f 105/65/64 74/196/64 73/197/64
f 104/63/65 73/197/65 72/198/65
f 103/61/66 72/198/66 71/199/66
f 102/59/67 71/199/67 70/200/67
f 101/57/68 70/200/68 69/201/68
f 100/55/69 69/201/69 68/202/69
f 99/53/70 68/202/70 67/203/70
f 98/51/71 67/203/71 66/204/71
f 97/49/72 66/204/72 65/205/72
f 96/47/73 65/205/73 64/206/73
f 95/45/74 64/206/74 63/207/74
f 158/174/74 159/209/74 190/210/74
f 127/172/73 160/211/73 159/209/73
f 128/170/72 161/212/72 160/211/72
f 129/168/71 162/213/71 161/212/71
f 130/166/70 163/214/70 162/213/70
f 131/164/69 164/215/69 163/214/69
f 132/162/68 165/216/68 164/215/68
f 133/160/67 166/217/67 165/216/67
f 134/158/66 167/218/66 166/217/66
f 135/156/65 168/219/65 167/218/65
f 136/154/64 169/220/64 168/219/64
f 137/152/63 170/221/63 169/220/63
f 138/150/62 171/222/62 170/221/62
f 139/148/61 172/223/61 171/222/61
f 140/146/60 173/224/60 172/223/60
f 141/144/59 174/225/59 173/224/59
f 142/142/58 175/226/58 174/225/58
f 143/140/57 176/227/57 175/226/57
f 144/138/56 177/228/56 176/227/56
f 145/136/55 178/229/55 177/228/55
f 146/134/54 179/230/54 178/229/54
f 147/132/53 180/231/53 179/230/53
f 148/130/52 181/232/52 180/231/52
f 149/128/51 182/233/51 181/232/51
f 150/126/50 183/234/50 182/233/50
f 151/124/49 184/235/49 183/234/49
f 152/122/48 185/236/48 184/235/48
f 153/120/47 186/237/47 185/236/47
f 154/118/46 187/238/46 186/237/46
f 155/116/45 188/239/45 187/238/45
f 156/114/44 189/240/44 188/239/44
f 157/112/43 190/241/43 189/240/43
f 189/240/43 222/242/43 221/243/43
f 188/239/44 221/243/44 220/244/44
f 187/238/45 220/244/45 219/245/45
f 186/237/46 219/245/46 218/246/46
f 185/236/47 218/246/47 217/247/47
f 184/235/48 217/247/48 216/248/48
f 183/234/49 216/248/49 215/249/49
f 182/233/50 215/249/50 214/250/50
f 181/232/51 214/250/51 213/251/51
f 180/231/52 213/251/52 212/252/52
f 179/230/53 212/252/53 211/253/53
f 178/229/54 211/253/54 210/254/54
f 177/228/55 210/254/55 209/255/55
f 176/227/56 209/255/56 208/256/56
f 175/226/57 208/256/57 207/257/57
f 174/225/58 207/257/58 206/258/58
f 173/224/59 206/258/59 205/259/59
f 172/223/60 205/259/60 204/260/60
f 171/222/61 204/260/61 203/261/61
f 170/221/62 203/261/62 202/262/62
f 169/220/63 202/262/63 201/263/63
f 168/219/64 201/263/64 200/264/64
f 167/218/65 200/264/65 199/265/65
f 166/217/66 199/265/66 198/266/66
f 165/216/67 198/266/67 197/267/67
f 164/215/68 197/267/68 196/268/68
f 163/214/69 196/268/69 195/269/69
f 162/213/70 195/269/70 194/270/70
f 161/212/71 194/270/71 193/271/71
f 160/211/72 193/271/72 192/272/72
f 159/209/73 192/272/73 191/273/73
f 190/210/74 191/273/74 222/274/74
f 29/275/75 222/274/75 191/273/75
f 29/276/76 191/273/76 192/272/76
f 29/277/77 192/272/77 193/271/77
f 29/278/78 193/271/78 194/270/78
f 29/279/79 194/270/79 195/269/79
f 29/280/80 195/269/80 196/268/80
f 29/281/81 196/268/81 197/267/81
f 29/282/82 197/267/82 198/266/82
f 29/283/83 198/266/83 199/265/83
f 29/284/84 199/265/84 200/264/84
f 29/285/85 200/264/85 201/263/85
f 29/286/86 201/263/86 202/262/86
f 29/287/87 202/262/87 203/261/87
f 29/288/88 203/261/88 204/260/88
f 29/289/89 204/260/89 205/259/89
f 29/290/90 205/259/90 206/258/90
f 29/291/91 206/258/91 207/257/91
f 29/292/92 207/257/92 208/256/92
f 29/293/93 208/256/93 209/255/93
f 29/294/94 209/255/94 210/254/94
f 29/295/95 210/254/95 211/253/95
f 29/296/96 211/253/96 212/252/96
f 29/297/97 212/252/97 213/251/97
f 29/298/98 213/251/98 214/250/98
f 29/299/99 214/250/99 215/249/99
f 29/300/100 215/249/100 216/248/100
f 29/301/101 216/248/101 217/247/101
f 29/302/102 217/247/102 218/246/102
f 29/303/103 218/246/103 219/245/103
f 29/304/104 219/245/104 220/244/104
f 29/305/105 220/244/105 221/243/105
f 29/306/106 221/243/106 222/242/106
f 62/110/43 31/176/43 158/111/43
f 61/113/44 62/110/44 157/112/44
f 60/115/45 61/113/45 156/114/45
f 59/117/46 60/115/46 155/116/46
f 58/119/47 59/117/47 154/118/47
f 57/121/48 58/119/48 153/120/48
f 56/123/49 57/121/49 152/122/49
f 55/125/50 56/123/50 151/124/50
f 54/127/51 55/125/51 150/126/51
f 53/129/52 54/127/52 149/128/52
f 52/131/53 53/129/53 148/130/53
f 51/133/54 52/131/54 147/132/54
f 50/135/55 51/133/55 146/134/55
f 49/137/56 50/135/56 145/136/56
f 48/139/57 49/137/57 144/138/57
f 47/141/58 48/139/58 143/140/58
f 46/143/59 47/141/59 142/142/59
f 45/145/60 46/143/60 141/144/60
f 44/147/61 45/145/61 140/146/61
f 43/149/62 44/147/62 139/148/62
f 42/151/63 43/149/63 138/150/63
f 41/153/64 42/151/64 137/152/64
f 40/155/65 41/153/65 136/154/65
f 39/157/66 40/155/66 135/156/66
f 38/159/67 39/157/67 134/158/67
f 37/161/68 38/159/68 133/160/68
f 36/163/69 37/161/69 132/162/69
f 35/165/70 36/163/70 131/164/70
f 34/167/71 35/165/71 130/166/71
f 33/169/72 34/167/72 129/168/72
f 32/171/73 33/169/73 128/170/73
f 31/173/74 32/171/74 127/172/74
f 94/175/43 63/208/43 31/176/43
f 93/177/44 94/175/44 62/110/44
f 92/178/45 93/177/45 61/113/45
f 91/179/46 92/178/46 60/115/46
f 90/180/47 91/179/47 59/117/47
f 89/181/48 90/180/48 58/119/48
f 88/182/49 89/181/49 57/121/49
f 87/183/50 88/182/50 56/123/50
f 86/184/51 87/183/51 55/125/51
f 85/185/52 86/184/52 54/127/52
f 84/186/53 85/185/53 53/129/53
f 83/187/54 84/186/54 52/131/54
f 82/188/55 83/187/55 51/133/55
f 81/189/56 82/188/56 50/135/56
f 80/190/57 81/189/57 49/137/57
f 79/191/58 80/190/58 48/139/58
f 78/192/59 79/191/59 47/141/59
f 77/193/60 78/192/60 46/143/60
f 76/194/61 77/193/61 45/145/61
f 75/195/62 76/194/62 44/147/62
f 74/196/63 75/195/63 43/149/63
f 73/197/64 74/196/64 42/151/64
f 72/198/65 73/197/65 41/153/65
f 71/199/66 72/198/66 40/155/66
f 70/200/67 71/199/67 39/157/67
f 69/201/68 70/200/68 38/159/68
f 68/202/69 69/201/69 37/161/69
f 67/203/70 68/202/70 36/163/70
f 66/204/71 67/203/71 35/165/71
f 65/205/72 66/204/72 34/167/72
f 64/206/73 65/205/73 33/169/73
f 63/207/74 64/206/74 32/171/74
f 126/107/43 95/109/43 63/208/43
f 125/105/44 126/107/44 94/175/44
f 124/103/45 125/105/45 93/177/45
f 123/101/46 124/103/46 92/178/46
f 122/99/47 123/101/47 91/179/47
f 121/97/48 122/99/48 90/180/48
f 120/95/49 121/97/49 89/181/49
f 119/93/50 120/95/50 88/182/50
f 118/91/51 119/93/51 87/183/51
f 117/89/52 118/91/52 86/184/52
f 116/87/53 117/89/53 85/185/53
f 115/85/54 116/87/54 84/186/54
f 114/83/55 115/85/55 83/187/55
f 113/81/56 114/83/56 82/188/56
f 112/79/57 113/81/57 81/189/57
f 111/77/58 112/79/58 80/190/58
f 110/75/59 111/77/59 79/191/59
f 109/73/60 110/75/60 78/192/60
f 108/71/61 109/73/61 77/193/61
f 107/69/62 108/71/62 76/194/62
f 106/67/63 107/69/63 75/195/63
f 105/65/64 106/67/64 74/196/64
f 104/63/65 105/65/65 73/197/65
f 103/61/66 104/63/66 72/198/66
f 102/59/67 103/61/67 71/199/67
f 101/57/68 102/59/68 70/200/68
f 100/55/69 101/57/69 69/201/69
f 99/53/70 100/55/70 68/202/70
f 98/51/71 99/53/71 67/203/71
f 97/49/72 98/51/72 66/204/72
f 96/47/73 97/49/73 65/205/73
f 95/45/74 96/47/74 64/206/74
f 158/174/74 127/172/74 159/209/74
f 127/172/73 128/170/73 160/211/73
f 128/170/72 129/168/72 161/212/72
f 129/168/71 130/166/71 162/213/71
f 130/166/70 131/164/70 163/214/70
f 131/164/69 132/162/69 164/215/69
f 132/162/68 133/160/68 165/216/68
f 133/160/67 134/158/67 166/217/67
f 134/158/66 135/156/66 167/218/66
f 135/156/65 136/154/65 168/219/65
f 136/154/64 137/152/64 169/220/64
f 137/152/63 138/150/63 170/221/63
f 138/150/62 139/148/62 171/222/62
f 139/148/61 140/146/61 172/223/61
f 140/146/60 141/144/60 173/224/60
f 141/144/59 142/142/59 174/225/59
f 142/142/58 143/140/58 175/226/58
f 143/140/57 144/138/57 176/227/57
f 144/138/56 145/136/56 177/228/56
f 145/136/55 146/134/55 178/229/55
f 146/134/54 147/132/54 179/230/54
f 147/132/53 148/130/53 180/231/53
f 148/130/52 149/128/52 181/232/52
f 149/128/51 150/126/51 182/233/51
f 150/126/50 151/124/50 183/234/50
f 151/124/49 152/122/49 184/235/49
f 152/122/48 153/120/48 185/236/48
f 153/120/47 154/118/47 186/237/47
f 154/118/46 155/116/46 187/238/46
f 155/116/45 156/114/45 188/239/45
f 156/114/44 157/112/44 189/240/44
f 157/112/43 158/111/43 190/241/43
f 189/240/43 190/241/43 222/242/43
f 188/239/44 189/240/44 221/243/44
f 187/238/45 188/239/45 220/244/45
f 186/237/46 187/238/46 219/245/46
f 185/236/47 186/237/47 218/246/47
f 184/235/48 185/236/48 217/247/48
f 183/234/49 184/235/49 216/248/49
f 182/233/50 183/234/50 215/249/50
f 181/232/51 182/233/51 214/250/51
f 180/231/52 181/232/52 213/251/52
f 179/230/53 180/231/53 212/252/53
f 178/229/54 179/230/54 211/253/54
f 177/228/55 178/229/55 210/254/55
f 176/227/56 177/228/56 209/255/56
f 175/226/57 176/227/57 208/256/57
f 174/225/58 175/226/58 207/257/58
f 173/224/59 174/225/59 206/258/59
f 172/223/60 173/224/60 205/259/60
f 171/222/61 172/223/61 204/260/61
f 170/221/62 171/222/62 203/261/62
f 169/220/63 170/221/63 202/262/63
f 168/219/64 169/220/64 201/263/64
f 167/218/65 168/219/65 200/264/65
f 166/217/66 167/218/66 199/265/66
f 165/216/67 166/217/67 198/266/67
f 164/215/68 165/216/68 197/267/68
f 163/214/69 164/215/69 196/268/69
f 162/213/70 163/214/70 195/269/70
f 161/212/71 162/213/71 194/270/71
f 160/211/72 161/212/72 193/271/72
f 159/209/73 160/211/73 192/272/73
f 190/210/74 159/209/74 191/273/74
f 224/307/107 225/308/107 223/309/107
f 227/310/108 224/311/108 223/312/108
f 225/308/109 226/313/109 223/314/109
f 223/314/110 226/313/110 227/315/110
f 227/310/1 228/316/1 231/317/1
f 230/318/111 228/319/111 227/315/111
f 230/318/111 227/315/111 226/313/111
f 227/310/1 229/320/1 224/311/1
f 227/310/1 231/317/1 229/320/1
f 231/317/1 234/321/1 229/320/1
f 232/322/1 233/323/1 231/317/1
f 228/316/1 232/322/1 231/317/1
f 231/317/1 233/323/1 234/321/1
f 229/320/1 234/321/1 235/324/1
f 234/321/1 237/325/1 235/324/1
f 233/323/1 236/326/1 234/321/1
f 234/321/1 236/326/1 237/325/1
f 236/326/1 239/327/1 237/325/1
f 240/328/112 238/329/112 237/330/112
f 238/329/113 235/331/113 237/330/113
f 240/328/112 237/330/112 239/332/112
f 240/328/4 241/333/4 244/334/4
f 243/335/4 241/333/4 240/328/4
f 240/328/4 244/334/4 238/329/4
f 245/336/114 242/337/114 240/328/114
f 243/335/4 240/328/4 242/337/4
f 245/336/114 240/328/114 239/332/114
f 246/338/1 247/339/1 245/340/1
f 239/327/1 246/338/1 245/340/1
f 248/341/115 242/337/115 245/336/115
f 248/341/115 245/336/115 247/342/115
f 248/341/4 249/343/4 243/335/4
f 251/344/4 249/343/4 248/341/4
f 248/341/4 243/335/4 242/337/4
f 250/345/116 248/341/116 247/342/116
f 251/344/4 248/341/4 250/345/4
f 252/346/4 251/344/4 250/345/4
f 254/347/4 251/344/4 252/346/4
f 254/347/4 253/348/4 251/344/4
f 253/348/4 249/343/4 251/344/4
f 256/349/4 254/347/4 252/346/4
f 257/350/4 255/351/4 254/347/4
f 255/351/4 253/348/4 254/347/4
f 257/350/4 254/347/4 256/349/4
f 261/352/4 258/353/4 257/350/4
f 260/354/4 257/350/4 258/353/4
f 260/354/4 259/355/4 257/350/4
f 259/355/4 255/351/4 257/350/4
f 261/352/4 257/350/4 256/349/4
f 262/356/4 261/352/4 256/349/4
f 263/357/117 261/352/117 262/356/117
f 264/358/118 258/353/118 261/352/118
f 264/358/118 261/352/118 263/357/118
f 265/359/1 264/358/1 263/357/1
f 265/359/1 266/360/1 264/358/1
f 266/360/10 258/353/10 264/358/10
f 267/361/119 260/354/119 266/360/119
f 268/362/1 267/361/1 266/360/1
f 266/360/10 260/354/10 258/353/10
f 265/359/1 268/362/1 266/360/1
f 271/363/1 268/362/1 265/359/1
f 268/362/1 269/364/1 267/361/1
f 272/365/1 269/364/1 268/362/1
f 271/363/1 270/366/1 268/362/1
f 272/365/1 268/362/1 270/366/1
f 273/367/1 272/365/1 270/366/1
f 275/368/1 272/365/1 273/367/1
f 275/368/1 274/369/1 272/365/1
f 274/369/1 269/364/1 272/365/1
f 278/370/1 276/371/1 275/368/1
f 276/371/1 274/369/1 275/368/1
f 277/372/1 275/368/1 273/367/1
f 278/370/1 275/368/1 277/372/1
f 279/373/1 276/371/1 278/370/1
f 281/374/1 278/370/1 277/372/1
f 280/375/1 279/373/1 278/370/1
f 281/374/1 280/375/1 278/370/1
f 284/376/1 280/375/1 281/374/1
f 282/377/1 281/374/1 277/372/1
f 283/378/1 281/374/1 282/377/1
f 284/376/1 281/374/1 283/378/1
f 285/379/1 280/375/1 284/376/1
f 287/380/1 284/376/1 283/378/1
f 286/381/1 285/379/1 284/376/1
f 287/380/1 286/381/1 284/376/1
f 288/382/1 286/381/1 287/380/1
f 290/383/1 288/382/1 287/380/1
f 289/384/1 287/380/1 283/378/1
f 290/383/1 287/380/1 289/384/1
f 292/385/1 288/382/1 290/383/1
f 291/386/1 290/383/1 289/384/1
f 293/387/1 290/383/1 291/386/1
f 293/387/1 292/385/1 290/383/1
f 293/387/1 296/388/1 232/322/1
f 295/389/1 293/387/1 232/322/1
f 297/390/1 292/385/1 293/387/1
f 293/387/1 291/386/1 296/388/1
f 295/389/1 294/391/1 293/387/1
f 297/390/1 293/387/1 294/391/1
f 298/392/120 297/393/120 294/394/120
f 300/395/121 297/393/121 298/392/121
f 299/396/1 292/385/1 297/390/1
f 300/395/121 299/397/121 297/393/121
f 303/398/4 300/395/4 298/392/4
f 301/399/122 299/397/122 300/395/122
f 302/400/4 301/399/4 300/395/4
f 303/398/4 302/400/4 300/395/4
f 304/401/4 303/398/4 298/392/4
f 305/402/4 303/398/4 304/401/4
f 306/403/4 302/400/4 303/398/4
f 306/403/4 303/398/4 305/402/4
f 309/404/4 307/405/4 306/403/4
f 307/405/4 302/400/4 306/403/4
f 308/406/4 306/403/4 305/402/4
f 309/404/4 306/403/4 308/406/4
f 310/407/4 307/405/4 309/404/4
f 311/408/4 309/404/4 308/406/4
f 312/409/4 310/407/4 309/404/4
f 312/409/4 309/404/4 311/408/4
f 314/410/4 312/409/4 311/408/4
f 315/411/123 285/412/123 312/409/123
f 285/412/124 310/407/124 312/409/124
f 314/410/4 313/413/4 312/409/4
f 315/411/123 312/409/123 313/413/123
f 285/379/1 315/414/1 280/375/1
f 280/375/1 315/414/1 279/373/1
f 316/415/125 315/411/125 313/413/125
f 316/415/125 279/416/125 315/411/125
f 319/417/4 316/415/4 317/418/4
f 316/415/4 314/410/4 317/418/4
f 320/419/126 279/416/126 316/415/126
f 319/417/4 318/420/4 316/415/4
f 320/419/126 316/415/126 318/420/126
f 316/415/4 313/413/4 314/410/4
f 279/373/1 320/421/1 276/371/1
f 320/421/1 322/422/1 276/371/1
f 321/423/127 320/419/127 318/420/127
f 320/421/1 321/424/1 322/422/1
f 322/422/1 323/425/1 324/426/1
f 321/424/1 323/425/1 322/422/1
f 276/371/1 322/422/1 274/369/1
f 322/422/1 324/426/1 274/369/1
f 324/426/1 323/425/1 326/427/1
f 269/364/1 324/426/1 325/428/1
f 274/369/1 324/426/1 269/364/1
f 324/426/1 326/427/1 325/428/1
f 326/427/128 327/429/128 329/430/128
f 326/427/129 328/431/129 327/429/129
f 330/432/130 328/433/130 326/427/130
f 330/432/1 326/427/1 323/425/1
f 326/427/128 329/430/128 325/428/128
f 328/434/131 330/435/131 331/436/131
f 330/435/132 321/423/127 332/437/132
f 321/424/1 330/432/1 323/425/1
f 330/435/132 332/437/132 331/436/132
f 333/438/4 332/437/4 318/420/4
f 334/439/4 332/437/4 333/438/4
f 321/423/127 318/420/127 332/437/132
f 334/439/4 331/436/4 332/437/4
f 335/440/4 334/439/4 333/438/4
f 327/429/4 334/439/4 335/440/4
f 327/429/4 331/436/4 334/439/4
f 336/441/4 335/440/4 337/442/4
f 329/430/4 335/440/4 336/441/4
f 327/429/4 335/440/4 329/430/4
f 335/440/4 333/438/4 337/442/4
f 337/442/4 333/438/4 319/417/4
f 338/443/4 337/442/4 339/444/4
f 336/441/4 337/442/4 338/443/4
f 337/442/4 319/417/4 339/444/4
f 339/444/4 319/417/4 317/418/4
f 340/445/4 339/444/4 341/446/4
f 338/443/4 339/444/4 340/445/4
f 339/444/4 317/418/4 341/446/4
f 317/418/4 343/447/4 341/446/4
f 341/446/4 344/448/4 342/449/4
f 340/445/4 341/446/4 342/449/4
f 341/446/4 343/447/4 344/448/4
f 342/449/4 344/448/4 345/450/4
f 345/450/4 344/448/4 346/451/4
f 344/448/4 343/447/4 347/452/4
f 344/448/4 347/452/4 346/451/4
f 343/447/4 311/408/4 347/452/4
f 311/408/4 308/406/4 347/452/4
f 347/452/4 348/453/4 346/451/4
f 347/452/4 308/406/4 348/453/4
f 346/451/4 348/453/4 349/454/4
f 348/453/4 350/455/4 349/454/4
f 308/406/4 305/402/4 348/453/4
f 348/453/4 305/402/4 350/455/4
f 351/456/4 350/455/4 304/401/4
f 352/457/4 350/455/4 351/456/4
f 305/402/4 304/401/4 350/455/4
f 352/457/4 349/454/4 350/455/4
f 355/458/4 353/459/4 352/457/4
f 353/459/4 349/454/4 352/457/4
f 354/460/4 352/457/4 351/456/4
f 355/458/4 352/457/4 354/460/4
f 241/333/4 355/458/4 354/460/4
f 356/461/4 355/458/4 241/333/4
f 357/462/4 353/459/4 355/458/4
f 357/462/4 355/458/4 356/461/4
f 359/463/4 358/464/4 357/462/4
f 358/464/4 345/450/4 357/462/4
f 345/450/4 353/459/4 357/462/4
f 359/463/4 357/462/4 356/461/4
f 249/343/4 359/463/4 356/461/4
f 253/348/4 359/463/4 249/343/4
f 360/465/4 358/464/4 359/463/4
f 360/465/4 359/463/4 253/348/4
f 255/351/4 360/465/4 253/348/4
f 362/466/4 360/465/4 255/351/4
f 362/466/4 361/467/4 360/465/4
f 361/467/4 358/464/4 360/465/4
f 259/355/4 362/466/4 255/351/4
f 362/466/4 338/443/4 340/445/4
f 259/355/4 338/443/4 362/466/4
f 362/466/4 340/445/4 361/467/4
f 361/467/4 340/445/4 342/449/4
f 361/467/4 363/468/4 358/464/4
f 361/467/4 342/449/4 363/468/4
f 358/464/4 363/468/4 345/450/4
f 342/449/4 345/450/4 363/468/4
f 356/461/4 241/333/4 243/335/4
f 249/343/4 356/461/4 243/335/4
f 244/334/4 354/460/4 364/469/4
f 241/333/4 354/460/4 244/334/4
f 354/460/4 351/456/4 364/469/4
f 365/470/4 364/469/4 366/471/4
f 244/334/4 364/469/4 365/470/4
f 364/469/4 367/472/4 366/471/4
f 364/469/4 351/456/4 367/472/4
f 367/472/4 230/318/4 366/471/4
f 367/472/4 368/473/4 230/318/4
f 304/401/4 368/473/4 367/472/4
f 351/456/4 304/401/4 367/472/4
f 368/473/133 228/319/133 230/318/133
f 304/401/4 369/474/4 368/473/4
f 369/474/134 295/475/134 368/473/134
f 368/473/133 295/475/133 228/319/133
f 304/401/4 298/392/4 369/474/4
f 298/392/120 294/394/120 369/474/120
f 369/474/134 294/394/134 295/475/134
f 366/471/4 226/313/4 370/476/4
f 365/470/4 366/471/4 370/476/4
f 366/471/4 230/318/4 226/313/4
f 371/477/4 365/470/4 370/476/4
f 225/308/4 370/476/4 226/313/4
f 371/477/4 370/476/4 225/308/4
f 238/329/4 365/470/4 371/477/4
f 238/329/113 371/477/113 235/331/113
f 371/477/135 225/308/135 224/307/135
f 371/477/135 224/307/135 235/331/135
f 238/329/4 244/334/4 365/470/4
f 353/459/4 372/478/4 349/454/4
f 345/450/4 372/478/4 353/459/4
f 346/451/4 349/454/4 372/478/4
f 345/450/4 346/451/4 372/478/4
f 317/418/4 314/410/4 343/447/4
f 343/447/4 314/410/4 311/408/4
f 259/355/4 336/441/4 338/443/4
f 373/479/4 336/441/4 259/355/4
f 329/430/4 336/441/4 373/479/4
f 267/361/119 373/479/119 260/354/119
f 325/428/136 373/479/136 267/361/136
f 373/479/4 259/355/4 260/354/4
f 325/428/136 329/430/136 373/479/136
f 333/438/4 318/420/4 319/417/4
f 327/429/137 328/431/137 331/436/137
f 269/364/1 325/428/1 267/361/1
f 285/412/124 374/480/124 310/407/124
f 374/480/138 375/481/138 310/407/138
f 310/407/4 375/481/4 307/405/4
f 375/481/4 378/482/4 307/405/4
f 374/480/138 376/483/138 375/481/138
f 376/483/139 377/484/139 375/481/139
f 375/481/4 377/484/4 378/482/4
f 302/400/4 378/482/4 301/399/4
f 377/484/4 301/399/4 378/482/4
f 307/405/4 378/482/4 302/400/4
f 376/483/139 379/485/139 377/484/139
f 377/484/140 379/485/140 380/486/140
f 377/484/141 380/486/141 301/399/141
f 381/487/142 380/488/142 379/489/142
f 301/399/143 380/490/143 381/491/143
f 301/399/122 381/491/122 299/397/122
f 381/487/1 383/492/1 299/396/1
f 381/487/1 382/493/1 383/492/1
f 381/487/1 379/489/1 382/493/1
f 299/396/1 383/492/1 292/385/1
f 292/385/1 383/492/1 288/382/1
f 383/492/1 384/494/1 288/382/1
f 383/492/1 382/493/1 384/494/1
f 288/382/1 384/494/1 286/381/1
f 384/494/1 374/495/1 286/381/1
f 384/494/1 376/496/1 374/495/1
f 382/493/1 376/496/1 384/494/1
f 382/493/1 379/489/1 376/496/1
f 286/381/1 374/495/1 285/379/1
f 232/322/1 296/388/1 233/323/1
f 291/386/1 385/497/1 296/388/1
f 296/388/1 385/497/1 386/498/1
f 296/388/1 386/498/1 233/323/1
f 233/323/1 386/498/1 236/326/1
f 386/498/1 388/499/1 236/326/1
f 385/497/1 387/500/1 386/498/1
f 386/498/1 387/500/1 388/499/1
f 236/326/1 388/499/1 239/327/1
f 239/327/1 388/499/1 246/338/1
f 388/499/1 387/500/1 389/501/1
f 388/499/1 389/501/1 246/338/1
f 389/501/1 392/502/1 246/338/1
f 390/503/1 391/504/1 389/501/1
f 387/500/1 390/503/1 389/501/1
f 389/501/1 391/504/1 392/502/1
f 246/338/1 392/502/1 247/339/1
f 247/339/1 392/502/1 393/505/1
f 392/502/1 391/504/1 394/506/1
f 392/502/1 394/506/1 393/505/1
f 393/505/1 394/506/1 396/507/1
f 394/506/1 395/508/1 271/363/1
f 391/504/1 395/508/1 394/506/1
f 394/506/1 271/363/1 396/507/1
f 397/509/1 396/507/1 398/510/1
f 393/505/1 396/507/1 397/509/1
f 396/507/1 271/363/1 265/359/1
f 396/507/1 265/359/1 398/510/1
f 398/510/1 400/511/1 399/512/1
f 397/509/1 398/510/1 399/512/1
f 265/359/1 263/357/1 398/510/1
f 398/510/1 263/357/1 400/511/1
f 402/513/1 399/512/1 400/511/1
f 401/514/144 400/511/144 262/356/144
f 402/513/145 400/511/145 401/514/145
f 263/357/117 262/356/117 400/511/117
f 404/515/1 399/512/1 402/513/1
f 401/516/146 403/517/146 402/518/146
f 403/517/147 404/519/147 402/518/147
f 404/515/1 397/509/1 399/512/1
f 406/520/1 397/509/1 404/515/1
f 403/517/147 405/521/148 404/519/147
f 405/521/148 406/522/148 404/519/147
f 406/520/1 393/505/1 397/509/1
f 247/339/1 393/505/1 406/520/1
f 405/521/148 250/345/148 406/522/148
f 250/345/116 247/342/116 406/522/116
f 407/523/4 252/346/4 405/521/4
f 252/346/4 250/345/4 405/521/4
f 407/523/4 405/521/4 403/517/4
f 262/356/4 407/523/4 403/517/4
f 262/356/4 256/349/4 407/523/4
f 256/349/4 252/346/4 407/523/4
f 262/356/149 403/517/149 401/516/149
f 391/504/1 408/524/1 395/508/1
f 408/524/1 409/525/1 395/508/1
f 395/508/1 409/525/1 270/366/1
f 395/508/1 270/366/1 271/363/1
f 411/526/1 273/367/1 409/525/1
f 273/367/1 270/366/1 409/525/1
f 408/524/1 410/527/1 409/525/1
f 411/526/1 409/525/1 410/527/1
f 412/528/1 282/377/1 411/526/1
f 282/377/1 277/372/1 411/526/1
f 412/528/1 411/526/1 410/527/1
f 277/372/1 273/367/1 411/526/1
f 412/528/1 408/524/1 390/503/1
f 414/529/1 412/528/1 390/503/1
f 415/530/1 282/377/1 412/528/1
f 412/528/1 410/527/1 408/524/1
f 414/529/1 413/531/1 412/528/1
f 415/530/1 412/528/1 413/531/1
f 416/532/1 289/384/1 415/530/1
f 289/384/1 283/378/1 415/530/1
f 416/532/1 415/530/1 413/531/1
f 283/378/1 282/377/1 415/530/1
f 291/386/1 416/532/1 385/497/1
f 416/532/1 414/529/1 385/497/1
f 291/386/1 289/384/1 416/532/1
f 416/532/1 413/531/1 414/529/1
f 385/497/1 414/529/1 387/500/1
f 387/500/1 414/529/1 390/503/1
f 390/503/1 408/524/1 391/504/1
f 228/316/1 295/389/1 232/322/1
f 229/320/1 235/324/1 224/311/1
