# Blender 4.4.1
# www.blender.org
mtllib cornerEnemy.mtl
o 球
v 0.000000 0.573643 -0.555570
v 0.000000 0.339741 -0.831470
v 0.000000 0.034134 -0.980785
v 0.000000 -0.131260 -1.000000
v 0.000000 -0.296653 -0.980785
v 0.000000 -0.602261 -0.831470
v 0.038060 0.700230 -0.191342
v 0.074658 0.651986 -0.375330
v 0.108386 0.573643 -0.544895
v 0.137950 0.468211 -0.693520
v 0.162212 0.339741 -0.815493
v 0.180240 0.193172 -0.906127
v 0.191342 0.034134 -0.961940
v 0.195090 -0.131260 -0.980785
v 0.191342 -0.296653 -0.961940
v 0.180240 -0.455691 -0.906127
v 0.162212 -0.602261 -0.815493
v 0.137950 -0.730730 -0.693520
v 0.108386 -0.836163 -0.544895
v 0.074658 -0.914506 -0.375330
v 0.038060 -0.962749 -0.191342
v 0.074658 0.700230 -0.180240
v 0.146447 0.651986 -0.353553
v 0.212608 0.573643 -0.513280
v 0.270598 0.468211 -0.653281
v 0.318190 0.339741 -0.768178
v 0.353553 0.193172 -0.853553
v 0.375330 0.034134 -0.906127
v 0.382683 -0.131260 -0.923879
v 0.375330 -0.296653 -0.906127
v 0.353553 -0.455691 -0.853553
v 0.318190 -0.602261 -0.768178
v 0.270598 -0.730730 -0.653281
v 0.212608 -0.836163 -0.513280
v 0.146447 -0.914506 -0.353553
v 0.074658 -0.962749 -0.180240
v 0.108386 0.700230 -0.162212
v 0.212608 0.651986 -0.318190
v 0.308658 0.573643 -0.461940
v 0.392847 0.468211 -0.587938
v 0.461940 0.339741 -0.691342
v 0.513280 0.193172 -0.768178
v 0.544895 0.034134 -0.815493
v 0.555570 -0.131260 -0.831469
v 0.544895 -0.296653 -0.815493
v 0.513280 -0.455691 -0.768178
v 0.461940 -0.602261 -0.691342
v 0.392847 -0.730730 -0.587938
v 0.308658 -0.836163 -0.461940
v 0.212608 -0.914506 -0.318190
v 0.108386 -0.962749 -0.162212
v 0.137950 0.700230 -0.137950
v 0.270598 0.651986 -0.270598
v 0.392847 0.573643 -0.392847
v 0.500000 0.468211 -0.500000
v 0.587938 0.339741 -0.587938
v 0.653281 0.193172 -0.653281
v 0.693520 0.034134 -0.693520
v 0.707107 -0.131260 -0.707107
v 0.693520 -0.296653 -0.693520
v 0.653281 -0.455691 -0.653281
v 0.587938 -0.602261 -0.587938
v 0.500000 -0.730730 -0.500000
v 0.392847 -0.836163 -0.392847
v 0.270598 -0.914506 -0.270598
v 0.137950 -0.962749 -0.137950
v 0.162212 0.700230 -0.108386
v 0.318190 0.651986 -0.212608
v 0.461940 0.573643 -0.308658
v 0.587938 0.468211 -0.392847
v 0.691342 0.339741 -0.461940
v 0.768178 0.193172 -0.513280
v 0.815493 0.034134 -0.544895
v 0.831470 -0.131260 -0.555570
v 0.815493 -0.296653 -0.544895
v 0.768178 -0.455691 -0.513280
v 0.691342 -0.602261 -0.461940
v 0.587938 -0.730730 -0.392847
v 0.461940 -0.836163 -0.308658
v 0.318190 -0.914506 -0.212608
v 0.162212 -0.962749 -0.108386
v 0.000000 0.716520 0.000000
v 0.180240 0.700230 -0.074658
v 0.353553 0.651986 -0.146447
v 0.513280 0.573643 -0.212607
v 0.653281 0.468211 -0.270598
v 0.768178 0.339741 -0.318190
v 0.853553 0.193172 -0.353553
v 0.906127 0.034134 -0.375330
v 0.923879 -0.131260 -0.382683
v 0.906127 -0.296653 -0.375330
v 0.853553 -0.455691 -0.353553
v 0.768178 -0.602261 -0.318190
v 0.653281 -0.730730 -0.270598
v 0.513280 -0.836163 -0.212607
v 0.353553 -0.914506 -0.146447
v 0.180240 -0.962749 -0.074658
v 0.191342 0.700230 -0.038060
v 0.375330 0.651986 -0.074658
v 0.544895 0.573643 -0.108386
v 0.693520 0.468211 -0.137950
v 0.815493 0.339741 -0.162212
v 0.906127 0.193172 -0.180240
v 0.961940 0.034134 -0.191342
v 0.980785 -0.131260 -0.195090
v 0.961940 -0.296653 -0.191342
v 0.906127 -0.455691 -0.180240
v 0.815493 -0.602261 -0.162212
v 0.693520 -0.730730 -0.137950
v 0.544895 -0.836163 -0.108386
v 0.375330 -0.914506 -0.074658
v 0.191342 -0.962749 -0.038060
v 0.195090 0.700230 0.000000
v 0.382683 0.651986 0.000000
v 0.555570 0.573643 0.000000
v 0.707107 0.468211 -0.000000
v 0.831469 0.339741 0.000000
v 0.923879 0.193172 -0.000000
v 0.980785 0.034134 0.000000
v 1.000000 -0.131260 0.000000
v 0.980785 -0.296653 0.000000
v 0.923879 -0.455691 -0.000000
v 0.831469 -0.602261 0.000000
v 0.707107 -0.730730 -0.000000
v 0.555570 -0.836163 0.000000
v 0.382683 -0.914506 0.000000
v 0.195090 -0.962749 0.000000
v 0.191342 0.700230 0.038060
v 0.375330 0.651986 0.074658
v 0.544895 0.573643 0.108386
v 0.693520 0.468211 0.137950
v 0.815493 0.339741 0.162212
v 0.906127 0.193172 0.180240
v 0.961940 0.034134 0.191342
v 0.980785 -0.131260 0.195090
v 0.961940 -0.296653 0.191342
v 0.906127 -0.455691 0.180240
v 0.815493 -0.602261 0.162212
v 0.693520 -0.730730 0.137950
v 0.544895 -0.836163 0.108386
v 0.375330 -0.914506 0.074658
v 0.191342 -0.962749 0.038060
v 0.180240 0.700230 0.074658
v 0.353553 0.651986 0.146447
v 0.513280 0.573643 0.212608
v 0.653281 0.468211 0.270598
v 0.768178 0.339741 0.318190
v 0.853553 0.193172 0.353553
v 0.906127 0.034134 0.375330
v 0.923879 -0.131260 0.382683
v 0.906127 -0.296653 0.375330
v 0.853553 -0.455691 0.353553
v 0.768178 -0.602261 0.318190
v 0.653281 -0.730730 0.270598
v 0.513280 -0.836163 0.212608
v 0.353553 -0.914506 0.146447
v 0.180240 -0.962749 0.074658
v 0.162212 0.700230 0.108386
v 0.318190 0.651986 0.212608
v 0.461940 0.573643 0.308658
v 0.587938 0.468211 0.392847
v 0.691341 0.339741 0.461940
v 0.768178 0.193172 0.513280
v 0.815493 0.034134 0.544895
v 0.831469 -0.131260 0.555570
v 0.815493 -0.296653 0.544895
v 0.768178 -0.455691 0.513280
v 0.691341 -0.602261 0.461940
v 0.587938 -0.730730 0.392847
v 0.461940 -0.836163 0.308658
v 0.318190 -0.914506 0.212608
v 0.162212 -0.962749 0.108386
v 0.137950 0.700230 0.137950
v 0.270598 0.651986 0.270598
v 0.392847 0.573643 0.392847
v 0.500000 0.468211 0.500000
v 0.587938 0.339741 0.587938
v 0.653281 0.193172 0.653281
v 0.693520 0.034134 0.693520
v 0.707106 -0.131260 0.707107
v 0.693520 -0.296653 0.693520
v 0.653281 -0.455691 0.653281
v 0.587938 -0.602261 0.587938
v 0.500000 -0.730730 0.500000
v 0.392847 -0.836163 0.392847
v 0.270598 -0.914506 0.270598
v 0.137950 -0.962749 0.137950
v 0.108386 0.700230 0.162212
v 0.212607 0.651986 0.318190
v 0.308658 0.573643 0.461940
v 0.392847 0.468211 0.587938
v 0.461940 0.339741 0.691342
v 0.513280 0.193172 0.768178
v 0.544895 0.034134 0.815493
v 0.555570 -0.131260 0.831469
v 0.544895 -0.296653 0.815493
v 0.513280 -0.455691 0.768178
v 0.461940 -0.602261 0.691342
v 0.392847 -0.730730 0.587938
v 0.308658 -0.836163 0.461940
v 0.212607 -0.914506 0.318190
v 0.108386 -0.962749 0.162212
v 0.074658 0.700230 0.180240
v 0.146447 0.651986 0.353553
v 0.212607 0.573643 0.513280
v 0.270598 0.468211 0.653281
v 0.318189 0.339741 0.768178
v 0.353553 0.193172 0.853553
v 0.375330 0.034134 0.906127
v 0.382683 -0.131260 0.923879
v 0.375330 -0.296653 0.906127
v 0.353553 -0.455691 0.853553
v 0.318189 -0.602261 0.768178
v 0.270598 -0.730730 0.653281
v 0.212607 -0.836163 0.513280
v 0.146447 -0.914506 0.353553
v 0.074658 -0.962749 0.180240
v 0.038060 0.700230 0.191342
v 0.074658 0.651986 0.375330
v 0.108386 0.573643 0.544895
v 0.137950 0.468211 0.693520
v 0.162212 0.339741 0.815493
v 0.180240 0.193172 0.906127
v 0.191342 0.034134 0.961939
v 0.195090 -0.131260 0.980785
v 0.191342 -0.296653 0.961939
v 0.180240 -0.455691 0.906127
v 0.162212 -0.602261 0.815493
v 0.137950 -0.730730 0.693520
v 0.108386 -0.836163 0.544895
v 0.074658 -0.914506 0.375330
v 0.038060 -0.962749 0.191342
v -0.000000 0.700230 0.195090
v -0.000000 0.651986 0.382683
v -0.000000 0.573643 0.555570
v -0.000000 0.468211 0.707107
v -0.000000 0.339741 0.831469
v 0.000000 0.193172 0.923879
v -0.000000 0.034134 0.980785
v -0.000000 -0.131260 0.999999
v -0.000000 -0.296653 0.980785
v 0.000000 -0.455691 0.923879
v -0.000000 -0.602261 0.831469
v -0.000000 -0.730730 0.707107
v -0.000000 -0.836163 0.555570
v -0.000000 -0.914506 0.382683
v -0.000000 -0.962749 0.195090
v -0.038060 0.700230 0.191342
v -0.074658 0.651986 0.375330
v -0.108386 0.573643 0.544895
v -0.137950 0.468211 0.693520
v -0.162212 0.339741 0.815493
v -0.180240 0.193172 0.906127
v -0.191342 0.034134 0.961939
v -0.195091 -0.131260 0.980785
v -0.191342 -0.296653 0.961939
v -0.180240 -0.455691 0.906127
v -0.162212 -0.602261 0.815493
v -0.137950 -0.730730 0.693520
v -0.108386 -0.836163 0.544895
v -0.074658 -0.914506 0.375330
v -0.038060 -0.962749 0.191342
v -0.074658 0.700230 0.180240
v -0.146447 0.651986 0.353553
v -0.212608 0.573643 0.513280
v -0.270598 0.468211 0.653281
v -0.318190 0.339741 0.768177
v -0.353553 0.193172 0.853553
v -0.375330 0.034134 0.906127
v -0.382683 -0.131260 0.923879
v -0.375330 -0.296653 0.906127
v -0.353553 -0.455691 0.853553
v -0.318190 -0.602261 0.768177
v -0.270598 -0.730730 0.653281
v -0.212608 -0.836163 0.513280
v -0.146447 -0.914506 0.353553
v -0.074658 -0.962749 0.180240
v -0.108386 0.700230 0.162212
v -0.212608 0.651986 0.318190
v -0.308658 0.573643 0.461939
v -0.392847 0.468211 0.587938
v -0.461940 0.339741 0.691341
v -0.513280 0.193172 0.768178
v -0.544895 0.034134 0.815493
v -0.555570 -0.131260 0.831469
v -0.544895 -0.296653 0.815493
v -0.513280 -0.455691 0.768178
v -0.461940 -0.602261 0.691341
v -0.392847 -0.730730 0.587938
v -0.308658 -0.836163 0.461939
v -0.212608 -0.914506 0.318190
v -0.108386 -0.962749 0.162212
v -0.137950 0.700230 0.137950
v -0.270598 0.651986 0.270598
v -0.392847 0.573643 0.392847
v -0.500000 0.468211 0.500000
v -0.587938 0.339741 0.587937
v -0.653281 0.193172 0.653281
v -0.693520 0.034134 0.693520
v -0.707106 -0.131260 0.707106
v -0.693520 -0.296653 0.693520
v -0.653281 -0.455691 0.653281
v -0.587938 -0.602261 0.587937
v -0.500000 -0.730730 0.500000
v -0.392847 -0.836163 0.392847
v -0.270598 -0.914506 0.270598
v -0.137950 -0.962749 0.137950
v 0.000000 -0.979039 0.000000
v -0.162212 0.700230 0.108386
v -0.318190 0.651986 0.212607
v -0.461940 0.573643 0.308658
v -0.587938 0.468211 0.392847
v -0.691341 0.339741 0.461939
v -0.768177 0.193172 0.513280
v -0.815493 0.034134 0.544895
v -0.831469 -0.131260 0.555569
v -0.815493 -0.296653 0.544895
v -0.768177 -0.455691 0.513280
v -0.691341 -0.602261 0.461939
v -0.587938 -0.730730 0.392847
v -0.461940 -0.836163 0.308658
v -0.318190 -0.914506 0.212607
v -0.162212 -0.962749 0.108386
v -0.180240 0.700230 0.074658
v -0.353553 0.651986 0.146447
v -0.513280 0.573643 0.212607
v -0.653281 0.468211 0.270598
v -0.768177 0.339741 0.318189
v -0.853553 0.193172 0.353553
v -0.906127 0.034134 0.375330
v -0.923879 -0.131260 0.382683
v -0.906127 -0.296653 0.375330
v -0.853553 -0.455691 0.353553
v -0.768177 -0.602261 0.318189
v -0.653281 -0.730730 0.270598
v -0.513280 -0.836163 0.212607
v -0.353553 -0.914506 0.146447
v -0.180240 -0.962749 0.074658
v -0.191342 0.700230 0.038060
v -0.375330 0.651986 0.074658
v -0.544895 0.573643 0.108386
v -0.693520 0.468211 0.137950
v -0.815493 0.339741 0.162211
v -0.906127 0.193172 0.180240
v -0.961939 0.034134 0.191341
v -0.980784 -0.131260 0.195090
v -0.961939 -0.296653 0.191341
v -0.906127 -0.455691 0.180240
v -0.815493 -0.602261 0.162211
v -0.693520 -0.730730 0.137950
v -0.544895 -0.836163 0.108386
v -0.375330 -0.914506 0.074658
v -0.191342 -0.962749 0.038060
v -0.195090 0.700230 -0.000000
v -0.382683 0.651986 -0.000000
v -0.555570 0.573643 -0.000000
v -0.707107 0.468211 -0.000000
v -0.831469 0.339741 -0.000000
v -0.923879 0.193172 -0.000000
v -0.980785 0.034134 -0.000000
v -0.999999 -0.131260 -0.000000
v -0.980785 -0.296653 -0.000000
v -0.923879 -0.455691 -0.000000
v -0.831469 -0.602261 -0.000000
v -0.707107 -0.730730 -0.000000
v -0.555570 -0.836163 -0.000000
v -0.382683 -0.914506 -0.000000
v -0.195090 -0.962749 -0.000000
v -0.191342 0.700230 -0.038060
v -0.375330 0.651986 -0.074658
v -0.544895 0.573643 -0.108386
v -0.693520 0.468211 -0.137950
v -0.815493 0.339741 -0.162212
v -0.906127 0.193172 -0.180240
v -0.961939 0.034134 -0.191342
v -0.980784 -0.131260 -0.195091
v -0.961939 -0.296653 -0.191342
v -0.906127 -0.455691 -0.180240
v -0.815493 -0.602261 -0.162212
v -0.693520 -0.730730 -0.137950
v -0.544895 -0.836163 -0.108386
v -0.375330 -0.914506 -0.074658
v -0.191342 -0.962749 -0.038060
v -0.180240 0.700230 -0.074658
v -0.353553 0.651986 -0.146447
v -0.513279 0.573643 -0.212607
v -0.653281 0.468211 -0.270598
v -0.768177 0.339741 -0.318190
v -0.853553 0.193172 -0.353553
v -0.906127 0.034134 -0.375330
v -0.923878 -0.131260 -0.382683
v -0.906127 -0.296653 -0.375330
v -0.853553 -0.455691 -0.353553
v -0.768177 -0.602261 -0.318190
v -0.653281 -0.730730 -0.270598
v -0.513279 -0.836163 -0.212607
v -0.353553 -0.914506 -0.146447
v -0.180240 -0.962749 -0.074658
v -0.162212 0.700230 -0.108386
v -0.318189 0.651986 -0.212607
v -0.461939 0.573643 -0.308658
v -0.587938 0.468211 -0.392847
v -0.691341 0.339741 -0.461940
v -0.768177 0.193172 -0.513280
v -0.815493 0.034134 -0.544895
v -0.831468 -0.131260 -0.555570
v -0.815493 -0.296653 -0.544895
v -0.768177 -0.455691 -0.513280
v -0.691341 -0.602261 -0.461940
v -0.587938 -0.730730 -0.392847
v -0.461939 -0.836163 -0.308658
v -0.318189 -0.914506 -0.212607
v -0.162212 -0.962749 -0.108386
v -0.137950 0.700230 -0.137950
v -0.270598 0.651986 -0.270598
v -0.392847 0.573643 -0.392847
v -0.500000 0.468211 -0.500000
v -0.587937 0.339741 -0.587938
v -0.653281 0.193172 -0.653281
v -0.693519 0.034134 -0.693520
v -0.707106 -0.131260 -0.707106
v -0.693519 -0.296653 -0.693520
v -0.653281 -0.455691 -0.653281
v -0.587937 -0.602261 -0.587938
v -0.500000 -0.730730 -0.500000
v -0.392847 -0.836163 -0.392847
v -0.270598 -0.914506 -0.270598
v -0.137950 -0.962749 -0.137950
v -0.108386 0.700230 -0.162212
v -0.212607 0.651986 -0.318190
v -0.308658 0.573643 -0.461939
v -0.392847 0.468211 -0.587938
v -0.461939 0.339741 -0.691341
v -0.513280 0.193172 -0.768177
v -0.544895 0.034134 -0.815493
v -0.555569 -0.131260 -0.831469
v -0.544895 -0.296653 -0.815493
v -0.513280 -0.455691 -0.768177
v -0.461939 -0.602261 -0.691341
v -0.392847 -0.730730 -0.587938
v -0.308658 -0.836163 -0.461939
v -0.212607 -0.914506 -0.318190
v -0.108386 -0.962749 -0.162212
v -0.074658 0.700230 -0.180240
v -0.146446 0.651986 -0.353553
v -0.212607 0.573643 -0.513279
v -0.270598 0.468211 -0.653281
v -0.318189 0.339741 -0.768177
v -0.353553 0.193172 -0.853553
v -0.375330 0.034134 -0.906127
v -0.382683 -0.131260 -0.923879
v -0.375330 -0.296653 -0.906127
v -0.353553 -0.455691 -0.853553
v -0.318189 -0.602261 -0.768177
v -0.270598 -0.730730 -0.653281
v -0.212607 -0.836163 -0.513279
v -0.146446 -0.914506 -0.353553
v -0.074658 -0.962749 -0.180240
v -0.038060 0.700230 -0.191342
v -0.074658 0.651986 -0.375330
v -0.108386 0.573643 -0.544895
v -0.137950 0.468211 -0.693520
v -0.162211 0.339741 -0.815493
v -0.180240 0.193172 -0.906127
v -0.191341 0.034134 -0.961939
v -0.195090 -0.131260 -0.980784
v -0.191341 -0.296653 -0.961939
v -0.180240 -0.455691 -0.906127
v -0.162211 -0.602261 -0.815493
v -0.137950 -0.730730 -0.693520
v -0.108386 -0.836163 -0.544895
v -0.074658 -0.914506 -0.375330
v -0.038060 -0.962749 -0.191342
v 0.000000 0.700230 -0.195090
v 0.000000 0.651986 -0.382683
v 0.000000 0.468211 -0.707107
v 0.000000 0.193172 -0.923879
v 0.000000 -0.455691 -0.923879
v 0.000000 -0.730730 -0.707107
v 0.000000 -0.836163 -0.555570
v 0.000000 -0.914506 -0.382683
v 0.000000 -0.962749 -0.195090
vn 0.0706 -0.6938 -0.7167
vn 0.0706 0.6938 -0.7167
vn 0.0562 -0.8196 -0.5702
vn 0.0830 0.5315 -0.8430
vn 0.0406 -0.9101 -0.4124
vn 0.0923 0.3355 -0.9375
vn 0.0245 -0.9682 -0.2490
vn 0.0974 0.1149 -0.9886
vn 0.0082 0.9965 -0.0832
vn 0.0082 -0.9965 -0.0832
vn 0.0974 -0.1149 -0.9886
vn 0.0245 0.9682 -0.2490
vn 0.0923 -0.3355 -0.9375
vn 0.0406 0.9101 -0.4124
vn 0.0830 -0.5315 -0.8430
vn 0.0562 0.8196 -0.5702
vn 0.2459 -0.5315 -0.8106
vn 0.1663 0.8196 -0.5483
vn 0.2091 -0.6938 -0.6892
vn 0.2091 0.6938 -0.6892
vn 0.1663 -0.8196 -0.5483
vn 0.2459 0.5315 -0.8106
vn 0.1203 -0.9101 -0.3966
vn 0.2735 0.3355 -0.9015
vn 0.0726 -0.9682 -0.2394
vn 0.2884 0.1149 -0.9506
vn 0.0243 0.9965 -0.0800
vn 0.0243 -0.9965 -0.0800
vn 0.2884 -0.1149 -0.9506
vn 0.0726 0.9682 -0.2394
vn 0.2735 -0.3355 -0.9015
vn 0.1203 0.9101 -0.3966
vn 0.1179 -0.9682 -0.2207
vn 0.4683 0.1149 -0.8761
vn 0.0394 0.9965 -0.0737
vn 0.0394 -0.9965 -0.0737
vn 0.4683 -0.1149 -0.8761
vn 0.1179 0.9682 -0.2207
vn 0.4441 -0.3355 -0.8308
vn 0.1953 0.9101 -0.3655
vn 0.3993 -0.5315 -0.7470
vn 0.2701 0.8196 -0.5053
vn 0.3395 -0.6938 -0.6351
vn 0.3395 0.6938 -0.6351
vn 0.2701 -0.8196 -0.5053
vn 0.3993 0.5315 -0.7470
vn 0.1953 -0.9101 -0.3655
vn 0.4441 0.3355 -0.8308
vn 0.3635 0.8196 -0.4429
vn 0.4569 -0.6938 -0.5567
vn 0.4569 0.6938 -0.5567
vn 0.3635 -0.8196 -0.4429
vn 0.5374 0.5315 -0.6548
vn 0.2629 -0.9101 -0.3203
vn 0.5976 0.3355 -0.7282
vn 0.1587 -0.9682 -0.1934
vn 0.6302 0.1149 -0.7679
vn 0.0530 0.9965 -0.0646
vn 0.0530 -0.9965 -0.0646
vn 0.6302 -0.1149 -0.7679
vn 0.1587 0.9682 -0.1934
vn 0.5976 -0.3355 -0.7282
vn 0.2629 0.9101 -0.3203
vn 0.5374 -0.5315 -0.6548
vn 0.7679 0.1149 -0.6302
vn 0.0646 0.9965 -0.0530
vn 0.0646 -0.9965 -0.0530
vn 0.7679 -0.1149 -0.6302
vn 0.1934 0.9682 -0.1587
vn 0.7282 -0.3355 -0.5976
vn 0.3203 0.9101 -0.2629
vn 0.6548 -0.5315 -0.5374
vn 0.4429 0.8196 -0.3635
vn 0.5567 -0.6938 -0.4569
vn 0.5567 0.6938 -0.4569
vn 0.4429 -0.8196 -0.3635
vn 0.6548 0.5315 -0.5374
vn 0.3203 -0.9101 -0.2629
vn 0.7282 0.3355 -0.5976
vn 0.1934 -0.9682 -0.1587
vn 0.6351 -0.6938 -0.3395
vn 0.6351 0.6938 -0.3395
vn 0.5053 -0.8196 -0.2701
vn 0.7470 0.5315 -0.3993
vn 0.3655 -0.9101 -0.1953
vn 0.8308 0.3355 -0.4441
vn 0.2207 -0.9682 -0.1179
vn 0.8761 0.1149 -0.4683
vn 0.0737 0.9965 -0.0394
vn 0.0737 -0.9965 -0.0394
vn 0.8761 -0.1149 -0.4683
vn 0.2207 0.9682 -0.1179
vn 0.8308 -0.3355 -0.4441
vn 0.3655 0.9101 -0.1953
vn 0.7470 -0.5315 -0.3993
vn 0.5053 0.8196 -0.2701
vn 0.0800 -0.9965 -0.0243
vn 0.9506 -0.1149 -0.2884
vn 0.2394 0.9682 -0.0726
vn 0.9015 -0.3355 -0.2735
vn 0.3966 0.9101 -0.1203
vn 0.8106 -0.5315 -0.2459
vn 0.5483 0.8196 -0.1663
vn 0.6892 -0.6938 -0.2091
vn 0.6892 0.6938 -0.2091
vn 0.5483 -0.8196 -0.1663
vn 0.8106 0.5315 -0.2459
vn 0.3966 -0.9101 -0.1203
vn 0.9015 0.3355 -0.2735
vn 0.2394 -0.9682 -0.0726
vn 0.9506 0.1149 -0.2884
vn 0.0800 0.9965 -0.0243
vn 0.5702 -0.8196 -0.0562
vn 0.8430 0.5315 -0.0830
vn 0.4124 -0.9101 -0.0406
vn 0.9375 0.3355 -0.0923
vn 0.2490 -0.9682 -0.0245
vn 0.9886 0.1149 -0.0974
vn 0.0832 0.9965 -0.0082
vn 0.0832 -0.9965 -0.0082
vn 0.9886 -0.1149 -0.0974
vn 0.2490 0.9682 -0.0245
vn 0.9375 -0.3355 -0.0923
vn 0.4124 0.9101 -0.0406
vn 0.8430 -0.5315 -0.0830
vn 0.5702 0.8196 -0.0562
vn 0.7167 -0.6938 -0.0706
vn 0.7167 0.6938 -0.0706
vn 0.2490 0.9682 0.0245
vn 0.9375 -0.3355 0.0923
vn 0.4124 0.9101 0.0406
vn 0.8430 -0.5315 0.0830
vn 0.5702 0.8196 0.0562
vn 0.7167 -0.6938 0.0706
vn 0.7167 0.6938 0.0706
vn 0.5702 -0.8196 0.0562
vn 0.8430 0.5315 0.0830
vn 0.4124 -0.9101 0.0406
vn 0.9375 0.3355 0.0923
vn 0.2490 -0.9682 0.0245
vn 0.9886 0.1149 0.0974
vn 0.0832 0.9965 0.0082
vn 0.0832 -0.9965 0.0082
vn 0.9886 -0.1149 0.0974
vn 0.8106 0.5315 0.2459
vn 0.3966 -0.9101 0.1203
vn 0.9015 0.3355 0.2735
vn 0.2394 -0.9682 0.0726
vn 0.9506 0.1148 0.2884
vn 0.0800 0.9965 0.0243
vn 0.0800 -0.9965 0.0243
vn 0.9506 -0.1149 0.2884
vn 0.2394 0.9682 0.0726
vn 0.9015 -0.3355 0.2735
vn 0.3966 0.9101 0.1203
vn 0.8106 -0.5315 0.2459
vn 0.5483 0.8196 0.1663
vn 0.6892 -0.6938 0.2091
vn 0.6892 0.6938 0.2091
vn 0.5483 -0.8196 0.1663
vn 0.8308 -0.3355 0.4441
vn 0.3655 0.9101 0.1953
vn 0.7470 -0.5315 0.3993
vn 0.5053 0.8196 0.2701
vn 0.6351 -0.6938 0.3395
vn 0.6351 0.6938 0.3395
vn 0.5053 -0.8196 0.2701
vn 0.7470 0.5315 0.3993
vn 0.3655 -0.9101 0.1953
vn 0.8308 0.3355 0.4441
vn 0.2207 -0.9682 0.1179
vn 0.8761 0.1148 0.4683
vn 0.0737 0.9965 0.0394
vn 0.0737 -0.9965 0.0394
vn 0.8761 -0.1149 0.4683
vn 0.2207 0.9682 0.1179
vn 0.3203 -0.9101 0.2629
vn 0.7282 0.3355 0.5976
vn 0.1934 -0.9682 0.1587
vn 0.7679 0.1148 0.6302
vn 0.0646 0.9965 0.0530
vn 0.0646 -0.9965 0.0530
vn 0.7679 -0.1148 0.6302
vn 0.1934 0.9682 0.1587
vn 0.7282 -0.3355 0.5976
vn 0.3203 0.9101 0.2629
vn 0.6548 -0.5315 0.5374
vn 0.4429 0.8196 0.3635
vn 0.5567 -0.6938 0.4569
vn 0.5567 0.6938 0.4569
vn 0.4429 -0.8196 0.3635
vn 0.6548 0.5315 0.5374
vn 0.2629 0.9101 0.3203
vn 0.5374 -0.5315 0.6548
vn 0.3635 0.8196 0.4429
vn 0.4569 -0.6938 0.5567
vn 0.4569 0.6938 0.5567
vn 0.3635 -0.8196 0.4429
vn 0.5374 0.5315 0.6548
vn 0.2629 -0.9101 0.3203
vn 0.5976 0.3355 0.7282
vn 0.1587 -0.9682 0.1934
vn 0.6302 0.1148 0.7679
vn 0.0530 0.9965 0.0646
vn 0.0530 -0.9965 0.0646
vn 0.6302 -0.1148 0.7679
vn 0.1587 0.9682 0.1934
vn 0.5976 -0.3355 0.7282
vn 0.4441 0.3355 0.8308
vn 0.1179 -0.9682 0.2207
vn 0.4683 0.1148 0.8761
vn 0.0394 0.9965 0.0737
vn 0.0394 -0.9965 0.0737
vn 0.4683 -0.1148 0.8761
vn 0.1179 0.9682 0.2207
vn 0.4441 -0.3355 0.8308
vn 0.1953 0.9101 0.3655
vn 0.3993 -0.5315 0.7470
vn 0.2701 0.8196 0.5053
vn 0.3395 -0.6938 0.6351
vn 0.3395 0.6938 0.6351
vn 0.2701 -0.8196 0.5053
vn 0.3993 0.5315 0.7470
vn 0.1953 -0.9101 0.3655
vn 0.2459 -0.5315 0.8106
vn 0.1663 0.8196 0.5483
vn 0.2091 -0.6938 0.6892
vn 0.2091 0.6938 0.6892
vn 0.1663 -0.8196 0.5483
vn 0.2459 0.5315 0.8106
vn 0.1203 -0.9101 0.3966
vn 0.2735 0.3355 0.9015
vn 0.0726 -0.9682 0.2394
vn 0.2884 0.1149 0.9506
vn 0.0243 0.9965 0.0800
vn 0.0243 -0.9965 0.0800
vn 0.2884 -0.1148 0.9506
vn 0.0726 0.9682 0.2394
vn 0.2735 -0.3355 0.9015
vn 0.1203 0.9101 0.3966
vn 0.0245 -0.9682 0.2490
vn 0.0974 0.1148 0.9886
vn 0.0082 0.9965 0.0832
vn 0.0082 -0.9965 0.0832
vn 0.0974 -0.1149 0.9886
vn 0.0245 0.9682 0.2490
vn 0.0923 -0.3355 0.9375
vn 0.0406 0.9101 0.4124
vn 0.0830 -0.5315 0.8430
vn 0.0562 0.8196 0.5702
vn 0.0706 -0.6938 0.7167
vn 0.0706 0.6938 0.7167
vn 0.0562 -0.8196 0.5702
vn 0.0830 0.5315 0.8430
vn 0.0406 -0.9101 0.4124
vn 0.0923 0.3355 0.9375
vn -0.0706 -0.6938 0.7167
vn -0.0706 0.6938 0.7167
vn -0.0562 -0.8196 0.5702
vn -0.0830 0.5315 0.8430
vn -0.0406 -0.9101 0.4124
vn -0.0923 0.3355 0.9375
vn -0.0245 -0.9682 0.2490
vn -0.0974 0.1148 0.9886
vn -0.0082 0.9965 0.0832
vn -0.0082 -0.9965 0.0832
vn -0.0974 -0.1148 0.9886
vn -0.0245 0.9682 0.2490
vn -0.0923 -0.3355 0.9375
vn -0.0406 0.9101 0.4124
vn -0.0830 -0.5315 0.8430
vn -0.0562 0.8196 0.5702
vn -0.0243 0.9965 0.0800
vn -0.0243 -0.9965 0.0800
vn -0.2884 -0.1148 0.9506
vn -0.0726 0.9682 0.2394
vn -0.2735 -0.3355 0.9015
vn -0.1203 0.9101 0.3966
vn -0.2459 -0.5315 0.8106
vn -0.1663 0.8196 0.5483
vn -0.2091 -0.6938 0.6892
vn -0.2091 0.6938 0.6892
vn -0.1663 -0.8196 0.5483
vn -0.2459 0.5315 0.8106
vn -0.1203 -0.9101 0.3966
vn -0.2735 0.3355 0.9015
vn -0.0726 -0.9682 0.2394
vn -0.2884 0.1148 0.9506
vn -0.3395 0.6938 0.6351
vn -0.2701 -0.8196 0.5053
vn -0.3993 0.5315 0.7470
vn -0.1953 -0.9101 0.3655
vn -0.4441 0.3355 0.8308
vn -0.1179 -0.9682 0.2207
vn -0.4683 0.1148 0.8761
vn -0.0394 0.9965 0.0737
vn -0.0394 -0.9965 0.0737
vn -0.4683 -0.1148 0.8761
vn -0.1179 0.9682 0.2207
vn -0.4441 -0.3355 0.8308
vn -0.1953 0.9101 0.3655
vn -0.3993 -0.5315 0.7470
vn -0.2701 0.8196 0.5053
vn -0.3395 -0.6938 0.6351
vn -0.6302 -0.1148 0.7679
vn -0.1587 0.9682 0.1934
vn -0.5976 -0.3355 0.7282
vn -0.2629 0.9101 0.3203
vn -0.5374 -0.5315 0.6548
vn -0.3635 0.8196 0.4429
vn -0.4569 -0.6938 0.5567
vn -0.4569 0.6938 0.5567
vn -0.3635 -0.8196 0.4429
vn -0.5374 0.5315 0.6548
vn -0.2629 -0.9101 0.3203
vn -0.5976 0.3355 0.7282
vn -0.1587 -0.9682 0.1934
vn -0.6302 0.1148 0.7679
vn -0.0530 0.9965 0.0646
vn -0.0530 -0.9965 0.0646
vn -0.4429 -0.8196 0.3635
vn -0.6548 0.5315 0.5374
vn -0.3203 -0.9101 0.2629
vn -0.7282 0.3355 0.5976
vn -0.1934 -0.9682 0.1587
vn -0.7679 0.1148 0.6302
vn -0.0646 0.9965 0.0530
vn -0.0646 -0.9965 0.0530
vn -0.7679 -0.1148 0.6302
vn -0.1934 0.9682 0.1587
vn -0.7282 -0.3355 0.5976
vn -0.3203 0.9101 0.2629
vn -0.6548 -0.5315 0.5374
vn -0.4429 0.8196 0.3635
vn -0.5567 -0.6938 0.4569
vn -0.5567 0.6938 0.4569
vn -0.2207 0.9682 0.1179
vn -0.8308 -0.3355 0.4441
vn -0.3655 0.9101 0.1953
vn -0.7470 -0.5315 0.3993
vn -0.5053 0.8196 0.2701
vn -0.6351 -0.6938 0.3395
vn -0.6351 0.6938 0.3395
vn -0.5053 -0.8196 0.2701
vn -0.7470 0.5315 0.3993
vn -0.3655 -0.9101 0.1953
vn -0.8308 0.3355 0.4441
vn -0.2207 -0.9682 0.1179
vn -0.8761 0.1148 0.4683
vn -0.0737 0.9965 0.0394
vn -0.0737 -0.9965 0.0394
vn -0.8761 -0.1148 0.4683
vn -0.8106 0.5315 0.2459
vn -0.3966 -0.9101 0.1203
vn -0.9015 0.3355 0.2735
vn -0.2394 -0.9682 0.0726
vn -0.9506 0.1148 0.2884
vn -0.0800 0.9965 0.0243
vn -0.0800 -0.9965 0.0243
vn -0.9506 -0.1148 0.2884
vn -0.2394 0.9682 0.0726
vn -0.9015 -0.3355 0.2735
vn -0.3966 0.9101 0.1203
vn -0.8106 -0.5315 0.2459
vn -0.5483 0.8196 0.1663
vn -0.6892 -0.6938 0.2091
vn -0.6892 0.6938 0.2091
vn -0.5483 -0.8196 0.1663
vn -0.9375 -0.3355 0.0923
vn -0.4124 0.9101 0.0406
vn -0.8430 -0.5315 0.0830
vn -0.5702 0.8196 0.0562
vn -0.7167 -0.6938 0.0706
vn -0.7167 0.6938 0.0706
vn -0.5702 -0.8196 0.0562
vn -0.8430 0.5315 0.0830
vn -0.4124 -0.9101 0.0406
vn -0.9375 0.3355 0.0923
vn -0.2490 -0.9682 0.0245
vn -0.9886 0.1148 0.0974
vn -0.0832 0.9965 0.0082
vn -0.0832 -0.9965 0.0082
vn -0.9886 -0.1148 0.0974
vn -0.2490 0.9682 0.0245
vn -0.4124 -0.9101 -0.0406
vn -0.9375 0.3355 -0.0923
vn -0.2490 -0.9682 -0.0245
vn -0.9886 0.1148 -0.0974
vn -0.0832 0.9965 -0.0082
vn -0.0832 -0.9965 -0.0082
vn -0.9886 -0.1148 -0.0974
vn -0.2490 0.9682 -0.0245
vn -0.9375 -0.3355 -0.0923
vn -0.4124 0.9101 -0.0406
vn -0.8430 -0.5315 -0.0830
vn -0.5702 0.8196 -0.0562
vn -0.7167 -0.6938 -0.0706
vn -0.7167 0.6938 -0.0706
vn -0.5702 -0.8196 -0.0562
vn -0.8430 0.5315 -0.0830
vn -0.8106 -0.5315 -0.2459
vn -0.5483 0.8196 -0.1663
vn -0.6892 -0.6938 -0.2091
vn -0.6892 0.6938 -0.2091
vn -0.5483 -0.8196 -0.1663
vn -0.8106 0.5315 -0.2459
vn -0.3966 -0.9101 -0.1203
vn -0.9015 0.3355 -0.2735
vn -0.2394 -0.9682 -0.0726
vn -0.9506 0.1148 -0.2884
vn -0.0800 0.9965 -0.0243
vn -0.0800 -0.9965 -0.0243
vn -0.9506 -0.1148 -0.2884
vn -0.2394 0.9682 -0.0726
vn -0.9015 -0.3355 -0.2735
vn -0.3966 0.9101 -0.1203
vn -0.2207 -0.9682 -0.1179
vn -0.8761 0.1148 -0.4683
vn -0.0737 0.9965 -0.0394
vn -0.0737 -0.9965 -0.0394
vn -0.8761 -0.1148 -0.4683
vn -0.2207 0.9682 -0.1179
vn -0.8308 -0.3355 -0.4441
vn -0.3655 0.9101 -0.1953
vn -0.7470 -0.5315 -0.3993
vn -0.5053 0.8196 -0.2701
vn -0.6351 -0.6938 -0.3395
vn -0.6351 0.6938 -0.3395
vn -0.5053 -0.8196 -0.2701
vn -0.7470 0.5315 -0.3993
vn -0.3655 -0.9101 -0.1953
vn -0.8308 0.3355 -0.4441
vn -0.4429 0.8196 -0.3635
vn -0.5567 -0.6938 -0.4569
vn -0.5567 0.6938 -0.4569
vn -0.4429 -0.8196 -0.3635
vn -0.6548 0.5315 -0.5374
vn -0.3203 -0.9101 -0.2629
vn -0.7282 0.3355 -0.5976
vn -0.1934 -0.9682 -0.1587
vn -0.7679 0.1148 -0.6302
vn -0.0646 0.9965 -0.0530
vn -0.0646 -0.9965 -0.0530
vn -0.7679 -0.1148 -0.6302
vn -0.1934 0.9682 -0.1587
vn -0.7282 -0.3355 -0.5976
vn -0.3203 0.9101 -0.2629
vn -0.6548 -0.5315 -0.5374
vn -0.6302 0.1148 -0.7679
vn -0.0530 0.9965 -0.0646
vn -0.0530 -0.9965 -0.0646
vn -0.6302 -0.1148 -0.7679
vn -0.1587 0.9682 -0.1934
vn -0.5976 -0.3355 -0.7282
vn -0.2629 0.9101 -0.3203
vn -0.5374 -0.5315 -0.6548
vn -0.3635 0.8196 -0.4429
vn -0.4569 -0.6938 -0.5567
vn -0.4569 0.6938 -0.5567
vn -0.3635 -0.8196 -0.4429
vn -0.5374 0.5315 -0.6548
vn -0.2629 -0.9101 -0.3203
vn -0.5976 0.3355 -0.7282
vn -0.1587 -0.9682 -0.1934
vn -0.3395 -0.6938 -0.6351
vn -0.3395 0.6938 -0.6351
vn -0.2701 -0.8196 -0.5053
vn -0.3993 0.5315 -0.7470
vn -0.1953 -0.9101 -0.3655
vn -0.4441 0.3355 -0.8308
vn -0.1179 -0.9682 -0.2207
vn -0.4683 0.1148 -0.8761
vn -0.0394 0.9965 -0.0737
vn -0.0394 -0.9965 -0.0737
vn -0.4683 -0.1148 -0.8761
vn -0.1179 0.9682 -0.2207
vn -0.4441 -0.3355 -0.8308
vn -0.1953 0.9101 -0.3655
vn -0.3993 -0.5315 -0.7470
vn -0.2701 0.8196 -0.5053
vn -0.0243 0.9965 -0.0800
vn -0.0243 -0.9965 -0.0800
vn -0.2884 -0.1148 -0.9506
vn -0.0726 0.9682 -0.2394
vn -0.2735 -0.3355 -0.9015
vn -0.1203 0.9101 -0.3966
vn -0.2459 -0.5315 -0.8106
vn -0.1663 0.8196 -0.5483
vn -0.2091 -0.6938 -0.6892
vn -0.2091 0.6938 -0.6892
vn -0.1663 -0.8196 -0.5483
vn -0.2459 0.5315 -0.8106
vn -0.1203 -0.9101 -0.3966
vn -0.2735 0.3355 -0.9015
vn -0.0726 -0.9682 -0.2394
vn -0.2884 0.1148 -0.9506
vn -0.0706 0.6938 -0.7167
vn -0.0562 -0.8196 -0.5702
vn -0.0830 0.5315 -0.8430
vn -0.0406 -0.9101 -0.4124
vn -0.0923 0.3355 -0.9375
vn -0.0245 -0.9682 -0.2490
vn -0.0974 0.1149 -0.9886
vn -0.0082 0.9965 -0.0832
vn -0.0082 -0.9965 -0.0832
vn -0.0974 -0.1148 -0.9886
vn -0.0245 0.9682 -0.2490
vn -0.0923 -0.3355 -0.9375
vn -0.0406 0.9101 -0.4124
vn -0.0830 -0.5315 -0.8430
vn -0.0562 0.8196 -0.5702
vn -0.0706 -0.6938 -0.7167
vn 0.9506 0.1149 0.2884
vn 0.8761 0.1149 0.4683
vn 0.8761 -0.1148 0.4683
vn 0.2884 0.1148 0.9506
vn 0.2884 -0.1149 0.9506
vn 0.0974 0.1149 0.9886
vn 0.0974 -0.1148 0.9886
vn -0.0974 0.1148 -0.9886
vn -0.0974 -0.1149 -0.9886
vt 0.736078 0.319841
vt 0.705836 0.259788
vt 0.736078 0.259788
vt 0.736078 0.680159
vt 0.705836 0.740212
vt 0.705836 0.680159
vt 0.705836 0.199735
vt 0.736078 0.199735
vt 0.736078 0.620106
vt 0.705836 0.620106
vt 0.705836 0.139682
vt 0.736078 0.139682
vt 0.736078 0.560053
vt 0.705836 0.560053
vt 0.705836 0.079629
vt 0.736078 0.079629
vt 0.705836 0.500000
vt 0.736078 0.500000
vt 0.736078 0.920371
vt 0.720957 0.980424
vt 0.705836 0.920371
vt 0.720957 0.019576
vt 0.705836 0.439947
vt 0.736078 0.439947
vt 0.736078 0.860318
vt 0.705836 0.860318
vt 0.705836 0.379894
vt 0.736078 0.379894
vt 0.736078 0.800265
vt 0.705836 0.800265
vt 0.705836 0.319841
vt 0.736078 0.740212
vt 0.675593 0.319841
vt 0.675593 0.740212
vt 0.675593 0.259788
vt 0.675593 0.680159
vt 0.675593 0.199735
vt 0.675593 0.620106
vt 0.675593 0.139682
vt 0.675593 0.560053
vt 0.675593 0.079629
vt 0.675593 0.500000
vt 0.690715 0.980424
vt 0.675593 0.920371
vt 0.690715 0.019576
vt 0.675593 0.439947
vt 0.675593 0.860318
vt 0.675593 0.379894
vt 0.675593 0.800265
vt 0.645351 0.079629
vt 0.645351 0.500000
vt 0.660472 0.980424
vt 0.645351 0.920371
vt 0.660472 0.019576
vt 0.645351 0.439947
vt 0.645351 0.860318
vt 0.645351 0.379894
vt 0.645351 0.800265
vt 0.645351 0.319841
vt 0.645351 0.740212
vt 0.645351 0.259788
vt 0.645351 0.680159
vt 0.645351 0.199735
vt 0.645351 0.620106
vt 0.645351 0.139682
vt 0.645351 0.560053
vt 0.615109 0.740212
vt 0.615109 0.259788
vt 0.615109 0.680159
vt 0.615109 0.199735
vt 0.615109 0.620106
vt 0.615109 0.139682
vt 0.615109 0.560053
vt 0.615109 0.079629
vt 0.615109 0.500000
vt 0.630230 0.980424
vt 0.615109 0.920371
vt 0.630230 0.019576
vt 0.615109 0.439947
vt 0.615109 0.860318
vt 0.615109 0.379894
vt 0.615109 0.800265
vt 0.615109 0.319841
vt 0.584867 0.560053
vt 0.584867 0.500000
vt 0.599988 0.980424
vt 0.584867 0.920371
vt 0.599988 0.019576
vt 0.584867 0.079629
vt 0.584867 0.439947
vt 0.584867 0.860318
vt 0.584867 0.379894
vt 0.584867 0.800265
vt 0.584867 0.319841
vt 0.584867 0.740212
vt 0.584867 0.259788
vt 0.584867 0.680159
vt 0.584867 0.199735
vt 0.584867 0.620106
vt 0.584867 0.139682
vt 0.554625 0.259788
vt 0.554625 0.740212
vt 0.554625 0.680159
vt 0.554625 0.199735
vt 0.554625 0.620106
vt 0.554625 0.139682
vt 0.554625 0.560053
vt 0.554625 0.079629
vt 0.554625 0.500000
vt 0.569746 0.980424
vt 0.554625 0.920371
vt 0.569746 0.019576
vt 0.554625 0.439947
vt 0.554625 0.860318
vt 0.554625 0.379894
vt 0.554625 0.800265
vt 0.554625 0.319841
vt 0.539504 0.019576
vt 0.524383 0.079629
vt 0.524383 0.439947
vt 0.524383 0.920371
vt 0.524383 0.860318
vt 0.524383 0.379894
vt 0.524383 0.800265
vt 0.524383 0.319841
vt 0.524383 0.740212
vt 0.524383 0.259788
vt 0.524383 0.680159
vt 0.524383 0.199735
vt 0.524383 0.620106
vt 0.524383 0.139682
vt 0.524383 0.560053
vt 0.524383 0.500000
vt 0.539504 0.980424
vt 0.494141 0.259788
vt 0.494141 0.199735
vt 0.494141 0.620106
vt 0.494141 0.139682
vt 0.494141 0.560053
vt 0.494141 0.079629
vt 0.494141 0.500000
vt 0.509262 0.980424
vt 0.494141 0.920371
vt 0.509262 0.019576
vt 0.494141 0.439947
vt 0.494141 0.860318
vt 0.494141 0.379894
vt 0.494141 0.800265
vt 0.494141 0.319841
vt 0.494141 0.740212
vt 0.494141 0.680159
vt 0.463899 0.860318
vt 0.463899 0.379894
vt 0.463899 0.800265
vt 0.463899 0.319841
vt 0.463899 0.740212
vt 0.463899 0.259788
vt 0.463899 0.680159
vt 0.463899 0.199735
vt 0.463899 0.620106
vt 0.463899 0.139682
vt 0.463899 0.560053
vt 0.463899 0.079629
vt 0.463899 0.500000
vt 0.479020 0.980424
vt 0.463899 0.920371
vt 0.479020 0.019576
vt 0.463899 0.439947
vt 0.433656 0.620106
vt 0.433656 0.139682
vt 0.433656 0.560053
vt 0.433656 0.079629
vt 0.433656 0.500000
vt 0.448777 0.980424
vt 0.433656 0.920371
vt 0.448777 0.019576
vt 0.433656 0.439947
vt 0.433656 0.860318
vt 0.433656 0.379894
vt 0.433656 0.800265
vt 0.433656 0.319841
vt 0.433656 0.740212
vt 0.433656 0.259788
vt 0.433656 0.680159
vt 0.433656 0.199735
vt 0.403414 0.379894
vt 0.403414 0.860318
vt 0.403414 0.800265
vt 0.403414 0.319841
vt 0.403414 0.740212
vt 0.403414 0.259788
vt 0.403414 0.680159
vt 0.403414 0.199735
vt 0.403414 0.620106
vt 0.403414 0.139682
vt 0.403414 0.560053
vt 0.403414 0.079629
vt 0.403414 0.500000
vt 0.418535 0.980424
vt 0.403414 0.920371
vt 0.418535 0.019576
vt 0.403414 0.439947
vt 0.373172 0.199735
vt 0.373172 0.139682
vt 0.373172 0.620106
vt 0.373172 0.560053
vt 0.373172 0.079629
vt 0.373172 0.500000
vt 0.388293 0.980424
vt 0.373172 0.920371
vt 0.388293 0.019576
vt 0.373172 0.439947
vt 0.373172 0.860318
vt 0.373172 0.379894
vt 0.373172 0.800265
vt 0.373172 0.319841
vt 0.373172 0.740212
vt 0.373172 0.259788
vt 0.373172 0.680159
vt 0.342930 0.860318
vt 0.342930 0.800265
vt 0.342930 0.379894
vt 0.342930 0.319841
vt 0.342930 0.740212
vt 0.342930 0.259788
vt 0.342930 0.680159
vt 0.342930 0.199735
vt 0.342930 0.620106
vt 0.342930 0.139682
vt 0.342930 0.560053
vt 0.342930 0.079629
vt 0.342930 0.500000
vt 0.358051 0.980424
vt 0.342930 0.920371
vt 0.358051 0.019576
vt 0.342930 0.439947
vt 0.312688 0.620106
vt 0.312688 0.560053
vt 0.312688 0.079629
vt 0.312688 0.500000
vt 0.327809 0.980424
vt 0.312688 0.920371
vt 0.327809 0.019576
vt 0.312688 0.439947
vt 0.312688 0.860318
vt 0.312688 0.379894
vt 0.312688 0.800265
vt 0.312688 0.319841
vt 0.312688 0.740212
vt 0.312688 0.259788
vt 0.312688 0.680159
vt 0.312688 0.199735
vt 0.312688 0.139682
vt 0.282446 0.379894
vt 0.282446 0.319841
vt 0.282446 0.740212
vt 0.282446 0.259788
vt 0.282446 0.680159
vt 0.282446 0.199735
vt 0.282446 0.620106
vt 0.282446 0.139682
vt 0.282446 0.560053
vt 0.282446 0.079629
vt 0.282446 0.500000
vt 0.297567 0.980424
vt 0.282446 0.920371
vt 0.297567 0.019576
vt 0.282446 0.439947
vt 0.282446 0.860318
vt 0.282446 0.800265
vt 0.252203 0.139682
vt 0.252203 0.079629
vt 0.252203 0.560053
vt 0.252203 0.500000
vt 0.267325 0.980424
vt 0.252203 0.920371
vt 0.267325 0.019576
vt 0.252203 0.439947
vt 0.252203 0.860318
vt 0.252203 0.379894
vt 0.252203 0.800265
vt 0.252203 0.319841
vt 0.252203 0.740212
vt 0.252203 0.259788
vt 0.252203 0.680159
vt 0.252203 0.199735
vt 0.252203 0.620106
vt 0.221961 0.259788
vt 0.221961 0.740212
vt 0.221961 0.680159
vt 0.221961 0.199735
vt 0.221961 0.620106
vt 0.221961 0.139682
vt 0.221961 0.560053
vt 0.221961 0.079629
vt 0.221961 0.500000
vt 0.237082 0.980424
vt 0.221961 0.920371
vt 0.237082 0.019576
vt 0.221961 0.439947
vt 0.221961 0.860318
vt 0.221961 0.379894
vt 0.221961 0.800265
vt 0.221961 0.319841
vt 0.206840 0.980424
vt 0.191719 0.920371
vt 0.206840 0.019576
vt 0.191719 0.079629
vt 0.191719 0.439947
vt 0.191719 0.860318
vt 0.191719 0.379894
vt 0.191719 0.800265
vt 0.191719 0.319841
vt 0.191719 0.740212
vt 0.191719 0.259788
vt 0.191719 0.680159
vt 0.191719 0.199735
vt 0.191719 0.620106
vt 0.191719 0.139682
vt 0.191719 0.560053
vt 0.191719 0.500000
vt 0.161477 0.740212
vt 0.161477 0.680159
vt 0.161477 0.259788
vt 0.161477 0.199735
vt 0.161477 0.620106
vt 0.161477 0.139682
vt 0.161477 0.560053
vt 0.161477 0.079629
vt 0.161477 0.500000
vt 0.176598 0.980424
vt 0.161477 0.920371
vt 0.176598 0.019576
vt 0.161477 0.439947
vt 0.161477 0.860318
vt 0.161477 0.379894
vt 0.161477 0.800265
vt 0.161477 0.319841
vt 0.131235 0.439947
vt 0.131235 0.860318
vt 0.131235 0.379894
vt 0.131235 0.800265
vt 0.131235 0.319841
vt 0.131235 0.740212
vt 0.131235 0.259788
vt 0.131235 0.680159
vt 0.131235 0.199735
vt 0.131235 0.620106
vt 0.131235 0.139682
vt 0.131235 0.560053
vt 0.131235 0.079629
vt 0.131235 0.500000
vt 0.146356 0.980424
vt 0.131235 0.920371
vt 0.146356 0.019576
vt 0.100993 0.259788
vt 0.100993 0.199735
vt 0.100993 0.620106
vt 0.100993 0.139682
vt 0.100993 0.560053
vt 0.100993 0.079629
vt 0.100993 0.500000
vt 0.116114 0.980424
vt 0.100993 0.920371
vt 0.116114 0.019576
vt 0.100993 0.439947
vt 0.100993 0.860318
vt 0.100993 0.379894
vt 0.100993 0.800265
vt 0.100993 0.319841
vt 0.100993 0.740212
vt 0.100993 0.680159
vt 0.070751 0.860318
vt 0.070751 0.379894
vt 0.070751 0.800265
vt 0.070751 0.319841
vt 0.070751 0.740212
vt 0.070751 0.259788
vt 0.070751 0.680159
vt 0.070751 0.199735
vt 0.070751 0.620106
vt 0.070751 0.139682
vt 0.070751 0.560053
vt 0.070751 0.079629
vt 0.070751 0.500000
vt 0.085872 0.980424
vt 0.070751 0.920371
vt 0.085872 0.019576
vt 0.070751 0.439947
vt 0.040508 0.620106
vt 0.040508 0.139682
vt 0.040508 0.560053
vt 0.040508 0.079629
vt 0.040508 0.500000
vt 0.055630 0.980424
vt 0.040508 0.920371
vt 0.055630 0.019576
vt 0.040508 0.439947
vt 0.040508 0.860318
vt 0.040508 0.379894
vt 0.040508 0.800265
vt 0.040508 0.319841
vt 0.040508 0.740212
vt 0.040508 0.259788
vt 0.040508 0.680159
vt 0.040508 0.199735
vt 0.010266 0.379894
vt 0.010266 0.860318
vt 0.010266 0.800265
vt 0.010266 0.319841
vt 0.010266 0.740212
vt 0.010266 0.259788
vt 0.010266 0.680159
vt 0.010266 0.199735
vt 0.010266 0.620106
vt 0.010266 0.139682
vt 0.010266 0.560053
vt 0.010266 0.079629
vt 0.010266 0.500000
vt 0.025387 0.980424
vt 0.010266 0.920371
vt 0.025387 0.019576
vt 0.010266 0.439947
vt 0.978015 0.199735
vt 0.947773 0.139682
vt 0.978015 0.139682
vt 0.978015 0.560053
vt 0.947773 0.620106
vt 0.947773 0.560053
vt 0.947773 0.079629
vt 0.978015 0.079629
vt 0.978015 0.500000
vt 0.947773 0.500000
vt 0.978015 0.920371
vt 0.962894 0.980424
vt 0.947773 0.920371
vt 0.962894 0.019576
vt 0.947773 0.439947
vt 0.978015 0.439947
vt 0.947773 0.860318
vt 0.978015 0.860318
vt 0.947773 0.379894
vt 0.978015 0.379894
vt 0.978015 0.800265
vt 0.947773 0.800265
vt 0.978015 0.319841
vt 0.947773 0.319841
vt 0.947773 0.740212
vt 0.978015 0.740212
vt 0.947773 0.259788
vt 0.978015 0.259788
vt 0.978015 0.680159
vt 0.947773 0.680159
vt 0.947773 0.199735
vt 0.978015 0.620106
vt 0.917531 0.379894
vt 0.917530 0.319841
vt 0.917531 0.740212
vt 0.917531 0.259788
vt 0.917530 0.680159
vt 0.917530 0.199735
vt 0.917531 0.620106
vt 0.917531 0.139682
vt 0.917530 0.560053
vt 0.917531 0.079629
vt 0.917530 0.500000
vt 0.932652 0.980424
vt 0.917531 0.920371
vt 0.932652 0.019576
vt 0.917530 0.439947
vt 0.917531 0.860318
vt 0.917530 0.800265
vt 0.887289 0.079629
vt 0.887289 0.560053
vt 0.887289 0.500000
vt 0.902409 0.980424
vt 0.887289 0.920371
vt 0.902409 0.019576
vt 0.887289 0.439947
vt 0.887289 0.860318
vt 0.887289 0.379894
vt 0.887289 0.800265
vt 0.887289 0.319841
vt 0.887289 0.740212
vt 0.887289 0.259788
vt 0.887289 0.680159
vt 0.887289 0.199735
vt 0.887289 0.620106
vt 0.887289 0.139682
vt 0.857046 0.740212
vt 0.857046 0.259788
vt 0.857046 0.680159
vt 0.857046 0.199735
vt 0.857046 0.620106
vt 0.857046 0.139682
vt 0.857046 0.560053
vt 0.857046 0.079629
vt 0.857046 0.500000
vt 0.872168 0.980424
vt 0.857046 0.920371
vt 0.872168 0.019576
vt 0.857046 0.439947
vt 0.857046 0.860318
vt 0.857046 0.379894
vt 0.857046 0.800265
vt 0.857046 0.319841
vt 0.826804 0.560053
vt 0.826804 0.500000
vt 0.841925 0.980424
vt 0.826804 0.920371
vt 0.841925 0.019576
vt 0.826804 0.079629
vt 0.826804 0.439947
vt 0.826804 0.860318
vt 0.826804 0.379894
vt 0.826804 0.800265
vt 0.826804 0.319841
vt 0.826804 0.740212
vt 0.826804 0.259788
vt 0.826804 0.680159
vt 0.826804 0.199735
vt 0.826804 0.620106
vt 0.826804 0.139682
vt 0.796562 0.259788
vt 0.796562 0.740212
vt 0.796562 0.680159
vt 0.796562 0.199735
vt 0.796562 0.620106
vt 0.796562 0.139682
vt 0.796562 0.560053
vt 0.796562 0.079629
vt 0.796562 0.500000
vt 0.811683 0.980424
vt 0.796562 0.920371
vt 0.811683 0.019576
vt 0.796562 0.439947
vt 0.796562 0.860318
vt 0.796562 0.379894
vt 0.796562 0.800265
vt 0.796562 0.319841
vt 0.781441 0.980424
vt 0.766320 0.920371
vt 0.781441 0.019576
vt 0.766320 0.079629
vt 0.766320 0.439947
vt 0.766320 0.860318
vt 0.766320 0.379894
vt 0.766320 0.800265
vt 0.766320 0.319841
vt 0.766320 0.740212
vt 0.766320 0.259788
vt 0.766320 0.680159
vt 0.766320 0.199735
vt 0.766320 0.620106
vt 0.766320 0.139682
vt 0.766320 0.560053
vt 0.766320 0.500000
vt 0.751199 0.980424
vt 0.751199 0.019576
s 0
usemtl マテリアル
f 6/1/1 18/2/1 479/3/1
f 2/4/2 10/5/2 11/6/2
f 479/3/3 19/7/3 480/8/3
f 477/9/4 11/6/4 12/10/4
f 480/8/5 20/11/5 481/12/5
f 3/13/6 12/10/6 13/14/6
f 481/12/7 21/15/7 482/16/7
f 3/13/8 14/17/8 4/18/8
f 474/19/9 82/20/9 7/21/9
f 308/22/10 482/16/10 21/15/10
f 4/18/11 15/23/11 5/24/11
f 475/25/12 7/21/12 8/26/12
f 5/24/13 16/27/13 478/28/13
f 1/29/14 8/26/14 9/30/14
f 478/28/15 17/31/15 6/1/15
f 476/32/16 9/30/16 10/5/16
f 16/27/17 32/33/17 17/31/17
f 9/30/18 25/34/18 10/5/18
f 17/31/19 33/35/19 18/2/19
f 10/5/20 26/36/20 11/6/20
f 19/7/21 33/35/21 34/37/21
f 11/6/22 27/38/22 12/10/22
f 20/11/23 34/37/23 35/39/23
f 13/14/24 27/38/24 28/40/24
f 20/11/25 36/41/25 21/15/25
f 13/14/26 29/42/26 14/17/26
f 7/21/27 82/43/27 22/44/27
f 308/45/28 21/15/28 36/41/28
f 14/17/29 30/46/29 15/23/29
f 7/21/30 23/47/30 8/26/30
f 15/23/31 31/48/31 16/27/31
f 8/26/32 24/49/32 9/30/32
f 35/39/33 51/50/33 36/41/33
f 28/40/34 44/51/34 29/42/34
f 22/44/35 82/52/35 37/53/35
f 308/54/36 36/41/36 51/50/36
f 30/46/37 44/51/37 45/55/37
f 22/44/38 38/56/38 23/47/38
f 30/46/39 46/57/39 31/48/39
f 23/47/40 39/58/40 24/49/40
f 32/33/41 46/57/41 47/59/41
f 24/49/42 40/60/42 25/34/42
f 33/35/43 47/59/43 48/61/43
f 25/34/44 41/62/44 26/36/44
f 34/37/45 48/61/45 49/63/45
f 26/36/46 42/64/46 27/38/46
f 34/37/47 50/65/47 35/39/47
f 27/38/48 43/66/48 28/40/48
f 39/58/49 55/67/49 40/60/49
f 47/59/50 63/68/50 48/61/50
f 40/60/51 56/69/51 41/62/51
f 48/61/52 64/70/52 49/63/52
f 41/62/53 57/71/53 42/64/53
f 49/63/54 65/72/54 50/65/54
f 43/66/55 57/71/55 58/73/55
f 50/65/56 66/74/56 51/50/56
f 44/51/57 58/73/57 59/75/57
f 37/53/58 82/76/58 52/77/58
f 308/78/59 51/50/59 66/74/59
f 44/51/60 60/79/60 45/55/60
f 37/53/61 53/80/61 38/56/61
f 45/55/62 61/81/62 46/57/62
f 38/56/63 54/82/63 39/58/63
f 47/59/64 61/81/64 62/83/64
f 59/75/65 73/84/65 74/85/65
f 52/77/66 82/86/66 67/87/66
f 308/88/67 66/74/67 81/89/67
f 59/75/68 75/90/68 60/79/68
f 52/77/69 68/91/69 53/80/69
f 60/79/70 76/92/70 61/81/70
f 53/80/71 69/93/71 54/82/71
f 62/83/72 76/92/72 77/94/72
f 54/82/73 70/95/73 55/67/73
f 62/83/74 78/96/74 63/68/74
f 56/69/75 70/95/75 71/97/75
f 63/68/76 79/98/76 64/70/76
f 56/69/77 72/99/77 57/71/77
f 65/72/78 79/98/78 80/100/78
f 58/73/79 72/99/79 73/84/79
f 65/72/80 81/89/80 66/74/80
f 77/94/81 94/101/81 78/96/81
f 71/97/82 86/102/82 87/103/82
f 78/96/83 95/104/83 79/98/83
f 71/97/84 88/105/84 72/99/84
f 79/98/85 96/106/85 80/100/85
f 73/84/86 88/105/86 89/107/86
f 81/89/87 96/106/87 97/108/87
f 74/85/88 89/107/88 90/109/88
f 67/87/89 82/110/89 83/111/89
f 308/112/90 81/89/90 97/108/90
f 74/85/91 91/113/91 75/90/91
f 67/87/92 84/114/92 68/91/92
f 75/90/93 92/115/93 76/92/93
f 68/91/94 85/116/94 69/93/94
f 77/94/95 92/115/95 93/117/95
f 69/93/96 86/102/96 70/95/96
f 308/118/97 97/108/97 112/119/97
f 90/109/98 106/120/98 91/113/98
f 84/114/99 98/121/99 99/122/99
f 91/113/100 107/123/100 92/115/100
f 84/114/101 100/124/101 85/116/101
f 93/117/102 107/123/102 108/125/102
f 85/116/103 101/126/103 86/102/103
f 93/117/104 109/127/104 94/101/104
f 87/103/105 101/126/105 102/128/105
f 95/104/106 109/127/106 110/129/106
f 87/103/107 103/130/107 88/105/107
f 96/106/108 110/129/108 111/131/108
f 89/107/109 103/130/109 104/132/109
f 96/106/110 112/119/110 97/108/110
f 90/109/111 104/132/111 105/133/111
f 83/111/112 82/134/112 98/121/112
f 110/129/113 124/135/113 125/136/113
f 102/128/114 118/137/114 103/130/114
f 110/129/115 126/138/115 111/131/115
f 104/132/116 118/137/116 119/139/116
f 111/131/117 127/140/117 112/119/117
f 105/133/118 119/139/118 120/141/118
f 98/121/119 82/142/119 113/143/119
f 308/144/120 112/119/120 127/140/120
f 105/133/121 121/145/121 106/120/121
f 99/122/122 113/143/122 114/146/122
f 106/120/123 122/147/123 107/123/123
f 99/122/124 115/148/124 100/124/124
f 108/125/125 122/147/125 123/149/125
f 100/124/126 116/150/126 101/126/126
f 108/125/127 124/135/127 109/127/127
f 102/128/128 116/150/128 117/151/128
f 113/143/129 129/152/129 114/146/129
f 121/145/130 137/153/130 122/147/130
f 114/146/131 130/154/131 115/148/131
f 123/149/132 137/153/132 138/155/132
f 115/148/133 131/156/133 116/150/133
f 123/149/134 139/157/134 124/135/134
f 117/151/135 131/156/135 132/158/135
f 125/136/136 139/157/136 140/159/136
f 117/151/137 133/160/137 118/137/137
f 125/136/138 141/161/138 126/138/138
f 119/139/139 133/160/139 134/162/139
f 126/138/140 142/163/140 127/140/140
f 120/141/141 134/162/141 135/164/141
f 113/143/142 82/165/142 128/166/142
f 308/167/143 127/140/143 142/163/143
f 120/141/144 136/168/144 121/145/144
f 132/158/145 148/169/145 133/160/145
f 140/159/146 156/170/146 141/161/146
f 134/162/147 148/169/147 149/171/147
f 142/163/148 156/170/148 157/172/148
f 135/164/149 149/171/149 150/173/149
f 128/166/150 82/174/150 143/175/150
f 308/176/151 142/163/151 157/172/151
f 135/164/152 151/177/152 136/168/152
f 128/166/153 144/178/153 129/152/153
f 136/168/154 152/179/154 137/153/154
f 130/154/155 144/178/155 145/180/155
f 138/155/156 152/179/156 153/181/156
f 130/154/157 146/182/157 131/156/157
f 138/155/158 154/183/158 139/157/158
f 132/158/159 146/182/159 147/184/159
f 140/159/160 154/183/160 155/185/160
f 151/177/161 167/186/161 152/179/161
f 145/180/162 159/187/162 160/188/162
f 153/181/163 167/186/163 168/189/163
f 145/180/164 161/190/164 146/182/164
f 153/181/165 169/191/165 154/183/165
f 147/184/166 161/190/166 162/192/166
f 155/185/167 169/191/167 170/193/167
f 147/184/168 163/194/168 148/169/168
f 155/185/169 171/195/169 156/170/169
f 149/171/170 163/194/170 164/196/170
f 156/170/171 172/197/171 157/172/171
f 150/173/172 164/196/172 165/198/172
f 143/175/173 82/199/173 158/200/173
f 308/201/174 157/172/174 172/197/174
f 150/173/175 166/202/175 151/177/175
f 143/175/176 159/187/176 144/178/176
f 171/195/177 185/203/177 186/204/177
f 164/196/178 178/205/178 179/206/178
f 172/197/179 186/204/179 187/207/179
f 165/198/180 179/206/180 180/208/180
f 158/200/181 82/209/181 173/210/181
f 308/211/182 172/197/182 187/207/182
f 165/198/183 181/212/183 166/202/183
f 158/200/184 174/213/184 159/187/184
f 166/202/185 182/214/185 167/186/185
f 159/187/186 175/215/186 160/188/186
f 168/189/187 182/214/187 183/216/187
f 160/188/188 176/217/188 161/190/188
f 168/189/189 184/218/189 169/191/189
f 162/192/190 176/217/190 177/219/190
f 169/191/191 185/203/191 170/193/191
f 162/192/192 178/205/192 163/194/192
f 175/215/193 189/220/193 190/221/193
f 183/216/194 197/222/194 198/223/194
f 175/215/195 191/224/195 176/217/195
f 183/216/196 199/225/196 184/218/196
f 177/219/197 191/224/197 192/226/197
f 185/203/198 199/225/198 200/227/198
f 177/219/199 193/228/199 178/205/199
f 185/203/200 201/229/200 186/204/200
f 179/206/201 193/228/201 194/230/201
f 186/204/202 202/231/202 187/207/202
f 180/208/203 194/230/203 195/232/203
f 173/210/204 82/233/204 188/234/204
f 308/235/205 187/207/205 202/231/205
f 180/208/206 196/236/206 181/212/206
f 174/213/207 188/234/207 189/220/207
f 181/212/208 197/222/208 182/214/208
f 194/230/209 208/237/209 209/238/209
f 201/229/210 217/239/210 202/231/210
f 195/232/211 209/238/211 210/240/211
f 188/234/212 82/241/212 203/242/212
f 308/243/213 202/231/213 217/239/213
f 195/232/214 211/244/214 196/236/214
f 188/234/215 204/245/215 189/220/215
f 196/236/216 212/246/216 197/222/216
f 189/220/217 205/247/217 190/221/217
f 198/223/218 212/246/218 213/248/218
f 190/221/219 206/249/219 191/224/219
f 198/223/220 214/250/220 199/225/220
f 192/226/221 206/249/221 207/251/221
f 200/227/222 214/250/222 215/252/222
f 192/226/223 208/237/223 193/228/223
f 200/227/224 216/253/224 201/229/224
f 213/248/225 227/254/225 228/255/225
f 205/247/226 221/256/226 206/249/226
f 213/248/227 229/257/227 214/250/227
f 207/251/228 221/256/228 222/258/228
f 215/252/229 229/257/229 230/259/229
f 207/251/230 223/260/230 208/237/230
f 215/252/231 231/261/231 216/253/231
f 209/238/232 223/260/232 224/262/232
f 216/253/233 232/263/233 217/239/233
f 210/240/234 224/262/234 225/264/234
f 203/242/235 82/265/235 218/266/235
f 308/267/236 217/239/236 232/263/236
f 210/240/237 226/268/237 211/244/237
f 203/242/238 219/269/238 204/245/238
f 211/244/239 227/254/239 212/246/239
f 204/245/240 220/270/240 205/247/240
f 232/263/241 246/271/241 247/272/241
f 225/264/242 239/273/242 240/274/242
f 218/266/243 82/275/243 233/276/243
f 308/277/244 232/263/244 247/272/244
f 225/264/245 241/278/245 226/268/245
f 218/266/246 234/279/246 219/269/246
f 226/268/247 242/280/247 227/254/247
f 220/270/248 234/279/248 235/281/248
f 228/255/249 242/280/249 243/282/249
f 220/270/250 236/283/250 221/256/250
f 228/255/251 244/284/251 229/257/251
f 222/258/252 236/283/252 237/285/252
f 230/259/253 244/284/253 245/286/253
f 222/258/254 238/287/254 223/260/254
f 230/259/255 246/271/255 231/261/255
f 224/262/256 238/287/256 239/273/256
f 243/282/257 259/288/257 244/284/257
f 237/285/258 251/289/258 252/290/258
f 245/286/259 259/288/259 260/291/259
f 237/285/260 253/292/260 238/287/260
f 245/286/261 261/293/261 246/271/261
f 239/273/262 253/292/262 254/294/262
f 246/271/263 262/295/263 247/272/263
f 240/274/264 254/294/264 255/296/264
f 233/276/265 82/297/265 248/298/265
f 308/299/266 247/272/266 262/295/266
f 240/274/267 256/300/267 241/278/267
f 233/276/268 249/301/268 234/279/268
f 241/278/269 257/302/269 242/280/269
f 234/279/270 250/303/270 235/281/270
f 243/282/271 257/302/271 258/304/271
f 235/281/272 251/289/272 236/283/272
f 248/298/273 82/305/273 263/306/273
f 308/307/274 262/295/274 277/308/274
f 255/296/275 271/309/275 256/300/275
f 249/301/276 263/306/276 264/310/276
f 256/300/277 272/311/277 257/302/277
f 249/301/278 265/312/278 250/303/278
f 258/304/279 272/311/279 273/313/279
f 250/303/280 266/314/280 251/289/280
f 258/304/281 274/315/281 259/288/281
f 252/290/282 266/314/282 267/316/282
f 260/291/283 274/315/283 275/317/283
f 252/290/284 268/318/284 253/292/284
f 260/291/285 276/319/285 261/293/285
f 254/294/286 268/318/286 269/320/286
f 261/293/287 277/308/287 262/295/287
f 255/296/288 269/320/288 270/321/288
f 267/316/289 281/322/289 282/323/289
f 275/317/290 289/324/290 290/325/290
f 267/316/291 283/326/291 268/318/291
f 275/317/292 291/327/292 276/319/292
f 269/320/293 283/326/293 284/328/293
f 277/308/294 291/327/294 292/329/294
f 270/321/295 284/328/295 285/330/295
f 263/306/296 82/331/296 278/332/296
f 308/333/297 277/308/297 292/329/297
f 270/321/298 286/334/298 271/309/298
f 264/310/299 278/332/299 279/335/299
f 271/309/300 287/336/300 272/311/300
f 264/310/301 280/337/301 265/312/301
f 273/313/302 287/336/302 288/338/302
f 265/312/303 281/322/303 266/314/303
f 273/313/304 289/324/304 274/315/304
f 285/330/305 301/339/305 286/334/305
f 278/332/306 294/340/306 279/335/306
f 286/334/307 302/341/307 287/336/307
f 279/335/308 295/342/308 280/337/308
f 288/338/309 302/341/309 303/343/309
f 280/337/310 296/344/310 281/322/310
f 288/338/311 304/345/311 289/324/311
f 282/323/312 296/344/312 297/346/312
f 290/325/313 304/345/313 305/347/313
f 282/323/314 298/348/314 283/326/314
f 290/325/315 306/349/315 291/327/315
f 284/328/316 298/348/316 299/350/316
f 292/329/317 306/349/317 307/351/317
f 285/330/318 299/350/318 300/352/318
f 278/332/319 82/353/319 293/354/319
f 308/355/320 292/329/320 307/351/320
f 305/347/321 320/356/321 321/357/321
f 297/346/322 314/358/322 298/348/322
f 305/347/323 322/359/323 306/349/323
f 299/350/324 314/358/324 315/360/324
f 306/349/325 323/361/325 307/351/325
f 300/352/326 315/360/326 316/362/326
f 293/354/327 82/363/327 309/364/327
f 308/365/328 307/351/328 323/361/328
f 300/352/329 317/366/329 301/339/329
f 293/354/330 310/367/330 294/340/330
f 301/339/331 318/368/331 302/341/331
f 294/340/332 311/369/332 295/342/332
f 303/343/333 318/368/333 319/370/333
f 295/342/334 312/371/334 296/344/334
f 303/343/335 320/356/335 304/345/335
f 297/346/336 312/371/336 313/372/336
f 309/364/337 325/373/337 310/367/337
f 317/366/338 333/374/338 318/368/338
f 310/367/339 326/375/339 311/369/339
f 319/370/340 333/374/340 334/376/340
f 311/369/341 327/377/341 312/371/341
f 319/370/342 335/378/342 320/356/342
f 312/371/343 328/379/343 313/372/343
f 321/357/344 335/378/344 336/380/344
f 313/372/345 329/381/345 314/358/345
f 321/357/346 337/382/346 322/359/346
f 315/360/347 329/381/347 330/383/347
f 322/359/348 338/384/348 323/361/348
f 316/362/349 330/383/349 331/385/349
f 309/364/350 82/386/350 324/387/350
f 308/388/351 323/361/351 338/384/351
f 316/362/352 332/389/352 317/366/352
f 328/379/353 344/390/353 329/381/353
f 336/380/354 352/391/354 337/382/354
f 330/383/355 344/390/355 345/392/355
f 337/382/356 353/393/356 338/384/356
f 331/385/357 345/392/357 346/394/357
f 324/387/358 82/395/358 339/396/358
f 308/397/359 338/384/359 353/393/359
f 331/385/360 347/398/360 332/389/360
f 324/387/361 340/399/361 325/373/361
f 332/389/362 348/400/362 333/374/362
f 325/373/363 341/401/363 326/375/363
f 334/376/364 348/400/364 349/402/364
f 326/375/365 342/403/365 327/377/365
f 334/376/366 350/404/366 335/378/366
f 328/379/367 342/403/367 343/405/367
f 336/380/368 350/404/368 351/406/368
f 347/398/369 363/407/369 348/400/369
f 341/401/370 355/408/370 356/409/370
f 349/402/371 363/407/371 364/410/371
f 341/401/372 357/411/372 342/403/372
f 349/402/373 365/412/373 350/404/373
f 343/405/374 357/411/374 358/413/374
f 351/406/375 365/412/375 366/414/375
f 343/405/376 359/415/376 344/390/376
f 351/406/377 367/416/377 352/391/377
f 345/392/378 359/415/378 360/417/378
f 352/391/379 368/418/379 353/393/379
f 346/394/380 360/417/380 361/419/380
f 339/396/381 82/420/381 354/421/381
f 308/422/382 353/393/382 368/418/382
f 346/394/383 362/423/383 347/398/383
f 339/396/384 355/408/384 340/399/384
f 366/424/385 382/425/385 367/426/385
f 360/427/386 374/428/386 375/429/386
f 367/426/387 383/430/387 368/431/387
f 361/432/388 375/429/388 376/433/388
f 354/434/389 82/435/389 369/436/389
f 308/437/390 368/431/390 383/430/390
f 361/432/391 377/438/391 362/439/391
f 354/434/392 370/440/392 355/441/392
f 362/439/393 378/442/393 363/443/393
f 356/444/394 370/440/394 371/445/394
f 364/446/395 378/442/395 379/447/395
f 356/444/396 372/448/396 357/449/396
f 364/446/397 380/450/397 365/451/397
f 358/452/398 372/448/398 373/453/398
f 366/424/399 380/450/399 381/454/399
f 358/452/400 374/428/400 359/455/400
f 379/447/401 393/456/401 394/457/401
f 371/445/402 387/458/402 372/448/402
f 379/447/403 395/459/403 380/450/403
f 373/453/404 387/458/404 388/460/404
f 381/454/405 395/459/405 396/461/405
f 373/453/406 389/462/406 374/428/406
f 381/454/407 397/463/407 382/425/407
f 375/429/408 389/462/408 390/464/408
f 382/425/409 398/465/409 383/430/409
f 376/433/410 390/464/410 391/466/410
f 369/436/411 82/467/411 384/468/411
f 308/469/412 383/430/412 398/465/412
f 376/433/413 392/470/413 377/438/413
f 369/436/414 385/471/414 370/440/414
f 377/438/415 393/456/415 378/442/415
f 371/445/416 385/471/416 386/472/416
f 397/463/417 413/473/417 398/465/417
f 391/466/418 405/474/418 406/475/418
f 384/468/419 82/476/419 399/477/419
f 308/478/420 398/465/420 413/473/420
f 391/466/421 407/479/421 392/470/421
f 385/471/422 399/477/422 400/480/422
f 392/470/423 408/481/423 393/456/423
f 385/471/424 401/482/424 386/472/424
f 394/457/425 408/481/425 409/483/425
f 386/472/426 402/484/426 387/458/426
f 394/457/427 410/485/427 395/459/427
f 388/460/428 402/484/428 403/486/428
f 396/461/429 410/485/429 411/487/429
f 388/460/430 404/488/430 389/462/430
f 397/463/431 411/487/431 412/489/431
f 390/464/432 404/488/432 405/474/432
f 401/482/433 417/490/433 402/484/433
f 409/483/434 425/491/434 410/485/434
f 403/486/435 417/490/435 418/492/435
f 411/487/436 425/491/436 426/493/436
f 403/486/437 419/494/437 404/488/437
f 411/487/438 427/495/438 412/489/438
f 405/474/439 419/494/439 420/496/439
f 412/489/440 428/497/440 413/473/440
f 406/475/441 420/496/441 421/498/441
f 399/477/442 82/499/442 414/500/442
f 308/501/443 413/473/443 428/497/443
f 406/475/444 422/502/444 407/479/444
f 399/477/445 415/503/445 400/480/445
f 407/479/446 423/504/446 408/481/446
f 401/482/447 415/503/447 416/505/447
f 409/483/448 423/504/448 424/506/448
f 421/498/449 435/507/449 436/508/449
f 414/500/450 82/509/450 429/510/450
f 308/511/451 428/497/451 443/512/451
f 421/498/452 437/513/452 422/502/452
f 414/500/453 430/514/453 415/503/453
f 422/502/454 438/515/454 423/504/454
f 416/505/455 430/514/455 431/516/455
f 424/506/456 438/515/456 439/517/456
f 416/505/457 432/518/457 417/490/457
f 424/506/458 440/519/458 425/491/458
f 418/492/459 432/518/459 433/520/459
f 426/493/460 440/519/460 441/521/460
f 418/492/461 434/522/461 419/494/461
f 426/493/462 442/523/462 427/495/462
f 420/496/463 434/522/463 435/507/463
f 427/495/464 443/512/464 428/497/464
f 439/517/465 455/524/465 440/519/465
f 433/520/466 447/525/466 448/526/466
f 441/521/467 455/524/467 456/527/467
f 433/520/468 449/528/468 434/522/468
f 441/521/469 457/529/469 442/523/469
f 435/507/470 449/528/470 450/530/470
f 442/523/471 458/531/471 443/512/471
f 436/508/472 450/530/472 451/532/472
f 429/510/473 82/533/473 444/534/473
f 308/535/474 443/512/474 458/531/474
f 436/508/475 452/536/475 437/513/475
f 430/514/476 444/534/476 445/537/476
f 437/513/477 453/538/477 438/515/477
f 430/514/478 446/539/478 431/516/478
f 439/517/479 453/538/479 454/540/479
f 431/516/480 447/525/480 432/518/480
f 444/534/481 82/541/481 459/542/481
f 308/543/482 458/531/482 473/544/482
f 451/532/483 467/545/483 452/536/483
f 444/534/484 460/546/484 445/537/484
f 452/536/485 468/547/485 453/538/485
f 446/539/486 460/546/486 461/548/486
f 454/540/487 468/547/487 469/549/487
f 446/539/488 462/550/488 447/525/488
f 454/540/489 470/551/489 455/524/489
f 448/526/490 462/550/490 463/552/490
f 456/527/491 470/551/491 471/553/491
f 448/526/492 464/554/492 449/528/492
f 456/527/493 472/555/493 457/529/493
f 450/530/494 464/554/494 465/556/494
f 458/531/495 472/555/495 473/544/495
f 451/532/496 465/556/496 466/557/496
f 463/552/497 476/32/497 2/4/497
f 471/553/498 479/3/498 480/8/498
f 464/554/499 2/4/499 477/9/499
f 471/553/500 481/12/500 472/555/500
f 465/556/501 477/9/501 3/13/501
f 472/555/502 482/16/502 473/544/502
f 466/557/503 3/13/503 4/18/503
f 459/542/504 82/558/504 474/19/504
f 308/559/505 473/544/505 482/16/505
f 466/557/506 5/24/506 467/545/506
f 460/546/507 474/19/507 475/25/507
f 467/545/508 478/28/508 468/547/508
f 461/548/509 475/25/509 1/29/509
f 468/547/510 6/1/510 469/549/510
f 462/550/511 1/29/511 476/32/511
f 469/549/512 479/3/512 470/551/512
f 6/1/1 17/31/1 18/2/1
f 2/4/2 476/32/2 10/5/2
f 479/3/3 18/2/3 19/7/3
f 477/9/4 2/4/4 11/6/4
f 480/8/5 19/7/5 20/11/5
f 3/13/6 477/9/6 12/10/6
f 481/12/7 20/11/7 21/15/7
f 3/13/8 13/14/8 14/17/8
f 4/18/11 14/17/11 15/23/11
f 475/25/12 474/19/12 7/21/12
f 5/24/13 15/23/13 16/27/13
f 1/29/14 475/25/14 8/26/14
f 478/28/15 16/27/15 17/31/15
f 476/32/16 1/29/16 9/30/16
f 16/27/17 31/48/17 32/33/17
f 9/30/18 24/49/18 25/34/18
f 17/31/19 32/33/19 33/35/19
f 10/5/20 25/34/20 26/36/20
f 19/7/21 18/2/21 33/35/21
f 11/6/22 26/36/22 27/38/22
f 20/11/23 19/7/23 34/37/23
f 13/14/24 12/10/24 27/38/24
f 20/11/25 35/39/25 36/41/25
f 13/14/26 28/40/26 29/42/26
f 14/17/29 29/42/29 30/46/29
f 7/21/30 22/44/30 23/47/30
f 15/23/31 30/46/31 31/48/31
f 8/26/32 23/47/32 24/49/32
f 35/39/33 50/65/33 51/50/33
f 28/40/34 43/66/34 44/51/34
f 30/46/37 29/42/37 44/51/37
f 22/44/38 37/53/38 38/56/38
f 30/46/39 45/55/39 46/57/39
f 23/47/40 38/56/40 39/58/40
f 32/33/41 31/48/41 46/57/41
f 24/49/42 39/58/42 40/60/42
f 33/35/43 32/33/43 47/59/43
f 25/34/44 40/60/44 41/62/44
f 34/37/45 33/35/45 48/61/45
f 26/36/46 41/62/46 42/64/46
f 34/37/47 49/63/47 50/65/47
f 27/38/48 42/64/48 43/66/48
f 39/58/49 54/82/49 55/67/49
f 47/59/50 62/83/50 63/68/50
f 40/60/51 55/67/51 56/69/51
f 48/61/52 63/68/52 64/70/52
f 41/62/53 56/69/53 57/71/53
f 49/63/54 64/70/54 65/72/54
f 43/66/55 42/64/55 57/71/55
f 50/65/56 65/72/56 66/74/56
f 44/51/57 43/66/57 58/73/57
f 44/51/60 59/75/60 60/79/60
f 37/53/61 52/77/61 53/80/61
f 45/55/62 60/79/62 61/81/62
f 38/56/63 53/80/63 54/82/63
f 47/59/64 46/57/64 61/81/64
f 59/75/65 58/73/65 73/84/65
f 59/75/68 74/85/68 75/90/68
f 52/77/69 67/87/69 68/91/69
f 60/79/70 75/90/70 76/92/70
f 53/80/71 68/91/71 69/93/71
f 62/83/72 61/81/72 76/92/72
f 54/82/73 69/93/73 70/95/73
f 62/83/74 77/94/74 78/96/74
f 56/69/75 55/67/75 70/95/75
f 63/68/76 78/96/76 79/98/76
f 56/69/77 71/97/77 72/99/77
f 65/72/78 64/70/78 79/98/78
f 58/73/79 57/71/79 72/99/79
f 65/72/80 80/100/80 81/89/80
f 77/94/81 93/117/81 94/101/81
f 71/97/82 70/95/82 86/102/82
f 78/96/83 94/101/83 95/104/83
f 71/97/84 87/103/84 88/105/84
f 79/98/85 95/104/85 96/106/85
f 73/84/86 72/99/86 88/105/86
f 81/89/87 80/100/87 96/106/87
f 74/85/88 73/84/88 89/107/88
f 74/85/91 90/109/91 91/113/91
f 67/87/92 83/111/92 84/114/92
f 75/90/93 91/113/93 92/115/93
f 68/91/94 84/114/94 85/116/94
f 77/94/95 76/92/95 92/115/95
f 69/93/96 85/116/96 86/102/96
f 90/109/98 105/133/98 106/120/98
f 84/114/99 83/111/99 98/121/99
f 91/113/100 106/120/100 107/123/100
f 84/114/101 99/122/101 100/124/101
f 93/117/102 92/115/102 107/123/102
f 85/116/103 100/124/103 101/126/103
f 93/117/104 108/125/104 109/127/104
f 87/103/105 86/102/105 101/126/105
f 95/104/106 94/101/106 109/127/106
f 87/103/107 102/128/107 103/130/107
f 96/106/108 95/104/108 110/129/108
f 89/107/109 88/105/109 103/130/109
f 96/106/110 111/131/110 112/119/110
f 90/109/111 89/107/111 104/132/111
f 110/129/113 109/127/113 124/135/113
f 102/128/114 117/151/114 118/137/114
f 110/129/115 125/136/115 126/138/115
f 104/132/116 103/130/116 118/137/116
f 111/131/117 126/138/117 127/140/117
f 105/133/118 104/132/118 119/139/118
f 105/133/121 120/141/121 121/145/121
f 99/122/122 98/121/122 113/143/122
f 106/120/123 121/145/123 122/147/123
f 99/122/124 114/146/124 115/148/124
f 108/125/125 107/123/125 122/147/125
f 100/124/126 115/148/126 116/150/126
f 108/125/127 123/149/127 124/135/127
f 102/128/128 101/126/128 116/150/128
f 113/143/129 128/166/129 129/152/129
f 121/145/130 136/168/130 137/153/130
f 114/146/131 129/152/131 130/154/131
f 123/149/132 122/147/132 137/153/132
f 115/148/133 130/154/133 131/156/133
f 123/149/134 138/155/134 139/157/134
f 117/151/135 116/150/135 131/156/135
f 125/136/136 124/135/136 139/157/136
f 117/151/137 132/158/137 133/160/137
f 125/136/138 140/159/138 141/161/138
f 119/139/139 118/137/139 133/160/139
f 126/138/140 141/161/140 142/163/140
f 120/141/141 119/139/141 134/162/141
f 120/141/144 135/164/144 136/168/144
f 132/158/145 147/184/145 148/169/145
f 140/159/146 155/185/146 156/170/146
f 134/162/147 133/160/147 148/169/147
f 142/163/148 141/161/148 156/170/148
f 135/164/513 134/162/513 149/171/513
f 135/164/152 150/173/152 151/177/152
f 128/166/153 143/175/153 144/178/153
f 136/168/154 151/177/154 152/179/154
f 130/154/155 129/152/155 144/178/155
f 138/155/156 137/153/156 152/179/156
f 130/154/157 145/180/157 146/182/157
f 138/155/158 153/181/158 154/183/158
f 132/158/159 131/156/159 146/182/159
f 140/159/160 139/157/160 154/183/160
f 151/177/161 166/202/161 167/186/161
f 145/180/162 144/178/162 159/187/162
f 153/181/163 152/179/163 167/186/163
f 145/180/164 160/188/164 161/190/164
f 153/181/165 168/189/165 169/191/165
f 147/184/166 146/182/166 161/190/166
f 155/185/167 154/183/167 169/191/167
f 147/184/168 162/192/168 163/194/168
f 155/185/169 170/193/169 171/195/169
f 149/171/170 148/169/170 163/194/170
f 156/170/171 171/195/171 172/197/171
f 150/173/514 149/171/514 164/196/514
f 150/173/515 165/198/515 166/202/515
f 143/175/176 158/200/176 159/187/176
f 171/195/177 170/193/177 185/203/177
f 164/196/178 163/194/178 178/205/178
f 172/197/179 171/195/179 186/204/179
f 165/198/180 164/196/180 179/206/180
f 165/198/183 180/208/183 181/212/183
f 158/200/184 173/210/184 174/213/184
f 166/202/185 181/212/185 182/214/185
f 159/187/186 174/213/186 175/215/186
f 168/189/187 167/186/187 182/214/187
f 160/188/188 175/215/188 176/217/188
f 168/189/189 183/216/189 184/218/189
f 162/192/190 161/190/190 176/217/190
f 169/191/191 184/218/191 185/203/191
f 162/192/192 177/219/192 178/205/192
f 175/215/193 174/213/193 189/220/193
f 183/216/194 182/214/194 197/222/194
f 175/215/195 190/221/195 191/224/195
f 183/216/196 198/223/196 199/225/196
f 177/219/197 176/217/197 191/224/197
f 185/203/198 184/218/198 199/225/198
f 177/219/199 192/226/199 193/228/199
f 185/203/200 200/227/200 201/229/200
f 179/206/201 178/205/201 193/228/201
f 186/204/202 201/229/202 202/231/202
f 180/208/203 179/206/203 194/230/203
f 180/208/206 195/232/206 196/236/206
f 174/213/207 173/210/207 188/234/207
f 181/212/208 196/236/208 197/222/208
f 194/230/209 193/228/209 208/237/209
f 201/229/210 216/253/210 217/239/210
f 195/232/211 194/230/211 209/238/211
f 195/232/214 210/240/214 211/244/214
f 188/234/215 203/242/215 204/245/215
f 196/236/216 211/244/216 212/246/216
f 189/220/217 204/245/217 205/247/217
f 198/223/218 197/222/218 212/246/218
f 190/221/219 205/247/219 206/249/219
f 198/223/220 213/248/220 214/250/220
f 192/226/221 191/224/221 206/249/221
f 200/227/222 199/225/222 214/250/222
f 192/226/223 207/251/223 208/237/223
f 200/227/224 215/252/224 216/253/224
f 213/248/225 212/246/225 227/254/225
f 205/247/226 220/270/226 221/256/226
f 213/248/227 228/255/227 229/257/227
f 207/251/228 206/249/228 221/256/228
f 215/252/229 214/250/229 229/257/229
f 207/251/230 222/258/230 223/260/230
f 215/252/231 230/259/231 231/261/231
f 209/238/232 208/237/232 223/260/232
f 216/253/233 231/261/233 232/263/233
f 210/240/516 209/238/516 224/262/516
f 210/240/517 225/264/517 226/268/517
f 203/242/238 218/266/238 219/269/238
f 211/244/239 226/268/239 227/254/239
f 204/245/240 219/269/240 220/270/240
f 232/263/241 231/261/241 246/271/241
f 225/264/518 224/262/518 239/273/518
f 225/264/519 240/274/519 241/278/519
f 218/266/246 233/276/246 234/279/246
f 226/268/247 241/278/247 242/280/247
f 220/270/248 219/269/248 234/279/248
f 228/255/249 227/254/249 242/280/249
f 220/270/250 235/281/250 236/283/250
f 228/255/251 243/282/251 244/284/251
f 222/258/252 221/256/252 236/283/252
f 230/259/253 229/257/253 244/284/253
f 222/258/254 237/285/254 238/287/254
f 230/259/255 245/286/255 246/271/255
f 224/262/256 223/260/256 238/287/256
f 243/282/257 258/304/257 259/288/257
f 237/285/258 236/283/258 251/289/258
f 245/286/259 244/284/259 259/288/259
f 237/285/260 252/290/260 253/292/260
f 245/286/261 260/291/261 261/293/261
f 239/273/262 238/287/262 253/292/262
f 246/271/263 261/293/263 262/295/263
f 240/274/264 239/273/264 254/294/264
f 240/274/267 255/296/267 256/300/267
f 233/276/268 248/298/268 249/301/268
f 241/278/269 256/300/269 257/302/269
f 234/279/270 249/301/270 250/303/270
f 243/282/271 242/280/271 257/302/271
f 235/281/272 250/303/272 251/289/272
f 255/296/275 270/321/275 271/309/275
f 249/301/276 248/298/276 263/306/276
f 256/300/277 271/309/277 272/311/277
f 249/301/278 264/310/278 265/312/278
f 258/304/279 257/302/279 272/311/279
f 250/303/280 265/312/280 266/314/280
f 258/304/281 273/313/281 274/315/281
f 252/290/282 251/289/282 266/314/282
f 260/291/283 259/288/283 274/315/283
f 252/290/284 267/316/284 268/318/284
f 260/291/285 275/317/285 276/319/285
f 254/294/286 253/292/286 268/318/286
f 261/293/287 276/319/287 277/308/287
f 255/296/288 254/294/288 269/320/288
f 267/316/289 266/314/289 281/322/289
f 275/317/290 274/315/290 289/324/290
f 267/316/291 282/323/291 283/326/291
f 275/317/292 290/325/292 291/327/292
f 269/320/293 268/318/293 283/326/293
f 277/308/294 276/319/294 291/327/294
f 270/321/295 269/320/295 284/328/295
f 270/321/298 285/330/298 286/334/298
f 264/310/299 263/306/299 278/332/299
f 271/309/300 286/334/300 287/336/300
f 264/310/301 279/335/301 280/337/301
f 273/313/302 272/311/302 287/336/302
f 265/312/303 280/337/303 281/322/303
f 273/313/304 288/338/304 289/324/304
f 285/330/305 300/352/305 301/339/305
f 278/332/306 293/354/306 294/340/306
f 286/334/307 301/339/307 302/341/307
f 279/335/308 294/340/308 295/342/308
f 288/338/309 287/336/309 302/341/309
f 280/337/310 295/342/310 296/344/310
f 288/338/311 303/343/311 304/345/311
f 282/323/312 281/322/312 296/344/312
f 290/325/313 289/324/313 304/345/313
f 282/323/314 297/346/314 298/348/314
f 290/325/315 305/347/315 306/349/315
f 284/328/316 283/326/316 298/348/316
f 292/329/317 291/327/317 306/349/317
f 285/330/318 284/328/318 299/350/318
f 305/347/321 304/345/321 320/356/321
f 297/346/322 313/372/322 314/358/322
f 305/347/323 321/357/323 322/359/323
f 299/350/324 298/348/324 314/358/324
f 306/349/325 322/359/325 323/361/325
f 300/352/326 299/350/326 315/360/326
f 300/352/329 316/362/329 317/366/329
f 293/354/330 309/364/330 310/367/330
f 301/339/331 317/366/331 318/368/331
f 294/340/332 310/367/332 311/369/332
f 303/343/333 302/341/333 318/368/333
f 295/342/334 311/369/334 312/371/334
f 303/343/335 319/370/335 320/356/335
f 297/346/336 296/344/336 312/371/336
f 309/364/337 324/387/337 325/373/337
f 317/366/338 332/389/338 333/374/338
f 310/367/339 325/373/339 326/375/339
f 319/370/340 318/368/340 333/374/340
f 311/369/341 326/375/341 327/377/341
f 319/370/342 334/376/342 335/378/342
f 312/371/343 327/377/343 328/379/343
f 321/357/344 320/356/344 335/378/344
f 313/372/345 328/379/345 329/381/345
f 321/357/346 336/380/346 337/382/346
f 315/360/347 314/358/347 329/381/347
f 322/359/348 337/382/348 338/384/348
f 316/362/349 315/360/349 330/383/349
f 316/362/352 331/385/352 332/389/352
f 328/379/353 343/405/353 344/390/353
f 336/380/354 351/406/354 352/391/354
f 330/383/355 329/381/355 344/390/355
f 337/382/356 352/391/356 353/393/356
f 331/385/357 330/383/357 345/392/357
f 331/385/360 346/394/360 347/398/360
f 324/387/361 339/396/361 340/399/361
f 332/389/362 347/398/362 348/400/362
f 325/373/363 340/399/363 341/401/363
f 334/376/364 333/374/364 348/400/364
f 326/375/365 341/401/365 342/403/365
f 334/376/366 349/402/366 350/404/366
f 328/379/367 327/377/367 342/403/367
f 336/380/368 335/378/368 350/404/368
f 347/398/369 362/423/369 363/407/369
f 341/401/370 340/399/370 355/408/370
f 349/402/371 348/400/371 363/407/371
f 341/401/372 356/409/372 357/411/372
f 349/402/373 364/410/373 365/412/373
f 343/405/374 342/403/374 357/411/374
f 351/406/375 350/404/375 365/412/375
f 343/405/376 358/413/376 359/415/376
f 351/406/377 366/414/377 367/416/377
f 345/392/378 344/390/378 359/415/378
f 352/391/379 367/416/379 368/418/379
f 346/394/380 345/392/380 360/417/380
f 346/394/383 361/419/383 362/423/383
f 339/396/384 354/421/384 355/408/384
f 366/424/385 381/454/385 382/425/385
f 360/427/386 359/455/386 374/428/386
f 367/426/387 382/425/387 383/430/387
f 361/432/388 360/427/388 375/429/388
f 361/432/391 376/433/391 377/438/391
f 354/434/392 369/436/392 370/440/392
f 362/439/393 377/438/393 378/442/393
f 356/444/394 355/441/394 370/440/394
f 364/446/395 363/443/395 378/442/395
f 356/444/396 371/445/396 372/448/396
f 364/446/397 379/447/397 380/450/397
f 358/452/398 357/449/398 372/448/398
f 366/424/399 365/451/399 380/450/399
f 358/452/400 373/453/400 374/428/400
f 379/447/401 378/442/401 393/456/401
f 371/445/402 386/472/402 387/458/402
f 379/447/403 394/457/403 395/459/403
f 373/453/404 372/448/404 387/458/404
f 381/454/405 380/450/405 395/459/405
f 373/453/406 388/460/406 389/462/406
f 381/454/407 396/461/407 397/463/407
f 375/429/408 374/428/408 389/462/408
f 382/425/409 397/463/409 398/465/409
f 376/433/410 375/429/410 390/464/410
f 376/433/413 391/466/413 392/470/413
f 369/436/414 384/468/414 385/471/414
f 377/438/415 392/470/415 393/456/415
f 371/445/416 370/440/416 385/471/416
f 397/463/417 412/489/417 413/473/417
f 391/466/418 390/464/418 405/474/418
f 391/466/421 406/475/421 407/479/421
f 385/471/422 384/468/422 399/477/422
f 392/470/423 407/479/423 408/481/423
f 385/471/424 400/480/424 401/482/424
f 394/457/425 393/456/425 408/481/425
f 386/472/426 401/482/426 402/484/426
f 394/457/427 409/483/427 410/485/427
f 388/460/428 387/458/428 402/484/428
f 396/461/429 395/459/429 410/485/429
f 388/460/430 403/486/430 404/488/430
f 397/463/431 396/461/431 411/487/431
f 390/464/432 389/462/432 404/488/432
f 401/482/433 416/505/433 417/490/433
f 409/483/434 424/506/434 425/491/434
f 403/486/435 402/484/435 417/490/435
f 411/487/436 410/485/436 425/491/436
f 403/486/437 418/492/437 419/494/437
f 411/487/438 426/493/438 427/495/438
f 405/474/439 404/488/439 419/494/439
f 412/489/440 427/495/440 428/497/440
f 406/475/441 405/474/441 420/496/441
f 406/475/444 421/498/444 422/502/444
f 399/477/445 414/500/445 415/503/445
f 407/479/446 422/502/446 423/504/446
f 401/482/447 400/480/447 415/503/447
f 409/483/448 408/481/448 423/504/448
f 421/498/449 420/496/449 435/507/449
f 421/498/452 436/508/452 437/513/452
f 414/500/453 429/510/453 430/514/453
f 422/502/454 437/513/454 438/515/454
f 416/505/455 415/503/455 430/514/455
f 424/506/456 423/504/456 438/515/456
f 416/505/457 431/516/457 432/518/457
f 424/506/458 439/517/458 440/519/458
f 418/492/459 417/490/459 432/518/459
f 426/493/460 425/491/460 440/519/460
f 418/492/461 433/520/461 434/522/461
f 426/493/462 441/521/462 442/523/462
f 420/496/463 419/494/463 434/522/463
f 427/495/464 442/523/464 443/512/464
f 439/517/465 454/540/465 455/524/465
f 433/520/466 432/518/466 447/525/466
f 441/521/467 440/519/467 455/524/467
f 433/520/468 448/526/468 449/528/468
f 441/521/469 456/527/469 457/529/469
f 435/507/470 434/522/470 449/528/470
f 442/523/471 457/529/471 458/531/471
f 436/508/472 435/507/472 450/530/472
f 436/508/475 451/532/475 452/536/475
f 430/514/476 429/510/476 444/534/476
f 437/513/477 452/536/477 453/538/477
f 430/514/478 445/537/478 446/539/478
f 439/517/479 438/515/479 453/538/479
f 431/516/480 446/539/480 447/525/480
f 451/532/483 466/557/483 467/545/483
f 444/534/484 459/542/484 460/546/484
f 452/536/485 467/545/485 468/547/485
f 446/539/486 445/537/486 460/546/486
f 454/540/487 453/538/487 468/547/487
f 446/539/488 461/548/488 462/550/488
f 454/540/489 469/549/489 470/551/489
f 448/526/490 447/525/490 462/550/490
f 456/527/491 455/524/491 470/551/491
f 448/526/492 463/552/492 464/554/492
f 456/527/493 471/553/493 472/555/493
f 450/530/494 449/528/494 464/554/494
f 458/531/495 457/529/495 472/555/495
f 451/532/496 450/530/496 465/556/496
f 463/552/497 462/550/497 476/32/497
f 471/553/498 470/551/498 479/3/498
f 464/554/499 463/552/499 2/4/499
f 471/553/500 480/8/500 481/12/500
f 465/556/501 464/554/501 477/9/501
f 472/555/502 481/12/502 482/16/502
f 466/557/520 465/556/520 3/13/520
f 466/557/521 4/18/521 5/24/521
f 460/546/507 459/542/507 474/19/507
f 467/545/508 5/24/508 478/28/508
f 461/548/509 460/546/509 475/25/509
f 468/547/510 478/28/510 6/1/510
f 462/550/511 461/548/511 1/29/511
f 469/549/512 6/1/512 479/3/512
o 円錐
v -0.557712 0.506756 -0.220131
v -0.516968 0.532747 -0.215901
v -0.477791 0.557740 -0.203374
v -0.441685 0.580774 -0.183032
v -0.410037 0.600963 -0.155656
v -0.384065 0.617531 -0.122298
v -0.364766 0.629843 -0.084240
v -0.352882 0.637425 -0.042945
v -0.348869 0.639984 0.000000
v -0.352882 0.637425 0.042945
v -0.364766 0.629843 0.084240
v -0.384065 0.617531 0.122298
v -0.410037 0.600963 0.155656
v -0.441685 0.580774 0.183032
v -0.477791 0.557740 0.203374
v -0.516968 0.532747 0.215901
v -0.557712 0.506756 0.220131
v -0.598455 0.480764 0.215901
v -0.637632 0.455771 0.203374
v -0.673739 0.432738 0.183032
v -0.705386 0.412549 0.155656
v -0.731358 0.395980 0.122298
v -0.750657 0.383668 0.084240
v -0.762542 0.376087 0.042945
v -0.766555 0.373527 0.000000
v -0.762542 0.376087 -0.042945
v -0.750657 0.383668 -0.084240
v -0.731358 0.395980 -0.122298
v -0.705386 0.412549 -0.155656
v -0.673739 0.432738 -0.183032
v -0.637632 0.455771 -0.203374
v -0.598455 0.480764 -0.215901
v -0.862281 0.984183 0.000000
vn -0.1257 0.3482 -0.9290
vn 0.0089 0.4369 -0.8994
vn 0.1382 0.5251 -0.8398
vn 0.2589 0.6098 -0.7491
vn 0.3667 0.6874 -0.6269
vn 0.4558 0.7529 -0.4747
vn 0.5202 0.8009 -0.2967
vn 0.5540 0.8264 -0.1010
vn 0.5540 0.8264 0.1010
vn 0.5202 0.8009 0.2967
vn 0.4558 0.7529 0.4747
vn 0.3667 0.6874 0.6269
vn 0.2589 0.6098 0.7491
vn 0.1382 0.5251 0.8398
vn 0.0089 0.4369 0.8994
vn -0.1257 0.3482 0.9290
vn -0.2628 0.2607 0.9290
vn -0.4000 0.1761 0.8994
vn -0.5344 0.0960 0.8398
vn -0.6621 0.0222 0.7491
vn -0.7779 -0.0428 0.6269
vn -0.8749 -0.0960 0.4747
vn -0.9455 -0.1341 0.2967
vn -0.9829 -0.1541 0.1010
vn -0.9829 -0.1541 -0.1010
vn -0.9455 -0.1341 -0.2967
vn -0.8749 -0.0960 -0.4747
vn -0.7779 -0.0428 -0.6269
vn -0.6621 0.0222 -0.7491
vn -0.5344 0.0960 -0.8398
vn 0.5378 -0.8431 -0.0000
vn -0.4000 0.1761 -0.8994
vn -0.2628 0.2607 -0.9290
vt 0.384520 0.529132
vt 0.372251 0.529092
vt 0.384292 0.526774
vt 0.383602 0.524505
vt 0.382475 0.522413
vt 0.380955 0.520577
vt 0.379101 0.519069
vt 0.376983 0.517946
vt 0.374684 0.517251
vt 0.372291 0.517011
vt 0.369896 0.517235
vt 0.367593 0.517915
vt 0.365468 0.519025
vt 0.363603 0.520521
vt 0.362071 0.522347
vt 0.360931 0.524432
vt 0.360225 0.526696
vt 0.359981 0.529052
vt 0.360209 0.531410
vt 0.360900 0.533679
vt 0.362027 0.535771
vt 0.363546 0.537607
vt 0.365401 0.539115
vt 0.367518 0.540239
vt 0.369817 0.540933
vt 0.372210 0.541173
vt 0.374605 0.540949
vt 0.376909 0.540269
vt 0.379034 0.539159
vt 0.380898 0.537663
vt 0.382430 0.535837
vt 0.383571 0.533752
vt 0.360309 0.501527
vt 0.369901 0.515764
vt 0.384360 0.506319
vt 0.384277 0.531488
vt 0.384604 0.503963
vt 0.384376 0.501605
vt 0.383686 0.499336
vt 0.382559 0.497244
vt 0.381039 0.495408
vt 0.379185 0.493900
vt 0.377067 0.492776
vt 0.374768 0.492082
vt 0.372375 0.491842
vt 0.369980 0.492066
vt 0.367676 0.492746
vt 0.365551 0.493856
vt 0.363687 0.495352
vt 0.362155 0.497178
vt 0.361014 0.499263
vt 0.360065 0.503883
vt 0.360293 0.506241
vt 0.360984 0.508510
vt 0.362110 0.510602
vt 0.363630 0.512438
vt 0.365484 0.513946
vt 0.367602 0.515069
vt 0.372294 0.516004
vt 0.374689 0.515780
vt 0.376993 0.515100
vt 0.379118 0.513990
vt 0.380982 0.512494
vt 0.382514 0.510668
vt 0.383655 0.508583
s 0
usemtl マテリアル
f 483/560/522 515/561/522 484/562/522
f 484/562/523 515/561/523 485/563/523
f 485/563/524 515/561/524 486/564/524
f 486/564/525 515/561/525 487/565/525
f 487/565/526 515/561/526 488/566/526
f 488/566/527 515/561/527 489/567/527
f 489/567/528 515/561/528 490/568/528
f 490/568/529 515/561/529 491/569/529
f 491/569/530 515/561/530 492/570/530
f 492/570/531 515/561/531 493/571/531
f 493/571/532 515/561/532 494/572/532
f 494/572/533 515/561/533 495/573/533
f 495/573/534 515/561/534 496/574/534
f 496/574/535 515/561/535 497/575/535
f 497/575/536 515/561/536 498/576/536
f 498/576/537 515/561/537 499/577/537
f 499/577/538 515/561/538 500/578/538
f 500/578/539 515/561/539 501/579/539
f 501/579/540 515/561/540 502/580/540
f 502/580/541 515/561/541 503/581/541
f 503/581/542 515/561/542 504/582/542
f 504/582/543 515/561/543 505/583/543
f 505/583/544 515/561/544 506/584/544
f 506/584/545 515/561/545 507/585/545
f 507/585/546 515/561/546 508/586/546
f 508/586/547 515/561/547 509/587/547
f 509/587/548 515/561/548 510/588/548
f 510/588/549 515/561/549 511/589/549
f 511/589/550 515/561/550 512/590/550
f 512/590/551 515/561/551 513/591/551
f 498/592/552 506/593/552 514/594/552
f 513/591/553 515/561/553 514/595/553
f 514/595/554 515/561/554 483/560/554
f 514/594/552 483/596/552 484/597/552
f 484/597/552 485/598/552 486/599/552
f 486/599/552 487/600/552 488/601/552
f 488/601/552 489/602/552 490/603/552
f 490/603/552 491/604/552 492/605/552
f 492/605/552 493/606/552 494/607/552
f 494/607/552 495/608/552 496/609/552
f 496/609/552 497/610/552 498/592/552
f 498/592/552 499/611/552 500/612/552
f 500/612/552 501/613/552 502/614/552
f 502/614/552 503/615/552 504/616/552
f 504/616/552 505/617/552 506/593/552
f 506/593/552 507/618/552 508/619/552
f 508/619/552 509/620/552 510/621/552
f 510/621/552 511/622/552 512/623/552
f 512/623/552 513/624/552 514/594/552
f 514/594/552 484/597/552 486/599/552
f 486/599/552 488/601/552 490/603/552
f 490/603/552 492/605/552 494/607/552
f 494/607/552 496/609/552 498/592/552
f 498/592/552 500/612/552 502/614/552
f 502/614/552 504/616/552 506/593/552
f 506/593/552 508/619/552 510/621/552
f 510/621/552 512/623/552 514/594/552
f 514/594/552 486/599/552 490/603/552
f 490/603/552 494/607/552 498/592/552
f 498/592/552 502/614/552 506/593/552
f 506/593/552 510/621/552 514/594/552
f 514/594/552 490/603/552 498/592/552
o 円錐.001
v 0.557716 0.506756 -0.220131
v 0.598459 0.480764 -0.215901
v 0.637636 0.455771 -0.203374
v 0.673743 0.432738 -0.183032
v 0.705390 0.412549 -0.155656
v 0.731362 0.395980 -0.122298
v 0.750661 0.383668 -0.084240
v 0.762546 0.376087 -0.042945
v 0.766559 0.373527 0.000000
v 0.762546 0.376087 0.042945
v 0.750661 0.383668 0.084240
v 0.731362 0.395980 0.122298
v 0.705390 0.412549 0.155656
v 0.673743 0.432738 0.183032
v 0.637636 0.455771 0.203374
v 0.598459 0.480764 0.215901
v 0.557716 0.506756 0.220131
v 0.516972 0.532747 0.215901
v 0.477795 0.557740 0.203374
v 0.441689 0.580773 0.183032
v 0.410041 0.600962 0.155656
v 0.384069 0.617531 0.122298
v 0.364770 0.629843 0.084240
v 0.352885 0.637424 0.042945
v 0.348873 0.639984 0.000000
v 0.352885 0.637424 -0.042945
v 0.364770 0.629843 -0.084240
v 0.384069 0.617531 -0.122298
v 0.410041 0.600962 -0.155656
v 0.441689 0.580773 -0.183032
v 0.477795 0.557740 -0.203374
v 0.516972 0.532747 -0.215901
v 0.862284 0.984183 0.000000
vn 0.2628 0.2607 -0.9290
vn 0.4000 0.1761 -0.8994
vn 0.5344 0.0960 -0.8398
vn 0.6621 0.0222 -0.7491
vn 0.7779 -0.0428 -0.6269
vn 0.8749 -0.0960 -0.4747
vn 0.9455 -0.1341 -0.2967
vn 0.9829 -0.1541 -0.1010
vn 0.9829 -0.1541 0.1010
vn 0.9455 -0.1341 0.2967
vn 0.8749 -0.0960 0.4747
vn 0.7779 -0.0428 0.6269
vn 0.6621 0.0222 0.7491
vn 0.5344 0.0960 0.8398
vn 0.4000 0.1761 0.8994
vn 0.2628 0.2607 0.9290
vn 0.1257 0.3482 0.9290
vn -0.0089 0.4369 0.8994
vn -0.1382 0.5251 0.8398
vn -0.2589 0.6098 0.7491
vn -0.3667 0.6874 0.6269
vn -0.4558 0.7529 0.4747
vn -0.5202 0.8009 0.2967
vn -0.5540 0.8264 0.1010
vn -0.5540 0.8264 -0.1010
vn -0.5202 0.8009 -0.2967
vn -0.4558 0.7529 -0.4747
vn -0.3667 0.6874 -0.6269
vn -0.2589 0.6098 -0.7491
vn -0.1382 0.5251 -0.8398
vn -0.5378 -0.8431 -0.0000
vn -0.0089 0.4369 -0.8994
vn 0.1257 0.3482 -0.9290
vt 0.384520 0.529132
vt 0.372251 0.529092
vt 0.384292 0.526774
vt 0.383602 0.524505
vt 0.382475 0.522413
vt 0.380955 0.520577
vt 0.379101 0.519069
vt 0.376983 0.517946
vt 0.374684 0.517251
vt 0.372291 0.517011
vt 0.369896 0.517235
vt 0.367593 0.517915
vt 0.365468 0.519025
vt 0.363603 0.520521
vt 0.362071 0.522347
vt 0.360931 0.524432
vt 0.360225 0.526696
vt 0.359981 0.529052
vt 0.360209 0.531410
vt 0.360900 0.533679
vt 0.362027 0.535771
vt 0.363546 0.537607
vt 0.365401 0.539115
vt 0.367518 0.540239
vt 0.369817 0.540933
vt 0.372210 0.541173
vt 0.374605 0.540949
vt 0.376909 0.540269
vt 0.379034 0.539159
vt 0.380898 0.537663
vt 0.382430 0.535837
vt 0.383571 0.533752
vt 0.360309 0.501527
vt 0.369901 0.515764
vt 0.384360 0.506319
vt 0.384277 0.531488
vt 0.384604 0.503963
vt 0.384376 0.501605
vt 0.383686 0.499336
vt 0.382559 0.497244
vt 0.381039 0.495408
vt 0.379185 0.493900
vt 0.377067 0.492776
vt 0.374768 0.492082
vt 0.372375 0.491842
vt 0.369980 0.492066
vt 0.367676 0.492746
vt 0.365551 0.493856
vt 0.363687 0.495352
vt 0.362155 0.497178
vt 0.361014 0.499263
vt 0.360065 0.503883
vt 0.360293 0.506241
vt 0.360984 0.508510
vt 0.362110 0.510602
vt 0.363630 0.512438
vt 0.365484 0.513946
vt 0.367602 0.515069
vt 0.372294 0.516004
vt 0.374689 0.515780
vt 0.376993 0.515100
vt 0.379118 0.513990
vt 0.380982 0.512494
vt 0.382514 0.510668
vt 0.383655 0.508583
s 0
usemtl マテリアル
f 516/625/555 548/626/555 517/627/555
f 517/627/556 548/626/556 518/628/556
f 518/628/557 548/626/557 519/629/557
f 519/629/558 548/626/558 520/630/558
f 520/630/559 548/626/559 521/631/559
f 521/631/560 548/626/560 522/632/560
f 522/632/561 548/626/561 523/633/561
f 523/633/562 548/626/562 524/634/562
f 524/634/563 548/626/563 525/635/563
f 525/635/564 548/626/564 526/636/564
f 526/636/565 548/626/565 527/637/565
f 527/637/566 548/626/566 528/638/566
f 528/638/567 548/626/567 529/639/567
f 529/639/568 548/626/568 530/640/568
f 530/640/569 548/626/569 531/641/569
f 531/641/570 548/626/570 532/642/570
f 532/642/571 548/626/571 533/643/571
f 533/643/572 548/626/572 534/644/572
f 534/644/573 548/626/573 535/645/573
f 535/645/574 548/626/574 536/646/574
f 536/646/575 548/626/575 537/647/575
f 537/647/576 548/626/576 538/648/576
f 538/648/577 548/626/577 539/649/577
f 539/649/578 548/626/578 540/650/578
f 540/650/579 548/626/579 541/651/579
f 541/651/580 548/626/580 542/652/580
f 542/652/581 548/626/581 543/653/581
f 543/653/582 548/626/582 544/654/582
f 544/654/583 548/626/583 545/655/583
f 545/655/584 548/626/584 546/656/584
f 531/657/585 539/658/585 547/659/585
f 546/656/586 548/626/586 547/660/586
f 547/660/587 548/626/587 516/625/587
f 547/659/585 516/661/585 517/662/585
f 517/662/585 518/663/585 519/664/585
f 519/664/585 520/665/585 521/666/585
f 521/666/585 522/667/585 523/668/585
f 523/668/585 524/669/585 525/670/585
f 525/670/585 526/671/585 527/672/585
f 527/672/585 528/673/585 529/674/585
f 529/674/585 530/675/585 531/657/585
f 531/657/585 532/676/585 533/677/585
f 533/677/585 534/678/585 535/679/585
f 535/679/585 536/680/585 537/681/585
f 537/681/585 538/682/585 539/658/585
f 539/658/585 540/683/585 541/684/585
f 541/684/585 542/685/585 543/686/585
f 543/686/585 544/687/585 545/688/585
f 545/688/585 546/689/585 547/659/585
f 547/659/585 517/662/585 519/664/585
f 519/664/585 521/666/585 523/668/585
f 523/668/585 525/670/585 527/672/585
f 527/672/585 529/674/585 531/657/585
f 531/657/585 533/677/585 535/679/585
f 535/679/585 537/681/585 539/658/585
f 539/658/585 541/684/585 543/686/585
f 543/686/585 545/688/585 547/659/585
f 547/659/585 519/664/585 523/668/585
f 523/668/585 527/672/585 531/657/585
f 531/657/585 535/679/585 539/658/585
f 539/658/585 543/686/585 547/659/585
f 547/659/585 523/668/585 531/657/585
