{
	"asset":{
		"generator":"Khronos glTF Blender I/O v4.4.56",
		"version":"2.0"
	},
	"scene":0,
	"scenes":[
		{
			"name":"Scene",
			"nodes":[
				6
			]
		}
	],
	"nodes":[
		{
			"name":"head",
			"rotation":[
				-1,
				1.873544649899903e-30,
				7.549790126404332e-08,
				1.5777218104420236e-30
			]
		},
		{
			"children":[
				0
			],
			"name":"root",
			"rotation":[
				-1,
				2.928983286277023e-16,
				-1.7114272665708086e-08,
				8.557136332854043e-09
			],
			"translation":[
				0,
				-0.7943721413612366,
				0
			]
		},
		{
			"mesh":0,
			"name":"\u5186\u9310.002",
			"skin":0
		},
		{
			"mesh":1,
			"name":"\u7403.005",
			"skin":0
		},
		{
			"mesh":2,
			"name":"\u7403.007",
			"skin":0
		},
		{
			"mesh":3,
			"name":"\u7acb\u65b9\u4f53",
			"skin":0
		},
		{
			"children":[
				2,
				3,
				4,
				5,
				1
			],
			"name":"\u30a2\u30fc\u30de\u30c1\u30e5\u30a2"
		}
	],
	"materials":[
		{
			"doubleSided":true,
			"name":"\u30de\u30c6\u30ea\u30a2\u30eb.010",
			"pbrMetallicRoughness":{
				"baseColorTexture":{
					"index":0
				},
				"metallicFactor":0,
				"roughnessFactor":0.5
			}
		},
		{
			"doubleSided":true,
			"name":"\u30de\u30c6\u30ea\u30a2\u30eb.009",
			"pbrMetallicRoughness":{
				"baseColorTexture":{
					"index":1
				},
				"metallicFactor":0,
				"roughnessFactor":0.5
			}
		}
	],
	"meshes":[
		{
			"name":"\u5186\u9310.002",
			"primitives":[
				{
					"attributes":{
						"POSITION":0,
						"NORMAL":1,
						"TEXCOORD_0":2,
						"JOINTS_0":3,
						"WEIGHTS_0":4
					},
					"indices":5,
					"material":0
				}
			]
		},
		{
			"name":"\u7403.005",
			"primitives":[
				{
					"attributes":{
						"POSITION":7,
						"NORMAL":8,
						"TEXCOORD_0":9,
						"JOINTS_0":10,
						"WEIGHTS_0":11
					},
					"indices":12,
					"material":0
				}
			]
		},
		{
			"name":"\u7403.007",
			"primitives":[
				{
					"attributes":{
						"POSITION":13,
						"NORMAL":14,
						"TEXCOORD_0":15,
						"JOINTS_0":16,
						"WEIGHTS_0":17
					},
					"indices":18,
					"material":0
				}
			]
		},
		{
			"name":"\u7acb\u65b9\u4f53",
			"primitives":[
				{
					"attributes":{
						"POSITION":19,
						"NORMAL":20,
						"TEXCOORD_0":21,
						"JOINTS_0":22,
						"WEIGHTS_0":23
					},
					"indices":24,
					"material":1
				}
			]
		}
	],
	"textures":[
		{
			"sampler":0,
			"source":0
		},
		{
			"sampler":0,
			"source":1
		}
	],
	"images":[
		{
			"mimeType":"image/png",
			"name":"happyEnemyD",
			"uri":"happyEnemyD.png"
		},
		{
			"mimeType":"image/png",
			"name":"happyEnemyH",
			"uri":"happyEnemyH.png"
		}
	],
	"skins":[
		{
			"inverseBindMatrices":6,
			"joints":[
				1,
				0
			],
			"name":"\u30a2\u30fc\u30de\u30c1\u30e5\u30a2"
		}
	],
	"accessors":[
		{
			"bufferView":0,
			"componentType":5126,
			"count":128,
			"max":[
				0.3397049903869629,
				0.3738190531730652,
				1.5981190204620361
			],
			"min":[
				-0.3329460024833679,
				-0.35118594765663147,
				0.8644729852676392
			],
			"type":"VEC3"
		},
		{
			"bufferView":1,
			"componentType":5126,
			"count":128,
			"type":"VEC3"
		},
		{
			"bufferView":2,
			"componentType":5126,
			"count":128,
			"type":"VEC2"
		},
		{
			"bufferView":3,
			"componentType":5121,
			"count":128,
			"type":"VEC4"
		},
		{
			"bufferView":4,
			"componentType":5126,
			"count":128,
			"type":"VEC4"
		},
		{
			"bufferView":5,
			"componentType":5123,
			"count":186,
			"type":"SCALAR"
		},
		{
			"bufferView":6,
			"componentType":5126,
			"count":2,
			"type":"MAT4"
		},
		{
			"bufferView":7,
			"componentType":5126,
			"count":35409,
			"max":[
				1.00553297996521,
				0.9975770115852356,
				0.9872310161590576
			],
			"min":[
				-0.9689289927482605,
				-0.9975770115852356,
				-0.9872310161590576
			],
			"type":"VEC3"
		},
		{
			"bufferView":8,
			"componentType":5126,
			"count":35409,
			"type":"VEC3"
		},
		{
			"bufferView":9,
			"componentType":5126,
			"count":35409,
			"type":"VEC2"
		},
		{
			"bufferView":10,
			"componentType":5121,
			"count":35409,
			"type":"VEC4"
		},
		{
			"bufferView":11,
			"componentType":5126,
			"count":35409,
			"type":"VEC4"
		},
		{
			"bufferView":12,
			"componentType":5123,
			"count":47616,
			"type":"SCALAR"
		},
		{
			"bufferView":13,
			"componentType":5126,
			"count":1882,
			"max":[
				0.999921977519989,
				-0.6312900185585022,
				0.96465003490448
			],
			"min":[
				-1.0000770092010498,
				-1.0593910217285156,
				-0.8427899479866028
			],
			"type":"VEC3"
		},
		{
			"bufferView":14,
			"componentType":5126,
			"count":1882,
			"type":"VEC3"
		},
		{
			"bufferView":15,
			"componentType":5126,
			"count":1882,
			"type":"VEC2"
		},
		{
			"bufferView":16,
			"componentType":5121,
			"count":1882,
			"type":"VEC4"
		},
		{
			"bufferView":17,
			"componentType":5126,
			"count":1882,
			"type":"VEC4"
		},
		{
			"bufferView":18,
			"componentType":5123,
			"count":2880,
			"type":"SCALAR"
		},
		{
			"bufferView":19,
			"componentType":5126,
			"count":24,
			"max":[
				-0.3137120008468628,
				1.1582709550857544,
				0.2294069528579712
			],
			"min":[
				-0.8459519743919373,
				0.670760989189148,
				-0.09547008574008942
			],
			"type":"VEC3"
		},
		{
			"bufferView":20,
			"componentType":5126,
			"count":24,
			"type":"VEC3"
		},
		{
			"bufferView":21,
			"componentType":5126,
			"count":24,
			"type":"VEC2"
		},
		{
			"bufferView":22,
			"componentType":5121,
			"count":24,
			"type":"VEC4"
		},
		{
			"bufferView":23,
			"componentType":5126,
			"count":24,
			"type":"VEC4"
		},
		{
			"bufferView":24,
			"componentType":5123,
			"count":36,
			"type":"SCALAR"
		}
	],
	"bufferViews":[
		{
			"buffer":0,
			"byteLength":1536,
			"byteOffset":0,
			"target":34962
		},
		{
			"buffer":0,
			"byteLength":1536,
			"byteOffset":1536,
			"target":34962
		},
		{
			"buffer":0,
			"byteLength":1024,
			"byteOffset":3072,
			"target":34962
		},
		{
			"buffer":0,
			"byteLength":512,
			"byteOffset":4096,
			"target":34962
		},
		{
			"buffer":0,
			"byteLength":2048,
			"byteOffset":4608,
			"target":34962
		},
		{
			"buffer":0,
			"byteLength":372,
			"byteOffset":6656,
			"target":34963
		},
		{
			"buffer":0,
			"byteLength":128,
			"byteOffset":7028
		},
		{
			"buffer":0,
			"byteLength":424908,
			"byteOffset":7156,
			"target":34962
		},
		{
			"buffer":0,
			"byteLength":424908,
			"byteOffset":432064,
			"target":34962
		},
		{
			"buffer":0,
			"byteLength":283272,
			"byteOffset":856972,
			"target":34962
		},
		{
			"buffer":0,
			"byteLength":141636,
			"byteOffset":1140244,
			"target":34962
		},
		{
			"buffer":0,
			"byteLength":566544,
			"byteOffset":1281880,
			"target":34962
		},
		{
			"buffer":0,
			"byteLength":95232,
			"byteOffset":1848424,
			"target":34963
		},
		{
			"buffer":0,
			"byteLength":22584,
			"byteOffset":1943656,
			"target":34962
		},
		{
			"buffer":0,
			"byteLength":22584,
			"byteOffset":1966240,
			"target":34962
		},
		{
			"buffer":0,
			"byteLength":15056,
			"byteOffset":1988824,
			"target":34962
		},
		{
			"buffer":0,
			"byteLength":7528,
			"byteOffset":2003880,
			"target":34962
		},
		{
			"buffer":0,
			"byteLength":30112,
			"byteOffset":2011408,
			"target":34962
		},
		{
			"buffer":0,
			"byteLength":5760,
			"byteOffset":2041520,
			"target":34963
		},
		{
			"buffer":0,
			"byteLength":288,
			"byteOffset":2047280,
			"target":34962
		},
		{
			"buffer":0,
			"byteLength":288,
			"byteOffset":2047568,
			"target":34962
		},
		{
			"buffer":0,
			"byteLength":192,
			"byteOffset":2047856,
			"target":34962
		},
		{
			"buffer":0,
			"byteLength":96,
			"byteOffset":2048048,
			"target":34962
		},
		{
			"buffer":0,
			"byteLength":384,
			"byteOffset":2048144,
			"target":34962
		},
		{
			"buffer":0,
			"byteLength":72,
			"byteOffset":2048528,
			"target":34963
		}
	],
	"samplers":[
		{
			"magFilter":9729,
			"minFilter":9987
		}
	],
	"buffers":[
		{
			"byteLength":2048600,
			"uri":"happyEnemy.bin"
		}
	]
}
