{
	"asset":{
		"generator":"Khronos glTF Blender I/O v4.4.56",
		"version":"2.0"
	},
	"scene":0,
	"scenes":[
		{
			"name":"Scene",
			"nodes":[
				16
			]
		}
	],
	"nodes":[
		{
			"name":"BodyUpper"
		},
		{
			"name":"UpperArm.L",
			"rotation":[
				-0.24567051231861115,
				5.1194053440895004e-08,
				2.0033514402939545e-08,
				0.9693533778190613
			],
			"translation":[
				0,
				0.943428635597229,
				0
			]
		},
		{
			"children":[
				1
			],
			"name":"Chest.L",
			"rotation":[
				-0.5,
				-0.5,
				-0.5,
				0.5
			]
		},
		{
			"name":"UpperArm.R",
			"rotation":[
				-0.25142788887023926,
				-8.220776948064668e-09,
				-3.1646024467590905e-08,
				0.9678760170936584
			],
			"translation":[
				0,
				0.943428635597229,
				0
			]
		},
		{
			"children":[
				3
			],
			"name":"Chest.R",
			"rotation":[
				-0.5,
				0.5,
				0.5,
				0.5
			]
		},
		{
			"name":"UpperLeg.R",
			"rotation":[
				-0.4575432240962982,
				0.01018853671848774,
				0.20933431386947632,
				0.864135205745697
			],
			"scale":[
				0.9999999403953552,
				0.9999999403953552,
				0.9999999403953552
			],
			"translation":[
				-2.3283064365386963e-08,
				0.5225462317466736,
				-2.2351741790771484e-08
			]
		},
		{
			"children":[
				5
			],
			"name":"Hip.R",
			"rotation":[
				0.12190958112478256,
				0.0729043260216713,
				0.5283248424530029,
				0.8370758295059204
			],
			"scale":[
				1,
				0.9999998807907104,
				1
			],
			"translation":[
				0,
				0.660855770111084,
				0
			]
		},
		{
			"name":"UpperLeg.L",
			"rotation":[
				-0.534457802772522,
				0.016898686066269875,
				-0.217843696475029,
				0.8164640069007874
			],
			"scale":[
				1,
				0.9999999403953552,
				1
			],
			"translation":[
				3.821174487939061e-08,
				0.4901069402694702,
				0
			]
		},
		{
			"children":[
				7
			],
			"name":"Hip.L",
			"rotation":[
				0.18091267347335815,
				-0.11469297111034393,
				-0.5230068564414978,
				0.8249726891517639
			],
			"scale":[
				1.0000001192092896,
				1,
				1
			],
			"translation":[
				0,
				0.660855770111084,
				0
			]
		},
		{
			"children":[
				6,
				8
			],
			"name":"BodyLower",
			"rotation":[
				-1,
				0,
				0,
				2.980232594040899e-08
			],
			"scale":[
				1,
				0.9999999403953552,
				0.9999999403953552
			]
		},
		{
			"name":"neutral_bone",
			"rotation":[
				-0.7071067690849304,
				0,
				0,
				0.7071067690849304
			]
		},
		{
			"mesh":0,
			"name":"\u7403",
			"skin":0
		},
		{
			"mesh":1,
			"name":"\u7403.001",
			"rotation":[
				0.7071068286895752,
				0,
				0,
				0.7071068286895752
			]
		},
		{
			"mesh":2,
			"name":"\u7403.002",
			"skin":0
		},
		{
			"mesh":3,
			"name":"\u7403.003",
			"skin":0
		},
		{
			"mesh":4,
			"name":"\u7403.004",
			"skin":0
		},
		{
			"children":[
				11,
				12,
				13,
				14,
				15,
				0,
				2,
				4,
				9,
				10
			],
			"name":"\u30a2\u30fc\u30de\u30c1\u30e5\u30a2"
		}
	],
	"materials":[
		{
			"doubleSided":true,
			"name":"\u30de\u30c6\u30ea\u30a2\u30eb.002",
			"pbrMetallicRoughness":{
				"baseColorTexture":{
					"index":0
				},
				"metallicFactor":0,
				"roughnessFactor":0.5
			}
		}
	],
	"meshes":[
		{
			"name":"\u7403",
			"primitives":[
				{
					"attributes":{
						"POSITION":0,
						"NORMAL":1,
						"TEXCOORD_0":2,
						"JOINTS_0":3,
						"WEIGHTS_0":4
					},
					"indices":5,
					"material":0
				}
			]
		},
		{
			"name":"\u7403.001",
			"primitives":[
				{
					"attributes":{
						"POSITION":7,
						"NORMAL":8,
						"TEXCOORD_0":9,
						"JOINTS_0":10,
						"WEIGHTS_0":11
					},
					"indices":12,
					"material":0
				}
			]
		},
		{
			"name":"\u7403.002",
			"primitives":[
				{
					"attributes":{
						"POSITION":13,
						"NORMAL":14,
						"TEXCOORD_0":15,
						"JOINTS_0":16,
						"WEIGHTS_0":17
					},
					"indices":18,
					"material":0
				}
			]
		},
		{
			"name":"\u7403.003",
			"primitives":[
				{
					"attributes":{
						"POSITION":19,
						"NORMAL":20,
						"TEXCOORD_0":21,
						"JOINTS_0":22,
						"WEIGHTS_0":23
					},
					"indices":24,
					"material":0
				}
			]
		},
		{
			"name":"\u7403.004",
			"primitives":[
				{
					"attributes":{
						"POSITION":25,
						"NORMAL":26,
						"TEXCOORD_0":27,
						"JOINTS_0":28,
						"WEIGHTS_0":29
					},
					"indices":30,
					"material":0
				}
			]
		}
	],
	"textures":[
		{
			"sampler":0,
			"source":0
		}
	],
	"images":[
		{
			"mimeType":"image/png",
			"name":"normalEnemy",
			"uri":"normalEnemy.png"
		}
	],
	"skins":[
		{
			"inverseBindMatrices":6,
			"joints":[
				0,
				2,
				1,
				4,
				3,
				9,
				6,
				5,
				8,
				7,
				10
			],
			"name":"\u30a2\u30fc\u30de\u30c1\u30e5\u30a2"
		}
	],
	"accessors":[
		{
			"bufferView":0,
			"componentType":5126,
			"count":3960,
			"max":[
				1.3451529741287231,
				0.2763580083847046,
				0.23590299487113953
			],
			"min":[
				0.7110869884490967,
				-0.2763580083847046,
				-0.23590299487113953
			],
			"type":"VEC3"
		},
		{
			"bufferView":1,
			"componentType":5126,
			"count":3960,
			"type":"VEC3"
		},
		{
			"bufferView":2,
			"componentType":5126,
			"count":3960,
			"type":"VEC2"
		},
		{
			"bufferView":3,
			"componentType":5121,
			"count":3960,
			"type":"VEC4"
		},
		{
			"bufferView":4,
			"componentType":5126,
			"count":3960,
			"type":"VEC4"
		},
		{
			"bufferView":5,
			"componentType":5123,
			"count":5760,
			"type":"SCALAR"
		},
		{
			"bufferView":6,
			"componentType":5126,
			"count":11,
			"type":"MAT4"
		},
		{
			"bufferView":7,
			"componentType":5126,
			"count":20657,
			"max":[
				0.9893098473548889,
				0.9975767135620117,
				0.9893093109130859
			],
			"min":[
				-0.9893090128898621,
				-0.9975767135620117,
				-0.9892740845680237
			],
			"type":"VEC3"
		},
		{
			"bufferView":8,
			"componentType":5126,
			"count":20657,
			"type":"VEC3"
		},
		{
			"bufferView":9,
			"componentType":5126,
			"count":20657,
			"type":"VEC2"
		},
		{
			"bufferView":10,
			"componentType":5121,
			"count":20657,
			"type":"VEC4"
		},
		{
			"bufferView":11,
			"componentType":5126,
			"count":20657,
			"type":"VEC4"
		},
		{
			"bufferView":12,
			"componentType":5123,
			"count":69120,
			"type":"SCALAR"
		},
		{
			"bufferView":13,
			"componentType":5126,
			"count":3958,
			"max":[
				-0.711089015007019,
				0.2763580083847046,
				0.23590299487113953
			],
			"min":[
				-1.3451550006866455,
				-0.2763580083847046,
				-0.23590299487113953
			],
			"type":"VEC3"
		},
		{
			"bufferView":14,
			"componentType":5126,
			"count":3958,
			"type":"VEC3"
		},
		{
			"bufferView":15,
			"componentType":5126,
			"count":3958,
			"type":"VEC2"
		},
		{
			"bufferView":16,
			"componentType":5121,
			"count":3958,
			"type":"VEC4"
		},
		{
			"bufferView":17,
			"componentType":5126,
			"count":3958,
			"type":"VEC4"
		},
		{
			"bufferView":18,
			"componentType":5123,
			"count":5760,
			"type":"SCALAR"
		},
		{
			"bufferView":19,
			"componentType":5126,
			"count":1964,
			"max":[
				0.9681180119514465,
				-0.6039950251579285,
				0.3114200532436371
			],
			"min":[
				0.33118799328804016,
				-1.0142580270767212,
				-0.31141993403434753
			],
			"type":"VEC3"
		},
		{
			"bufferView":20,
			"componentType":5126,
			"count":1964,
			"type":"VEC3"
		},
		{
			"bufferView":21,
			"componentType":5126,
			"count":1964,
			"type":"VEC2"
		},
		{
			"bufferView":22,
			"componentType":5121,
			"count":1964,
			"type":"VEC4"
		},
		{
			"bufferView":23,
			"componentType":5126,
			"count":1964,
			"type":"VEC4"
		},
		{
			"bufferView":24,
			"componentType":5123,
			"count":2880,
			"type":"SCALAR"
		},
		{
			"bufferView":25,
			"componentType":5126,
			"count":1964,
			"max":[
				-0.33118700981140137,
				-0.6039950251579285,
				0.3114200532436371
			],
			"min":[
				-0.9681180119514465,
				-1.0142580270767212,
				-0.31141993403434753
			],
			"type":"VEC3"
		},
		{
			"bufferView":26,
			"componentType":5126,
			"count":1964,
			"type":"VEC3"
		},
		{
			"bufferView":27,
			"componentType":5126,
			"count":1964,
			"type":"VEC2"
		},
		{
			"bufferView":28,
			"componentType":5121,
			"count":1964,
			"type":"VEC4"
		},
		{
			"bufferView":29,
			"componentType":5126,
			"count":1964,
			"type":"VEC4"
		},
		{
			"bufferView":30,
			"componentType":5123,
			"count":2880,
			"type":"SCALAR"
		}
	],
	"bufferViews":[
		{
			"buffer":0,
			"byteLength":47520,
			"byteOffset":0,
			"target":34962
		},
		{
			"buffer":0,
			"byteLength":47520,
			"byteOffset":47520,
			"target":34962
		},
		{
			"buffer":0,
			"byteLength":31680,
			"byteOffset":95040,
			"target":34962
		},
		{
			"buffer":0,
			"byteLength":15840,
			"byteOffset":126720,
			"target":34962
		},
		{
			"buffer":0,
			"byteLength":63360,
			"byteOffset":142560,
			"target":34962
		},
		{
			"buffer":0,
			"byteLength":11520,
			"byteOffset":205920,
			"target":34963
		},
		{
			"buffer":0,
			"byteLength":704,
			"byteOffset":217440
		},
		{
			"buffer":0,
			"byteLength":247884,
			"byteOffset":218144,
			"target":34962
		},
		{
			"buffer":0,
			"byteLength":247884,
			"byteOffset":466028,
			"target":34962
		},
		{
			"buffer":0,
			"byteLength":165256,
			"byteOffset":713912,
			"target":34962
		},
		{
			"buffer":0,
			"byteLength":82628,
			"byteOffset":879168,
			"target":34962
		},
		{
			"buffer":0,
			"byteLength":330512,
			"byteOffset":961796,
			"target":34962
		},
		{
			"buffer":0,
			"byteLength":138240,
			"byteOffset":1292308,
			"target":34963
		},
		{
			"buffer":0,
			"byteLength":47496,
			"byteOffset":1430548,
			"target":34962
		},
		{
			"buffer":0,
			"byteLength":47496,
			"byteOffset":1478044,
			"target":34962
		},
		{
			"buffer":0,
			"byteLength":31664,
			"byteOffset":1525540,
			"target":34962
		},
		{
			"buffer":0,
			"byteLength":15832,
			"byteOffset":1557204,
			"target":34962
		},
		{
			"buffer":0,
			"byteLength":63328,
			"byteOffset":1573036,
			"target":34962
		},
		{
			"buffer":0,
			"byteLength":11520,
			"byteOffset":1636364,
			"target":34963
		},
		{
			"buffer":0,
			"byteLength":23568,
			"byteOffset":1647884,
			"target":34962
		},
		{
			"buffer":0,
			"byteLength":23568,
			"byteOffset":1671452,
			"target":34962
		},
		{
			"buffer":0,
			"byteLength":15712,
			"byteOffset":1695020,
			"target":34962
		},
		{
			"buffer":0,
			"byteLength":7856,
			"byteOffset":1710732,
			"target":34962
		},
		{
			"buffer":0,
			"byteLength":31424,
			"byteOffset":1718588,
			"target":34962
		},
		{
			"buffer":0,
			"byteLength":5760,
			"byteOffset":1750012,
			"target":34963
		},
		{
			"buffer":0,
			"byteLength":23568,
			"byteOffset":1755772,
			"target":34962
		},
		{
			"buffer":0,
			"byteLength":23568,
			"byteOffset":1779340,
			"target":34962
		},
		{
			"buffer":0,
			"byteLength":15712,
			"byteOffset":1802908,
			"target":34962
		},
		{
			"buffer":0,
			"byteLength":7856,
			"byteOffset":1818620,
			"target":34962
		},
		{
			"buffer":0,
			"byteLength":31424,
			"byteOffset":1826476,
			"target":34962
		},
		{
			"buffer":0,
			"byteLength":5760,
			"byteOffset":1857900,
			"target":34963
		}
	],
	"samplers":[
		{
			"magFilter":9729,
			"minFilter":9987
		}
	],
	"buffers":[
		{
			"byteLength":1863660,
			"uri":"normalEnemy.bin"
		}
	]
}
