# Blender 4.4.1
# www.blender.org
mtllib slimeEnemy.mtl
o 円錐
v 0.000000 0.250245 0.181229
v 0.063530 0.247240 0.186717
v 0.124618 0.238340 0.202971
v 0.180917 0.223887 0.229365
v 0.230264 0.204437 0.264887
v 0.270762 0.180736 0.308169
v 0.300855 0.153697 0.357550
v 0.319386 0.124357 0.411132
v 0.325643 0.093845 0.466854
v 0.319386 0.063332 0.522577
v 0.300855 0.033993 0.576159
v 0.270762 0.006953 0.625540
v 0.230264 -0.016747 0.668822
v 0.180917 -0.036198 0.704343
v 0.124618 -0.050651 0.730738
v 0.063530 -0.059551 0.746992
v 0.000000 -0.062556 0.752480
v -0.063530 -0.059551 0.746992
v -0.124618 -0.050651 0.730738
v -0.180917 -0.036198 0.704343
v -0.230264 -0.016747 0.668822
v -0.270762 0.006953 0.625540
v -0.300855 0.033993 0.576159
v -0.319386 0.063332 0.522577
v -0.325643 0.093845 0.466854
v -0.319386 0.124357 0.411132
v -0.300855 0.153697 0.357550
v -0.270762 0.180736 0.308169
v -0.230264 0.204437 0.264887
v -0.180917 0.223887 0.229365
v -0.124618 0.238340 0.202971
v -0.063530 0.247240 0.186717
v 0.000000 0.665096 0.779656
vn -0.0000 -0.0264 -0.9997
vn 0.1686 -0.0344 -0.9851
vn 0.3307 -0.0580 -0.9420
vn 0.4801 -0.0963 -0.8719
vn 0.6110 -0.1480 -0.7777
vn 0.7185 -0.2108 -0.6628
vn 0.7983 -0.2826 -0.5318
vn 0.8476 -0.3604 -0.3896
vn 0.8641 -0.4414 -0.2417
vn 0.8475 -0.5224 -0.0938
vn 0.7983 -0.6003 0.0483
vn 0.7185 -0.6720 0.1794
vn 0.6110 -0.7349 0.2942
vn 0.4801 -0.7865 0.3885
vn 0.3307 -0.8249 0.4585
vn 0.1686 -0.8485 0.5017
vn -0.0000 -0.8565 0.5162
vn -0.1686 -0.8485 0.5017
vn -0.3307 -0.8249 0.4585
vn -0.4801 -0.7865 0.3885
vn -0.6110 -0.7349 0.2942
vn -0.7185 -0.6720 0.1794
vn -0.7983 -0.6003 0.0483
vn -0.8476 -0.5224 -0.0938
vn -0.8641 -0.4414 -0.2417
vn -0.8475 -0.3605 -0.3896
vn -0.7983 -0.2826 -0.5318
vn -0.7185 -0.2108 -0.6628
vn -0.6110 -0.1480 -0.7777
vn -0.4801 -0.0963 -0.8719
vn -0.3307 -0.0580 -0.9420
vn -0.1686 -0.0343 -0.9851
vn -0.0000 0.8771 0.4803
vt 0.156080 0.916569
vt 0.156080 0.832031
vt 0.172573 0.914945
vt 0.188432 0.910134
vt 0.203047 0.902322
vt 0.215858 0.891809
vt 0.226371 0.878998
vt 0.234183 0.864383
vt 0.238994 0.848524
vt 0.240618 0.832031
vt 0.238994 0.815539
vt 0.234183 0.799680
vt 0.226371 0.785064
vt 0.215858 0.772254
vt 0.203047 0.761740
vt 0.188432 0.753928
vt 0.172573 0.749118
vt 0.156080 0.747493
vt 0.139588 0.749118
vt 0.123729 0.753928
vt 0.109113 0.761740
vt 0.096303 0.772254
vt 0.085789 0.785064
vt 0.077977 0.799680
vt 0.073167 0.815539
vt 0.071542 0.832031
vt 0.073167 0.848524
vt 0.077977 0.864383
vt 0.085789 0.878998
vt 0.096303 0.891809
vt 0.109113 0.902322
vt 0.123729 0.910134
vt 0.348694 0.749118
vt 0.249288 0.815539
vt 0.315709 0.914945
vt 0.139588 0.914945
vt 0.332201 0.916569
vt 0.348694 0.914945
vt 0.364552 0.910134
vt 0.379168 0.902322
vt 0.391979 0.891809
vt 0.402492 0.878998
vt 0.410304 0.864383
vt 0.415115 0.848524
vt 0.416739 0.832031
vt 0.415115 0.815539
vt 0.410304 0.799680
vt 0.402492 0.785064
vt 0.391979 0.772254
vt 0.379168 0.761740
vt 0.364552 0.753928
vt 0.332201 0.747493
vt 0.315709 0.749118
vt 0.299850 0.753928
vt 0.285234 0.761740
vt 0.272424 0.772254
vt 0.261910 0.785064
vt 0.254098 0.799680
vt 0.247663 0.832031
vt 0.249288 0.848524
vt 0.254098 0.864383
vt 0.261910 0.878998
vt 0.272424 0.891809
vt 0.285234 0.902322
vt 0.299850 0.910134
s 1
usemtl マテリアル.001
f 1/1/1 33/2/33 2/3/2
f 2/3/2 33/2/33 3/4/3
f 3/4/3 33/2/33 4/5/4
f 4/5/4 33/2/33 5/6/5
f 5/6/5 33/2/33 6/7/6
f 6/7/6 33/2/33 7/8/7
f 7/8/7 33/2/33 8/9/8
f 8/9/8 33/2/33 9/10/9
f 9/10/9 33/2/33 10/11/10
f 10/11/10 33/2/33 11/12/11
f 11/12/11 33/2/33 12/13/12
f 12/13/12 33/2/33 13/14/13
f 13/14/13 33/2/33 14/15/14
f 14/15/14 33/2/33 15/16/15
f 15/16/15 33/2/33 16/17/16
f 16/17/16 33/2/33 17/18/17
f 17/18/17 33/2/33 18/19/18
f 18/19/18 33/2/33 19/20/19
f 19/20/19 33/2/33 20/21/20
f 20/21/20 33/2/33 21/22/21
f 21/22/21 33/2/33 22/23/22
f 22/23/22 33/2/33 23/24/23
f 23/24/23 33/2/33 24/25/24
f 24/25/24 33/2/33 25/26/25
f 25/26/25 33/2/33 26/27/26
f 26/27/26 33/2/33 27/28/27
f 27/28/27 33/2/33 28/29/28
f 28/29/28 33/2/33 29/30/29
f 29/30/29 33/2/33 30/31/30
f 30/31/30 33/2/33 31/32/31
f 16/33/16 24/34/24 32/35/32
f 31/32/31 33/2/33 32/36/32
f 32/36/32 33/2/33 1/1/1
f 32/35/32 1/37/1 2/38/2
f 2/38/2 3/39/3 4/40/4
f 4/40/4 5/41/5 6/42/6
f 6/42/6 7/43/7 8/44/8
f 8/44/8 9/45/9 10/46/10
f 10/46/10 11/47/11 12/48/12
f 12/48/12 13/49/13 14/50/14
f 14/50/14 15/51/15 16/33/16
f 16/33/16 17/52/17 18/53/18
f 18/53/18 19/54/19 20/55/20
f 20/55/20 21/56/21 22/57/22
f 22/57/22 23/58/23 24/34/24
f 24/34/24 25/59/25 26/60/26
f 26/60/26 27/61/27 28/62/28
f 28/62/28 29/63/29 30/64/30
f 30/64/30 31/65/31 32/35/32
f 32/35/32 2/38/2 4/40/4
f 4/40/4 6/42/6 8/44/8
f 8/44/8 10/46/10 12/48/12
f 12/48/12 14/50/14 16/33/16
f 16/33/16 18/53/18 20/55/20
f 20/55/20 22/57/22 24/34/24
f 24/34/24 26/60/26 28/62/28
f 28/62/28 30/64/30 32/35/32
f 32/35/32 4/40/4 8/44/8
f 8/44/8 12/48/12 16/33/16
f 16/33/16 20/55/20 24/34/24
f 24/34/24 28/62/28 32/35/32
f 32/35/32 8/44/8 16/33/16
o 球
v 0.000000 0.187432 -0.555570
v 0.000000 0.015480 -0.831470
v 0.000000 -0.209186 -0.980785
v 0.000000 -0.330774 -1.000000
v 0.000000 -0.452363 -0.980785
v 0.000000 -0.677029 -0.831470
v 0.038060 0.280492 -0.191342
v 0.074658 0.245026 -0.375330
v 0.108386 0.187432 -0.544895
v 0.137950 0.109924 -0.693520
v 0.162212 0.015480 -0.815493
v 0.180240 -0.092270 -0.906127
v 0.191342 -0.209186 -0.961940
v 0.195090 -0.330774 -0.980785
v 0.191342 -0.452363 -0.961940
v 0.180240 -0.569279 -0.906127
v 0.162212 -0.677029 -0.815493
v 0.137950 -0.771473 -0.693520
v 0.108386 -0.848981 -0.544895
v 0.074658 -0.906575 -0.375330
v 0.038060 -0.942041 -0.191342
v 0.074658 0.280492 -0.180240
v 0.146447 0.245026 -0.353553
v 0.212608 0.187432 -0.513280
v 0.270598 0.109924 -0.653281
v 0.318190 0.015480 -0.768178
v 0.353553 -0.092270 -0.853553
v 0.375330 -0.209186 -0.906127
v 0.382683 -0.330774 -0.923879
v 0.375330 -0.452363 -0.906127
v 0.353553 -0.569279 -0.853553
v 0.318190 -0.677029 -0.768178
v 0.270598 -0.771473 -0.653281
v 0.212608 -0.848981 -0.513280
v 0.146447 -0.906575 -0.353553
v 0.074658 -0.942041 -0.180240
v 0.108386 0.280492 -0.162212
v 0.212608 0.245026 -0.318190
v 0.308658 0.187432 -0.461940
v 0.392847 0.109924 -0.587938
v 0.461940 0.015480 -0.691342
v 0.513280 -0.092270 -0.768178
v 0.544895 -0.209186 -0.815493
v 0.555570 -0.330774 -0.831469
v 0.544895 -0.452363 -0.815493
v 0.513280 -0.569279 -0.768178
v 0.461940 -0.677029 -0.691342
v 0.392847 -0.771473 -0.587938
v 0.308658 -0.848981 -0.461940
v 0.212608 -0.906575 -0.318190
v 0.108386 -0.942041 -0.162212
v 0.137950 0.280492 -0.137950
v 0.270598 0.245026 -0.270598
v 0.392847 0.187432 -0.392847
v 0.500000 0.109924 -0.500000
v 0.587938 0.015480 -0.587938
v 0.653281 -0.092270 -0.653281
v 0.693520 -0.209186 -0.693520
v 0.707107 -0.330774 -0.707107
v 0.693520 -0.452363 -0.693520
v 0.653281 -0.569279 -0.653281
v 0.587938 -0.677029 -0.587938
v 0.500000 -0.771473 -0.500000
v 0.392847 -0.848981 -0.392847
v 0.270598 -0.906575 -0.270598
v 0.137950 -0.942041 -0.137950
v 0.162212 0.280492 -0.108386
v 0.318190 0.245026 -0.212608
v 0.461940 0.187432 -0.308658
v 0.587938 0.109924 -0.392847
v 0.691342 0.015480 -0.461940
v 0.768178 -0.092270 -0.513280
v 0.815493 -0.209186 -0.544895
v 0.831470 -0.330774 -0.555570
v 0.815493 -0.452363 -0.544895
v 0.768178 -0.569279 -0.513280
v 0.691342 -0.677029 -0.461940
v 0.587938 -0.771473 -0.392847
v 0.461940 -0.848981 -0.308658
v 0.318190 -0.906575 -0.212608
v 0.162212 -0.942041 -0.108386
v 0.000000 0.292468 0.000000
v 0.180240 0.280492 -0.074658
v 0.353553 0.245026 -0.146447
v 0.513280 0.187432 -0.212607
v 0.653281 0.109924 -0.270598
v 0.768178 0.015480 -0.318190
v 0.853553 -0.092270 -0.353553
v 0.906127 -0.209186 -0.375330
v 0.923879 -0.330774 -0.382683
v 0.906127 -0.452363 -0.375330
v 0.853553 -0.569279 -0.353553
v 0.768178 -0.677029 -0.318190
v 0.653281 -0.771473 -0.270598
v 0.513280 -0.848981 -0.212607
v 0.353553 -0.906575 -0.146447
v 0.180240 -0.942041 -0.074658
v 0.191342 0.280492 -0.038060
v 0.375330 0.245026 -0.074658
v 0.544895 0.187432 -0.108386
v 0.693520 0.109924 -0.137950
v 0.815493 0.015480 -0.162212
v 0.906127 -0.092270 -0.180240
v 0.961940 -0.209186 -0.191342
v 0.980785 -0.330774 -0.195090
v 0.961940 -0.452363 -0.191342
v 0.906127 -0.569279 -0.180240
v 0.815493 -0.677029 -0.162212
v 0.693520 -0.771473 -0.137950
v 0.544895 -0.848981 -0.108386
v 0.375330 -0.906575 -0.074658
v 0.191342 -0.942041 -0.038060
v 0.195090 0.280492 0.000000
v 0.382683 0.245026 0.000000
v 0.555570 0.187432 0.000000
v 0.707107 0.109924 -0.000000
v 0.831469 0.015480 0.000000
v 0.923879 -0.092270 -0.000000
v 0.980785 -0.209186 0.000000
v 1.000000 -0.330774 0.000000
v 0.980785 -0.452363 0.000000
v 0.923879 -0.569279 -0.000000
v 0.831469 -0.677029 0.000000
v 0.707107 -0.771473 -0.000000
v 0.555570 -0.848981 0.000000
v 0.382683 -0.906575 0.000000
v 0.195090 -0.942041 0.000000
v 0.191342 0.280492 0.038060
v 0.375330 0.245026 0.074658
v 0.544895 0.187432 0.108386
v 0.693520 0.109924 0.137950
v 0.815493 0.015480 0.162212
v 0.906127 -0.092270 0.180240
v 0.961940 -0.209186 0.191342
v 0.980785 -0.330774 0.195090
v 0.961940 -0.452363 0.191342
v 0.906127 -0.569279 0.180240
v 0.815493 -0.677029 0.162212
v 0.693520 -0.771473 0.137950
v 0.544895 -0.848981 0.108386
v 0.375330 -0.906575 0.074658
v 0.191342 -0.942041 0.038060
v 0.180240 0.280492 0.074658
v 0.353553 0.245026 0.146447
v 0.513280 0.187432 0.212608
v 0.653281 0.109924 0.270598
v 0.768178 0.015480 0.318190
v 0.853553 -0.092270 0.353553
v 0.906127 -0.209186 0.375330
v 0.923879 -0.330774 0.382683
v 0.906127 -0.452363 0.375330
v 0.853553 -0.569279 0.353553
v 0.768178 -0.677029 0.318190
v 0.653281 -0.771473 0.270598
v 0.513280 -0.848981 0.212608
v 0.353553 -0.906575 0.146447
v 0.180240 -0.942041 0.074658
v 0.162212 0.280492 0.108386
v 0.318190 0.245026 0.212608
v 0.461940 0.187432 0.308658
v 0.587938 0.109924 0.392847
v 0.691341 0.015480 0.461940
v 0.768178 -0.092270 0.513280
v 0.815493 -0.209186 0.544895
v 0.831469 -0.330774 0.555570
v 0.815493 -0.452363 0.544895
v 0.768178 -0.569279 0.513280
v 0.691341 -0.677029 0.461940
v 0.587938 -0.771473 0.392847
v 0.461940 -0.848981 0.308658
v 0.318190 -0.906575 0.212608
v 0.162212 -0.942041 0.108386
v 0.137950 0.280492 0.137950
v 0.270598 0.245026 0.270598
v 0.392847 0.187432 0.392847
v 0.500000 0.109924 0.500000
v 0.587938 0.015480 0.587938
v 0.653281 -0.092270 0.653281
v 0.693520 -0.209186 0.693520
v 0.707106 -0.330774 0.707107
v 0.693520 -0.452363 0.693520
v 0.653281 -0.569279 0.653281
v 0.587938 -0.677029 0.587938
v 0.500000 -0.771473 0.500000
v 0.392847 -0.848981 0.392847
v 0.270598 -0.906575 0.270598
v 0.137950 -0.942041 0.137950
v 0.108386 0.280492 0.162212
v 0.212607 0.245026 0.318190
v 0.308658 0.187432 0.461940
v 0.392847 0.109924 0.587938
v 0.461940 0.015480 0.691342
v 0.513280 -0.092270 0.768178
v 0.544895 -0.209186 0.815493
v 0.555570 -0.330774 0.831469
v 0.544895 -0.452363 0.815493
v 0.513280 -0.569279 0.768178
v 0.461940 -0.677029 0.691342
v 0.392847 -0.771473 0.587938
v 0.308658 -0.848981 0.461940
v 0.212607 -0.906575 0.318190
v 0.108386 -0.942041 0.162212
v 0.074658 0.280492 0.180240
v 0.146447 0.245026 0.353553
v 0.212607 0.187432 0.513280
v 0.270598 0.109924 0.653281
v 0.318189 0.015480 0.768178
v 0.353553 -0.092270 0.853553
v 0.375330 -0.209186 0.906127
v 0.382683 -0.330774 0.923879
v 0.375330 -0.452363 0.906127
v 0.353553 -0.569279 0.853553
v 0.318189 -0.677029 0.768178
v 0.270598 -0.771473 0.653281
v 0.212607 -0.848981 0.513280
v 0.146447 -0.906575 0.353553
v 0.074658 -0.942041 0.180240
v 0.038060 0.280492 0.191342
v 0.074658 0.245026 0.375330
v 0.108386 0.187432 0.544895
v 0.137950 0.109924 0.693520
v 0.162212 0.015480 0.815493
v 0.180240 -0.092270 0.906127
v 0.191342 -0.209186 0.961939
v 0.195090 -0.330774 0.980785
v 0.191342 -0.452363 0.961939
v 0.180240 -0.569279 0.906127
v 0.162212 -0.677029 0.815493
v 0.137950 -0.771473 0.693520
v 0.108386 -0.848981 0.544895
v 0.074658 -0.906575 0.375330
v 0.038060 -0.942041 0.191342
v -0.000000 0.280492 0.195090
v -0.000000 0.245026 0.382683
v -0.000000 0.187432 0.555570
v -0.000000 0.109924 0.707107
v -0.000000 0.015480 0.831469
v 0.000000 -0.092270 0.923879
v -0.000000 -0.209186 0.980785
v -0.000000 -0.330774 0.999999
v -0.000000 -0.452363 0.980785
v 0.000000 -0.569279 0.923879
v -0.000000 -0.677029 0.831469
v -0.000000 -0.771473 0.707107
v -0.000000 -0.848981 0.555570
v -0.000000 -0.906575 0.382683
v -0.000000 -0.942041 0.195090
v -0.038060 0.280492 0.191342
v -0.074658 0.245026 0.375330
v -0.108386 0.187432 0.544895
v -0.137950 0.109924 0.693520
v -0.162212 0.015480 0.815493
v -0.180240 -0.092270 0.906127
v -0.191342 -0.209186 0.961939
v -0.195091 -0.330774 0.980785
v -0.191342 -0.452363 0.961939
v -0.180240 -0.569279 0.906127
v -0.162212 -0.677029 0.815493
v -0.137950 -0.771473 0.693520
v -0.108386 -0.848981 0.544895
v -0.074658 -0.906575 0.375330
v -0.038060 -0.942041 0.191342
v -0.074658 0.280492 0.180240
v -0.146447 0.245026 0.353553
v -0.212608 0.187432 0.513280
v -0.270598 0.109924 0.653281
v -0.318190 0.015480 0.768177
v -0.353553 -0.092270 0.853553
v -0.375330 -0.209186 0.906127
v -0.382683 -0.330774 0.923879
v -0.375330 -0.452363 0.906127
v -0.353553 -0.569279 0.853553
v -0.318190 -0.677029 0.768177
v -0.270598 -0.771473 0.653281
v -0.212608 -0.848981 0.513280
v -0.146447 -0.906575 0.353553
v -0.074658 -0.942041 0.180240
v -0.108386 0.280492 0.162212
v -0.212608 0.245026 0.318190
v -0.308658 0.187432 0.461939
v -0.392847 0.109924 0.587938
v -0.461940 0.015480 0.691341
v -0.513280 -0.092270 0.768178
v -0.544895 -0.209186 0.815493
v -0.555570 -0.330774 0.831469
v -0.544895 -0.452363 0.815493
v -0.513280 -0.569279 0.768178
v -0.461940 -0.677029 0.691341
v -0.392847 -0.771473 0.587938
v -0.308658 -0.848981 0.461939
v -0.212608 -0.906575 0.318190
v -0.108386 -0.942041 0.162212
v -0.137950 0.280492 0.137950
v -0.270598 0.245026 0.270598
v -0.392847 0.187432 0.392847
v -0.500000 0.109924 0.500000
v -0.587938 0.015480 0.587937
v -0.653281 -0.092270 0.653281
v -0.693520 -0.209186 0.693520
v -0.707106 -0.330774 0.707106
v -0.693520 -0.452363 0.693520
v -0.653281 -0.569279 0.653281
v -0.587938 -0.677029 0.587937
v -0.500000 -0.771473 0.500000
v -0.392847 -0.848981 0.392847
v -0.270598 -0.906575 0.270598
v -0.137950 -0.942041 0.137950
v 0.000000 -0.954016 0.000000
v -0.162212 0.280492 0.108386
v -0.318190 0.245026 0.212607
v -0.461940 0.187432 0.308658
v -0.587938 0.109924 0.392847
v -0.691341 0.015480 0.461939
v -0.768177 -0.092270 0.513280
v -0.815493 -0.209186 0.544895
v -0.831469 -0.330774 0.555569
v -0.815493 -0.452363 0.544895
v -0.768177 -0.569279 0.513280
v -0.691341 -0.677029 0.461939
v -0.587938 -0.771473 0.392847
v -0.461940 -0.848981 0.308658
v -0.318190 -0.906575 0.212607
v -0.162212 -0.942041 0.108386
v -0.180240 0.280492 0.074658
v -0.353553 0.245026 0.146447
v -0.513280 0.187432 0.212607
v -0.653281 0.109924 0.270598
v -0.768177 0.015480 0.318189
v -0.853553 -0.092270 0.353553
v -0.906127 -0.209186 0.375330
v -0.923879 -0.330774 0.382683
v -0.906127 -0.452363 0.375330
v -0.853553 -0.569279 0.353553
v -0.768177 -0.677029 0.318189
v -0.653281 -0.771473 0.270598
v -0.513280 -0.848981 0.212607
v -0.353553 -0.906575 0.146447
v -0.180240 -0.942041 0.074658
v -0.191342 0.280492 0.038060
v -0.375330 0.245026 0.074658
v -0.544895 0.187432 0.108386
v -0.693520 0.109924 0.137950
v -0.815493 0.015480 0.162211
v -0.906127 -0.092270 0.180240
v -0.961939 -0.209186 0.191341
v -0.980784 -0.330774 0.195090
v -0.961939 -0.452363 0.191341
v -0.906127 -0.569279 0.180240
v -0.815493 -0.677029 0.162211
v -0.693520 -0.771473 0.137950
v -0.544895 -0.848981 0.108386
v -0.375330 -0.906575 0.074658
v -0.191342 -0.942041 0.038060
v -0.195090 0.280492 -0.000000
v -0.382683 0.245026 -0.000000
v -0.555570 0.187432 -0.000000
v -0.707107 0.109924 -0.000000
v -0.831469 0.015480 -0.000000
v -0.923879 -0.092270 -0.000000
v -0.980785 -0.209186 -0.000000
v -0.999999 -0.330774 -0.000000
v -0.980785 -0.452363 -0.000000
v -0.923879 -0.569279 -0.000000
v -0.831469 -0.677029 -0.000000
v -0.707107 -0.771473 -0.000000
v -0.555570 -0.848981 -0.000000
v -0.382683 -0.906575 -0.000000
v -0.195090 -0.942041 -0.000000
v -0.191342 0.280492 -0.038060
v -0.375330 0.245026 -0.074658
v -0.544895 0.187432 -0.108386
v -0.693520 0.109924 -0.137950
v -0.815493 0.015480 -0.162212
v -0.906127 -0.092270 -0.180240
v -0.961939 -0.209186 -0.191342
v -0.980784 -0.330774 -0.195091
v -0.961939 -0.452363 -0.191342
v -0.906127 -0.569279 -0.180240
v -0.815493 -0.677029 -0.162212
v -0.693520 -0.771473 -0.137950
v -0.544895 -0.848981 -0.108386
v -0.375330 -0.906575 -0.074658
v -0.191342 -0.942041 -0.038060
v -0.180240 0.280492 -0.074658
v -0.353553 0.245026 -0.146447
v -0.513279 0.187432 -0.212607
v -0.653281 0.109924 -0.270598
v -0.768177 0.015480 -0.318190
v -0.853553 -0.092270 -0.353553
v -0.906127 -0.209186 -0.375330
v -0.923878 -0.330774 -0.382683
v -0.906127 -0.452363 -0.375330
v -0.853553 -0.569279 -0.353553
v -0.768177 -0.677029 -0.318190
v -0.653281 -0.771473 -0.270598
v -0.513279 -0.848981 -0.212607
v -0.353553 -0.906575 -0.146447
v -0.180240 -0.942041 -0.074658
v -0.162212 0.280492 -0.108386
v -0.318189 0.245026 -0.212607
v -0.461939 0.187432 -0.308658
v -0.587938 0.109924 -0.392847
v -0.691341 0.015480 -0.461940
v -0.768177 -0.092270 -0.513280
v -0.815493 -0.209186 -0.544895
v -0.831468 -0.330774 -0.555570
v -0.815493 -0.452363 -0.544895
v -0.768177 -0.569279 -0.513280
v -0.691341 -0.677029 -0.461940
v -0.587938 -0.771473 -0.392847
v -0.461939 -0.848981 -0.308658
v -0.318189 -0.906575 -0.212607
v -0.162212 -0.942041 -0.108386
v -0.137950 0.280492 -0.137950
v -0.270598 0.245026 -0.270598
v -0.392847 0.187432 -0.392847
v -0.500000 0.109924 -0.500000
v -0.587937 0.015480 -0.587938
v -0.653281 -0.092270 -0.653281
v -0.693519 -0.209186 -0.693520
v -0.707106 -0.330774 -0.707106
v -0.693519 -0.452363 -0.693520
v -0.653281 -0.569279 -0.653281
v -0.587937 -0.677029 -0.587938
v -0.500000 -0.771473 -0.500000
v -0.392847 -0.848981 -0.392847
v -0.270598 -0.906575 -0.270598
v -0.137950 -0.942041 -0.137950
v -0.108386 0.280492 -0.162212
v -0.212607 0.245026 -0.318190
v -0.308658 0.187432 -0.461939
v -0.392847 0.109924 -0.587938
v -0.461939 0.015480 -0.691341
v -0.513280 -0.092270 -0.768177
v -0.544895 -0.209186 -0.815493
v -0.555569 -0.330774 -0.831469
v -0.544895 -0.452363 -0.815493
v -0.513280 -0.569279 -0.768177
v -0.461939 -0.677029 -0.691341
v -0.392847 -0.771473 -0.587938
v -0.308658 -0.848981 -0.461939
v -0.212607 -0.906575 -0.318190
v -0.108386 -0.942041 -0.162212
v -0.074658 0.280492 -0.180240
v -0.146446 0.245026 -0.353553
v -0.212607 0.187432 -0.513279
v -0.270598 0.109924 -0.653281
v -0.318189 0.015480 -0.768177
v -0.353553 -0.092270 -0.853553
v -0.375330 -0.209186 -0.906127
v -0.382683 -0.330774 -0.923879
v -0.375330 -0.452363 -0.906127
v -0.353553 -0.569279 -0.853553
v -0.318189 -0.677029 -0.768177
v -0.270598 -0.771473 -0.653281
v -0.212607 -0.848981 -0.513279
v -0.146446 -0.906575 -0.353553
v -0.074658 -0.942041 -0.180240
v -0.038060 0.280492 -0.191342
v -0.074658 0.245026 -0.375330
v -0.108386 0.187432 -0.544895
v -0.137950 0.109924 -0.693520
v -0.162211 0.015480 -0.815493
v -0.180240 -0.092270 -0.906127
v -0.191341 -0.209186 -0.961939
v -0.195090 -0.330774 -0.980784
v -0.191341 -0.452363 -0.961939
v -0.180240 -0.569279 -0.906127
v -0.162211 -0.677029 -0.815493
v -0.137950 -0.771473 -0.693520
v -0.108386 -0.848981 -0.544895
v -0.074658 -0.906575 -0.375330
v -0.038060 -0.942041 -0.191342
v 0.000000 0.280492 -0.195090
v 0.000000 0.245026 -0.382683
v 0.000000 0.109924 -0.707107
v 0.000000 -0.092270 -0.923879
v 0.000000 -0.569279 -0.923879
v 0.000000 -0.771473 -0.707107
v 0.000000 -0.848981 -0.555570
v 0.000000 -0.906575 -0.382683
v 0.000000 -0.942041 -0.195090
vn -0.0000 0.9216 -0.3880
vn -0.0000 0.7288 -0.6848
vn -0.0000 0.3023 -0.9532
vn -0.0000 -0.0000 -1.0000
vn -0.0000 -0.3023 -0.9532
vn -0.0000 -0.7288 -0.6848
vn 0.0247 0.9919 -0.1244
vn 0.0495 0.9673 -0.2488
vn 0.0757 0.9216 -0.3806
vn 0.1038 0.8466 -0.5220
vn 0.1336 0.7288 -0.6716
vn 0.1628 0.5510 -0.8185
vn 0.1860 0.3023 -0.9349
vn 0.1951 -0.0000 -0.9808
vn 0.1860 -0.3023 -0.9349
vn 0.1628 -0.5510 -0.8185
vn 0.1336 -0.7288 -0.6716
vn 0.1038 -0.8466 -0.5220
vn 0.0757 -0.9216 -0.3806
vn 0.0495 -0.9673 -0.2488
vn 0.0247 -0.9919 -0.1244
vn 0.0485 0.9919 -0.1172
vn 0.0971 0.9673 -0.2344
vn 0.1485 0.9216 -0.3585
vn 0.2037 0.8466 -0.4917
vn 0.2620 0.7288 -0.6326
vn 0.3194 0.5510 -0.7710
vn 0.3648 0.3023 -0.8806
vn 0.3827 -0.0000 -0.9239
vn 0.3648 -0.3023 -0.8806
vn 0.3194 -0.5510 -0.7710
vn 0.2620 -0.7288 -0.6326
vn 0.2037 -0.8466 -0.4917
vn 0.1485 -0.9216 -0.3585
vn 0.0971 -0.9673 -0.2344
vn 0.0485 -0.9919 -0.1172
vn 0.0705 0.9919 -0.1055
vn 0.1409 0.9673 -0.2109
vn 0.2156 0.9216 -0.3226
vn 0.2957 0.8466 -0.4425
vn 0.3804 0.7288 -0.5694
vn 0.4636 0.5510 -0.6939
vn 0.5296 0.3023 -0.7926
vn 0.5556 -0.0000 -0.8315
vn 0.5296 -0.3023 -0.7926
vn 0.4636 -0.5510 -0.6939
vn 0.3804 -0.7288 -0.5694
vn 0.2957 -0.8466 -0.4425
vn 0.2156 -0.9216 -0.3226
vn 0.1409 -0.9673 -0.2109
vn 0.0705 -0.9919 -0.1055
vn 0.0897 0.9919 -0.0897
vn 0.1794 0.9673 -0.1794
vn 0.2744 0.9216 -0.2744
vn 0.3763 0.8466 -0.3763
vn 0.4842 0.7288 -0.4842
vn 0.5901 0.5510 -0.5901
vn 0.6740 0.3023 -0.6740
vn 0.7071 -0.0000 -0.7071
vn 0.6740 -0.3023 -0.6740
vn 0.5901 -0.5510 -0.5901
vn 0.4842 -0.7288 -0.4842
vn 0.3763 -0.8466 -0.3763
vn 0.2744 -0.9216 -0.2744
vn 0.1794 -0.9673 -0.1794
vn 0.0897 -0.9919 -0.0897
vn 0.1055 0.9919 -0.0705
vn 0.2109 0.9673 -0.1409
vn 0.3226 0.9216 -0.2156
vn 0.4425 0.8466 -0.2957
vn 0.5694 0.7288 -0.3804
vn 0.6939 0.5510 -0.4636
vn 0.7926 0.3023 -0.5296
vn 0.8315 -0.0000 -0.5556
vn 0.7926 -0.3023 -0.5296
vn 0.6939 -0.5510 -0.4636
vn 0.5694 -0.7288 -0.3804
vn 0.4425 -0.8466 -0.2957
vn 0.3226 -0.9216 -0.2156
vn 0.2109 -0.9673 -0.1409
vn 0.1055 -0.9919 -0.0705
vn -0.0000 1.0000 -0.0000
vn 0.1172 0.9919 -0.0485
vn 0.2344 0.9673 -0.0971
vn 0.3585 0.9216 -0.1485
vn 0.4917 0.8466 -0.2037
vn 0.6326 0.7288 -0.2620
vn 0.7710 0.5510 -0.3194
vn 0.8806 0.3023 -0.3648
vn 0.9239 -0.0000 -0.3827
vn 0.8806 -0.3023 -0.3648
vn 0.7710 -0.5510 -0.3194
vn 0.6326 -0.7288 -0.2620
vn 0.4917 -0.8466 -0.2037
vn 0.3585 -0.9216 -0.1485
vn 0.2344 -0.9673 -0.0971
vn 0.1172 -0.9919 -0.0485
vn 0.1244 0.9919 -0.0247
vn 0.2488 0.9673 -0.0495
vn 0.3806 0.9216 -0.0757
vn 0.5220 0.8466 -0.1038
vn 0.6716 0.7288 -0.1336
vn 0.8185 0.5510 -0.1628
vn 0.9349 0.3023 -0.1860
vn 0.9808 -0.0000 -0.1951
vn 0.9349 -0.3023 -0.1860
vn 0.8185 -0.5510 -0.1628
vn 0.6716 -0.7288 -0.1336
vn 0.5220 -0.8466 -0.1038
vn 0.3806 -0.9216 -0.0757
vn 0.2488 -0.9673 -0.0495
vn 0.1244 -0.9919 -0.0247
vn 0.1268 0.9919 -0.0000
vn 0.2537 0.9673 -0.0000
vn 0.3880 0.9216 -0.0000
vn 0.5322 0.8466 -0.0000
vn 0.6848 0.7288 -0.0000
vn 0.8345 0.5510 -0.0000
vn 0.9532 0.3023 -0.0000
vn 1.0000 -0.0000 -0.0000
vn 0.9532 -0.3023 -0.0000
vn 0.8345 -0.5510 -0.0000
vn 0.6848 -0.7288 -0.0000
vn 0.5322 -0.8466 -0.0000
vn 0.3880 -0.9216 -0.0000
vn 0.2537 -0.9673 -0.0000
vn 0.1268 -0.9919 -0.0000
vn 0.1244 0.9919 0.0247
vn 0.2488 0.9673 0.0495
vn 0.3806 0.9216 0.0757
vn 0.5220 0.8466 0.1038
vn 0.6716 0.7288 0.1336
vn 0.8185 0.5510 0.1628
vn 0.9349 0.3023 0.1860
vn 0.9808 -0.0000 0.1951
vn 0.9349 -0.3023 0.1860
vn 0.8185 -0.5510 0.1628
vn 0.6716 -0.7288 0.1336
vn 0.5220 -0.8466 0.1038
vn 0.3806 -0.9216 0.0757
vn 0.2488 -0.9673 0.0495
vn 0.1244 -0.9919 0.0247
vn 0.1172 0.9919 0.0485
vn 0.2344 0.9673 0.0971
vn 0.3585 0.9216 0.1485
vn 0.4917 0.8466 0.2037
vn 0.6326 0.7288 0.2620
vn 0.7710 0.5510 0.3194
vn 0.8806 0.3023 0.3648
vn 0.9239 -0.0000 0.3827
vn 0.8806 -0.3023 0.3648
vn 0.7710 -0.5510 0.3194
vn 0.6326 -0.7288 0.2620
vn 0.4917 -0.8466 0.2037
vn 0.3585 -0.9216 0.1485
vn 0.2344 -0.9673 0.0971
vn 0.1172 -0.9919 0.0485
vn 0.1055 0.9919 0.0705
vn 0.2109 0.9673 0.1409
vn 0.3226 0.9216 0.2156
vn 0.4425 0.8466 0.2957
vn 0.5694 0.7288 0.3804
vn 0.6939 0.5510 0.4636
vn 0.7926 0.3023 0.5296
vn 0.8315 -0.0000 0.5556
vn 0.7926 -0.3023 0.5296
vn 0.6939 -0.5510 0.4636
vn 0.5694 -0.7288 0.3804
vn 0.4425 -0.8466 0.2957
vn 0.3226 -0.9216 0.2156
vn 0.2109 -0.9673 0.1409
vn 0.1055 -0.9919 0.0705
vn 0.0897 0.9919 0.0897
vn 0.1794 0.9673 0.1794
vn 0.2744 0.9216 0.2744
vn 0.3763 0.8466 0.3763
vn 0.4842 0.7288 0.4842
vn 0.5901 0.5510 0.5901
vn 0.6740 0.3023 0.6740
vn 0.7071 -0.0000 0.7071
vn 0.6740 -0.3023 0.6740
vn 0.5901 -0.5510 0.5901
vn 0.4842 -0.7288 0.4842
vn 0.3763 -0.8466 0.3763
vn 0.2744 -0.9216 0.2744
vn 0.1794 -0.9673 0.1794
vn 0.0897 -0.9919 0.0897
vn 0.0705 0.9919 0.1055
vn 0.1409 0.9673 0.2109
vn 0.2156 0.9216 0.3226
vn 0.2957 0.8466 0.4425
vn 0.3804 0.7288 0.5694
vn 0.4636 0.5510 0.6939
vn 0.5296 0.3023 0.7926
vn 0.5556 -0.0000 0.8315
vn 0.5296 -0.3023 0.7926
vn 0.4636 -0.5510 0.6939
vn 0.3804 -0.7288 0.5694
vn 0.2957 -0.8466 0.4425
vn 0.2156 -0.9216 0.3226
vn 0.1409 -0.9673 0.2109
vn 0.0705 -0.9919 0.1055
vn 0.0485 0.9919 0.1172
vn 0.0971 0.9673 0.2344
vn 0.1485 0.9216 0.3585
vn 0.2037 0.8466 0.4917
vn 0.2620 0.7288 0.6326
vn 0.3194 0.5510 0.7710
vn 0.3648 0.3023 0.8806
vn 0.3827 -0.0000 0.9239
vn 0.3648 -0.3023 0.8806
vn 0.3194 -0.5510 0.7710
vn 0.2620 -0.7288 0.6326
vn 0.2037 -0.8466 0.4917
vn 0.1485 -0.9216 0.3585
vn 0.0971 -0.9673 0.2344
vn 0.0485 -0.9919 0.1172
vn 0.0247 0.9919 0.1244
vn 0.0495 0.9673 0.2488
vn 0.0757 0.9216 0.3806
vn 0.1038 0.8466 0.5220
vn 0.1336 0.7288 0.6716
vn 0.1628 0.5510 0.8185
vn 0.1860 0.3023 0.9349
vn 0.1951 -0.0000 0.9808
vn 0.1860 -0.3023 0.9349
vn 0.1628 -0.5510 0.8185
vn 0.1336 -0.7288 0.6716
vn 0.1038 -0.8466 0.5220
vn 0.0757 -0.9216 0.3806
vn 0.0495 -0.9673 0.2488
vn 0.0247 -0.9919 0.1244
vn -0.0000 0.9919 0.1268
vn -0.0000 0.9673 0.2537
vn -0.0000 0.9216 0.3880
vn -0.0000 0.8466 0.5322
vn -0.0000 0.7288 0.6848
vn -0.0000 0.5510 0.8345
vn -0.0000 0.3023 0.9532
vn -0.0000 -0.0000 1.0000
vn -0.0000 -0.3023 0.9532
vn -0.0000 -0.5510 0.8345
vn -0.0000 -0.7288 0.6848
vn -0.0000 -0.8466 0.5322
vn -0.0000 -0.9216 0.3880
vn -0.0000 -0.9673 0.2537
vn -0.0000 -0.9919 0.1268
vn -0.0247 0.9919 0.1244
vn -0.0495 0.9673 0.2488
vn -0.0757 0.9216 0.3806
vn -0.1038 0.8466 0.5220
vn -0.1336 0.7288 0.6716
vn -0.1628 0.5510 0.8185
vn -0.1860 0.3023 0.9349
vn -0.1951 -0.0000 0.9808
vn -0.1860 -0.3023 0.9349
vn -0.1628 -0.5510 0.8185
vn -0.1336 -0.7288 0.6716
vn -0.1038 -0.8466 0.5220
vn -0.0757 -0.9216 0.3806
vn -0.0495 -0.9673 0.2488
vn -0.0247 -0.9919 0.1244
vn -0.0485 0.9919 0.1172
vn -0.0971 0.9673 0.2344
vn -0.1485 0.9216 0.3585
vn -0.2037 0.8466 0.4917
vn -0.2620 0.7288 0.6326
vn -0.3194 0.5510 0.7710
vn -0.3648 0.3023 0.8806
vn -0.3827 -0.0000 0.9239
vn -0.3648 -0.3023 0.8806
vn -0.3194 -0.5510 0.7710
vn -0.2620 -0.7288 0.6326
vn -0.2037 -0.8466 0.4917
vn -0.1485 -0.9216 0.3585
vn -0.0971 -0.9673 0.2344
vn -0.0485 -0.9919 0.1172
vn -0.0705 0.9919 0.1055
vn -0.1409 0.9673 0.2109
vn -0.2156 0.9216 0.3226
vn -0.2957 0.8466 0.4425
vn -0.3804 0.7288 0.5694
vn -0.4636 0.5510 0.6939
vn -0.5296 0.3023 0.7926
vn -0.5556 -0.0000 0.8315
vn -0.5296 -0.3023 0.7926
vn -0.4636 -0.5510 0.6939
vn -0.3804 -0.7288 0.5694
vn -0.2957 -0.8466 0.4425
vn -0.2156 -0.9216 0.3226
vn -0.1409 -0.9673 0.2109
vn -0.0705 -0.9919 0.1055
vn -0.0897 0.9919 0.0897
vn -0.1794 0.9673 0.1794
vn -0.2744 0.9216 0.2744
vn -0.3763 0.8466 0.3763
vn -0.4842 0.7288 0.4842
vn -0.5901 0.5510 0.5901
vn -0.6740 0.3023 0.6740
vn -0.7071 -0.0000 0.7071
vn -0.6740 -0.3023 0.6740
vn -0.5901 -0.5510 0.5901
vn -0.4842 -0.7288 0.4842
vn -0.3763 -0.8466 0.3763
vn -0.2744 -0.9216 0.2744
vn -0.1794 -0.9673 0.1794
vn -0.0897 -0.9919 0.0897
vn -0.0000 -1.0000 -0.0000
vn -0.1055 0.9919 0.0705
vn -0.2109 0.9673 0.1409
vn -0.3226 0.9216 0.2156
vn -0.4425 0.8466 0.2957
vn -0.5694 0.7288 0.3804
vn -0.6939 0.5510 0.4636
vn -0.7926 0.3023 0.5296
vn -0.8315 -0.0000 0.5556
vn -0.7926 -0.3023 0.5296
vn -0.6939 -0.5510 0.4636
vn -0.5694 -0.7288 0.3804
vn -0.4425 -0.8466 0.2957
vn -0.3226 -0.9216 0.2156
vn -0.2109 -0.9673 0.1409
vn -0.1055 -0.9919 0.0705
vn -0.1172 0.9919 0.0485
vn -0.2344 0.9673 0.0971
vn -0.3585 0.9216 0.1485
vn -0.4917 0.8466 0.2037
vn -0.6326 0.7288 0.2620
vn -0.7710 0.5510 0.3194
vn -0.8806 0.3023 0.3648
vn -0.9239 -0.0000 0.3827
vn -0.8806 -0.3023 0.3648
vn -0.7710 -0.5510 0.3194
vn -0.6326 -0.7288 0.2620
vn -0.4917 -0.8466 0.2037
vn -0.3585 -0.9216 0.1485
vn -0.2344 -0.9673 0.0971
vn -0.1172 -0.9919 0.0485
vn -0.1244 0.9919 0.0247
vn -0.2488 0.9673 0.0495
vn -0.3806 0.9216 0.0757
vn -0.5220 0.8466 0.1038
vn -0.6716 0.7288 0.1336
vn -0.8185 0.5510 0.1628
vn -0.9349 0.3023 0.1860
vn -0.9808 -0.0000 0.1951
vn -0.9349 -0.3023 0.1860
vn -0.8185 -0.5510 0.1628
vn -0.6716 -0.7288 0.1336
vn -0.5220 -0.8466 0.1038
vn -0.3806 -0.9216 0.0757
vn -0.2488 -0.9673 0.0495
vn -0.1244 -0.9919 0.0247
vn -0.1268 0.9919 -0.0000
vn -0.2537 0.9673 -0.0000
vn -0.3880 0.9216 -0.0000
vn -0.5322 0.8466 -0.0000
vn -0.6848 0.7288 -0.0000
vn -0.8345 0.5510 -0.0000
vn -0.9532 0.3023 -0.0000
vn -1.0000 -0.0000 -0.0000
vn -0.9532 -0.3023 -0.0000
vn -0.8345 -0.5510 -0.0000
vn -0.6848 -0.7288 -0.0000
vn -0.5322 -0.8466 -0.0000
vn -0.3880 -0.9216 -0.0000
vn -0.2537 -0.9673 -0.0000
vn -0.1268 -0.9919 -0.0000
vn -0.1244 0.9919 -0.0247
vn -0.2488 0.9673 -0.0495
vn -0.3806 0.9216 -0.0757
vn -0.5220 0.8466 -0.1038
vn -0.6716 0.7288 -0.1336
vn -0.8185 0.5510 -0.1628
vn -0.9349 0.3023 -0.1860
vn -0.9808 -0.0000 -0.1951
vn -0.9349 -0.3023 -0.1860
vn -0.8185 -0.5510 -0.1628
vn -0.6716 -0.7288 -0.1336
vn -0.5220 -0.8466 -0.1038
vn -0.3806 -0.9216 -0.0757
vn -0.2488 -0.9673 -0.0495
vn -0.1244 -0.9919 -0.0247
vn -0.1172 0.9919 -0.0485
vn -0.2344 0.9673 -0.0971
vn -0.3585 0.9216 -0.1485
vn -0.4917 0.8466 -0.2037
vn -0.6326 0.7288 -0.2620
vn -0.7710 0.5510 -0.3194
vn -0.8806 0.3023 -0.3648
vn -0.9239 -0.0000 -0.3827
vn -0.8806 -0.3023 -0.3648
vn -0.7710 -0.5510 -0.3194
vn -0.6326 -0.7288 -0.2620
vn -0.4917 -0.8466 -0.2037
vn -0.3585 -0.9216 -0.1485
vn -0.2344 -0.9673 -0.0971
vn -0.1172 -0.9919 -0.0485
vn -0.1055 0.9919 -0.0705
vn -0.2109 0.9673 -0.1409
vn -0.3226 0.9216 -0.2156
vn -0.4425 0.8466 -0.2957
vn -0.5694 0.7288 -0.3804
vn -0.6939 0.5510 -0.4636
vn -0.7926 0.3023 -0.5296
vn -0.8315 -0.0000 -0.5556
vn -0.7926 -0.3023 -0.5296
vn -0.6939 -0.5510 -0.4636
vn -0.5694 -0.7288 -0.3804
vn -0.4425 -0.8466 -0.2957
vn -0.3226 -0.9216 -0.2156
vn -0.2109 -0.9673 -0.1409
vn -0.1055 -0.9919 -0.0705
vn -0.0897 0.9919 -0.0897
vn -0.1794 0.9673 -0.1794
vn -0.2744 0.9216 -0.2744
vn -0.3763 0.8466 -0.3763
vn -0.4842 0.7288 -0.4842
vn -0.5901 0.5510 -0.5901
vn -0.6740 0.3023 -0.6740
vn -0.7071 -0.0000 -0.7071
vn -0.6740 -0.3023 -0.6740
vn -0.5901 -0.5510 -0.5901
vn -0.4842 -0.7288 -0.4842
vn -0.3763 -0.8466 -0.3763
vn -0.2744 -0.9216 -0.2744
vn -0.1794 -0.9673 -0.1794
vn -0.0897 -0.9919 -0.0897
vn -0.0705 0.9919 -0.1055
vn -0.1409 0.9673 -0.2109
vn -0.2156 0.9216 -0.3226
vn -0.2957 0.8466 -0.4425
vn -0.3804 0.7288 -0.5694
vn -0.4636 0.5510 -0.6939
vn -0.5296 0.3023 -0.7926
vn -0.5556 -0.0000 -0.8315
vn -0.5296 -0.3023 -0.7926
vn -0.4636 -0.5510 -0.6939
vn -0.3804 -0.7288 -0.5694
vn -0.2957 -0.8466 -0.4425
vn -0.2156 -0.9216 -0.3226
vn -0.1409 -0.9673 -0.2109
vn -0.0705 -0.9919 -0.1055
vn -0.0485 0.9919 -0.1172
vn -0.0971 0.9673 -0.2344
vn -0.1485 0.9216 -0.3585
vn -0.2037 0.8466 -0.4917
vn -0.2620 0.7288 -0.6326
vn -0.3194 0.5510 -0.7710
vn -0.3648 0.3023 -0.8806
vn -0.3827 -0.0000 -0.9239
vn -0.3648 -0.3023 -0.8806
vn -0.3194 -0.5510 -0.7710
vn -0.2620 -0.7288 -0.6326
vn -0.2037 -0.8466 -0.4917
vn -0.1485 -0.9216 -0.3585
vn -0.0971 -0.9673 -0.2344
vn -0.0485 -0.9919 -0.1172
vn -0.0247 0.9919 -0.1244
vn -0.0495 0.9673 -0.2488
vn -0.0757 0.9216 -0.3806
vn -0.1038 0.8466 -0.5220
vn -0.1336 0.7288 -0.6716
vn -0.1628 0.5510 -0.8185
vn -0.1860 0.3023 -0.9349
vn -0.1951 -0.0000 -0.9808
vn -0.1860 -0.3023 -0.9349
vn -0.1628 -0.5510 -0.8185
vn -0.1336 -0.7288 -0.6716
vn -0.1038 -0.8466 -0.5220
vn -0.0757 -0.9216 -0.3806
vn -0.0495 -0.9673 -0.2488
vn -0.0247 -0.9919 -0.1244
vn -0.0000 0.9919 -0.1268
vn -0.0000 0.9673 -0.2537
vn -0.0000 0.8466 -0.5322
vn -0.0000 0.5510 -0.8345
vn -0.0000 -0.5510 -0.8345
vn -0.0000 -0.8466 -0.5322
vn -0.0000 -0.9216 -0.3880
vn -0.0000 -0.9673 -0.2537
vn -0.0000 -0.9919 -0.1268
vt 0.750000 0.125000
vt 0.718750 0.062500
vt 0.750000 0.062500
vt 0.750000 0.562500
vt 0.718750 0.500000
vt 0.750000 0.500000
vt 0.750000 0.937500
vt 0.734375 1.000000
vt 0.718750 0.937500
vt 0.734375 0.000000
vt 0.718750 0.437500
vt 0.750000 0.437500
vt 0.750000 0.875000
vt 0.718750 0.875000
vt 0.718750 0.375000
vt 0.750000 0.375000
vt 0.750000 0.812500
vt 0.718750 0.812500
vt 0.718750 0.312500
vt 0.750000 0.312500
vt 0.750000 0.750000
vt 0.718750 0.750000
vt 0.718750 0.250000
vt 0.750000 0.250000
vt 0.750000 0.687500
vt 0.718750 0.687500
vt 0.718750 0.187500
vt 0.750000 0.187500
vt 0.750000 0.625000
vt 0.718750 0.625000
vt 0.718750 0.125000
vt 0.718750 0.562500
vt 0.687500 0.625000
vt 0.687500 0.187500
vt 0.687500 0.125000
vt 0.687500 0.562500
vt 0.687500 0.062500
vt 0.687500 0.500000
vt 0.703125 1.000000
vt 0.687500 0.937500
vt 0.703125 0.000000
vt 0.687500 0.437500
vt 0.687500 0.875000
vt 0.687500 0.375000
vt 0.687500 0.812500
vt 0.687500 0.312500
vt 0.687500 0.750000
vt 0.687500 0.250000
vt 0.687500 0.687500
vt 0.656250 0.375000
vt 0.656250 0.812500
vt 0.656250 0.312500
vt 0.656250 0.750000
vt 0.656250 0.250000
vt 0.656250 0.687500
vt 0.656250 0.187500
vt 0.656250 0.625000
vt 0.656250 0.125000
vt 0.656250 0.562500
vt 0.656250 0.062500
vt 0.656250 0.500000
vt 0.671875 1.000000
vt 0.656250 0.937500
vt 0.671875 0.000000
vt 0.656250 0.437500
vt 0.656250 0.875000
vt 0.625000 0.125000
vt 0.625000 0.625000
vt 0.625000 0.562500
vt 0.625000 0.062500
vt 0.625000 0.500000
vt 0.640625 1.000000
vt 0.625000 0.937500
vt 0.640625 0.000000
vt 0.625000 0.437500
vt 0.625000 0.875000
vt 0.625000 0.375000
vt 0.625000 0.812500
vt 0.625000 0.312500
vt 0.625000 0.750000
vt 0.625000 0.250000
vt 0.625000 0.687500
vt 0.625000 0.187500
vt 0.593750 0.375000
vt 0.593750 0.312500
vt 0.593750 0.750000
vt 0.593750 0.250000
vt 0.593750 0.687500
vt 0.593750 0.187500
vt 0.593750 0.625000
vt 0.593750 0.125000
vt 0.593750 0.562500
vt 0.593750 0.062500
vt 0.593750 0.500000
vt 0.609375 1.000000
vt 0.593750 0.937500
vt 0.609375 0.000000
vt 0.593750 0.437500
vt 0.593750 0.875000
vt 0.593750 0.812500
vt 0.562500 0.125000
vt 0.562500 0.062500
vt 0.562500 0.562500
vt 0.562500 0.500000
vt 0.578125 1.000000
vt 0.562500 0.937500
vt 0.578125 0.000000
vt 0.562500 0.437500
vt 0.562500 0.875000
vt 0.562500 0.375000
vt 0.562500 0.812500
vt 0.562500 0.312500
vt 0.562500 0.750000
vt 0.562500 0.250000
vt 0.562500 0.687500
vt 0.562500 0.187500
vt 0.562500 0.625000
vt 0.531250 0.750000
vt 0.531250 0.250000
vt 0.531250 0.687500
vt 0.531250 0.187500
vt 0.531250 0.625000
vt 0.531250 0.125000
vt 0.531250 0.562500
vt 0.531250 0.062500
vt 0.531250 0.500000
vt 0.546875 1.000000
vt 0.531250 0.937500
vt 0.546875 0.000000
vt 0.531250 0.437500
vt 0.531250 0.875000
vt 0.531250 0.375000
vt 0.531250 0.812500
vt 0.531250 0.312500
vt 0.500000 0.562500
vt 0.500000 0.500000
vt 0.515625 1.000000
vt 0.500000 0.937500
vt 0.515625 0.000000
vt 0.500000 0.062500
vt 0.500000 0.437500
vt 0.500000 0.875000
vt 0.500000 0.375000
vt 0.500000 0.812500
vt 0.500000 0.312500
vt 0.500000 0.750000
vt 0.500000 0.250000
vt 0.500000 0.687500
vt 0.500000 0.187500
vt 0.500000 0.625000
vt 0.500000 0.125000
vt 0.500000 0.113934
vt 0.468750 0.095272
vt 0.500000 0.095272
vt 0.500000 0.225910
vt 0.468750 0.244572
vt 0.468750 0.225910
vt 0.500000 0.076609
vt 0.468750 0.076609
vt 0.468750 0.207247
vt 0.500000 0.207247
vt 0.468750 0.057947
vt 0.500000 0.057947
vt 0.500000 0.188584
vt 0.468750 0.188584
vt 0.468750 0.039284
vt 0.500000 0.039284
vt 0.500000 0.169922
vt 0.468750 0.169922
vt 0.500000 0.300560
vt 0.484375 0.319222
vt 0.468750 0.300560
vt 0.484375 0.020622
vt 0.468750 0.151259
vt 0.500000 0.151259
vt 0.468750 0.281897
vt 0.500000 0.281897
vt 0.468750 0.132597
vt 0.500000 0.132597
vt 0.468750 0.263235
vt 0.500000 0.263235
vt 0.468750 0.113934
vt 0.500000 0.244572
vt 0.453125 0.319222
vt 0.437500 0.300560
vt 0.453125 0.020622
vt 0.437500 0.039284
vt 0.437500 0.151259
vt 0.437500 0.281897
vt 0.437500 0.132597
vt 0.437500 0.263235
vt 0.437500 0.113934
vt 0.437500 0.244572
vt 0.437500 0.095272
vt 0.437500 0.225910
vt 0.437500 0.076609
vt 0.437500 0.207247
vt 0.437500 0.057947
vt 0.437500 0.188584
vt 0.437500 0.169922
vt 0.406250 0.244572
vt 0.406250 0.225910
vt 0.406250 0.095272
vt 0.406250 0.076609
vt 0.406250 0.207247
vt 0.406250 0.057947
vt 0.406250 0.188584
vt 0.406250 0.039284
vt 0.406250 0.169922
vt 0.421875 0.319222
vt 0.406250 0.300560
vt 0.421875 0.020622
vt 0.406250 0.151259
vt 0.406250 0.281897
vt 0.406250 0.132597
vt 0.406250 0.263235
vt 0.406250 0.113934
vt 0.375000 0.151259
vt 0.375000 0.281897
vt 0.375000 0.132597
vt 0.375000 0.263235
vt 0.375000 0.113934
vt 0.375000 0.244572
vt 0.375000 0.095272
vt 0.375000 0.225910
vt 0.375000 0.076609
vt 0.375000 0.207247
vt 0.375000 0.057947
vt 0.375000 0.188584
vt 0.375000 0.039284
vt 0.375000 0.169922
vt 0.390625 0.319222
vt 0.375000 0.300560
vt 0.390625 0.020622
vt 0.343750 0.095272
vt 0.343750 0.076609
vt 0.343750 0.207247
vt 0.343750 0.057947
vt 0.343750 0.188584
vt 0.343750 0.039284
vt 0.343750 0.169922
vt 0.359375 0.319222
vt 0.343750 0.300560
vt 0.359375 0.020622
vt 0.343750 0.151259
vt 0.343750 0.281897
vt 0.343750 0.132597
vt 0.343750 0.263235
vt 0.343750 0.113934
vt 0.343750 0.244572
vt 0.343750 0.225910
vt 0.312500 0.132597
vt 0.312500 0.263235
vt 0.312500 0.113934
vt 0.312500 0.244572
vt 0.312500 0.095272
vt 0.312500 0.225910
vt 0.312500 0.076609
vt 0.312500 0.207247
vt 0.312500 0.057947
vt 0.312500 0.188584
vt 0.312500 0.039284
vt 0.312500 0.169922
vt 0.328125 0.319222
vt 0.312500 0.300560
vt 0.328125 0.020622
vt 0.312500 0.151259
vt 0.312500 0.281897
vt 0.281250 0.057947
vt 0.281250 0.207247
vt 0.281250 0.188584
vt 0.281250 0.039284
vt 0.281250 0.169922
vt 0.296875 0.319222
vt 0.281250 0.300560
vt 0.296875 0.020622
vt 0.281250 0.151259
vt 0.281250 0.281897
vt 0.281250 0.132597
vt 0.281250 0.263235
vt 0.281250 0.113934
vt 0.281250 0.244572
vt 0.281250 0.095272
vt 0.281250 0.225910
vt 0.281250 0.076609
vt 0.250000 0.281897
vt 0.250000 0.263235
vt 0.250000 0.132597
vt 0.250000 0.113934
vt 0.250000 0.244572
vt 0.250000 0.095272
vt 0.250000 0.225910
vt 0.250000 0.076609
vt 0.250000 0.207247
vt 0.250000 0.057947
vt 0.250000 0.188584
vt 0.250000 0.039284
vt 0.250000 0.169922
vt 0.265625 0.319222
vt 0.250000 0.300560
vt 0.265625 0.020622
vt 0.250000 0.151259
vt 0.218750 0.207247
vt 0.218750 0.188584
vt 0.218750 0.039284
vt 0.218750 0.169922
vt 0.234375 0.319222
vt 0.218750 0.300560
vt 0.234375 0.020622
vt 0.218750 0.151259
vt 0.218750 0.281897
vt 0.218750 0.132597
vt 0.218750 0.263235
vt 0.218750 0.113934
vt 0.218750 0.244572
vt 0.218750 0.095272
vt 0.218750 0.225910
vt 0.218750 0.076609
vt 0.218750 0.057947
vt 0.187500 0.132597
vt 0.187500 0.113934
vt 0.187500 0.244572
vt 0.187500 0.095272
vt 0.187500 0.225910
vt 0.187500 0.076609
vt 0.187500 0.207247
vt 0.187500 0.057947
vt 0.187500 0.188584
vt 0.187500 0.039284
vt 0.187500 0.169922
vt 0.203125 0.319222
vt 0.187500 0.300560
vt 0.203125 0.020622
vt 0.187500 0.151259
vt 0.187500 0.281897
vt 0.187500 0.263235
vt 0.156250 0.057947
vt 0.156250 0.039284
vt 0.156250 0.188584
vt 0.156250 0.169922
vt 0.171875 0.319222
vt 0.156250 0.300560
vt 0.171875 0.020622
vt 0.156250 0.151259
vt 0.156250 0.281897
vt 0.156250 0.132597
vt 0.156250 0.263235
vt 0.156250 0.113934
vt 0.156250 0.244572
vt 0.156250 0.095272
vt 0.156250 0.225910
vt 0.156250 0.076609
vt 0.156250 0.207247
vt 0.125000 0.244572
vt 0.125000 0.095272
vt 0.125000 0.225910
vt 0.125000 0.076609
vt 0.125000 0.207247
vt 0.125000 0.057947
vt 0.125000 0.188584
vt 0.125000 0.039284
vt 0.125000 0.169922
vt 0.140625 0.319222
vt 0.125000 0.300560
vt 0.140625 0.020622
vt 0.125000 0.151259
vt 0.125000 0.281897
vt 0.125000 0.132597
vt 0.125000 0.263235
vt 0.125000 0.113934
vt 0.093750 0.188584
vt 0.093750 0.169922
vt 0.109375 0.319222
vt 0.093750 0.300560
vt 0.109375 0.020622
vt 0.093750 0.039284
vt 0.093750 0.151259
vt 0.093750 0.281897
vt 0.093750 0.132597
vt 0.093750 0.263235
vt 0.093750 0.113934
vt 0.093750 0.244572
vt 0.093750 0.095272
vt 0.093750 0.225910
vt 0.093750 0.076609
vt 0.093750 0.207247
vt 0.093750 0.057947
vt 0.062500 0.095272
vt 0.062500 0.225910
vt 0.062500 0.076609
vt 0.062500 0.207247
vt 0.062500 0.057947
vt 0.062500 0.188584
vt 0.062500 0.039284
vt 0.062500 0.169922
vt 0.078125 0.319222
vt 0.062500 0.300560
vt 0.078125 0.020622
vt 0.062500 0.151259
vt 0.062500 0.281897
vt 0.062500 0.132597
vt 0.062500 0.263235
vt 0.062500 0.113934
vt 0.062500 0.244572
vt 0.046875 0.020622
vt 0.031250 0.039284
vt 0.031250 0.151259
vt 0.031250 0.281897
vt 0.031250 0.132597
vt 0.031250 0.263235
vt 0.031250 0.113934
vt 0.031250 0.244572
vt 0.031250 0.095272
vt 0.031250 0.225910
vt 0.031250 0.076609
vt 0.031250 0.207247
vt 0.031250 0.057947
vt 0.031250 0.188584
vt 0.031250 0.169922
vt 0.046875 0.319222
vt 0.031250 0.300560
vt 0.000000 0.095272
vt 0.000000 0.076609
vt 0.000000 0.207247
vt 0.000000 0.057947
vt 0.000000 0.188584
vt 0.000000 0.039284
vt 0.000000 0.169922
vt 0.015625 0.319222
vt 0.000000 0.300560
vt 0.015625 0.020622
vt 0.000000 0.151259
vt 0.000000 0.281897
vt 0.000000 0.132597
vt 0.000000 0.263235
vt 0.000000 0.113934
vt 0.000000 0.244572
vt 0.000000 0.225910
vt 1.000000 0.937500
vt 0.968750 0.875000
vt 1.000000 0.875000
vt 1.000000 0.437500
vt 0.968750 0.375000
vt 1.000000 0.375000
vt 1.000000 0.812500
vt 0.968750 0.812500
vt 1.000000 0.312500
vt 0.968750 0.312500
vt 0.968750 0.750000
vt 1.000000 0.750000
vt 0.968750 0.250000
vt 1.000000 0.250000
vt 1.000000 0.687500
vt 0.968750 0.687500
vt 1.000000 0.187500
vt 0.968750 0.187500
vt 0.968750 0.625000
vt 1.000000 0.625000
vt 0.968750 0.125000
vt 1.000000 0.125000
vt 1.000000 0.562500
vt 0.968750 0.562500
vt 0.968750 0.062500
vt 1.000000 0.062500
vt 1.000000 0.500000
vt 0.968750 0.500000
vt 0.984375 1.000000
vt 0.968750 0.937500
vt 0.984375 0.000000
vt 0.968750 0.437500
vt 0.937500 0.625000
vt 0.937500 0.125000
vt 0.937500 0.562500
vt 0.937500 0.062500
vt 0.937500 0.500000
vt 0.953125 1.000000
vt 0.937500 0.937500
vt 0.953125 0.000000
vt 0.937500 0.437500
vt 0.937500 0.875000
vt 0.937500 0.375000
vt 0.937500 0.812500
vt 0.937500 0.312500
vt 0.937500 0.750000
vt 0.937500 0.250000
vt 0.937500 0.687500
vt 0.937500 0.187500
vt 0.906250 0.375000
vt 0.906250 0.812500
vt 0.906250 0.312500
vt 0.906250 0.750000
vt 0.906250 0.250000
vt 0.906250 0.687500
vt 0.906250 0.187500
vt 0.906250 0.625000
vt 0.906250 0.125000
vt 0.906250 0.562500
vt 0.906250 0.062500
vt 0.906250 0.500000
vt 0.921875 1.000000
vt 0.906250 0.937500
vt 0.921875 0.000000
vt 0.906250 0.437500
vt 0.906250 0.875000
vt 0.875000 0.125000
vt 0.875000 0.625000
vt 0.875000 0.562500
vt 0.875000 0.062500
vt 0.875000 0.500000
vt 0.890625 1.000000
vt 0.875000 0.937500
vt 0.890625 0.000000
vt 0.875000 0.437500
vt 0.875000 0.875000
vt 0.875000 0.375000
vt 0.875000 0.812500
vt 0.875000 0.312500
vt 0.875000 0.750000
vt 0.875000 0.250000
vt 0.875000 0.687500
vt 0.875000 0.187500
vt 0.843750 0.875000
vt 0.843750 0.812500
vt 0.843750 0.375000
vt 0.843750 0.312500
vt 0.843750 0.750000
vt 0.843750 0.250000
vt 0.843750 0.687500
vt 0.843750 0.187500
vt 0.843750 0.625000
vt 0.843750 0.125000
vt 0.843750 0.562500
vt 0.843750 0.062500
vt 0.843750 0.500000
vt 0.859375 1.000000
vt 0.843750 0.937500
vt 0.859375 0.000000
vt 0.843750 0.437500
vt 0.812500 0.625000
vt 0.812500 0.562500
vt 0.812500 0.062500
vt 0.812500 0.500000
vt 0.828125 1.000000
vt 0.812500 0.937500
vt 0.828125 0.000000
vt 0.812500 0.437500
vt 0.812500 0.875000
vt 0.812500 0.375000
vt 0.812500 0.812500
vt 0.812500 0.312500
vt 0.812500 0.750000
vt 0.812500 0.250000
vt 0.812500 0.687500
vt 0.812500 0.187500
vt 0.812500 0.125000
vt 0.781250 0.375000
vt 0.781250 0.312500
vt 0.781250 0.750000
vt 0.781250 0.250000
vt 0.781250 0.687500
vt 0.781250 0.187500
vt 0.781250 0.625000
vt 0.781250 0.125000
vt 0.781250 0.562500
vt 0.781250 0.062500
vt 0.781250 0.500000
vt 0.796875 1.000000
vt 0.781250 0.937500
vt 0.796875 0.000000
vt 0.781250 0.437500
vt 0.781250 0.875000
vt 0.781250 0.812500
vt 0.765625 1.000000
vt 0.765625 0.000000
s 1
usemtl マテリアル.001
f 514/66/514 54/67/54 515/68/515
f 36/69/36 47/70/47 37/71/37
f 507/72/507 115/73/115 40/74/40
f 341/75/341 515/68/515 54/67/54
f 37/71/37 48/76/48 38/77/38
f 508/78/508 40/74/40 41/79/41
f 38/77/38 49/80/49 511/81/511
f 34/82/34 41/79/41 42/83/42
f 511/81/511 50/84/50 39/85/39
f 509/86/509 42/83/42 43/87/43
f 39/85/39 51/88/51 512/89/512
f 35/90/35 43/87/43 44/91/44
f 512/89/512 52/92/52 513/93/513
f 510/94/510 44/91/44 45/95/45
f 513/93/513 53/96/53 514/66/514
f 36/69/36 45/95/45 46/97/46
f 44/91/44 60/98/60 45/95/45
f 53/96/53 67/99/67 68/100/68
f 46/97/46 60/98/60 61/101/61
f 53/96/53 69/102/69 54/67/54
f 46/97/46 62/103/62 47/70/47
f 40/74/40 115/104/115 55/105/55
f 341/106/341 54/67/54 69/102/69
f 47/70/47 63/107/63 48/76/48
f 40/74/40 56/108/56 41/79/41
f 48/76/48 64/109/64 49/80/49
f 41/79/41 57/110/57 42/83/42
f 49/80/49 65/111/65 50/84/50
f 42/83/42 58/112/58 43/87/43
f 50/84/50 66/113/66 51/88/51
f 43/87/43 59/114/59 44/91/44
f 52/92/52 66/113/66 67/99/67
f 63/107/63 79/115/79 64/109/64
f 56/108/56 72/116/72 57/110/57
f 65/111/65 79/115/79 80/117/80
f 57/110/57 73/118/73 58/112/58
f 66/113/66 80/117/80 81/119/81
f 58/112/58 74/120/74 59/114/59
f 67/99/67 81/119/81 82/121/82
f 59/114/59 75/122/75 60/98/60
f 67/99/67 83/123/83 68/100/68
f 60/98/60 76/124/76 61/101/61
f 68/100/68 84/125/84 69/102/69
f 61/101/61 77/126/77 62/103/62
f 55/105/55 115/127/115 70/128/70
f 341/129/341 69/102/69 84/125/84
f 63/107/63 77/126/77 78/130/78
f 55/105/55 71/131/71 56/108/56
f 82/121/82 98/132/98 83/123/83
f 76/124/76 90/133/90 91/134/91
f 83/123/83 99/135/99 84/125/84
f 77/126/77 91/134/91 92/136/92
f 70/128/70 115/137/115 85/138/85
f 341/139/341 84/125/84 99/135/99
f 77/126/77 93/140/93 78/130/78
f 70/128/70 86/141/86 71/131/71
f 78/130/78 94/142/94 79/115/79
f 71/131/71 87/143/87 72/116/72
f 80/117/80 94/142/94 95/144/95
f 72/116/72 88/145/88 73/118/73
f 80/117/80 96/146/96 81/119/81
f 73/118/73 89/147/89 74/120/74
f 81/119/81 97/148/97 82/121/82
f 74/120/74 90/133/90 75/122/75
f 95/144/95 109/149/109 110/150/110
f 87/143/87 103/151/103 88/145/88
f 95/144/95 111/152/111 96/146/96
f 89/147/89 103/151/103 104/153/104
f 96/146/96 112/154/112 97/148/97
f 89/147/89 105/155/105 90/133/90
f 98/132/98 112/154/112 113/156/113
f 91/134/91 105/155/105 106/157/106
f 98/132/98 114/158/114 99/135/99
f 92/136/92 106/157/106 107/159/107
f 85/138/85 115/160/115 100/161/100
f 341/162/341 99/135/99 114/158/114
f 92/136/92 108/163/108 93/140/93
f 85/138/85 101/164/101 86/141/86
f 93/140/93 109/149/109 94/142/94
f 86/141/86 102/165/102 87/143/87
f 114/158/114 129/166/129 130/167/130
f 107/159/107 122/168/122 123/169/123
f 100/161/100 115/170/115 116/171/116
f 341/172/341 114/158/114 130/167/130
f 107/159/107 124/173/124 108/163/108
f 100/161/100 117/174/117 101/164/101
f 108/163/108 125/175/125 109/149/109
f 101/164/101 118/176/118 102/165/102
f 110/150/110 125/175/125 126/177/126
f 102/165/102 119/178/119 103/151/103
f 110/150/110 127/179/127 111/152/111
f 104/153/104 119/178/119 120/180/120
f 111/152/111 128/181/128 112/154/112
f 104/153/104 121/182/121 105/155/105
f 112/154/112 129/166/129 113/156/113
f 106/157/106 121/182/121 122/168/122
f 118/176/118 134/183/134 119/178/119
f 126/177/126 142/184/142 127/179/127
f 120/180/120 134/183/134 135/185/135
f 128/181/128 142/184/142 143/186/143
f 120/180/120 136/187/136 121/182/121
f 129/166/129 143/186/143 144/188/144
f 122/168/122 136/187/136 137/189/137
f 129/166/129 145/190/145 130/167/130
f 123/169/123 137/189/137 138/191/138
f 116/171/116 115/192/115 131/193/131
f 341/194/341 130/167/130 145/190/145
f 123/169/123 139/195/139 124/173/124
f 117/174/117 131/193/131 132/196/132
f 124/173/124 140/197/140 125/175/125
f 117/174/117 133/198/133 118/176/118
f 126/177/126 140/197/140 141/199/141
f 138/191/138 152/200/152 153/201/153
f 131/193/131 115/202/115 146/203/146
f 341/204/341 145/190/145 160/205/160
f 138/191/138 154/206/154 139/195/139
f 132/196/132 146/203/146 147/207/147
f 139/195/139 155/208/155 140/197/140
f 132/196/132 148/209/148 133/198/133
f 141/199/141 155/208/155 156/210/156
f 133/198/133 149/211/149 134/183/134
f 141/199/141 157/212/157 142/184/142
f 135/185/135 149/211/149 150/213/150
f 143/186/143 157/212/157 158/214/158
f 135/185/135 151/215/151 136/187/136
f 143/186/143 159/216/159 144/188/144
f 137/189/137 151/215/151 152/200/152
f 144/188/144 160/205/160 145/190/145
f 156/217/156 172/218/172 157/219/157
f 150/220/150 164/221/164 165/222/165
f 158/223/158 172/218/172 173/224/173
f 150/220/150 166/225/166 151/226/151
f 158/223/158 174/227/174 159/228/159
f 152/229/152 166/225/166 167/230/167
f 159/228/159 175/231/175 160/232/160
f 153/233/153 167/230/167 168/234/168
f 146/235/146 115/236/115 161/237/161
f 341/238/341 160/232/160 175/231/175
f 153/233/153 169/239/169 154/240/154
f 146/235/146 162/241/162 147/242/147
f 154/240/154 170/243/170 155/244/155
f 147/242/147 163/245/163 148/246/148
f 156/217/156 170/243/170 171/247/171
f 148/246/148 164/221/164 149/248/149
f 161/237/161 115/249/115 176/250/176
f 341/251/341 175/231/175 190/252/190
f 168/234/168 184/253/184 169/239/169
f 161/237/161 177/254/177 162/241/162
f 169/239/169 185/255/185 170/243/170
f 163/245/163 177/254/177 178/256/178
f 171/247/171 185/255/185 186/257/186
f 163/245/163 179/258/179 164/221/164
f 171/247/171 187/259/187 172/218/172
f 165/222/165 179/258/179 180/260/180
f 173/224/173 187/259/187 188/261/188
f 165/222/165 181/262/181 166/225/166
f 173/224/173 189/263/189 174/227/174
f 167/230/167 181/262/181 182/264/182
f 175/231/175 189/263/189 190/252/190
f 168/234/168 182/264/182 183/265/183
f 180/260/180 194/266/194 195/267/195
f 188/261/188 202/268/202 203/269/203
f 180/260/180 196/270/196 181/262/181
f 188/261/188 204/271/204 189/263/189
f 182/264/182 196/270/196 197/272/197
f 189/263/189 205/273/205 190/252/190
f 183/265/183 197/272/197 198/274/198
f 176/250/176 115/275/115 191/276/191
f 341/277/341 190/252/190 205/273/205
f 183/265/183 199/278/199 184/253/184
f 176/250/176 192/279/192 177/254/177
f 184/253/184 200/280/200 185/255/185
f 178/256/178 192/279/192 193/281/193
f 186/257/186 200/280/200 201/282/201
f 178/256/178 194/266/194 179/258/179
f 186/257/186 202/268/202 187/259/187
f 198/274/198 214/283/214 199/278/199
f 191/276/191 207/284/207 192/279/192
f 199/278/199 215/285/215 200/280/200
f 192/279/192 208/286/208 193/281/193
f 201/282/201 215/285/215 216/287/216
f 193/281/193 209/288/209 194/266/194
f 201/282/201 217/289/217 202/268/202
f 195/267/195 209/288/209 210/290/210
f 202/268/202 218/291/218 203/269/203
f 195/267/195 211/292/211 196/270/196
f 204/271/204 218/291/218 219/293/219
f 197/272/197 211/292/211 212/294/212
f 205/273/205 219/293/219 220/295/220
f 198/274/198 212/294/212 213/296/213
f 191/276/191 115/297/115 206/298/206
f 341/299/341 205/273/205 220/295/220
f 218/291/218 232/300/232 233/301/233
f 210/290/210 226/302/226 211/292/211
f 218/291/218 234/303/234 219/293/219
f 212/294/212 226/302/226 227/304/227
f 219/293/219 235/305/235 220/295/220
f 213/296/213 227/304/227 228/306/228
f 206/298/206 115/307/115 221/308/221
f 341/309/341 220/295/220 235/305/235
f 213/296/213 229/310/229 214/283/214
f 207/284/207 221/308/221 222/311/222
f 214/283/214 230/312/230 215/285/215
f 208/286/208 222/311/222 223/313/223
f 216/287/216 230/312/230 231/314/231
f 208/286/208 224/315/224 209/288/209
f 216/287/216 232/300/232 217/289/217
f 210/290/210 224/315/224 225/316/225
f 229/310/229 245/317/245 230/312/230
f 222/311/222 238/318/238 223/313/223
f 231/314/231 245/317/245 246/319/246
f 223/313/223 239/320/239 224/315/224
f 231/314/231 247/321/247 232/300/232
f 225/316/225 239/320/239 240/322/240
f 233/301/233 247/321/247 248/323/248
f 225/316/225 241/324/241 226/302/226
f 233/301/233 249/325/249 234/303/234
f 227/304/227 241/324/241 242/326/242
f 234/303/234 250/327/250 235/305/235
f 228/306/228 242/326/242 243/328/243
f 221/308/221 115/329/115 236/330/236
f 341/331/341 235/305/235 250/327/250
f 228/306/228 244/332/244 229/310/229
f 221/308/221 237/333/237 222/311/222
f 248/323/248 264/334/264 249/325/249
f 242/326/242 256/335/256 257/336/257
f 249/325/249 265/337/265 250/327/250
f 243/328/243 257/336/257 258/338/258
f 236/330/236 115/339/115 251/340/251
f 341/341/341 250/327/250 265/337/265
f 243/328/243 259/342/259 244/332/244
f 236/330/236 252/343/252 237/333/237
f 244/332/244 260/344/260 245/317/245
f 237/333/237 253/345/253 238/318/238
f 246/319/246 260/344/260 261/346/261
f 238/318/238 254/347/254 239/320/239
f 246/319/246 262/348/262 247/321/247
f 240/322/240 254/347/254 255/349/255
f 248/323/248 262/348/262 263/350/263
f 240/322/240 256/335/256 241/324/241
f 253/345/253 267/351/267 268/352/268
f 261/346/261 275/353/275 276/354/276
f 253/345/253 269/355/269 254/347/254
f 261/346/261 277/356/277 262/348/262
f 255/349/255 269/355/269 270/357/270
f 263/350/263 277/356/277 278/358/278
f 255/349/255 271/359/271 256/335/256
f 263/350/263 279/360/279 264/334/264
f 257/336/257 271/359/271 272/361/272
f 265/337/265 279/360/279 280/362/280
f 258/338/258 272/361/272 273/363/273
f 251/340/251 115/364/115 266/365/266
f 341/366/341 265/337/265 280/362/280
f 258/338/258 274/367/274 259/342/259
f 251/340/251 267/351/267 252/343/252
f 259/342/259 275/353/275 260/344/260
f 272/361/272 286/368/286 287/369/287
f 279/360/279 295/370/295 280/362/280
f 273/363/273 287/369/287 288/371/288
f 266/365/266 115/372/115 281/373/281
f 341/374/341 280/362/280 295/370/295
f 273/363/273 289/375/289 274/367/274
f 266/365/266 282/376/282 267/351/267
f 274/367/274 290/377/290 275/353/275
f 267/351/267 283/378/283 268/352/268
f 276/354/276 290/377/290 291/379/291
f 268/352/268 284/380/284 269/355/269
f 276/354/276 292/381/292 277/356/277
f 270/357/270 284/380/284 285/382/285
f 278/358/278 292/381/292 293/383/293
f 270/357/270 286/368/286 271/359/271
f 278/358/278 294/384/294 279/360/279
f 291/379/291 305/385/305 306/386/306
f 283/378/283 299/387/299 284/380/284
f 291/379/291 307/388/307 292/381/292
f 285/382/285 299/387/299 300/389/300
f 293/383/293 307/388/307 308/390/308
f 285/382/285 301/391/301 286/368/286
f 293/383/293 309/392/309 294/384/294
f 287/369/287 301/391/301 302/393/302
f 294/384/294 310/394/310 295/370/295
f 288/371/288 302/393/302 303/395/303
f 281/373/281 115/396/115 296/397/296
f 341/398/341 295/370/295 310/394/310
f 288/371/288 304/399/304 289/375/289
f 282/376/282 296/397/296 297/400/297
f 289/375/289 305/385/305 290/377/290
f 282/376/282 298/401/298 283/378/283
f 310/394/310 324/402/324 325/403/325
f 303/395/303 317/404/317 318/405/318
f 296/397/296 115/406/115 311/407/311
f 341/408/341 310/394/310 325/403/325
f 303/395/303 319/409/319 304/399/304
f 297/400/297 311/407/311 312/410/312
f 304/399/304 320/411/320 305/385/305
f 297/400/297 313/412/313 298/401/298
f 306/386/306 320/411/320 321/413/321
f 298/401/298 314/414/314 299/387/299
f 306/386/306 322/415/322 307/388/307
f 300/389/300 314/414/314 315/416/315
f 308/390/308 322/415/322 323/417/323
f 300/389/300 316/418/316 301/391/301
f 308/390/308 324/402/324 309/392/309
f 302/393/302 316/418/316 317/404/317
f 313/412/313 329/419/329 314/414/314
f 321/413/321 337/420/337 322/415/322
f 315/416/315 329/419/329 330/421/330
f 323/417/323 337/420/337 338/422/338
f 315/416/315 331/423/331 316/418/316
f 323/417/323 339/424/339 324/402/324
f 317/404/317 331/423/331 332/425/332
f 325/403/325 339/424/339 340/426/340
f 318/405/318 332/425/332 333/427/333
f 311/407/311 115/428/115 326/429/326
f 341/430/341 325/403/325 340/426/340
f 318/405/318 334/431/334 319/409/319
f 311/407/311 327/432/327 312/410/312
f 319/409/319 335/433/335 320/411/320
f 312/410/312 328/434/328 313/412/313
f 321/413/321 335/433/335 336/435/336
f 333/427/333 348/436/348 349/437/349
f 326/429/326 115/438/115 342/439/342
f 341/440/341 340/426/340 356/441/356
f 333/427/333 350/442/350 334/431/334
f 326/429/326 343/443/343 327/432/327
f 334/431/334 351/444/351 335/433/335
f 327/432/327 344/445/344 328/434/328
f 336/435/336 351/444/351 352/446/352
f 328/434/328 345/447/345 329/419/329
f 336/435/336 353/448/353 337/420/337
f 330/421/330 345/447/345 346/449/346
f 338/422/338 353/448/353 354/450/354
f 330/421/330 347/451/347 331/423/331
f 338/422/338 355/452/355 339/424/339
f 332/425/332 347/451/347 348/436/348
f 339/424/339 356/441/356 340/426/340
f 352/446/352 368/453/368 353/448/353
f 345/447/345 361/454/361 346/449/346
f 354/450/354 368/453/368 369/455/369
f 346/449/346 362/456/362 347/451/347
f 354/450/354 370/457/370 355/452/355
f 348/436/348 362/456/362 363/458/363
f 355/452/355 371/459/371 356/441/356
f 349/437/349 363/458/363 364/460/364
f 342/439/342 115/461/115 357/462/357
f 341/463/341 356/441/356 371/459/371
f 349/437/349 365/464/365 350/442/350
f 342/439/342 358/465/358 343/443/343
f 350/442/350 366/466/366 351/444/351
f 343/443/343 359/467/359 344/445/344
f 352/446/352 366/466/366 367/468/367
f 344/445/344 360/469/360 345/447/345
f 341/470/341 371/459/371 386/471/386
f 364/460/364 380/472/380 365/464/365
f 357/462/357 373/473/373 358/465/358
f 365/464/365 381/474/381 366/466/366
f 358/465/358 374/475/374 359/467/359
f 367/468/367 381/474/381 382/476/382
f 359/467/359 375/477/375 360/469/360
f 367/468/367 383/478/383 368/453/368
f 361/454/361 375/477/375 376/479/376
f 369/455/369 383/478/383 384/480/384
f 361/454/361 377/481/377 362/456/362
f 369/455/369 385/482/385 370/457/370
f 363/458/363 377/481/377 378/483/378
f 370/457/370 386/471/386 371/459/371
f 364/460/364 378/483/378 379/484/379
f 357/462/357 115/485/115 372/486/372
f 384/480/384 398/487/398 399/488/399
f 376/479/376 392/489/392 377/481/377
f 384/480/384 400/490/400 385/482/385
f 378/483/378 392/489/392 393/491/393
f 385/482/385 401/492/401 386/471/386
f 379/484/379 393/491/393 394/493/394
f 372/486/372 115/494/115 387/495/387
f 341/496/341 386/471/386 401/492/401
f 379/484/379 395/497/395 380/472/380
f 372/486/372 388/498/388 373/473/373
f 380/472/380 396/499/396 381/474/381
f 374/475/374 388/498/388 389/500/389
f 382/476/382 396/499/396 397/501/397
f 374/475/374 390/502/390 375/477/375
f 382/476/382 398/487/398 383/478/383
f 376/479/376 390/502/390 391/503/391
f 387/504/387 403/505/403 388/506/388
f 395/507/395 411/508/411 396/509/396
f 389/510/389 403/505/403 404/511/404
f 397/512/397 411/508/411 412/513/412
f 389/510/389 405/514/405 390/515/390
f 397/512/397 413/516/413 398/517/398
f 391/518/391 405/514/405 406/519/406
f 399/520/399 413/516/413 414/521/414
f 391/518/391 407/522/407 392/523/392
f 399/520/399 415/524/415 400/525/400
f 393/526/393 407/522/407 408/527/408
f 400/525/400 416/528/416 401/529/401
f 394/530/394 408/527/408 409/531/409
f 387/504/387 115/532/115 402/533/402
f 341/534/341 401/529/401 416/528/416
f 394/530/394 410/535/410 395/507/395
f 406/519/406 422/536/422 407/522/407
f 414/521/414 430/537/430 415/524/415
f 408/527/408 422/536/422 423/538/423
f 415/524/415 431/539/431 416/528/416
f 409/531/409 423/538/423 424/540/424
f 402/533/402 115/541/115 417/542/417
f 341/543/341 416/528/416 431/539/431
f 409/531/409 425/544/425 410/535/410
f 402/533/402 418/545/418 403/505/403
f 410/535/410 426/546/426 411/508/411
f 404/511/404 418/545/418 419/547/419
f 412/513/412 426/546/426 427/548/427
f 404/511/404 420/549/420 405/514/405
f 412/513/412 428/550/428 413/516/413
f 406/519/406 420/549/420 421/551/421
f 414/521/414 428/550/428 429/552/429
f 425/544/425 441/553/441 426/546/426
f 418/545/418 434/554/434 419/547/419
f 427/548/427 441/553/441 442/555/442
f 419/547/419 435/556/435 420/549/420
f 427/548/427 443/557/443 428/550/428
f 421/551/421 435/556/435 436/558/436
f 429/552/429 443/557/443 444/559/444
f 421/551/421 437/560/437 422/536/422
f 430/537/430 444/559/444 445/561/445
f 423/538/423 437/560/437 438/562/438
f 430/537/430 446/563/446 431/539/431
f 424/540/424 438/562/438 439/564/439
f 417/542/417 115/565/115 432/566/432
f 341/567/341 431/539/431 446/563/446
f 424/540/424 440/568/440 425/544/425
f 418/545/418 432/566/432 433/569/433
f 444/559/444 460/570/460 445/561/445
f 438/562/438 452/571/452 453/572/453
f 445/561/445 461/573/461 446/563/446
f 439/564/439 453/572/453 454/574/454
f 432/566/432 115/575/115 447/576/447
f 341/577/341 446/563/446 461/573/461
f 439/564/439 455/578/455 440/568/440
f 432/566/432 448/579/448 433/569/433
f 440/568/440 456/580/456 441/553/441
f 434/554/434 448/579/448 449/581/449
f 442/555/442 456/580/456 457/582/457
f 434/554/434 450/583/450 435/556/435
f 442/555/442 458/584/458 443/557/443
f 436/558/436 450/583/450 451/585/451
f 444/559/444 458/584/458 459/586/459
f 436/558/436 452/571/452 437/560/437
f 449/581/449 463/587/463 464/588/464
f 457/582/457 471/589/471 472/590/472
f 449/581/449 465/591/465 450/583/450
f 457/582/457 473/592/473 458/584/458
f 451/585/451 465/591/465 466/593/466
f 459/586/459 473/592/473 474/594/474
f 451/585/451 467/595/467 452/571/452
f 459/586/459 475/596/475 460/570/460
f 453/572/453 467/595/467 468/597/468
f 460/570/460 476/598/476 461/573/461
f 454/574/454 468/597/468 469/599/469
f 447/576/447 115/600/115 462/601/462
f 341/602/341 461/573/461 476/598/476
f 454/574/454 470/603/470 455/578/455
f 447/576/447 463/587/463 448/579/448
f 455/578/455 471/589/471 456/580/456
f 468/597/468 482/604/482 483/605/483
f 475/596/475 491/606/491 476/598/476
f 469/599/469 483/605/483 484/607/484
f 462/601/462 115/608/115 477/609/477
f 341/610/341 476/598/476 491/606/491
f 469/599/469 485/611/485 470/603/470
f 463/587/463 477/609/477 478/612/478
f 470/603/470 486/613/486 471/589/471
f 463/587/463 479/614/479 464/588/464
f 472/590/472 486/613/486 487/615/487
f 464/588/464 480/616/480 465/591/465
f 472/590/472 488/617/488 473/592/473
f 466/593/466 480/616/480 481/618/481
f 474/594/474 488/617/488 489/619/489
f 466/593/466 482/604/482 467/595/467
f 474/594/474 490/620/490 475/596/475
f 487/615/487 501/621/501 502/622/502
f 479/614/479 495/623/495 480/616/480
f 487/615/487 503/624/503 488/617/488
f 481/618/481 495/623/495 496/625/496
f 489/619/489 503/624/503 504/626/504
f 481/618/481 497/627/497 482/604/482
f 489/619/489 505/628/505 490/620/490
f 483/605/483 497/627/497 498/629/498
f 491/606/491 505/628/505 506/630/506
f 484/607/484 498/629/498 499/631/499
f 477/609/477 115/632/115 492/633/492
f 341/634/341 491/606/491 506/630/506
f 484/607/484 500/635/500 485/611/485
f 477/609/477 493/636/493 478/612/478
f 485/611/485 501/621/501 486/613/486
f 479/614/479 493/636/493 494/637/494
f 505/628/505 515/68/515 506/630/506
f 499/631/499 36/69/36 37/71/37
f 492/633/492 115/638/115 507/72/507
f 341/639/341 506/630/506 515/68/515
f 499/631/499 38/77/38 500/635/500
f 493/636/493 507/72/507 508/78/508
f 500/635/500 511/81/511 501/621/501
f 494/637/494 508/78/508 34/82/34
f 501/621/501 39/85/39 502/622/502
f 495/623/495 34/82/34 509/86/509
f 502/622/502 512/89/512 503/624/503
f 496/625/496 509/86/509 35/90/35
f 504/626/504 512/89/512 513/93/513
f 497/627/497 35/90/35 510/94/510
f 504/626/504 514/66/514 505/628/505
f 498/629/498 510/94/510 36/69/36
f 514/66/514 53/96/53 54/67/54
f 36/69/36 46/97/46 47/70/47
f 37/71/37 47/70/47 48/76/48
f 508/78/508 507/72/507 40/74/40
f 38/77/38 48/76/48 49/80/49
f 34/82/34 508/78/508 41/79/41
f 511/81/511 49/80/49 50/84/50
f 509/86/509 34/82/34 42/83/42
f 39/85/39 50/84/50 51/88/51
f 35/90/35 509/86/509 43/87/43
f 512/89/512 51/88/51 52/92/52
f 510/94/510 35/90/35 44/91/44
f 513/93/513 52/92/52 53/96/53
f 36/69/36 510/94/510 45/95/45
f 44/91/44 59/114/59 60/98/60
f 53/96/53 52/92/52 67/99/67
f 46/97/46 45/95/45 60/98/60
f 53/96/53 68/100/68 69/102/69
f 46/97/46 61/101/61 62/103/62
f 47/70/47 62/103/62 63/107/63
f 40/74/40 55/105/55 56/108/56
f 48/76/48 63/107/63 64/109/64
f 41/79/41 56/108/56 57/110/57
f 49/80/49 64/109/64 65/111/65
f 42/83/42 57/110/57 58/112/58
f 50/84/50 65/111/65 66/113/66
f 43/87/43 58/112/58 59/114/59
f 52/92/52 51/88/51 66/113/66
f 63/107/63 78/130/78 79/115/79
f 56/108/56 71/131/71 72/116/72
f 65/111/65 64/109/64 79/115/79
f 57/110/57 72/116/72 73/118/73
f 66/113/66 65/111/65 80/117/80
f 58/112/58 73/118/73 74/120/74
f 67/99/67 66/113/66 81/119/81
f 59/114/59 74/120/74 75/122/75
f 67/99/67 82/121/82 83/123/83
f 60/98/60 75/122/75 76/124/76
f 68/100/68 83/123/83 84/125/84
f 61/101/61 76/124/76 77/126/77
f 63/107/63 62/103/62 77/126/77
f 55/105/55 70/128/70 71/131/71
f 82/121/82 97/148/97 98/132/98
f 76/124/76 75/122/75 90/133/90
f 83/123/83 98/132/98 99/135/99
f 77/126/77 76/124/76 91/134/91
f 77/126/77 92/136/92 93/140/93
f 70/128/70 85/138/85 86/141/86
f 78/130/78 93/140/93 94/142/94
f 71/131/71 86/141/86 87/143/87
f 80/117/80 79/115/79 94/142/94
f 72/116/72 87/143/87 88/145/88
f 80/117/80 95/144/95 96/146/96
f 73/118/73 88/145/88 89/147/89
f 81/119/81 96/146/96 97/148/97
f 74/120/74 89/147/89 90/133/90
f 95/144/95 94/142/94 109/149/109
f 87/143/87 102/165/102 103/151/103
f 95/144/95 110/150/110 111/152/111
f 89/147/89 88/145/88 103/151/103
f 96/146/96 111/152/111 112/154/112
f 89/147/89 104/153/104 105/155/105
f 98/132/98 97/148/97 112/154/112
f 91/134/91 90/133/90 105/155/105
f 98/132/98 113/156/113 114/158/114
f 92/136/92 91/134/91 106/157/106
f 92/136/92 107/159/107 108/163/108
f 85/138/85 100/161/100 101/164/101
f 93/140/93 108/163/108 109/149/109
f 86/141/86 101/164/101 102/165/102
f 114/158/114 113/156/113 129/166/129
f 107/159/107 106/157/106 122/168/122
f 107/159/107 123/169/123 124/173/124
f 100/161/100 116/171/116 117/174/117
f 108/163/108 124/173/124 125/175/125
f 101/164/101 117/174/117 118/176/118
f 110/150/110 109/149/109 125/175/125
f 102/165/102 118/176/118 119/178/119
f 110/150/110 126/177/126 127/179/127
f 104/153/104 103/151/103 119/178/119
f 111/152/111 127/179/127 128/181/128
f 104/153/104 120/180/120 121/182/121
f 112/154/112 128/181/128 129/166/129
f 106/157/106 105/155/105 121/182/121
f 118/176/118 133/198/133 134/183/134
f 126/177/126 141/199/141 142/184/142
f 120/180/120 119/178/119 134/183/134
f 128/181/128 127/179/127 142/184/142
f 120/180/120 135/185/135 136/187/136
f 129/166/129 128/181/128 143/186/143
f 122/168/122 121/182/121 136/187/136
f 129/166/129 144/188/144 145/190/145
f 123/169/123 122/168/122 137/189/137
f 123/169/123 138/191/138 139/195/139
f 117/174/117 116/171/116 131/193/131
f 124/173/124 139/195/139 140/197/140
f 117/174/117 132/196/132 133/198/133
f 126/177/126 125/175/125 140/197/140
f 138/191/138 137/189/137 152/200/152
f 138/191/138 153/201/153 154/206/154
f 132/196/132 131/193/131 146/203/146
f 139/195/139 154/206/154 155/208/155
f 132/196/132 147/207/147 148/209/148
f 141/199/141 140/197/140 155/208/155
f 133/198/133 148/209/148 149/211/149
f 141/199/141 156/210/156 157/212/157
f 135/185/135 134/183/134 149/211/149
f 143/186/143 142/184/142 157/212/157
f 135/185/135 150/213/150 151/215/151
f 143/186/143 158/214/158 159/216/159
f 137/189/137 136/187/136 151/215/151
f 144/188/144 159/216/159 160/205/160
f 156/217/156 171/247/171 172/218/172
f 150/220/150 149/248/149 164/221/164
f 158/223/158 157/219/157 172/218/172
f 150/220/150 165/222/165 166/225/166
f 158/223/158 173/224/173 174/227/174
f 152/229/152 151/226/151 166/225/166
f 159/228/159 174/227/174 175/231/175
f 153/233/153 152/229/152 167/230/167
f 153/233/153 168/234/168 169/239/169
f 146/235/146 161/237/161 162/241/162
f 154/240/154 169/239/169 170/243/170
f 147/242/147 162/241/162 163/245/163
f 156/217/156 155/244/155 170/243/170
f 148/246/148 163/245/163 164/221/164
f 168/234/168 183/265/183 184/253/184
f 161/237/161 176/250/176 177/254/177
f 169/239/169 184/253/184 185/255/185
f 163/245/163 162/241/162 177/254/177
f 171/247/171 170/243/170 185/255/185
f 163/245/163 178/256/178 179/258/179
f 171/247/171 186/257/186 187/259/187
f 165/222/165 164/221/164 179/258/179
f 173/224/173 172/218/172 187/259/187
f 165/222/165 180/260/180 181/262/181
f 173/224/173 188/261/188 189/263/189
f 167/230/167 166/225/166 181/262/181
f 175/231/175 174/227/174 189/263/189
f 168/234/168 167/230/167 182/264/182
f 180/260/180 179/258/179 194/266/194
f 188/261/188 187/259/187 202/268/202
f 180/260/180 195/267/195 196/270/196
f 188/261/188 203/269/203 204/271/204
f 182/264/182 181/262/181 196/270/196
f 189/263/189 204/271/204 205/273/205
f 183/265/183 182/264/182 197/272/197
f 183/265/183 198/274/198 199/278/199
f 176/250/176 191/276/191 192/279/192
f 184/253/184 199/278/199 200/280/200
f 178/256/178 177/254/177 192/279/192
f 186/257/186 185/255/185 200/280/200
f 178/256/178 193/281/193 194/266/194
f 186/257/186 201/282/201 202/268/202
f 198/274/198 213/296/213 214/283/214
f 191/276/191 206/298/206 207/284/207
f 199/278/199 214/283/214 215/285/215
f 192/279/192 207/284/207 208/286/208
f 201/282/201 200/280/200 215/285/215
f 193/281/193 208/286/208 209/288/209
f 201/282/201 216/287/216 217/289/217
f 195/267/195 194/266/194 209/288/209
f 202/268/202 217/289/217 218/291/218
f 195/267/195 210/290/210 211/292/211
f 204/271/204 203/269/203 218/291/218
f 197/272/197 196/270/196 211/292/211
f 205/273/205 204/271/204 219/293/219
f 198/274/198 197/272/197 212/294/212
f 218/291/218 217/289/217 232/300/232
f 210/290/210 225/316/225 226/302/226
f 218/291/218 233/301/233 234/303/234
f 212/294/212 211/292/211 226/302/226
f 219/293/219 234/303/234 235/305/235
f 213/296/213 212/294/212 227/304/227
f 213/296/213 228/306/228 229/310/229
f 207/284/207 206/298/206 221/308/221
f 214/283/214 229/310/229 230/312/230
f 208/286/208 207/284/207 222/311/222
f 216/287/216 215/285/215 230/312/230
f 208/286/208 223/313/223 224/315/224
f 216/287/216 231/314/231 232/300/232
f 210/290/210 209/288/209 224/315/224
f 229/310/229 244/332/244 245/317/245
f 222/311/222 237/333/237 238/318/238
f 231/314/231 230/312/230 245/317/245
f 223/313/223 238/318/238 239/320/239
f 231/314/231 246/319/246 247/321/247
f 225/316/225 224/315/224 239/320/239
f 233/301/233 232/300/232 247/321/247
f 225/316/225 240/322/240 241/324/241
f 233/301/233 248/323/248 249/325/249
f 227/304/227 226/302/226 241/324/241
f 234/303/234 249/325/249 250/327/250
f 228/306/228 227/304/227 242/326/242
f 228/306/228 243/328/243 244/332/244
f 221/308/221 236/330/236 237/333/237
f 248/323/248 263/350/263 264/334/264
f 242/326/242 241/324/241 256/335/256
f 249/325/249 264/334/264 265/337/265
f 243/328/243 242/326/242 257/336/257
f 243/328/243 258/338/258 259/342/259
f 236/330/236 251/340/251 252/343/252
f 244/332/244 259/342/259 260/344/260
f 237/333/237 252/343/252 253/345/253
f 246/319/246 245/317/245 260/344/260
f 238/318/238 253/345/253 254/347/254
f 246/319/246 261/346/261 262/348/262
f 240/322/240 239/320/239 254/347/254
f 248/323/248 247/321/247 262/348/262
f 240/322/240 255/349/255 256/335/256
f 253/345/253 252/343/252 267/351/267
f 261/346/261 260/344/260 275/353/275
f 253/345/253 268/352/268 269/355/269
f 261/346/261 276/354/276 277/356/277
f 255/349/255 254/347/254 269/355/269
f 263/350/263 262/348/262 277/356/277
f 255/349/255 270/357/270 271/359/271
f 263/350/263 278/358/278 279/360/279
f 257/336/257 256/335/256 271/359/271
f 265/337/265 264/334/264 279/360/279
f 258/338/258 257/336/257 272/361/272
f 258/338/258 273/363/273 274/367/274
f 251/340/251 266/365/266 267/351/267
f 259/342/259 274/367/274 275/353/275
f 272/361/272 271/359/271 286/368/286
f 279/360/279 294/384/294 295/370/295
f 273/363/273 272/361/272 287/369/287
f 273/363/273 288/371/288 289/375/289
f 266/365/266 281/373/281 282/376/282
f 274/367/274 289/375/289 290/377/290
f 267/351/267 282/376/282 283/378/283
f 276/354/276 275/353/275 290/377/290
f 268/352/268 283/378/283 284/380/284
f 276/354/276 291/379/291 292/381/292
f 270/357/270 269/355/269 284/380/284
f 278/358/278 277/356/277 292/381/292
f 270/357/270 285/382/285 286/368/286
f 278/358/278 293/383/293 294/384/294
f 291/379/291 290/377/290 305/385/305
f 283/378/283 298/401/298 299/387/299
f 291/379/291 306/386/306 307/388/307
f 285/382/285 284/380/284 299/387/299
f 293/383/293 292/381/292 307/388/307
f 285/382/285 300/389/300 301/391/301
f 293/383/293 308/390/308 309/392/309
f 287/369/287 286/368/286 301/391/301
f 294/384/294 309/392/309 310/394/310
f 288/371/288 287/369/287 302/393/302
f 288/371/288 303/395/303 304/399/304
f 282/376/282 281/373/281 296/397/296
f 289/375/289 304/399/304 305/385/305
f 282/376/282 297/400/297 298/401/298
f 310/394/310 309/392/309 324/402/324
f 303/395/303 302/393/302 317/404/317
f 303/395/303 318/405/318 319/409/319
f 297/400/297 296/397/296 311/407/311
f 304/399/304 319/409/319 320/411/320
f 297/400/297 312/410/312 313/412/313
f 306/386/306 305/385/305 320/411/320
f 298/401/298 313/412/313 314/414/314
f 306/386/306 321/413/321 322/415/322
f 300/389/300 299/387/299 314/414/314
f 308/390/308 307/388/307 322/415/322
f 300/389/300 315/416/315 316/418/316
f 308/390/308 323/417/323 324/402/324
f 302/393/302 301/391/301 316/418/316
f 313/412/313 328/434/328 329/419/329
f 321/413/321 336/435/336 337/420/337
f 315/416/315 314/414/314 329/419/329
f 323/417/323 322/415/322 337/420/337
f 315/416/315 330/421/330 331/423/331
f 323/417/323 338/422/338 339/424/339
f 317/404/317 316/418/316 331/423/331
f 325/403/325 324/402/324 339/424/339
f 318/405/318 317/404/317 332/425/332
f 318/405/318 333/427/333 334/431/334
f 311/407/311 326/429/326 327/432/327
f 319/409/319 334/431/334 335/433/335
f 312/410/312 327/432/327 328/434/328
f 321/413/321 320/411/320 335/433/335
f 333/427/333 332/425/332 348/436/348
f 333/427/333 349/437/349 350/442/350
f 326/429/326 342/439/342 343/443/343
f 334/431/334 350/442/350 351/444/351
f 327/432/327 343/443/343 344/445/344
f 336/435/336 335/433/335 351/444/351
f 328/434/328 344/445/344 345/447/345
f 336/435/336 352/446/352 353/448/353
f 330/421/330 329/419/329 345/447/345
f 338/422/338 337/420/337 353/448/353
f 330/421/330 346/449/346 347/451/347
f 338/422/338 354/450/354 355/452/355
f 332/425/332 331/423/331 347/451/347
f 339/424/339 355/452/355 356/441/356
f 352/446/352 367/468/367 368/453/368
f 345/447/345 360/469/360 361/454/361
f 354/450/354 353/448/353 368/453/368
f 346/449/346 361/454/361 362/456/362
f 354/450/354 369/455/369 370/457/370
f 348/436/348 347/451/347 362/456/362
f 355/452/355 370/457/370 371/459/371
f 349/437/349 348/436/348 363/458/363
f 349/437/349 364/460/364 365/464/365
f 342/439/342 357/462/357 358/465/358
f 350/442/350 365/464/365 366/466/366
f 343/443/343 358/465/358 359/467/359
f 352/446/352 351/444/351 366/466/366
f 344/445/344 359/467/359 360/469/360
f 364/460/364 379/484/379 380/472/380
f 357/462/357 372/486/372 373/473/373
f 365/464/365 380/472/380 381/474/381
f 358/465/358 373/473/373 374/475/374
f 367/468/367 366/466/366 381/474/381
f 359/467/359 374/475/374 375/477/375
f 367/468/367 382/476/382 383/478/383
f 361/454/361 360/469/360 375/477/375
f 369/455/369 368/453/368 383/478/383
f 361/454/361 376/479/376 377/481/377
f 369/455/369 384/480/384 385/482/385
f 363/458/363 362/456/362 377/481/377
f 370/457/370 385/482/385 386/471/386
f 364/460/364 363/458/363 378/483/378
f 384/480/384 383/478/383 398/487/398
f 376/479/376 391/503/391 392/489/392
f 384/480/384 399/488/399 400/490/400
f 378/483/378 377/481/377 392/489/392
f 385/482/385 400/490/400 401/492/401
f 379/484/379 378/483/378 393/491/393
f 379/484/379 394/493/394 395/497/395
f 372/486/372 387/495/387 388/498/388
f 380/472/380 395/497/395 396/499/396
f 374/475/374 373/473/373 388/498/388
f 382/476/382 381/474/381 396/499/396
f 374/475/374 389/500/389 390/502/390
f 382/476/382 397/501/397 398/487/398
f 376/479/376 375/477/375 390/502/390
f 387/504/387 402/533/402 403/505/403
f 395/507/395 410/535/410 411/508/411
f 389/510/389 388/506/388 403/505/403
f 397/512/397 396/509/396 411/508/411
f 389/510/389 404/511/404 405/514/405
f 397/512/397 412/513/412 413/516/413
f 391/518/391 390/515/390 405/514/405
f 399/520/399 398/517/398 413/516/413
f 391/518/391 406/519/406 407/522/407
f 399/520/399 414/521/414 415/524/415
f 393/526/393 392/523/392 407/522/407
f 400/525/400 415/524/415 416/528/416
f 394/530/394 393/526/393 408/527/408
f 394/530/394 409/531/409 410/535/410
f 406/519/406 421/551/421 422/536/422
f 414/521/414 429/552/429 430/537/430
f 408/527/408 407/522/407 422/536/422
f 415/524/415 430/537/430 431/539/431
f 409/531/409 408/527/408 423/538/423
f 409/531/409 424/540/424 425/544/425
f 402/533/402 417/542/417 418/545/418
f 410/535/410 425/544/425 426/546/426
f 404/511/404 403/505/403 418/545/418
f 412/513/412 411/508/411 426/546/426
f 404/511/404 419/547/419 420/549/420
f 412/513/412 427/548/427 428/550/428
f 406/519/406 405/514/405 420/549/420
f 414/521/414 413/516/413 428/550/428
f 425/544/425 440/568/440 441/553/441
f 418/545/418 433/569/433 434/554/434
f 427/548/427 426/546/426 441/553/441
f 419/547/419 434/554/434 435/556/435
f 427/548/427 442/555/442 443/557/443
f 421/551/421 420/549/420 435/556/435
f 429/552/429 428/550/428 443/557/443
f 421/551/421 436/558/436 437/560/437
f 430/537/430 429/552/429 444/559/444
f 423/538/423 422/536/422 437/560/437
f 430/537/430 445/561/445 446/563/446
f 424/540/424 423/538/423 438/562/438
f 424/540/424 439/564/439 440/568/440
f 418/545/418 417/542/417 432/566/432
f 444/559/444 459/586/459 460/570/460
f 438/562/438 437/560/437 452/571/452
f 445/561/445 460/570/460 461/573/461
f 439/564/439 438/562/438 453/572/453
f 439/564/439 454/574/454 455/578/455
f 432/566/432 447/576/447 448/579/448
f 440/568/440 455/578/455 456/580/456
f 434/554/434 433/569/433 448/579/448
f 442/555/442 441/553/441 456/580/456
f 434/554/434 449/581/449 450/583/450
f 442/555/442 457/582/457 458/584/458
f 436/558/436 435/556/435 450/583/450
f 444/559/444 443/557/443 458/584/458
f 436/558/436 451/585/451 452/571/452
f 449/581/449 448/579/448 463/587/463
f 457/582/457 456/580/456 471/589/471
f 449/581/449 464/588/464 465/591/465
f 457/582/457 472/590/472 473/592/473
f 451/585/451 450/583/450 465/591/465
f 459/586/459 458/584/458 473/592/473
f 451/585/451 466/593/466 467/595/467
f 459/586/459 474/594/474 475/596/475
f 453/572/453 452/571/452 467/595/467
f 460/570/460 475/596/475 476/598/476
f 454/574/454 453/572/453 468/597/468
f 454/574/454 469/599/469 470/603/470
f 447/576/447 462/601/462 463/587/463
f 455/578/455 470/603/470 471/589/471
f 468/597/468 467/595/467 482/604/482
f 475/596/475 490/620/490 491/606/491
f 469/599/469 468/597/468 483/605/483
f 469/599/469 484/607/484 485/611/485
f 463/587/463 462/601/462 477/609/477
f 470/603/470 485/611/485 486/613/486
f 463/587/463 478/612/478 479/614/479
f 472/590/472 471/589/471 486/613/486
f 464/588/464 479/614/479 480/616/480
f 472/590/472 487/615/487 488/617/488
f 466/593/466 465/591/465 480/616/480
f 474/594/474 473/592/473 488/617/488
f 466/593/466 481/618/481 482/604/482
f 474/594/474 489/619/489 490/620/490
f 487/615/487 486/613/486 501/621/501
f 479/614/479 494/637/494 495/623/495
f 487/615/487 502/622/502 503/624/503
f 481/618/481 480/616/480 495/623/495
f 489/619/489 488/617/488 503/624/503
f 481/618/481 496/625/496 497/627/497
f 489/619/489 504/626/504 505/628/505
f 483/605/483 482/604/482 497/627/497
f 491/606/491 490/620/490 505/628/505
f 484/607/484 483/605/483 498/629/498
f 484/607/484 499/631/499 500/635/500
f 477/609/477 492/633/492 493/636/493
f 485/611/485 500/635/500 501/621/501
f 479/614/479 478/612/478 493/636/493
f 505/628/505 514/66/514 515/68/515
f 499/631/499 498/629/498 36/69/36
f 499/631/499 37/71/37 38/77/38
f 493/636/493 492/633/492 507/72/507
f 500/635/500 38/77/38 511/81/511
f 494/637/494 493/636/493 508/78/508
f 501/621/501 511/81/511 39/85/39
f 495/623/495 494/637/494 34/82/34
f 502/622/502 39/85/39 512/89/512
f 496/625/496 495/623/495 509/86/509
f 504/626/504 503/624/503 512/89/512
f 497/627/497 496/625/496 35/90/35
f 504/626/504 513/93/513 514/66/514
f 498/629/498 497/627/497 510/94/510
