# Blender 4.4.1
# www.blender.org
mtllib wallEnemy.mtl
o 立方体
v -0.790000 -0.637875 0.444772
v -0.790000 0.942124 0.444772
v -0.790000 -0.637875 -0.452238
v -0.790000 0.942124 -0.452238
v 0.790000 -0.637875 0.444772
v 0.790000 0.942124 0.444772
v 0.790000 -0.637875 -0.452238
v 0.790000 0.942124 -0.452238
vn -1.0000 -0.0000 -0.0000
vn -0.0000 -0.0000 -1.0000
vn 1.0000 -0.0000 -0.0000
vn -0.0000 -0.0000 1.0000
vn -0.0000 -1.0000 -0.0000
vn -0.0000 1.0000 -0.0000
vt 0.851305 0.648076
vt 0.768773 0.730608
vt 0.768773 0.648076
vt 0.851305 0.730608
vt 0.768773 0.813140
vt 0.851305 0.813140
vt 0.768773 0.895672
vt 0.370821 0.751121
vt 0.002900 0.385001
vt 0.369920 0.384101
vt 0.686241 0.895672
vt 0.686241 0.813140
vt 0.933837 0.813140
vt 0.851305 0.895672
vt 0.003800 0.752021
vt 0.933837 0.895672
s 0
usemtl マテリアル.004
f 2/1/1 3/2/1 1/3/1
f 4/4/2 7/5/2 3/2/2
f 8/6/3 5/7/3 7/5/3
f 6/8/4 1/9/4 5/10/4
f 7/5/5 1/11/5 3/12/5
f 4/13/6 6/14/6 8/6/6
f 2/1/1 4/4/1 3/2/1
f 4/4/2 8/6/2 7/5/2
f 8/6/3 6/14/3 5/7/3
f 6/8/4 2/15/4 1/9/4
f 7/5/5 5/7/5 1/11/5
f 4/13/6 2/16/6 6/14/6
o 円柱
v 0.370274 -0.899139 -0.253079
v 0.370274 -0.576525 -0.253079
v 0.394994 -0.899139 -0.250644
v 0.394994 -0.576525 -0.250644
v 0.418764 -0.899139 -0.243434
v 0.418764 -0.576525 -0.243434
v 0.440671 -0.899139 -0.231724
v 0.440671 -0.576525 -0.231724
v 0.459872 -0.899139 -0.215966
v 0.459872 -0.576525 -0.215966
v 0.475630 -0.899139 -0.196765
v 0.475630 -0.576525 -0.196765
v 0.487340 -0.899139 -0.174858
v 0.487340 -0.576525 -0.174858
v 0.494550 -0.899139 -0.151088
v 0.494550 -0.576525 -0.151088
v 0.496985 -0.899139 -0.126367
v 0.496985 -0.576525 -0.126367
v 0.494550 -0.899139 -0.101647
v 0.494550 -0.576525 -0.101647
v 0.487340 -0.899139 -0.077877
v 0.487340 -0.576525 -0.077877
v 0.475630 -0.899139 -0.055970
v 0.475630 -0.576525 -0.055970
v 0.459872 -0.899139 -0.036769
v 0.459872 -0.576525 -0.036769
v 0.440671 -0.899139 -0.021011
v 0.440671 -0.576525 -0.021011
v 0.418764 -0.899139 -0.009301
v 0.418764 -0.576525 -0.009301
v 0.394994 -0.899139 -0.002091
v 0.394994 -0.576525 -0.002091
v 0.370274 -0.899139 0.000344
v 0.370274 -0.576525 0.000344
v 0.345553 -0.899139 -0.002091
v 0.345553 -0.576525 -0.002091
v 0.321783 -0.899139 -0.009301
v 0.321783 -0.576525 -0.009301
v 0.299876 -0.899139 -0.021011
v 0.299876 -0.576525 -0.021011
v 0.280675 -0.899139 -0.036769
v 0.280675 -0.576525 -0.036769
v 0.264917 -0.899139 -0.055970
v 0.264917 -0.576525 -0.055970
v 0.253207 -0.899139 -0.077877
v 0.253207 -0.576525 -0.077877
v 0.245997 -0.899139 -0.101647
v 0.245997 -0.576525 -0.101647
v 0.243562 -0.899139 -0.126367
v 0.243562 -0.576525 -0.126367
v 0.245997 -0.899139 -0.151088
v 0.245997 -0.576525 -0.151088
v 0.253207 -0.899139 -0.174858
v 0.253207 -0.576525 -0.174858
v 0.264917 -0.899139 -0.196765
v 0.264917 -0.576525 -0.196765
v 0.280675 -0.899139 -0.215966
v 0.280675 -0.576525 -0.215966
v 0.299876 -0.899139 -0.231724
v 0.299876 -0.576525 -0.231724
v 0.321783 -0.899139 -0.243434
v 0.321783 -0.576525 -0.243434
v 0.345553 -0.899139 -0.250644
v 0.345553 -0.576525 -0.250644
vn 0.0980 -0.0000 -0.9952
vn 0.2903 -0.0000 -0.9569
vn 0.4714 -0.0000 -0.8819
vn 0.6344 -0.0000 -0.7730
vn 0.7730 -0.0000 -0.6344
vn 0.8819 -0.0000 -0.4714
vn 0.9569 -0.0000 -0.2903
vn 0.9952 -0.0000 -0.0980
vn 0.9952 -0.0000 0.0980
vn 0.9569 -0.0000 0.2903
vn 0.8819 -0.0000 0.4714
vn 0.7730 -0.0000 0.6344
vn 0.6344 -0.0000 0.7730
vn 0.4714 -0.0000 0.8819
vn 0.2903 -0.0000 0.9569
vn 0.0980 -0.0000 0.9952
vn -0.0980 -0.0000 0.9952
vn -0.2903 -0.0000 0.9569
vn -0.4714 -0.0000 0.8819
vn -0.6344 -0.0000 0.7730
vn -0.7730 -0.0000 0.6344
vn -0.8819 -0.0000 0.4714
vn -0.9569 -0.0000 0.2903
vn -0.9952 -0.0000 0.0980
vn -0.9952 -0.0000 -0.0980
vn -0.9569 -0.0000 -0.2903
vn -0.8819 -0.0000 -0.4714
vn -0.7730 -0.0000 -0.6344
vn -0.6344 -0.0000 -0.7730
vn -0.4714 -0.0000 -0.8819
vn -0.0000 1.0000 -0.0000
vn -0.2903 -0.0000 -0.9569
vn -0.0980 -0.0000 -0.9952
vn -0.0000 -1.0000 -0.0000
vt 0.975103 0.978204
vt 0.964787 0.813140
vt 0.975103 0.813140
vt 0.964787 0.978204
vt 0.954470 0.813140
vt 0.954470 0.978204
vt 0.944154 0.813140
vt 0.944154 0.978204
vt 0.933837 0.813140
vt 0.933837 0.978204
vt 0.923521 0.813140
vt 0.923521 0.978204
vt 0.913204 0.813140
vt 0.913204 0.978204
vt 0.902888 0.813140
vt 0.902888 0.978204
vt 0.892571 0.813140
vt 0.892571 0.978204
vt 0.882255 0.813140
vt 0.882255 0.978204
vt 0.871938 0.813140
vt 0.871938 0.978204
vt 0.861622 0.813140
vt 0.861622 0.978204
vt 0.851305 0.813140
vt 0.851305 0.978204
vt 0.840989 0.813140
vt 0.840989 0.978204
vt 0.830672 0.813140
vt 0.830672 0.978204
vt 0.820356 0.813140
vt 0.820356 0.978204
vt 0.810039 0.813140
vt 0.810039 0.978204
vt 0.799723 0.813140
vt 0.799723 0.978204
vt 0.789406 0.813140
vt 0.789406 0.978204
vt 0.779090 0.813140
vt 0.779090 0.978204
vt 0.768773 0.813140
vt 0.768773 0.978204
vt 0.758457 0.813140
vt 0.758457 0.978204
vt 0.748140 0.813140
vt 0.748140 0.978204
vt 0.737824 0.813140
vt 0.737824 0.978204
vt 0.727507 0.813140
vt 0.727507 0.978204
vt 0.717191 0.813140
vt 0.717191 0.978204
vt 0.706874 0.813140
vt 0.706874 0.978204
vt 0.696558 0.813140
vt 0.696558 0.978204
vt 0.686241 0.813140
vt 0.686241 0.978204
vt 0.675925 0.813140
vt 0.675925 0.978204
vt 0.665608 0.813140
vt 0.697187 0.657408
vt 0.800707 0.700287
vt 0.757828 0.803807
vt 0.665608 0.978204
vt 0.655292 0.813140
vt 0.655292 0.978204
vt 0.644975 0.813140
vt 0.908028 0.652899
vt 0.814863 0.715150
vt 0.877114 0.808316
vt 0.742964 0.808316
vt 0.727507 0.809838
vt 0.712050 0.808316
vt 0.697187 0.803807
vt 0.683489 0.796486
vt 0.671483 0.786632
vt 0.661629 0.774626
vt 0.654308 0.760928
vt 0.649799 0.746065
vt 0.648277 0.730608
vt 0.649799 0.715150
vt 0.654308 0.700287
vt 0.661629 0.686589
vt 0.671483 0.674583
vt 0.683489 0.664730
vt 0.712050 0.652899
vt 0.727507 0.651377
vt 0.742964 0.652899
vt 0.757828 0.657408
vt 0.771525 0.664730
vt 0.783532 0.674583
vt 0.793385 0.686589
vt 0.805216 0.715150
vt 0.806738 0.730608
vt 0.805216 0.746065
vt 0.800707 0.760928
vt 0.793385 0.774626
vt 0.783532 0.786632
vt 0.771525 0.796486
vt 0.644975 0.978204
vt 0.892571 0.809838
vt 0.908028 0.808316
vt 0.922891 0.803807
vt 0.936589 0.796486
vt 0.948596 0.786632
vt 0.958449 0.774626
vt 0.965771 0.760928
vt 0.970280 0.746065
vt 0.971802 0.730608
vt 0.970280 0.715150
vt 0.965771 0.700287
vt 0.958449 0.686589
vt 0.948596 0.674583
vt 0.936589 0.664730
vt 0.922891 0.657408
vt 0.892571 0.651377
vt 0.877114 0.652899
vt 0.862251 0.657408
vt 0.848553 0.664730
vt 0.836547 0.674583
vt 0.826693 0.686589
vt 0.819372 0.700287
vt 0.813340 0.730608
vt 0.814863 0.746065
vt 0.819372 0.760928
vt 0.826693 0.774626
vt 0.836547 0.786632
vt 0.848553 0.796486
vt 0.862251 0.803807
s 0
f 10/17/7 11/18/7 9/19/7
f 12/20/8 13/21/8 11/18/8
f 14/22/9 15/23/9 13/21/9
f 16/24/10 17/25/10 15/23/10
f 18/26/11 19/27/11 17/25/11
f 20/28/12 21/29/12 19/27/12
f 22/30/13 23/31/13 21/29/13
f 24/32/14 25/33/14 23/31/14
f 26/34/15 27/35/15 25/33/15
f 28/36/16 29/37/16 27/35/16
f 30/38/17 31/39/17 29/37/17
f 32/40/18 33/41/18 31/39/18
f 34/42/19 35/43/19 33/41/19
f 36/44/20 37/45/20 35/43/20
f 38/46/21 39/47/21 37/45/21
f 40/48/22 41/49/22 39/47/22
f 42/50/23 43/51/23 41/49/23
f 44/52/24 45/53/24 43/51/24
f 46/54/25 47/55/25 45/53/25
f 48/56/26 49/57/26 47/55/26
f 50/58/27 51/59/27 49/57/27
f 52/60/28 53/61/28 51/59/28
f 54/62/29 55/63/29 53/61/29
f 56/64/30 57/65/30 55/63/30
f 58/66/31 59/67/31 57/65/31
f 60/68/32 61/69/32 59/67/32
f 62/70/33 63/71/33 61/69/33
f 64/72/34 65/73/34 63/71/34
f 66/74/35 67/75/35 65/73/35
f 68/76/36 69/77/36 67/75/36
f 46/78/37 30/79/37 14/80/37
f 70/81/38 71/82/38 69/77/38
f 72/83/39 9/84/39 71/82/39
f 39/85/40 55/86/40 71/87/40
f 10/17/7 12/20/7 11/18/7
f 12/20/8 14/22/8 13/21/8
f 14/22/9 16/24/9 15/23/9
f 16/24/10 18/26/10 17/25/10
f 18/26/11 20/28/11 19/27/11
f 20/28/12 22/30/12 21/29/12
f 22/30/13 24/32/13 23/31/13
f 24/32/14 26/34/14 25/33/14
f 26/34/15 28/36/15 27/35/15
f 28/36/16 30/38/16 29/37/16
f 30/38/17 32/40/17 31/39/17
f 32/40/18 34/42/18 33/41/18
f 34/42/19 36/44/19 35/43/19
f 36/44/20 38/46/20 37/45/20
f 38/46/21 40/48/21 39/47/21
f 40/48/22 42/50/22 41/49/22
f 42/50/23 44/52/23 43/51/23
f 44/52/24 46/54/24 45/53/24
f 46/54/25 48/56/25 47/55/25
f 48/56/26 50/58/26 49/57/26
f 50/58/27 52/60/27 51/59/27
f 52/60/28 54/62/28 53/61/28
f 54/62/29 56/64/29 55/63/29
f 56/64/30 58/66/30 57/65/30
f 58/66/31 60/68/31 59/67/31
f 60/68/32 62/70/32 61/69/32
f 62/70/33 64/72/33 63/71/33
f 64/72/34 66/74/34 65/73/34
f 66/74/35 68/76/35 67/75/35
f 68/76/36 70/81/36 69/77/36
f 14/80/37 12/88/37 10/89/37
f 10/89/37 72/90/37 70/91/37
f 70/91/37 68/92/37 66/93/37
f 66/93/37 64/94/37 62/95/37
f 62/95/37 60/96/37 58/97/37
f 58/97/37 56/98/37 54/99/37
f 54/99/37 52/100/37 50/101/37
f 50/101/37 48/102/37 46/78/37
f 46/78/37 44/103/37 42/104/37
f 42/104/37 40/105/37 38/106/37
f 38/106/37 36/107/37 34/108/37
f 34/108/37 32/109/37 30/79/37
f 30/79/37 28/110/37 26/111/37
f 26/111/37 24/112/37 22/113/37
f 22/113/37 20/114/37 18/115/37
f 18/115/37 16/116/37 14/80/37
f 14/80/37 10/89/37 70/91/37
f 70/91/37 66/93/37 62/95/37
f 62/95/37 58/97/37 54/99/37
f 54/99/37 50/101/37 46/78/37
f 46/78/37 42/104/37 38/106/37
f 38/106/37 34/108/37 30/79/37
f 30/79/37 26/111/37 22/113/37
f 22/113/37 18/115/37 14/80/37
f 14/80/37 70/91/37 62/95/37
f 62/95/37 54/99/37 46/78/37
f 46/78/37 38/106/37 30/79/37
f 30/79/37 22/113/37 14/80/37
f 14/80/37 62/95/37 46/78/37
f 70/81/38 72/83/38 71/82/38
f 72/83/39 10/117/39 9/84/39
f 71/87/40 9/118/40 11/119/40
f 11/119/40 13/120/40 15/121/40
f 15/121/40 17/122/40 19/123/40
f 19/123/40 21/124/40 23/125/40
f 23/125/40 25/126/40 27/127/40
f 27/127/40 29/128/40 31/129/40
f 31/129/40 33/130/40 35/131/40
f 35/131/40 37/132/40 39/85/40
f 39/85/40 41/133/40 43/134/40
f 43/134/40 45/135/40 47/136/40
f 47/136/40 49/137/40 51/138/40
f 51/138/40 53/139/40 55/86/40
f 55/86/40 57/140/40 59/141/40
f 59/141/40 61/142/40 63/143/40
f 63/143/40 65/144/40 67/145/40
f 67/145/40 69/146/40 71/87/40
f 71/87/40 11/119/40 15/121/40
f 15/121/40 19/123/40 23/125/40
f 23/125/40 27/127/40 31/129/40
f 31/129/40 35/131/40 39/85/40
f 39/85/40 43/134/40 47/136/40
f 47/136/40 51/138/40 55/86/40
f 55/86/40 59/141/40 63/143/40
f 63/143/40 67/145/40 71/87/40
f 71/87/40 15/121/40 23/125/40
f 23/125/40 31/129/40 39/85/40
f 39/85/40 47/136/40 55/86/40
f 55/86/40 63/143/40 71/87/40
f 71/87/40 23/125/40 39/85/40
o 立方体.001
v 0.176385 -1.011510 0.511214
v 0.176385 -0.896515 0.511214
v 0.176385 -1.011510 -0.343634
v 0.176385 -0.896515 -0.343634
v 0.554780 -1.011510 0.511214
v 0.554780 -0.896515 0.511214
v 0.554780 -1.011510 -0.343634
v 0.554780 -0.896515 -0.343634
vn -1.0000 -0.0000 -0.0000
vn -0.0000 -0.0000 -1.0000
vn 1.0000 -0.0000 -0.0000
vn -0.0000 -0.0000 1.0000
vn -0.0000 -1.0000 -0.0000
vn -0.0000 1.0000 -0.0000
vt 0.851305 0.648076
vt 0.768773 0.730608
vt 0.768773 0.648076
vt 0.851305 0.730608
vt 0.768773 0.813140
vt 0.851305 0.813140
vt 0.768773 0.895672
vt 0.851305 0.895672
vt 0.768773 0.978204
vt 0.686241 0.895672
vt 0.686241 0.813140
vt 0.933837 0.813140
vt 0.851305 0.978204
vt 0.933837 0.895672
s 0
f 74/147/41 75/148/41 73/149/41
f 76/150/42 79/151/42 75/148/42
f 80/152/43 77/153/43 79/151/43
f 78/154/44 73/155/44 77/153/44
f 79/151/45 73/156/45 75/157/45
f 76/158/46 78/154/46 80/152/46
f 74/147/41 76/150/41 75/148/41
f 76/150/42 80/152/42 79/151/42
f 80/152/43 78/154/43 77/153/43
f 78/154/44 74/159/44 73/155/44
f 79/151/45 77/153/45 73/156/45
f 76/158/46 74/160/46 78/154/46
o 円柱.001
v -0.370273 -0.899139 -0.253079
v -0.370273 -0.576525 -0.253079
v -0.345553 -0.899139 -0.250644
v -0.345553 -0.576525 -0.250644
v -0.321783 -0.899139 -0.243434
v -0.321783 -0.576525 -0.243434
v -0.299876 -0.899139 -0.231724
v -0.299876 -0.576525 -0.231724
v -0.280675 -0.899139 -0.215966
v -0.280675 -0.576525 -0.215966
v -0.264917 -0.899139 -0.196765
v -0.264917 -0.576525 -0.196765
v -0.253207 -0.899139 -0.174858
v -0.253207 -0.576525 -0.174858
v -0.245997 -0.899139 -0.151088
v -0.245997 -0.576525 -0.151088
v -0.243562 -0.899139 -0.126367
v -0.243562 -0.576525 -0.126367
v -0.245997 -0.899139 -0.101647
v -0.245997 -0.576525 -0.101647
v -0.253207 -0.899139 -0.077877
v -0.253207 -0.576525 -0.077877
v -0.264917 -0.899139 -0.055970
v -0.264917 -0.576525 -0.055970
v -0.280675 -0.899139 -0.036769
v -0.280675 -0.576525 -0.036769
v -0.299876 -0.899139 -0.021011
v -0.299876 -0.576525 -0.021011
v -0.321783 -0.899139 -0.009301
v -0.321783 -0.576525 -0.009301
v -0.345553 -0.899139 -0.002091
v -0.345553 -0.576525 -0.002091
v -0.370273 -0.899139 0.000344
v -0.370273 -0.576525 0.000344
v -0.394994 -0.899139 -0.002091
v -0.394994 -0.576525 -0.002091
v -0.418764 -0.899139 -0.009301
v -0.418764 -0.576525 -0.009301
v -0.440671 -0.899139 -0.021011
v -0.440671 -0.576525 -0.021011
v -0.459872 -0.899139 -0.036769
v -0.459872 -0.576525 -0.036769
v -0.475630 -0.899139 -0.055970
v -0.475630 -0.576525 -0.055970
v -0.487340 -0.899139 -0.077877
v -0.487340 -0.576525 -0.077877
v -0.494550 -0.899139 -0.101647
v -0.494550 -0.576525 -0.101647
v -0.496985 -0.899139 -0.126367
v -0.496985 -0.576525 -0.126367
v -0.494550 -0.899139 -0.151088
v -0.494550 -0.576525 -0.151088
v -0.487340 -0.899139 -0.174858
v -0.487340 -0.576525 -0.174858
v -0.475630 -0.899139 -0.196765
v -0.475630 -0.576525 -0.196765
v -0.459872 -0.899139 -0.215966
v -0.459872 -0.576525 -0.215966
v -0.440671 -0.899139 -0.231724
v -0.440671 -0.576525 -0.231724
v -0.418764 -0.899139 -0.243434
v -0.418764 -0.576525 -0.243434
v -0.394994 -0.899139 -0.250644
v -0.394994 -0.576525 -0.250644
vn 0.0980 -0.0000 -0.9952
vn 0.2903 -0.0000 -0.9569
vn 0.4714 -0.0000 -0.8819
vn 0.6344 -0.0000 -0.7730
vn 0.7730 -0.0000 -0.6344
vn 0.8819 -0.0000 -0.4714
vn 0.9569 -0.0000 -0.2903
vn 0.9952 -0.0000 -0.0980
vn 0.9952 -0.0000 0.0980
vn 0.9569 -0.0000 0.2903
vn 0.8819 -0.0000 0.4714
vn 0.7730 -0.0000 0.6344
vn 0.6344 -0.0000 0.7730
vn 0.4714 -0.0000 0.8819
vn 0.2903 -0.0000 0.9569
vn 0.0980 -0.0000 0.9952
vn -0.0980 -0.0000 0.9952
vn -0.2903 -0.0000 0.9569
vn -0.4714 -0.0000 0.8819
vn -0.6344 -0.0000 0.7730
vn -0.7730 -0.0000 0.6344
vn -0.8819 -0.0000 0.4714
vn -0.9569 -0.0000 0.2903
vn -0.9952 -0.0000 0.0980
vn -0.9952 -0.0000 -0.0980
vn -0.9569 -0.0000 -0.2903
vn -0.8819 -0.0000 -0.4714
vn -0.7730 -0.0000 -0.6344
vn -0.6344 -0.0000 -0.7730
vn -0.4714 -0.0000 -0.8819
vn -0.0000 1.0000 -0.0000
vn -0.2903 -0.0000 -0.9569
vn -0.0980 -0.0000 -0.9952
vn -0.0000 -1.0000 -0.0000
vt 0.975103 0.978204
vt 0.964787 0.813140
vt 0.975103 0.813140
vt 0.964787 0.978204
vt 0.954470 0.813140
vt 0.954470 0.978204
vt 0.944154 0.813140
vt 0.944154 0.978204
vt 0.933837 0.813140
vt 0.933837 0.978204
vt 0.923521 0.813140
vt 0.923521 0.978204
vt 0.913204 0.813140
vt 0.913204 0.978204
vt 0.902888 0.813140
vt 0.902888 0.978204
vt 0.892571 0.813140
vt 0.892571 0.978204
vt 0.882255 0.813140
vt 0.882255 0.978204
vt 0.871938 0.813140
vt 0.871938 0.978204
vt 0.861622 0.813140
vt 0.861622 0.978204
vt 0.851305 0.813140
vt 0.851305 0.978204
vt 0.840989 0.813140
vt 0.840989 0.978204
vt 0.830672 0.813140
vt 0.830672 0.978204
vt 0.820356 0.813140
vt 0.820356 0.978204
vt 0.810039 0.813140
vt 0.810039 0.978204
vt 0.799723 0.813140
vt 0.799723 0.978204
vt 0.789406 0.813140
vt 0.789406 0.978204
vt 0.779090 0.813140
vt 0.779090 0.978204
vt 0.768773 0.813140
vt 0.768773 0.978204
vt 0.758457 0.813140
vt 0.758457 0.978204
vt 0.748140 0.813140
vt 0.748140 0.978204
vt 0.737824 0.813140
vt 0.737824 0.978204
vt 0.727507 0.813140
vt 0.727507 0.978204
vt 0.717191 0.813140
vt 0.717191 0.978204
vt 0.706874 0.813140
vt 0.706874 0.978204
vt 0.696558 0.813140
vt 0.696558 0.978204
vt 0.686241 0.813140
vt 0.686241 0.978204
vt 0.675925 0.813140
vt 0.675925 0.978204
vt 0.665608 0.813140
vt 0.697187 0.657408
vt 0.800707 0.700287
vt 0.757828 0.803807
vt 0.665608 0.978204
vt 0.655292 0.813140
vt 0.655292 0.978204
vt 0.644975 0.813140
vt 0.908028 0.652899
vt 0.814863 0.715150
vt 0.877114 0.808316
vt 0.742964 0.808316
vt 0.727507 0.809838
vt 0.712050 0.808316
vt 0.697187 0.803807
vt 0.683489 0.796486
vt 0.671483 0.786632
vt 0.661629 0.774626
vt 0.654308 0.760928
vt 0.649799 0.746065
vt 0.648277 0.730608
vt 0.649799 0.715150
vt 0.654308 0.700287
vt 0.661629 0.686589
vt 0.671483 0.674583
vt 0.683489 0.664730
vt 0.712050 0.652899
vt 0.727507 0.651377
vt 0.742964 0.652899
vt 0.757828 0.657408
vt 0.771525 0.664730
vt 0.783532 0.674583
vt 0.793385 0.686589
vt 0.805216 0.715150
vt 0.806738 0.730608
vt 0.805216 0.746065
vt 0.800707 0.760928
vt 0.793385 0.774626
vt 0.783532 0.786632
vt 0.771525 0.796486
vt 0.644975 0.978204
vt 0.892571 0.809838
vt 0.908028 0.808316
vt 0.922891 0.803807
vt 0.936589 0.796486
vt 0.948596 0.786632
vt 0.958449 0.774626
vt 0.965771 0.760928
vt 0.970280 0.746065
vt 0.971802 0.730608
vt 0.970280 0.715150
vt 0.965771 0.700287
vt 0.958449 0.686589
vt 0.948596 0.674583
vt 0.936589 0.664730
vt 0.922891 0.657408
vt 0.892571 0.651377
vt 0.877114 0.652899
vt 0.862251 0.657408
vt 0.848553 0.664730
vt 0.836547 0.674583
vt 0.826693 0.686589
vt 0.819372 0.700287
vt 0.813340 0.730608
vt 0.814863 0.746065
vt 0.819372 0.760928
vt 0.826693 0.774626
vt 0.836547 0.786632
vt 0.848553 0.796486
vt 0.862251 0.803807
s 0
f 82/161/47 83/162/47 81/163/47
f 84/164/48 85/165/48 83/162/48
f 86/166/49 87/167/49 85/165/49
f 88/168/50 89/169/50 87/167/50
f 90/170/51 91/171/51 89/169/51
f 92/172/52 93/173/52 91/171/52
f 94/174/53 95/175/53 93/173/53
f 96/176/54 97/177/54 95/175/54
f 98/178/55 99/179/55 97/177/55
f 100/180/56 101/181/56 99/179/56
f 102/182/57 103/183/57 101/181/57
f 104/184/58 105/185/58 103/183/58
f 106/186/59 107/187/59 105/185/59
f 108/188/60 109/189/60 107/187/60
f 110/190/61 111/191/61 109/189/61
f 112/192/62 113/193/62 111/191/62
f 114/194/63 115/195/63 113/193/63
f 116/196/64 117/197/64 115/195/64
f 118/198/65 119/199/65 117/197/65
f 120/200/66 121/201/66 119/199/66
f 122/202/67 123/203/67 121/201/67
f 124/204/68 125/205/68 123/203/68
f 126/206/69 127/207/69 125/205/69
f 128/208/70 129/209/70 127/207/70
f 130/210/71 131/211/71 129/209/71
f 132/212/72 133/213/72 131/211/72
f 134/214/73 135/215/73 133/213/73
f 136/216/74 137/217/74 135/215/74
f 138/218/75 139/219/75 137/217/75
f 140/220/76 141/221/76 139/219/76
f 118/222/77 102/223/77 86/224/77
f 142/225/78 143/226/78 141/221/78
f 144/227/79 81/228/79 143/226/79
f 111/229/80 127/230/80 143/231/80
f 82/161/47 84/164/47 83/162/47
f 84/164/48 86/166/48 85/165/48
f 86/166/49 88/168/49 87/167/49
f 88/168/50 90/170/50 89/169/50
f 90/170/51 92/172/51 91/171/51
f 92/172/52 94/174/52 93/173/52
f 94/174/53 96/176/53 95/175/53
f 96/176/54 98/178/54 97/177/54
f 98/178/55 100/180/55 99/179/55
f 100/180/56 102/182/56 101/181/56
f 102/182/57 104/184/57 103/183/57
f 104/184/58 106/186/58 105/185/58
f 106/186/59 108/188/59 107/187/59
f 108/188/60 110/190/60 109/189/60
f 110/190/61 112/192/61 111/191/61
f 112/192/62 114/194/62 113/193/62
f 114/194/63 116/196/63 115/195/63
f 116/196/64 118/198/64 117/197/64
f 118/198/65 120/200/65 119/199/65
f 120/200/66 122/202/66 121/201/66
f 122/202/67 124/204/67 123/203/67
f 124/204/68 126/206/68 125/205/68
f 126/206/69 128/208/69 127/207/69
f 128/208/70 130/210/70 129/209/70
f 130/210/71 132/212/71 131/211/71
f 132/212/72 134/214/72 133/213/72
f 134/214/73 136/216/73 135/215/73
f 136/216/74 138/218/74 137/217/74
f 138/218/75 140/220/75 139/219/75
f 140/220/76 142/225/76 141/221/76
f 86/224/77 84/232/77 82/233/77
f 82/233/77 144/234/77 142/235/77
f 142/235/77 140/236/77 138/237/77
f 138/237/77 136/238/77 134/239/77
f 134/239/77 132/240/77 130/241/77
f 130/241/77 128/242/77 126/243/77
f 126/243/77 124/244/77 122/245/77
f 122/245/77 120/246/77 118/222/77
f 118/222/77 116/247/77 114/248/77
f 114/248/77 112/249/77 110/250/77
f 110/250/77 108/251/77 106/252/77
f 106/252/77 104/253/77 102/223/77
f 102/223/77 100/254/77 98/255/77
f 98/255/77 96/256/77 94/257/77
f 94/257/77 92/258/77 90/259/77
f 90/259/77 88/260/77 86/224/77
f 86/224/77 82/233/77 142/235/77
f 142/235/77 138/237/77 134/239/77
f 134/239/77 130/241/77 126/243/77
f 126/243/77 122/245/77 118/222/77
f 118/222/77 114/248/77 110/250/77
f 110/250/77 106/252/77 102/223/77
f 102/223/77 98/255/77 94/257/77
f 94/257/77 90/259/77 86/224/77
f 86/224/77 142/235/77 134/239/77
f 134/239/77 126/243/77 118/222/77
f 118/222/77 110/250/77 102/223/77
f 102/223/77 94/257/77 86/224/77
f 86/224/77 134/239/77 118/222/77
f 142/225/78 144/227/78 143/226/78
f 144/227/79 82/261/79 81/228/79
f 143/231/80 81/262/80 83/263/80
f 83/263/80 85/264/80 87/265/80
f 87/265/80 89/266/80 91/267/80
f 91/267/80 93/268/80 95/269/80
f 95/269/80 97/270/80 99/271/80
f 99/271/80 101/272/80 103/273/80
f 103/273/80 105/274/80 107/275/80
f 107/275/80 109/276/80 111/229/80
f 111/229/80 113/277/80 115/278/80
f 115/278/80 117/279/80 119/280/80
f 119/280/80 121/281/80 123/282/80
f 123/282/80 125/283/80 127/230/80
f 127/230/80 129/284/80 131/285/80
f 131/285/80 133/286/80 135/287/80
f 135/287/80 137/288/80 139/289/80
f 139/289/80 141/290/80 143/231/80
f 143/231/80 83/263/80 87/265/80
f 87/265/80 91/267/80 95/269/80
f 95/269/80 99/271/80 103/273/80
f 103/273/80 107/275/80 111/229/80
f 111/229/80 115/278/80 119/280/80
f 119/280/80 123/282/80 127/230/80
f 127/230/80 131/285/80 135/287/80
f 135/287/80 139/289/80 143/231/80
f 143/231/80 87/265/80 95/269/80
f 95/269/80 103/273/80 111/229/80
f 111/229/80 119/280/80 127/230/80
f 127/230/80 135/287/80 143/231/80
f 143/231/80 95/269/80 111/229/80
o 立方体.002
v -0.554780 -1.011510 0.511214
v -0.554780 -0.896515 0.511214
v -0.554780 -1.011510 -0.343634
v -0.554780 -0.896515 -0.343634
v -0.176385 -1.011510 0.511214
v -0.176385 -0.896515 0.511214
v -0.176385 -1.011510 -0.343634
v -0.176385 -0.896515 -0.343634
vn -1.0000 -0.0000 -0.0000
vn -0.0000 -0.0000 -1.0000
vn 1.0000 -0.0000 -0.0000
vn -0.0000 -0.0000 1.0000
vn -0.0000 -1.0000 -0.0000
vn -0.0000 1.0000 -0.0000
vt 0.851305 0.648076
vt 0.768773 0.730608
vt 0.768773 0.648076
vt 0.851305 0.730608
vt 0.768773 0.813140
vt 0.851305 0.813140
vt 0.768773 0.895672
vt 0.851305 0.895672
vt 0.768773 0.978204
vt 0.686241 0.895672
vt 0.686241 0.813140
vt 0.933837 0.813140
vt 0.851305 0.978204
vt 0.933837 0.895672
s 0
f 146/291/81 147/292/81 145/293/81
f 148/294/82 151/295/82 147/292/82
f 152/296/83 149/297/83 151/295/83
f 150/298/84 145/299/84 149/297/84
f 151/295/85 145/300/85 147/301/85
f 148/302/86 150/298/86 152/296/86
f 146/291/81 148/294/81 147/292/81
f 148/294/82 152/296/82 151/295/82
f 152/296/83 150/298/83 149/297/83
f 150/298/84 146/303/84 145/299/84
f 151/295/85 149/297/85 145/300/85
f 148/302/86 146/304/86 150/298/86
