{
	"asset":{
		"generator":"Khronos glTF Blender I/O v4.4.56",
		"version":"2.0"
	},
	"scene":0,
	"scenes":[
		{
			"name":"Scene",
			"nodes":[
				10
			]
		}
	],
	"nodes":[
		{
			"name":"root",
			"translation":[
				0,
				-0.26965948939323425,
				0
			]
		},
		{
			"name":"foot.R",
			"rotation":[
				-0.4646661579608917,
				-5.292585214533574e-08,
				0.099860280752182,
				0.8798370957374573
			],
			"scale":[
				1,
				1,
				0.9999999403953552
			],
			"translation":[
				7.450580596923828e-09,
				0.4780202805995941,
				-2.327978698701827e-08
			]
		},
		{
			"children":[
				1
			],
			"name":"leg.R",
			"rotation":[
				-0.6704107522964478,
				0.22483204305171967,
				0.5697917938232422,
				0.4187328815460205
			],
			"scale":[
				0.9999998807907104,
				0.9999999403953552,
				0.9999999403953552
			],
			"translation":[
				0,
				-0.26965948939323425,
				0
			]
		},
		{
			"name":"foot.L",
			"rotation":[
				-0.46063604950904846,
				6.339229230434285e-08,
				-0.10391660034656525,
				0.8814849853515625
			],
			"translation":[
				0,
				0.4760584235191345,
				-7.53116680130006e-09
			]
		},
		{
			"children":[
				3
			],
			"name":"leg.L",
			"rotation":[
				-0.6724931001663208,
				-0.21852485835552216,
				-0.5698849558830261,
				0.41860613226890564
			],
			"scale":[
				1,
				0.9999999403953552,
				1
			],
			"translation":[
				0,
				-0.26965948939323425,
				0
			]
		},
		{
			"mesh":0,
			"name":"\u5186\u67f1",
			"skin":0
		},
		{
			"mesh":1,
			"name":"\u5186\u67f1.001",
			"skin":0
		},
		{
			"mesh":2,
			"name":"\u7acb\u65b9\u4f53",
			"skin":0
		},
		{
			"mesh":3,
			"name":"\u7acb\u65b9\u4f53.001",
			"skin":0
		},
		{
			"mesh":4,
			"name":"\u7acb\u65b9\u4f53.002",
			"skin":0
		},
		{
			"children":[
				5,
				6,
				7,
				8,
				9,
				0,
				2,
				4
			],
			"name":"\u30a2\u30fc\u30de\u30c1\u30e5\u30a2"
		}
	],
	"materials":[
		{
			"doubleSided":true,
			"name":"\u30de\u30c6\u30ea\u30a2\u30eb.004",
			"pbrMetallicRoughness":{
				"baseColorTexture":{
					"index":0
				},
				"metallicFactor":0,
				"roughnessFactor":0.5
			}
		}
	],
	"meshes":[
		{
			"name":"\u5186\u67f1",
			"primitives":[
				{
					"attributes":{
						"POSITION":0,
						"NORMAL":1,
						"TEXCOORD_0":2,
						"JOINTS_0":3,
						"WEIGHTS_0":4
					},
					"indices":5,
					"material":0
				}
			]
		},
		{
			"name":"\u5186\u67f1.001",
			"primitives":[
				{
					"attributes":{
						"POSITION":7,
						"NORMAL":8,
						"TEXCOORD_0":9,
						"JOINTS_0":10,
						"WEIGHTS_0":11
					},
					"indices":5,
					"material":0
				}
			]
		},
		{
			"name":"\u7acb\u65b9\u4f53",
			"primitives":[
				{
					"attributes":{
						"POSITION":12,
						"NORMAL":13,
						"TEXCOORD_0":14,
						"JOINTS_0":15,
						"WEIGHTS_0":16
					},
					"indices":17,
					"material":0
				}
			]
		},
		{
			"name":"\u7acb\u65b9\u4f53.001",
			"primitives":[
				{
					"attributes":{
						"POSITION":18,
						"NORMAL":19,
						"TEXCOORD_0":20,
						"JOINTS_0":21,
						"WEIGHTS_0":22
					},
					"indices":17,
					"material":0
				}
			]
		},
		{
			"name":"\u7acb\u65b9\u4f53.002",
			"primitives":[
				{
					"attributes":{
						"POSITION":23,
						"NORMAL":24,
						"TEXCOORD_0":25,
						"JOINTS_0":26,
						"WEIGHTS_0":27
					},
					"indices":17,
					"material":0
				}
			]
		}
	],
	"textures":[
		{
			"sampler":0,
			"source":0
		}
	],
	"images":[
		{
			"mimeType":"image/png",
			"name":"wallEnemy",
			"uri":"wallEnemy.png"
		}
	],
	"skins":[
		{
			"inverseBindMatrices":6,
			"joints":[
				0,
				2,
				1,
				4,
				3
			],
			"name":"\u30a2\u30fc\u30de\u30c1\u30e5\u30a2"
		}
	],
	"accessors":[
		{
			"bufferView":0,
			"componentType":5126,
			"count":192,
			"max":[
				0.49698498845100403,
				-0.5765249729156494,
				0.0003440678701736033
			],
			"min":[
				0.2435619980096817,
				-0.8991389870643616,
				-0.25307896733283997
			],
			"type":"VEC3"
		},
		{
			"bufferView":1,
			"componentType":5126,
			"count":192,
			"type":"VEC3"
		},
		{
			"bufferView":2,
			"componentType":5126,
			"count":192,
			"type":"VEC2"
		},
		{
			"bufferView":3,
			"componentType":5121,
			"count":192,
			"type":"VEC4"
		},
		{
			"bufferView":4,
			"componentType":5126,
			"count":192,
			"type":"VEC4"
		},
		{
			"bufferView":5,
			"componentType":5123,
			"count":372,
			"type":"SCALAR"
		},
		{
			"bufferView":6,
			"componentType":5126,
			"count":5,
			"type":"MAT4"
		},
		{
			"bufferView":7,
			"componentType":5126,
			"count":192,
			"max":[
				-0.2435619980096817,
				-0.5765249729156494,
				0.0003440678701736033
			],
			"min":[
				-0.49698498845100403,
				-0.8991389870643616,
				-0.25307896733283997
			],
			"type":"VEC3"
		},
		{
			"bufferView":8,
			"componentType":5126,
			"count":192,
			"type":"VEC3"
		},
		{
			"bufferView":9,
			"componentType":5126,
			"count":192,
			"type":"VEC2"
		},
		{
			"bufferView":10,
			"componentType":5121,
			"count":192,
			"type":"VEC4"
		},
		{
			"bufferView":11,
			"componentType":5126,
			"count":192,
			"type":"VEC4"
		},
		{
			"bufferView":12,
			"componentType":5126,
			"count":24,
			"max":[
				0.7900000214576721,
				0.94212406873703,
				0.44477206468582153
			],
			"min":[
				-0.7900000214576721,
				-0.6378750801086426,
				-0.4522380530834198
			],
			"type":"VEC3"
		},
		{
			"bufferView":13,
			"componentType":5126,
			"count":24,
			"type":"VEC3"
		},
		{
			"bufferView":14,
			"componentType":5126,
			"count":24,
			"type":"VEC2"
		},
		{
			"bufferView":15,
			"componentType":5121,
			"count":24,
			"type":"VEC4"
		},
		{
			"bufferView":16,
			"componentType":5126,
			"count":24,
			"type":"VEC4"
		},
		{
			"bufferView":17,
			"componentType":5123,
			"count":36,
			"type":"SCALAR"
		},
		{
			"bufferView":18,
			"componentType":5126,
			"count":24,
			"max":[
				0.5547800064086914,
				-0.8965149521827698,
				0.5112140774726868
			],
			"min":[
				0.17638500034809113,
				-1.0115100145339966,
				-0.3436339497566223
			],
			"type":"VEC3"
		},
		{
			"bufferView":19,
			"componentType":5126,
			"count":24,
			"type":"VEC3"
		},
		{
			"bufferView":20,
			"componentType":5126,
			"count":24,
			"type":"VEC2"
		},
		{
			"bufferView":21,
			"componentType":5121,
			"count":24,
			"type":"VEC4"
		},
		{
			"bufferView":22,
			"componentType":5126,
			"count":24,
			"type":"VEC4"
		},
		{
			"bufferView":23,
			"componentType":5126,
			"count":24,
			"max":[
				-0.17638500034809113,
				-0.8965149521827698,
				0.5112140774726868
			],
			"min":[
				-0.5547800064086914,
				-1.0115100145339966,
				-0.3436339497566223
			],
			"type":"VEC3"
		},
		{
			"bufferView":24,
			"componentType":5126,
			"count":24,
			"type":"VEC3"
		},
		{
			"bufferView":25,
			"componentType":5126,
			"count":24,
			"type":"VEC2"
		},
		{
			"bufferView":26,
			"componentType":5121,
			"count":24,
			"type":"VEC4"
		},
		{
			"bufferView":27,
			"componentType":5126,
			"count":24,
			"type":"VEC4"
		}
	],
	"bufferViews":[
		{
			"buffer":0,
			"byteLength":2304,
			"byteOffset":0,
			"target":34962
		},
		{
			"buffer":0,
			"byteLength":2304,
			"byteOffset":2304,
			"target":34962
		},
		{
			"buffer":0,
			"byteLength":1536,
			"byteOffset":4608,
			"target":34962
		},
		{
			"buffer":0,
			"byteLength":768,
			"byteOffset":6144,
			"target":34962
		},
		{
			"buffer":0,
			"byteLength":3072,
			"byteOffset":6912,
			"target":34962
		},
		{
			"buffer":0,
			"byteLength":744,
			"byteOffset":9984,
			"target":34963
		},
		{
			"buffer":0,
			"byteLength":320,
			"byteOffset":10728
		},
		{
			"buffer":0,
			"byteLength":2304,
			"byteOffset":11048,
			"target":34962
		},
		{
			"buffer":0,
			"byteLength":2304,
			"byteOffset":13352,
			"target":34962
		},
		{
			"buffer":0,
			"byteLength":1536,
			"byteOffset":15656,
			"target":34962
		},
		{
			"buffer":0,
			"byteLength":768,
			"byteOffset":17192,
			"target":34962
		},
		{
			"buffer":0,
			"byteLength":3072,
			"byteOffset":17960,
			"target":34962
		},
		{
			"buffer":0,
			"byteLength":288,
			"byteOffset":21032,
			"target":34962
		},
		{
			"buffer":0,
			"byteLength":288,
			"byteOffset":21320,
			"target":34962
		},
		{
			"buffer":0,
			"byteLength":192,
			"byteOffset":21608,
			"target":34962
		},
		{
			"buffer":0,
			"byteLength":96,
			"byteOffset":21800,
			"target":34962
		},
		{
			"buffer":0,
			"byteLength":384,
			"byteOffset":21896,
			"target":34962
		},
		{
			"buffer":0,
			"byteLength":72,
			"byteOffset":22280,
			"target":34963
		},
		{
			"buffer":0,
			"byteLength":288,
			"byteOffset":22352,
			"target":34962
		},
		{
			"buffer":0,
			"byteLength":288,
			"byteOffset":22640,
			"target":34962
		},
		{
			"buffer":0,
			"byteLength":192,
			"byteOffset":22928,
			"target":34962
		},
		{
			"buffer":0,
			"byteLength":96,
			"byteOffset":23120,
			"target":34962
		},
		{
			"buffer":0,
			"byteLength":384,
			"byteOffset":23216,
			"target":34962
		},
		{
			"buffer":0,
			"byteLength":288,
			"byteOffset":23600,
			"target":34962
		},
		{
			"buffer":0,
			"byteLength":288,
			"byteOffset":23888,
			"target":34962
		},
		{
			"buffer":0,
			"byteLength":192,
			"byteOffset":24176,
			"target":34962
		},
		{
			"buffer":0,
			"byteLength":96,
			"byteOffset":24368,
			"target":34962
		},
		{
			"buffer":0,
			"byteLength":384,
			"byteOffset":24464,
			"target":34962
		}
	],
	"samplers":[
		{
			"magFilter":9729,
			"minFilter":9987
		}
	],
	"buffers":[
		{
			"byteLength":24848,
			"uri":"wallEnemy.bin"
		}
	]
}
