# Blender 4.4.1
# www.blender.org
mtllib boss.mtl
o 円柱.002
v 0.003494 1.004380 -0.613689
v 0.003494 1.204262 -0.613689
v 0.133807 1.004380 -0.601897
v 0.133807 1.127789 -0.601897
v 0.259112 1.004380 -0.566975
v 0.259112 1.204262 -0.566975
v 0.374594 1.004380 -0.510264
v 0.477231 1.547001 -0.573732
v 0.475815 1.004380 -0.433944
v 0.475815 1.204262 -0.433944
v 0.558885 1.004380 -0.340947
v 0.558885 1.127789 -0.340947
v 0.620611 1.004380 -0.234849
v 0.620611 1.204262 -0.234849
v 0.658622 1.004380 -0.119725
v 0.839813 1.547001 -0.134616
v 0.671457 1.004380 0.000000
v 0.671457 1.204262 0.000000
v 0.658622 1.004380 0.119725
v 0.658622 1.127789 0.119725
v 0.620611 1.004380 0.234849
v 0.620611 1.204262 0.234849
v 0.558885 1.004380 0.340947
v 0.712491 1.547001 0.383355
v 0.475815 1.004380 0.433944
v 0.475815 1.204262 0.433944
v 0.374594 1.004380 0.510264
v 0.374594 1.127789 0.510264
v 0.259112 1.004380 0.566975
v 0.259112 1.204262 0.566975
v 0.133807 1.004380 0.601897
v 0.169848 1.547001 0.676763
v 0.003494 1.004380 0.613689
v 0.003494 1.204262 0.613689
v -0.126819 1.004380 0.601897
v -0.126819 1.127789 0.601897
v -0.252124 1.004380 0.566975
v -0.252124 1.204262 0.566975
v -0.367606 1.004380 0.510264
v -0.470242 1.547001 0.573732
v -0.468826 1.004380 0.433944
v -0.468826 1.204262 0.433944
v -0.551896 1.004380 0.340947
v -0.551896 1.127789 0.340947
v -0.613622 1.004380 0.234849
v -0.613622 1.204262 0.234849
v -0.651633 1.004380 0.119725
v -0.832825 1.547001 0.134616
v -0.664468 1.004380 0.000000
v -0.664468 1.204262 0.000000
v -0.651633 1.004380 -0.119725
v -0.651633 1.127789 -0.119725
v -0.613622 1.004380 -0.234849
v -0.613622 1.204262 -0.234849
v -0.551896 1.004380 -0.340947
v -0.705503 1.547001 -0.383355
v -0.468826 1.004380 -0.433944
v -0.468826 1.204262 -0.433944
v -0.367606 1.004380 -0.510264
v -0.367606 1.127789 -0.510264
v -0.252124 1.004380 -0.566975
v -0.252124 1.204262 -0.566975
v -0.126819 1.004380 -0.601897
v -0.162860 1.547001 -0.676763
v -1.000000 -1.000000 1.000000
v -1.000000 1.000000 1.000000
v -1.000000 -1.000000 -1.000000
v -1.000000 1.000000 -1.000000
v 1.000000 -1.000000 1.000000
v 1.000000 1.000000 1.000000
v 1.000000 -1.000000 -1.000000
v 1.000000 1.000000 -1.000000
vn 0.0901 -0.0000 -0.9959
vn 0.2685 -0.0000 -0.9633
vn 0.2650 -0.1184 -0.9570
vn 0.7755 -0.1594 -0.6110
vn 0.7458 -0.0000 -0.6662
vn 0.8644 -0.0000 -0.5029
vn 0.7721 -0.2005 -0.6031
vn 0.9361 -0.2230 0.2719
vn 0.9943 -0.0000 0.1066
vn 0.9496 -0.0000 0.3135
vn 0.9636 -0.2089 0.1671
vn 0.5413 -0.1591 0.8256
vn 0.6020 -0.0000 0.7985
vn 0.4408 -0.0000 0.8976
vn 0.4274 -0.1112 0.8972
vn -0.0593 -0.0973 0.9935
vn -0.0901 -0.0000 0.9959
vn -0.2685 -0.0000 0.9633
vn -0.2650 -0.1184 0.9570
vn -0.7755 -0.1594 0.6110
vn -0.7458 -0.0000 0.6662
vn -0.8644 -0.0000 0.5029
vn -0.7721 -0.2005 0.6031
vn -0.9361 -0.2230 -0.2719
vn -0.9943 -0.0000 -0.1066
vn -0.9496 -0.0000 -0.3135
vn -0.9636 -0.2089 -0.1671
vn -0.5413 -0.1591 -0.8256
vn -0.6020 -0.0000 -0.7985
vn -0.4408 -0.0000 -0.8976
vn -0.4274 -0.1112 -0.8972
vn 0.0593 -0.0973 -0.9935
vn -0.0000 -1.0000 -0.0000
vn -1.0000 -0.0000 -0.0000
vn -0.0000 -0.0000 -1.0000
vn 1.0000 -0.0000 -0.0000
vn -0.0000 -0.0000 1.0000
vn -0.0000 1.0000 -0.0000
vt 0.260295 0.975974
vt 0.218906 0.999588
vt 0.219364 0.963601
vt 0.244918 0.949022
vt 0.188152 0.945683
vt 0.229541 0.922069
vt 0.091451 0.945468
vt 0.214164 0.895117
vt 0.158043 0.885953
vt 0.201643 0.866725
vt 0.162203 0.850205
vt 0.189122 0.838333
vt 0.133000 0.829170
vt 0.176600 0.809941
vt 0.033219 0.819864
vt 0.164079 0.781549
vt 0.110949 0.761283
vt 0.157525 0.751219
vt 0.122215 0.727103
vt 0.150971 0.720889
vt 0.097841 0.700623
vt 0.144418 0.690558
vt 0.005894 0.687844
vt 0.137864 0.660228
vt 0.088639 0.631759
vt 0.136224 0.629241
vt 0.105205 0.599809
vt 0.134584 0.598254
vt 0.085359 0.569785
vt 0.132944 0.567267
vt 0.000412 0.543146
vt 0.131304 0.536280
vt 0.084113 0.504555
vt 0.131759 0.505253
vt 0.102797 0.473795
vt 0.132214 0.474226
vt 0.085023 0.442501
vt 0.132669 0.443199
vt 0.001851 0.393170
vt 0.133124 0.412172
vt 0.089448 0.375758
vt 0.136770 0.381357
vt 0.111199 0.347085
vt 0.140416 0.350542
vt 0.096741 0.314127
vt 0.144062 0.319726
vt 0.015536 0.255401
vt 0.147708 0.288911
vt 0.112251 0.244455
vt 0.157478 0.259459
vt 0.139325 0.220743
vt 0.167249 0.230007
vt 0.131792 0.185551
vt 0.177019 0.200555
vt 0.059099 0.127815
vt 0.186790 0.171103
vt 0.158865 0.121568
vt 0.201126 0.143583
vt 0.189370 0.102470
vt 0.215462 0.116063
vt 0.187537 0.066527
vt 0.229798 0.088543
vt 0.127918 0.000412
vt 0.244135 0.061023
vt 0.219616 0.009716
vt 0.260295 0.034533
vt 0.372699 0.309415
vt 0.344030 0.297540
vt 0.318230 0.280300
vt 0.296288 0.258359
vt 0.279048 0.232558
vt 0.267174 0.203890
vt 0.261120 0.173456
vt 0.261120 0.142425
vt 0.267174 0.111991
vt 0.279048 0.083323
vt 0.296288 0.057522
vt 0.318230 0.035580
vt 0.344030 0.018341
vt 0.372699 0.006466
vt 0.403133 0.000412
vt 0.434163 0.000412
vt 0.464597 0.006466
vt 0.493265 0.018341
vt 0.519066 0.035580
vt 0.541008 0.057522
vt 0.558247 0.083323
vt 0.570122 0.111991
vt 0.576176 0.142425
vt 0.576176 0.173456
vt 0.570122 0.203890
vt 0.558248 0.232558
vt 0.541008 0.258359
vt 0.519066 0.280300
vt 0.493266 0.297540
vt 0.464597 0.309415
vt 0.434163 0.315468
vt 0.403133 0.315468
vt 0.250216 0.000433
vt 0.500000 0.000433
vt 0.500000 0.250216
vt 0.250216 0.250216
vt 0.500000 0.500000
vt 0.250216 0.500000
vt 0.500000 0.749784
vt 0.250216 0.749784
vt 0.500000 0.999567
vt 0.250216 0.999567
vt 0.000433 0.500000
vt 0.000433 0.749784
vt 0.749784 0.500000
vt 0.749784 0.749784
s 0
usemtl マテリアル
f 1/1/1 2/2/1 4/3/1 3/4/1
f 3/4/2 4/3/2 6/5/2 5/6/2
f 5/6/3 6/5/3 8/7/3 7/8/3
f 7/8/4 8/7/4 10/9/4 9/10/4
f 9/10/5 10/9/5 12/11/5 11/12/5
f 11/12/6 12/11/6 14/13/6 13/14/6
f 13/14/7 14/13/7 16/15/7 15/16/7
f 15/16/8 16/15/8 18/17/8 17/18/8
f 17/18/9 18/17/9 20/19/9 19/20/9
f 19/20/10 20/19/10 22/21/10 21/22/10
f 21/22/11 22/21/11 24/23/11 23/24/11
f 23/24/12 24/23/12 26/25/12 25/26/12
f 25/26/13 26/25/13 28/27/13 27/28/13
f 27/28/14 28/27/14 30/29/14 29/30/14
f 29/30/15 30/29/15 32/31/15 31/32/15
f 31/32/16 32/31/16 34/33/16 33/34/16
f 33/34/17 34/33/17 36/35/17 35/36/17
f 35/36/18 36/35/18 38/37/18 37/38/18
f 37/38/19 38/37/19 40/39/19 39/40/19
f 39/40/20 40/39/20 42/41/20 41/42/20
f 41/42/21 42/41/21 44/43/21 43/44/21
f 43/44/22 44/43/22 46/45/22 45/46/22
f 45/46/23 46/45/23 48/47/23 47/48/23
f 47/48/24 48/47/24 50/49/24 49/50/24
f 49/50/25 50/49/25 52/51/25 51/52/25
f 51/52/26 52/51/26 54/53/26 53/54/26
f 53/54/27 54/53/27 56/55/27 55/56/27
f 55/56/28 56/55/28 58/57/28 57/58/28
f 57/58/29 58/57/29 60/59/29 59/60/29
f 59/60/30 60/59/30 62/61/30 61/62/30
f 61/62/31 62/61/31 64/63/31 63/64/31
f 63/64/32 64/63/32 2/65/32 1/66/32
f 1/67/33 3/68/33 5/69/33 7/70/33 9/71/33 11/72/33 13/73/33 15/74/33 17/75/33 19/76/33 21/77/33 23/78/33 25/79/33 27/80/33 29/81/33 31/82/33 33/83/33 35/84/33 37/85/33 39/86/33 41/87/33 43/88/33 45/89/33 47/90/33 49/91/33 51/92/33 53/93/33 55/94/33 57/95/33 59/96/33 61/97/33 63/98/33
usemtl マテリアル.003
f 65/99/34 66/100/34 68/101/34 67/102/34
f 67/102/35 68/101/35 72/103/35 71/104/35
f 71/104/36 72/103/36 70/105/36 69/106/36
f 69/106/37 70/105/37 66/107/37 65/108/37
f 67/109/33 71/104/33 69/106/33 65/110/33
f 72/103/38 68/111/38 66/112/38 70/105/38
