# Blender 4.4.1
# www.blender.org
mtllib ransu.mtl
o 円柱
v -0.030018 0.159452 -0.066754
v -0.030018 0.201669 -0.066754
v -0.007803 0.159452 -0.065537
v -0.007803 0.201669 -0.065537
v 0.013558 0.159452 -0.061933
v 0.013558 0.201669 -0.061933
v 0.033245 0.159452 -0.056081
v 0.033245 0.201669 -0.056081
v 0.050500 0.159452 -0.048205
v 0.050500 0.201669 -0.048205
v 0.064661 0.159452 -0.038609
v 0.064661 0.201669 -0.038609
v 0.075184 0.159452 -0.027660
v 0.075184 0.201669 -0.027660
v 0.081664 0.159452 -0.015781
v 0.081664 0.201669 -0.015781
v 0.083852 0.159452 -0.003426
v 0.083852 0.201669 -0.003426
v 0.081664 0.159452 0.008929
v 0.081664 0.201669 0.008929
v 0.075184 0.159452 0.020808
v 0.075184 0.201669 0.020808
v 0.064661 0.159452 0.031757
v 0.064661 0.201669 0.031757
v 0.050500 0.159452 0.041353
v 0.050500 0.201669 0.041353
v 0.033245 0.159452 0.049229
v 0.033245 0.201669 0.049229
v 0.013558 0.159452 0.055081
v 0.013558 0.201669 0.055081
v -0.007803 0.159452 0.058685
v -0.007803 0.201669 0.058685
v -0.030018 0.159452 0.059901
v -0.030018 0.201669 0.059901
v -0.052233 0.159452 0.058685
v -0.052233 0.201669 0.058685
v -0.073594 0.159452 0.055081
v -0.073594 0.201669 0.055081
v -0.093281 0.159452 0.049229
v -0.093281 0.201669 0.049229
v -0.110536 0.159452 0.041353
v -0.110536 0.201669 0.041353
v -0.124697 0.159452 0.031757
v -0.124697 0.201669 0.031757
v -0.135220 0.159452 0.020808
v -0.135220 0.201669 0.020808
v -0.141700 0.159452 0.008929
v -0.141700 0.201669 0.008929
v -0.143888 0.159452 -0.003426
v -0.143888 0.201669 -0.003426
v -0.141700 0.159452 -0.015781
v -0.141700 0.201669 -0.015781
v -0.135220 0.159452 -0.027660
v -0.135220 0.201669 -0.027660
v -0.124697 0.159452 -0.038609
v -0.124697 0.201669 -0.038609
v -0.110536 0.159452 -0.048205
v -0.110536 0.201669 -0.048205
v -0.093281 0.159452 -0.056081
v -0.093281 0.201669 -0.056081
v -0.073594 0.159452 -0.061933
v -0.073594 0.201669 -0.061933
v -0.052233 0.159452 -0.065537
v -0.052233 0.201669 -0.065537
v -0.030018 -0.994377 -0.003426
v -0.030018 -0.889180 -0.045644
v -0.015208 -0.889180 -0.044833
v -0.000967 -0.889180 -0.042431
v 0.012157 -0.889180 -0.038529
v 0.023661 -0.889180 -0.033279
v 0.033102 -0.889180 -0.026881
v 0.040117 -0.889180 -0.019582
v 0.044437 -0.889180 -0.011662
v 0.045895 -0.889180 -0.003426
v 0.044437 -0.889180 0.004810
v 0.040117 -0.889180 0.012730
v 0.033102 -0.889180 0.020029
v 0.023661 -0.889180 0.026427
v 0.012157 -0.889180 0.031677
v -0.000967 -0.889180 0.035579
v -0.015208 -0.889180 0.037981
v -0.030018 -0.889180 0.038792
v -0.044828 -0.889180 0.037981
v -0.059069 -0.889180 0.035579
v -0.072193 -0.889180 0.031677
v -0.083697 -0.889180 0.026427
v -0.093137 -0.889180 0.020029
v -0.100153 -0.889180 0.012730
v -0.104472 -0.889180 0.004810
v -0.105931 -0.889180 -0.003426
v -0.104472 -0.889180 -0.011662
v -0.100153 -0.889180 -0.019582
v -0.093137 -0.889180 -0.026881
v -0.083697 -0.889180 -0.033279
v -0.072193 -0.889180 -0.038529
v -0.059069 -0.889180 -0.042431
v -0.044828 -0.889180 -0.044833
v -0.030018 -0.890569 -0.045644
v -0.030018 0.704272 -0.045644
v -0.015208 -0.890569 -0.044833
v -0.015208 0.704272 -0.044833
v -0.000967 -0.890569 -0.042431
v -0.000967 0.704272 -0.042431
v 0.012157 -0.890569 -0.038529
v 0.012157 0.704272 -0.038529
v 0.023661 -0.890569 -0.033279
v 0.023661 0.704272 -0.033279
v 0.033102 -0.890569 -0.026881
v 0.033102 0.704272 -0.026881
v 0.040117 -0.890569 -0.019582
v 0.040117 0.704272 -0.019582
v 0.044437 -0.890569 -0.011662
v 0.044437 0.704272 -0.011662
v 0.045895 -0.890569 -0.003426
v 0.045895 0.704272 -0.003426
v 0.044437 -0.890569 0.004810
v 0.044437 0.704272 0.004810
v 0.040117 -0.890569 0.012730
v 0.040117 0.704272 0.012730
v 0.033102 -0.890569 0.020029
v 0.033102 0.704272 0.020029
v 0.023661 -0.890569 0.026427
v 0.023661 0.704272 0.026427
v 0.012157 -0.890569 0.031677
v 0.012157 0.704272 0.031677
v -0.000967 -0.890569 0.035579
v -0.000967 0.704272 0.035579
v -0.015208 -0.890569 0.037981
v -0.015208 0.704272 0.037981
v -0.030018 -0.890569 0.038792
v -0.030018 0.704272 0.038792
v -0.044828 -0.890569 0.037981
v -0.044828 0.704272 0.037981
v -0.059069 -0.890569 0.035579
v -0.059069 0.704272 0.035579
v -0.072193 -0.890569 0.031677
v -0.072193 0.704272 0.031677
v -0.083697 -0.890569 0.026427
v -0.083697 0.704272 0.026427
v -0.093137 -0.890569 0.020029
v -0.093137 0.704272 0.020029
v -0.100153 -0.890569 0.012730
v -0.100153 0.704272 0.012730
v -0.104472 -0.890569 0.004810
v -0.104472 0.704272 0.004810
v -0.105931 -0.890569 -0.003426
v -0.105931 0.704272 -0.003426
v -0.104472 -0.890569 -0.011662
v -0.104472 0.704272 -0.011662
v -0.100153 -0.890569 -0.019582
v -0.100153 0.704272 -0.019582
v -0.093137 -0.890569 -0.026881
v -0.093137 0.704272 -0.026881
v -0.083697 -0.890569 -0.033279
v -0.083697 0.704272 -0.033279
v -0.072193 -0.890569 -0.038529
v -0.072193 0.704272 -0.038529
v -0.059069 -0.890569 -0.042431
v -0.059069 0.704272 -0.042431
v -0.044828 -0.890569 -0.044833
v -0.044828 0.704272 -0.044833
v -0.030018 0.581626 -0.066754
v -0.030018 0.623844 -0.066754
v -0.007803 0.581626 -0.065537
v -0.007803 0.623844 -0.065537
v 0.013558 0.581626 -0.061933
v 0.013558 0.623844 -0.061933
v 0.033245 0.581626 -0.056081
v 0.033245 0.623844 -0.056081
v 0.050500 0.581626 -0.048205
v 0.050500 0.623844 -0.048205
v 0.064661 0.581626 -0.038609
v 0.064661 0.623844 -0.038609
v 0.075184 0.581626 -0.027660
v 0.075184 0.623844 -0.027660
v 0.081664 0.581626 -0.015781
v 0.081664 0.623844 -0.015781
v 0.083852 0.581626 -0.003426
v 0.083852 0.623844 -0.003426
v 0.081664 0.581626 0.008929
v 0.081664 0.623844 0.008929
v 0.075184 0.581626 0.020808
v 0.075184 0.623844 0.020808
v 0.064661 0.581626 0.031757
v 0.064661 0.623844 0.031757
v 0.050500 0.581626 0.041353
v 0.050500 0.623844 0.041353
v 0.033245 0.581626 0.049229
v 0.033245 0.623844 0.049229
v 0.013558 0.581626 0.055081
v 0.013558 0.623844 0.055081
v -0.007803 0.581626 0.058685
v -0.007803 0.623844 0.058685
v -0.030018 0.581626 0.059901
v -0.030018 0.623844 0.059901
v -0.052233 0.581626 0.058685
v -0.052233 0.623844 0.058685
v -0.073594 0.581626 0.055081
v -0.073594 0.623844 0.055081
v -0.093281 0.581626 0.049229
v -0.093281 0.623844 0.049229
v -0.110536 0.581626 0.041353
v -0.110536 0.623844 0.041353
v -0.124697 0.581626 0.031757
v -0.124697 0.623844 0.031757
v -0.135220 0.581626 0.020808
v -0.135220 0.623844 0.020808
v -0.141700 0.581626 0.008929
v -0.141700 0.623844 0.008929
v -0.143888 0.581626 -0.003426
v -0.143888 0.623844 -0.003426
v -0.141700 0.581626 -0.015781
v -0.141700 0.623844 -0.015781
v -0.135220 0.581626 -0.027660
v -0.135220 0.623844 -0.027660
v -0.124697 0.581626 -0.038609
v -0.124697 0.623844 -0.038609
v -0.110536 0.581626 -0.048205
v -0.110536 0.623844 -0.048205
v -0.093281 0.581626 -0.056081
v -0.093281 0.623844 -0.056081
v -0.073594 0.581626 -0.061933
v -0.073594 0.623844 -0.061933
v -0.052233 0.581626 -0.065537
v -0.052233 0.623844 -0.065537
v -0.030018 0.687170 -0.150740
v 0.042609 0.687170 -0.100938
v 0.065845 0.687170 -0.084203
v 0.109706 0.687170 -0.081290
v 0.117715 0.687170 -0.059641
v 0.145319 0.687170 -0.043817
v 0.243763 0.687170 -0.003426
v 0.145319 0.687170 0.036965
v 0.119060 0.687170 0.047456
v 0.104179 0.687170 0.071206
v 0.065634 0.687170 0.077931
v 0.042609 0.687170 0.094086
v -0.030018 0.687170 0.134488
v -0.102645 0.687170 0.094086
v -0.132112 0.687170 0.080659
v -0.174423 0.687170 0.071975
v -0.175173 0.687170 0.051748
v -0.205354 0.687170 0.036965
v -0.263702 0.687170 -0.003426
v -0.205354 0.687170 -0.043817
v -0.181264 0.687170 -0.061102
v -0.172224 0.687170 -0.082408
v -0.130969 0.687170 -0.088230
v -0.102645 0.687170 -0.100938
v -0.030018 1.362649 -0.003426
vn -0.0000 -0.0000 -1.0000
vn 0.1100 -0.0000 -0.9939
vn 0.2245 -0.0000 -0.9745
vn 0.3483 -0.0000 -0.9374
vn 0.4860 -0.0000 -0.8739
vn 0.6397 -0.0000 -0.7686
vn 0.8020 -0.0000 -0.5973
vn 0.9416 -0.0000 -0.3368
vn 1.0000 -0.0000 -0.0000
vn 0.9416 -0.0000 0.3368
vn 0.8020 -0.0000 0.5973
vn 0.6397 -0.0000 0.7686
vn 0.4860 -0.0000 0.8739
vn 0.3483 -0.0000 0.9374
vn 0.2245 -0.0000 0.9745
vn 0.1100 -0.0000 0.9939
vn -0.0000 -0.0000 1.0000
vn -0.1100 -0.0000 0.9939
vn -0.2245 -0.0000 0.9745
vn -0.3483 -0.0000 0.9374
vn -0.4860 -0.0000 0.8739
vn -0.6397 -0.0000 0.7686
vn -0.8020 -0.0000 0.5973
vn -0.9416 -0.0000 0.3368
vn -1.0000 -0.0000 -0.0000
vn -0.9416 -0.0000 -0.3368
vn -0.8020 -0.0000 -0.5973
vn -0.6397 -0.0000 -0.7686
vn -0.4860 -0.0000 -0.8739
vn -0.3483 -0.0000 -0.9374
vn -0.2245 -0.0000 -0.9745
vn -0.0000 1.0000 -0.0000
vn -0.1100 -0.0000 -0.9939
vn -0.0000 -1.0000 -0.0000
vn -0.0000 -0.3725 -0.9281
vn 0.1019 -0.3767 -0.9207
vn 0.2067 -0.3898 -0.8974
vn 0.3174 -0.4122 -0.8540
vn 0.4354 -0.4444 -0.7829
vn 0.5593 -0.4854 -0.6720
vn 0.6797 -0.5309 -0.5062
vn 0.7740 -0.5695 -0.2768
vn 0.8109 -0.5852 -0.0000
vn 0.7740 -0.5695 0.2768
vn 0.6797 -0.5309 0.5062
vn 0.5593 -0.4854 0.6720
vn 0.4354 -0.4444 0.7829
vn 0.3174 -0.4122 0.8540
vn 0.2067 -0.3898 0.8974
vn 0.1019 -0.3767 0.9207
vn -0.0000 -0.3725 0.9281
vn -0.1019 -0.3767 0.9207
vn -0.2067 -0.3898 0.8974
vn -0.3174 -0.4122 0.8540
vn -0.4354 -0.4444 0.7829
vn -0.5593 -0.4854 0.6720
vn -0.6797 -0.5309 0.5062
vn -0.7740 -0.5695 0.2768
vn -0.8109 -0.5852 -0.0000
vn -0.7740 -0.5695 -0.2768
vn -0.6797 -0.5309 -0.5062
vn -0.5593 -0.4854 -0.6720
vn -0.4354 -0.4444 -0.7829
vn -0.3174 -0.4122 -0.8540
vn -0.2067 -0.3898 -0.8974
vn -0.1019 -0.3767 -0.9207
vn 0.5566 0.1770 -0.8117
vn 0.5612 0.1771 -0.8085
vn 0.5657 0.1771 -0.8054
vn 0.5752 0.1771 -0.7986
vn 0.0657 0.1277 -0.9896
vn 0.9132 0.2278 -0.3379
vn 0.4894 0.1781 -0.8537
vn 0.4022 0.1583 -0.9018
vn 0.4302 0.1647 -0.8876
vn 0.3752 0.1521 -0.9144
vn 0.3752 0.1521 0.9144
vn 0.3734 0.1517 0.9152
vn 0.3711 0.1511 0.9162
vn 0.3668 0.1501 0.9181
vn 0.8264 0.2214 0.5178
vn 0.1702 0.1416 0.9752
vn 0.5653 0.1771 0.8057
vn 0.5010 0.1762 0.8473
vn 0.5206 0.1766 0.8353
vn 0.4786 0.1756 0.8603
vn -0.4786 0.1756 0.8603
vn -0.3915 0.1698 0.9044
vn -0.4433 0.1746 0.8792
vn -0.2991 0.1623 0.9403
vn -0.1988 0.1506 0.9684
vn -0.9764 0.2128 0.0362
vn -0.4338 0.1656 0.8857
vn -0.5198 0.1848 0.8341
vn -0.4955 0.1794 0.8498
vn -0.5584 0.1932 0.8067
vn -0.5584 0.1932 -0.8067
vn -0.6395 0.2060 -0.7406
vn -0.5650 0.1946 -0.8018
vn -0.7409 0.2201 -0.6345
vn -0.8952 0.2329 -0.3799
vn -0.1383 0.1437 -0.9799
vn -0.4267 0.1708 -0.8881
vn -0.2640 0.1589 -0.9513
vn -0.4785 0.1756 -0.8603
vn -0.5566 0.1770 -0.8117
vt 1.000000 0.500000
vt 1.000000 1.000000
vt 0.968750 1.000000
vt 0.968750 0.500000
vt 0.937500 1.000000
vt 0.937500 0.500000
vt 0.906250 1.000000
vt 0.906250 0.500000
vt 0.875000 1.000000
vt 0.875000 0.500000
vt 0.843750 1.000000
vt 0.843750 0.500000
vt 0.812500 1.000000
vt 0.812500 0.500000
vt 0.781250 1.000000
vt 0.781250 0.500000
vt 0.750000 1.000000
vt 0.750000 0.500000
vt 0.718750 1.000000
vt 0.718750 0.500000
vt 0.687500 1.000000
vt 0.687500 0.500000
vt 0.656250 1.000000
vt 0.656250 0.500000
vt 0.625000 1.000000
vt 0.625000 0.500000
vt 0.593750 1.000000
vt 0.593750 0.500000
vt 0.562500 1.000000
vt 0.562500 0.500000
vt 0.531250 1.000000
vt 0.531250 0.500000
vt 0.500000 1.000000
vt 0.500000 0.500000
vt 0.468750 1.000000
vt 0.468750 0.500000
vt 0.437500 1.000000
vt 0.437500 0.500000
vt 0.406250 1.000000
vt 0.406250 0.500000
vt 0.375000 1.000000
vt 0.375000 0.500000
vt 0.343750 1.000000
vt 0.343750 0.500000
vt 0.312500 1.000000
vt 0.312500 0.500000
vt 0.281250 1.000000
vt 0.281250 0.500000
vt 0.250000 1.000000
vt 0.250000 0.500000
vt 0.218750 1.000000
vt 0.218750 0.500000
vt 0.187500 1.000000
vt 0.187500 0.500000
vt 0.156250 1.000000
vt 0.156250 0.500000
vt 0.125000 1.000000
vt 0.125000 0.500000
vt 0.093750 1.000000
vt 0.093750 0.500000
vt 0.062500 1.000000
vt 0.062500 0.500000
vt 0.296822 0.485388
vt 0.250000 0.490000
vt 0.203178 0.485388
vt 0.158156 0.471731
vt 0.116663 0.449553
vt 0.080294 0.419706
vt 0.050447 0.383337
vt 0.028269 0.341844
vt 0.014612 0.296822
vt 0.010000 0.250000
vt 0.014612 0.203178
vt 0.028269 0.158156
vt 0.050447 0.116663
vt 0.080294 0.080294
vt 0.116663 0.050447
vt 0.158156 0.028269
vt 0.203178 0.014612
vt 0.250000 0.010000
vt 0.296822 0.014612
vt 0.341844 0.028269
vt 0.383337 0.050447
vt 0.419706 0.080294
vt 0.449553 0.116663
vt 0.471731 0.158156
vt 0.485388 0.203178
vt 0.490000 0.250000
vt 0.485388 0.296822
vt 0.471731 0.341844
vt 0.449553 0.383337
vt 0.419706 0.419706
vt 0.383337 0.449553
vt 0.341844 0.471731
vt 0.031250 1.000000
vt 0.031250 0.500000
vt 0.000000 1.000000
vt 0.000000 0.500000
vt 0.750000 0.490000
vt 0.796822 0.485388
vt 0.841844 0.471731
vt 0.883337 0.449553
vt 0.919706 0.419706
vt 0.949553 0.383337
vt 0.971731 0.341844
vt 0.985388 0.296822
vt 0.990000 0.250000
vt 0.985388 0.203178
vt 0.971731 0.158156
vt 0.949553 0.116663
vt 0.919706 0.080294
vt 0.883337 0.050447
vt 0.841844 0.028269
vt 0.796822 0.014612
vt 0.750000 0.010000
vt 0.703178 0.014612
vt 0.658156 0.028269
vt 0.616663 0.050447
vt 0.580294 0.080294
vt 0.550447 0.116663
vt 0.528269 0.158156
vt 0.514612 0.203178
vt 0.510000 0.250000
vt 0.514612 0.296822
vt 0.528269 0.341844
vt 0.550447 0.383337
vt 0.580294 0.419706
vt 0.616663 0.449553
vt 0.658156 0.471731
vt 0.703178 0.485388
vt 0.250000 0.250000
s 1
usemtl マテリアル
f 1/1/1 2/2/1 4/3/2 3/4/2
f 3/4/2 4/3/2 6/5/3 5/6/3
f 5/6/3 6/5/3 8/7/4 7/8/4
f 7/8/4 8/7/4 10/9/5 9/10/5
f 9/10/5 10/9/5 12/11/6 11/12/6
f 11/12/6 12/11/6 14/13/7 13/14/7
f 13/14/7 14/13/7 16/15/8 15/16/8
f 15/16/8 16/15/8 18/17/9 17/18/9
f 17/18/9 18/17/9 20/19/10 19/20/10
f 19/20/10 20/19/10 22/21/11 21/22/11
f 21/22/11 22/21/11 24/23/12 23/24/12
f 23/24/12 24/23/12 26/25/13 25/26/13
f 25/26/13 26/25/13 28/27/14 27/28/14
f 27/28/14 28/27/14 30/29/15 29/30/15
f 29/30/15 30/29/15 32/31/16 31/32/16
f 31/32/16 32/31/16 34/33/17 33/34/17
f 33/34/17 34/33/17 36/35/18 35/36/18
f 35/36/18 36/35/18 38/37/19 37/38/19
f 37/38/19 38/37/19 40/39/20 39/40/20
f 39/40/20 40/39/20 42/41/21 41/42/21
f 41/42/21 42/41/21 44/43/22 43/44/22
f 43/44/22 44/43/22 46/45/23 45/46/23
f 45/46/23 46/45/23 48/47/24 47/48/24
f 47/48/24 48/47/24 50/49/25 49/50/25
f 49/50/25 50/49/25 52/51/26 51/52/26
f 51/52/26 52/51/26 54/53/27 53/54/27
f 53/54/27 54/53/27 56/55/28 55/56/28
f 55/56/28 56/55/28 58/57/29 57/58/29
f 57/58/29 58/57/29 60/59/30 59/60/30
f 59/60/30 60/59/30 62/61/31 61/62/31
f 4/63/32 2/64/32 64/65/32 62/66/32 60/67/32 58/68/32 56/69/32 54/70/32 52/71/32 50/72/32 48/73/32 46/74/32 44/75/32 42/76/32 40/77/32 38/78/32 36/79/32 34/80/32 32/81/32 30/82/32 28/83/32 26/84/32 24/85/32 22/86/32 20/87/32 18/88/32 16/89/32 14/90/32 12/91/32 10/92/32 8/93/32 6/94/32
f 61/62/31 62/61/31 64/95/33 63/96/33
f 63/96/33 64/95/33 2/97/1 1/98/1
f 1/99/34 3/100/34 5/101/34 7/102/34 9/103/34 11/104/34 13/105/34 15/106/34 17/107/34 19/108/34 21/109/34 23/110/34 25/111/34 27/112/34 29/113/34 31/114/34 33/115/34 35/116/34 37/117/34 39/118/34 41/119/34 43/120/34 45/121/34 47/122/34 49/123/34 51/124/34 53/125/34 55/126/34 57/127/34 59/128/34 61/129/34 63/130/34
f 65/1/34 66/2/35 67/3/36
f 65/4/34 67/3/36 68/5/37
f 65/6/34 68/5/37 69/7/38
f 65/8/34 69/7/38 70/9/39
f 65/10/34 70/9/39 71/11/40
f 65/12/34 71/11/40 72/13/41
f 65/14/34 72/13/41 73/15/42
f 65/16/34 73/15/42 74/17/43
f 65/18/34 74/17/43 75/19/44
f 65/20/34 75/19/44 76/21/45
f 65/22/34 76/21/45 77/23/46
f 65/24/34 77/23/46 78/25/47
f 65/26/34 78/25/47 79/27/48
f 65/28/34 79/27/48 80/29/49
f 65/30/34 80/29/49 81/31/50
f 65/32/34 81/31/50 82/33/51
f 65/34/34 82/33/51 83/35/52
f 65/36/34 83/35/52 84/37/53
f 65/38/34 84/37/53 85/39/54
f 65/40/34 85/39/54 86/41/55
f 65/42/34 86/41/55 87/43/56
f 65/44/34 87/43/56 88/45/57
f 65/46/34 88/45/57 89/47/58
f 65/48/34 89/47/58 90/49/59
f 65/50/34 90/49/59 91/51/60
f 65/52/34 91/51/60 92/53/61
f 65/54/34 92/53/61 93/55/62
f 65/56/34 93/55/62 94/57/63
f 65/58/34 94/57/63 95/59/64
f 65/60/34 95/59/64 96/61/65
f 67/63/32 66/64/32 97/65/32 96/66/32 95/67/32 94/68/32 93/69/32 92/70/32 91/71/32 90/72/32 89/73/32 88/74/32 87/75/32 86/76/32 85/77/32 84/78/32 83/79/32 82/80/32 81/81/32 80/82/32 79/83/32 78/84/32 77/85/32 76/86/32 75/87/32 74/88/32 73/89/32 72/90/32 71/91/32 70/92/32 69/93/32 68/94/32
f 65/62/34 96/61/65 97/95/66
f 65/96/34 97/95/66 66/97/35
f 98/1/1 99/2/1 101/3/2 100/4/2
f 100/4/2 101/3/2 103/5/3 102/6/3
f 102/6/3 103/5/3 105/7/4 104/8/4
f 104/8/4 105/7/4 107/9/5 106/10/5
f 106/10/5 107/9/5 109/11/6 108/12/6
f 108/12/6 109/11/6 111/13/7 110/14/7
f 110/14/7 111/13/7 113/15/8 112/16/8
f 112/16/8 113/15/8 115/17/9 114/18/9
f 114/18/9 115/17/9 117/19/10 116/20/10
f 116/20/10 117/19/10 119/21/11 118/22/11
f 118/22/11 119/21/11 121/23/12 120/24/12
f 120/24/12 121/23/12 123/25/13 122/26/13
f 122/26/13 123/25/13 125/27/14 124/28/14
f 124/28/14 125/27/14 127/29/15 126/30/15
f 126/30/15 127/29/15 129/31/16 128/32/16
f 128/32/16 129/31/16 131/33/17 130/34/17
f 130/34/17 131/33/17 133/35/18 132/36/18
f 132/36/18 133/35/18 135/37/19 134/38/19
f 134/38/19 135/37/19 137/39/20 136/40/20
f 136/40/20 137/39/20 139/41/21 138/42/21
f 138/42/21 139/41/21 141/43/22 140/44/22
f 140/44/22 141/43/22 143/45/23 142/46/23
f 142/46/23 143/45/23 145/47/24 144/48/24
f 144/48/24 145/47/24 147/49/25 146/50/25
f 146/50/25 147/49/25 149/51/26 148/52/26
f 148/52/26 149/51/26 151/53/27 150/54/27
f 150/54/27 151/53/27 153/55/28 152/56/28
f 152/56/28 153/55/28 155/57/29 154/58/29
f 154/58/29 155/57/29 157/59/30 156/60/30
f 156/60/30 157/59/30 159/61/31 158/62/31
f 101/63/32 99/64/32 161/65/32 159/66/32 157/67/32 155/68/32 153/69/32 151/70/32 149/71/32 147/72/32 145/73/32 143/74/32 141/75/32 139/76/32 137/77/32 135/78/32 133/79/32 131/80/32 129/81/32 127/82/32 125/83/32 123/84/32 121/85/32 119/86/32 117/87/32 115/88/32 113/89/32 111/90/32 109/91/32 107/92/32 105/93/32 103/94/32
f 158/62/31 159/61/31 161/95/33 160/96/33
f 160/96/33 161/95/33 99/97/1 98/98/1
f 98/99/34 100/100/34 102/101/34 104/102/34 106/103/34 108/104/34 110/105/34 112/106/34 114/107/34 116/108/34 118/109/34 120/110/34 122/111/34 124/112/34 126/113/34 128/114/34 130/115/34 132/116/34 134/117/34 136/118/34 138/119/34 140/120/34 142/121/34 144/122/34 146/123/34 148/124/34 150/125/34 152/126/34 154/127/34 156/128/34 158/129/34 160/130/34
f 162/1/1 163/2/1 165/3/2 164/4/2
f 164/4/2 165/3/2 167/5/3 166/6/3
f 166/6/3 167/5/3 169/7/4 168/8/4
f 168/8/4 169/7/4 171/9/5 170/10/5
f 170/10/5 171/9/5 173/11/6 172/12/6
f 172/12/6 173/11/6 175/13/7 174/14/7
f 174/14/7 175/13/7 177/15/8 176/16/8
f 176/16/8 177/15/8 179/17/9 178/18/9
f 178/18/9 179/17/9 181/19/10 180/20/10
f 180/20/10 181/19/10 183/21/11 182/22/11
f 182/22/11 183/21/11 185/23/12 184/24/12
f 184/24/12 185/23/12 187/25/13 186/26/13
f 186/26/13 187/25/13 189/27/14 188/28/14
f 188/28/14 189/27/14 191/29/15 190/30/15
f 190/30/15 191/29/15 193/31/16 192/32/16
f 192/32/16 193/31/16 195/33/17 194/34/17
f 194/34/17 195/33/17 197/35/18 196/36/18
f 196/36/18 197/35/18 199/37/19 198/38/19
f 198/38/19 199/37/19 201/39/20 200/40/20
f 200/40/20 201/39/20 203/41/21 202/42/21
f 202/42/21 203/41/21 205/43/22 204/44/22
f 204/44/22 205/43/22 207/45/23 206/46/23
f 206/46/23 207/45/23 209/47/24 208/48/24
f 208/48/24 209/47/24 211/49/25 210/50/25
f 210/50/25 211/49/25 213/51/26 212/52/26
f 212/52/26 213/51/26 215/53/27 214/54/27
f 214/54/27 215/53/27 217/55/28 216/56/28
f 216/56/28 217/55/28 219/57/29 218/58/29
f 218/58/29 219/57/29 221/59/30 220/60/30
f 220/60/30 221/59/30 223/61/31 222/62/31
f 165/63/32 163/64/32 225/65/32 223/66/32 221/67/32 219/68/32 217/69/32 215/70/32 213/71/32 211/72/32 209/73/32 207/74/32 205/75/32 203/76/32 201/77/32 199/78/32 197/79/32 195/80/32 193/81/32 191/82/32 189/83/32 187/84/32 185/85/32 183/86/32 181/87/32 179/88/32 177/89/32 175/90/32 173/91/32 171/92/32 169/93/32 167/94/32
f 222/62/31 223/61/31 225/95/33 224/96/33
f 224/96/33 225/95/33 163/97/1 162/98/1
f 162/99/34 164/100/34 166/101/34 168/102/34 170/103/34 172/104/34 174/105/34 176/106/34 178/107/34 180/108/34 182/109/34 184/110/34 186/111/34 188/112/34 190/113/34 192/114/34 194/115/34 196/116/34 198/117/34 200/118/34 202/119/34 204/120/34 206/121/34 208/122/34 210/123/34 212/124/34 214/125/34 216/126/34 218/127/34 220/128/34 222/129/34 224/130/34
f 226/63/67 250/131/68 227/94/69
f 227/94/69 250/131/68 228/93/70
f 228/93/71 250/131/71 229/92/71
f 229/92/72 250/131/72 230/91/72
f 230/91/73 250/131/74 231/90/75
f 231/90/75 250/131/74 232/89/76
f 232/87/77 250/131/78 233/86/79
f 233/86/79 250/131/78 234/85/80
f 234/85/81 250/131/81 235/84/81
f 235/84/82 250/131/82 236/83/82
f 236/83/83 250/131/84 237/82/85
f 237/82/85 250/131/84 238/81/86
f 238/79/87 250/131/88 239/78/89
f 239/78/89 250/131/88 240/77/90
f 240/77/90 250/131/88 241/76/91
f 241/76/92 250/131/92 242/75/92
f 242/75/93 250/131/94 243/74/95
f 243/74/95 250/131/94 244/73/96
f 244/71/97 250/131/98 245/70/99
f 245/70/99 250/131/98 246/69/100
f 246/69/100 250/131/98 247/68/101
f 247/68/102 250/131/103 248/67/104
f 248/67/104 250/131/103 249/66/105
f 226/100/34 227/101/34 228/102/34 229/103/34 230/104/34 231/105/34 232/108/34 233/109/34 234/110/34 235/111/34 236/112/34 237/113/34 238/116/34 239/117/34 240/118/34 241/119/34 242/120/34 243/121/34 244/124/34 245/125/34 246/126/34 247/127/34 248/128/34 249/129/34
f 249/66/105 250/131/103 226/65/106
